<svg width="1440" height="1000" viewBox="0 0 1440 1000" fill="none" xmlns="http://www.w3.org/2000/svg">
<g clip-path="url(#clip0_407_2758)">
<rect width="1440" height="1000" fill="white"/>
<path d="M-866.06 37.5389C-891.678 99.8286 -952.12 151.865 -1000.74 205.321C-1048.41 257.725 -1108.82 327.045 -1068.87 397.258C-1034.5 457.664 -929.527 498.722 -842.468 518.242C-752.71 538.359 -662.042 545.625 -572.169 557.14C-530.317 562.502 -488.229 568.567 -446.534 577.85C-399.361 588.363 -357.992 604.549 -315.503 624.991C-158.785 700.445 -13.9502 792.896 125.651 883.64C233.213 953.574 338.675 1025.56 444.909 1096.77C485.538 1124.02 526.21 1151.27 568.071 1177.61C593.134 1193.36 619.578 1211.02 648.658 1222.41C656.02 1225.29 662.318 1226.42 663.696 1223.46C670.559 1208.75 646.227 1179.71 633.712 1163.77C612.583 1136.87 584.154 1111.5 555.278 1087.29C380.701 940.916 171.704 804.384 -44.8404 686.874C-112.765 650.017 -189.03 606.947 -268.007 586.73C-333.806 569.887 -401.41 562.718 -467.576 555.154C-611.222 538.734 -869.138 510.278 -895.471 382.351C-909.48 314.277 -877.046 248.482 -845.353 188.318C-815.559 131.721 -770.11 72.2609 -772.092 7.43904C-773.668 -44.1795 -809.968 -104.329 -848.577 -154.077C-893.253 -211.623 -956.8 -264.796 -1028.54 -309.42C-1048.59 -321.885 -1071.71 -335.495 -1096.12 -342.593C-1137.64 -354.67 -1109.47 -323.41 -1097.48 -311.854C-1074.02 -289.252 -1045.98 -268.541 -1022.11 -246.298C-963.066 -191.305 -910.39 -132.65 -879.198 -70.9988C-859.33 -31.693 -851.467 2.05365 -866.06 37.5389Z" fill="#E8ECF4"/>
<path d="M1332.94 -159.461C1307.32 -97.1714 1246.88 -45.1349 1198.26 8.32103C1150.59 60.7253 1090.18 130.045 1130.13 200.258C1164.5 260.664 1269.47 301.722 1356.53 321.242C1446.29 341.359 1536.96 348.625 1626.83 360.14C1668.68 365.502 1710.77 371.567 1752.47 380.85C1799.64 391.363 1841.01 407.549 1883.5 427.991C2040.21 503.445 2185.05 595.896 2324.65 686.64C2432.21 756.574 2537.67 828.563 2643.91 899.77C2684.54 927.016 2725.21 954.273 2767.07 980.607C2792.13 996.357 2818.58 1014.02 2847.66 1025.41C2855.02 1028.29 2861.32 1029.42 2862.7 1026.46C2869.56 1011.75 2845.23 982.706 2832.71 966.771C2811.58 939.865 2783.15 914.498 2754.28 890.29C2579.7 743.916 2370.7 607.384 2154.16 489.874C2086.24 453.017 2009.97 409.947 1930.99 389.73C1865.19 372.887 1797.59 365.718 1731.42 358.154C1587.78 341.734 1329.86 313.278 1303.53 185.351C1289.52 117.277 1321.95 51.4819 1353.65 -8.68186C1383.44 -65.2793 1428.89 -124.739 1426.91 -189.561C1425.33 -241.18 1389.03 -301.329 1350.42 -351.077C1305.75 -408.623 1242.2 -461.796 1170.46 -506.42C1150.41 -518.885 1127.29 -532.495 1102.88 -539.593C1061.36 -551.67 1089.53 -520.41 1101.52 -508.854C1124.98 -486.252 1153.02 -465.541 1176.89 -443.298C1235.93 -388.305 1288.61 -329.65 1319.8 -267.999C1339.67 -228.693 1347.53 -194.946 1332.94 -159.461Z" fill="#E8ECF4"/>
<g clip-path="url(#clip1_407_2758)">
<g opacity="0.4">
<path d="M2.40219 215.413C4.43913 221.142 6.9853 227.762 10.168 235.019C13.2234 242.275 16.7881 249.914 20.7346 257.807C22.6443 261.753 24.6812 265.7 26.8455 269.647C27.8639 271.556 29.0097 273.593 30.0282 275.503C31.0466 277.412 32.1924 279.322 33.3382 281.359C37.6667 288.998 42.1225 296.509 46.451 303.383C50.7795 310.258 54.7261 316.496 58.0361 321.97C61.3461 327.445 64.1469 332.028 65.8019 335.465C67.4569 339.03 68.3481 342.722 68.2208 346.414C68.2208 350.106 67.2023 353.925 65.2927 357.362C64.7835 358.253 64.2742 359.145 63.765 359.908C63.2558 360.8 62.6192 361.563 61.8554 362.327C60.455 363.855 58.9273 365.383 57.2722 366.783C55.6172 368.184 53.5803 369.329 51.5434 370.348C50.5249 370.857 49.5064 371.366 48.3606 371.748C47.2149 372.13 46.0691 372.512 44.9233 372.894C42.6317 373.53 40.2129 373.912 37.9213 374.167C35.6298 374.294 33.3382 374.294 31.174 374.04C29.0097 373.785 26.9728 373.276 24.9358 372.639C23.0262 372.003 21.1166 371.112 19.4616 370.093C16.0242 368.056 13.3507 365.255 11.3138 362.073C9.27686 358.89 8.13108 355.325 7.74916 351.506C7.11261 344.504 7.62185 331.264 7.87646 315.223C7.87646 311.277 8.00377 307.075 8.00377 302.747C8.00377 298.418 8.00377 294.09 7.87646 289.634C7.62185 280.722 7.23992 271.684 6.60338 262.772C5.96683 253.988 4.94836 245.331 3.92989 237.438C2.91142 229.544 1.63834 222.415 0.492558 216.304C-0.65322 210.193 -1.799 205.228 -2.56285 201.791C-3.3267 198.354 -3.83594 196.444 -3.83594 196.444C-3.83594 196.444 -3.3267 198.354 -2.18092 201.664C-1.16245 204.974 0.36525 209.811 2.40219 215.413Z" fill="#C6CDD9"/>
<path d="M49.2505 242.021C47.3409 239.474 45.4313 236.928 43.5216 234.382C41.612 231.836 39.5751 229.29 37.6654 226.744C33.7189 221.779 29.7723 217.068 26.0803 212.74C24.1707 210.575 22.3884 208.538 20.7334 206.629C18.951 204.719 17.4233 202.937 15.8956 201.282C12.8402 197.972 10.2941 195.426 8.51173 193.643C6.72941 191.861 5.71094 190.843 5.71094 190.843C5.71094 190.843 6.72941 191.734 8.63904 193.389C10.5487 195.044 13.2222 197.335 16.5322 200.136C23.1522 205.61 32.5731 212.867 42.8851 220.124C53.0698 227.253 64.4003 234.382 74.203 240.366C84.0058 246.349 92.4082 251.187 96.9913 254.497C99.2828 256.152 101.065 258.062 102.593 260.226C103.993 262.39 105.012 264.682 105.394 267.1C105.648 268.246 105.648 269.519 105.648 270.792C105.648 271.429 105.521 272.066 105.521 272.575C105.394 273.211 105.266 273.721 105.139 274.357C104.757 275.503 104.375 276.649 103.739 277.794C103.484 278.304 103.102 278.94 102.72 279.322C102.338 279.831 101.956 280.341 101.447 280.723C100.556 281.614 99.5375 282.505 98.519 283.141C98.2644 283.269 98.0098 283.523 97.7551 283.651C97.5005 283.778 97.2459 283.905 96.9913 284.033C96.482 284.287 95.8455 284.542 95.3363 284.669C93.0447 285.433 90.6258 285.815 88.207 285.433C83.3692 284.924 78.6588 282.25 75.0942 277.922C71.9115 274.102 66.5645 266.209 60.0718 256.788C56.5071 252.205 52.9425 247.113 49.2505 242.021Z" fill="#C6CDD9"/>
<path d="M131.873 140.301C129.072 144.375 124.616 147.303 119.142 148.449C114.304 149.594 104.756 150.613 93.4254 152.013C87.6965 152.777 81.713 153.541 75.3475 154.559C69.1094 155.578 62.6167 156.724 56.3785 157.869C50.1404 159.143 44.1569 160.416 38.5553 161.816C32.9537 163.216 27.9887 164.489 23.6602 165.762C19.3317 166.908 15.8944 168.054 13.4755 168.818C11.0566 169.582 9.65625 169.964 9.65625 169.964C9.65625 169.964 10.9293 169.454 13.2209 168.563C14.3667 168.054 15.7671 167.545 17.4221 166.908C19.0771 166.272 20.8594 165.508 22.8964 164.617C30.9168 161.179 41.6107 156.214 52.6866 150.358C63.7625 144.502 75.2202 137.755 85.023 131.771C94.8258 125.788 102.974 120.441 107.939 118.022C112.904 115.476 118.378 114.839 122.961 116.367C127.671 117.767 131.618 121.204 133.273 126.17C133.655 127.443 133.91 128.588 134.037 129.862C134.164 130.498 134.164 131.135 134.164 131.644C134.164 132.28 134.037 132.917 134.037 133.426C134.164 135.972 133.273 138.264 131.873 140.301Z" fill="#C6CDD9"/>
<path d="M74.4535 202.173C66.3058 198.736 58.158 195.68 50.6468 193.007C43.1356 190.333 36.2609 188.169 30.2774 186.387C24.2939 184.605 19.4562 183.331 16.0188 182.44C12.5815 181.549 10.6719 181.167 10.6719 181.167C10.6719 181.167 12.5815 181.549 16.0188 182.058C17.6739 182.313 19.8381 182.695 22.257 183.077C24.6758 183.459 27.3493 183.841 30.4047 184.223C36.3882 184.986 43.5175 185.75 51.4107 186.26C59.3038 186.896 67.7062 187.278 76.4905 187.405C80.819 187.405 85.2748 187.405 89.8579 187.405C94.3137 187.405 98.7695 187.278 103.225 187.023C112.01 186.641 120.667 186.132 128.814 185.496C144.983 184.223 158.477 182.822 166.243 183.077C170.19 183.204 173.754 184.223 177.192 185.878C180.502 187.66 183.303 190.206 185.594 193.389C186.231 194.153 186.74 195.044 187.249 195.935C187.758 196.826 188.14 197.717 188.522 198.736C189.286 200.645 189.923 202.682 190.432 204.847C190.814 207.011 191.068 209.175 191.068 211.594C191.068 212.74 191.068 213.886 190.941 215.031C190.814 216.177 190.559 217.323 190.304 218.596C189.795 221.015 189.159 223.179 188.268 225.343C187.376 227.508 186.231 229.417 184.958 231.2C183.812 232.982 182.284 234.637 180.756 236.037C179.229 237.438 177.574 238.711 175.919 239.729C172.481 241.766 168.789 243.039 165.097 243.294C161.405 243.676 157.586 243.039 154.021 241.639C147.529 239.093 135.944 232.473 121.812 224.834C118.248 222.924 114.556 221.015 110.864 219.105C107.045 217.196 103.098 215.159 99.1514 213.249C90.8764 209.43 82.6013 205.611 74.4535 202.173Z" fill="#C6CDD9"/>
<path d="M121.811 60.2238C116.592 64.9342 105.516 72.1908 92.4029 81.4843C85.9101 86.0675 78.7808 91.1598 71.7788 96.5068C68.2142 99.1802 64.6496 101.981 61.2122 104.782C57.6476 107.583 54.2102 110.511 50.9002 113.312C44.1529 119.04 37.7874 124.769 32.0585 130.371C26.3296 135.845 21.2373 141.065 16.9088 145.648C14.7445 147.939 12.8349 149.976 11.1799 151.759C9.52488 153.668 8.12449 155.196 6.97871 156.596C4.68715 159.27 3.41406 160.798 3.41406 160.798C3.41406 160.798 4.55984 159.27 6.59678 156.469C8.63372 153.668 11.5618 149.594 14.9992 144.629C15.8903 143.356 16.7815 142.083 17.6726 140.683C18.5638 139.283 19.455 137.882 20.4734 136.354C22.3831 133.426 24.2927 130.244 26.3296 126.806C28.3666 123.496 30.4035 119.932 32.4404 116.24C34.4774 112.548 36.5143 108.728 38.5513 104.909C42.6251 97.1433 46.5717 88.9955 50.2637 80.9751C53.9556 72.8273 57.2656 64.9342 60.3211 57.423C66.4319 42.5278 71.2696 29.6697 74.9616 22.9223C76.8712 19.485 79.2901 16.6842 82.3455 14.5199C83.8732 13.5014 85.5282 12.6103 87.3105 11.8465C88.2017 11.4645 89.0928 11.2099 90.1113 10.9553C90.6205 10.828 91.0025 10.7007 91.5117 10.5734C92.0209 10.4461 92.5302 10.446 92.9121 10.3187C94.8217 10.0641 96.8587 9.93679 99.0229 10.0641C100.041 10.1914 101.06 10.1914 102.206 10.446C103.224 10.5733 104.243 10.828 105.388 11.2099C107.425 11.8465 109.59 12.6103 111.626 13.6287C113.663 14.6472 115.573 15.9203 117.483 17.448C118.374 18.2118 119.265 18.9758 120.156 19.7396C121.047 20.6308 121.811 21.3946 122.448 22.2858C123.975 24.0681 125.249 25.8504 126.267 27.76C127.285 29.6697 128.177 31.7066 128.686 33.6162C129.322 35.6532 129.704 37.5628 129.832 39.5997C130.086 43.5463 129.577 47.3656 128.177 50.8029C126.904 54.4948 124.739 57.6776 121.811 60.2238Z" fill="#C6CDD9"/>
<path d="M-0.909241 28.9058C0.109229 28.2693 1.1277 27.7601 2.27348 27.2508C3.41926 26.8689 4.56503 26.487 5.83812 26.3596C7.11121 26.2323 8.38429 26.2323 9.65738 26.3596C10.9305 26.487 12.2036 26.8689 13.3493 27.2508C14.3678 27.6327 15.3863 28.142 16.2774 28.7785C17.5505 29.5424 18.569 30.5608 19.5875 31.7066C19.8421 32.0885 20.0967 32.3432 20.3513 32.7251C20.7332 33.2343 20.9879 33.7436 21.3698 34.2528C23.7886 38.5813 24.4252 43.9282 23.0248 49.2752C21.7517 54.1129 18.4417 63.0246 14.7497 73.8459C10.9305 84.6671 6.85659 97.2707 3.54656 109.492C1.89155 115.603 0.363847 121.587 -0.909241 127.188C-2.18233 132.79 -3.2008 137.882 -4.09196 142.211C-4.98312 146.539 -5.49235 150.104 -6.00159 152.65C-6.38351 155.196 -6.63813 156.597 -6.63813 156.597C-6.63813 156.597 -6.51082 155.196 -6.25621 152.777C-6.00159 150.358 -5.74697 146.794 -5.49235 142.338C-5.23774 138.009 -4.98312 132.917 -4.85581 127.316C-4.7285 121.714 -4.7285 115.603 -4.85581 109.365C-4.85581 106.182 -4.98312 103 -5.11043 99.8168C-5.23774 96.6341 -5.36504 93.4513 -5.61966 90.2686C-6.00159 84.0305 -6.51082 77.7924 -6.89275 72.0635C-7.91122 60.6057 -8.92969 50.8029 -8.92969 45.3287C-8.92969 39.7271 -7.02006 34.7621 -3.71003 31.1974C-2.94618 30.3063 -1.92771 29.5424 -0.909241 28.9058Z" fill="#C6CDD9"/>
</g>
</g>
</g>
<defs>
<clipPath id="clip0_407_2758">
<rect width="1440" height="1000" fill="white"/>
</clipPath>
<clipPath id="clip1_407_2758">
<rect width="200" height="364.237" fill="white" transform="translate(-8.92969 10.0142)"/>
</clipPath>
</defs>
</svg>
