<svg width="375" height="927" viewBox="0 0 375 927" fill="none" xmlns="http://www.w3.org/2000/svg">
<g clip-path="url(#clip0_407_2706)">
<rect width="375" height="927" fill="white"/>
<g clip-path="url(#clip1_407_2706)">
<g opacity="0.4">
<path d="M6.3669 115.49C7.51221 118.711 8.94385 122.433 10.7334 126.514C12.4514 130.594 14.4557 134.889 16.6747 139.327C17.7485 141.546 18.8938 143.765 20.1107 145.984C20.6833 147.058 21.3276 148.203 21.9002 149.277C22.4729 150.35 23.1171 151.424 23.7614 152.569C26.1951 156.864 28.7005 161.088 31.1343 164.953C33.5681 168.819 35.7872 172.326 37.6483 175.404C39.5094 178.482 41.0842 181.059 42.0148 182.992C42.9454 184.996 43.4464 187.072 43.3749 189.148C43.3749 191.224 42.8022 193.371 41.7285 195.304C41.4421 195.805 41.1558 196.306 40.8695 196.736C40.5832 197.237 40.2252 197.666 39.7957 198.096C39.0083 198.955 38.1494 199.814 37.2188 200.601C36.2882 201.388 35.1429 202.033 33.9976 202.605C33.4249 202.892 32.8523 203.178 32.208 203.393C31.5638 203.608 30.9196 203.822 30.2753 204.037C28.9868 204.395 27.6268 204.61 26.3383 204.753C25.0498 204.824 23.7614 204.824 22.5445 204.681C21.3276 204.538 20.1822 204.252 19.0369 203.894C17.9632 203.536 16.8895 203.035 15.9589 202.462C14.0262 201.317 12.523 199.742 11.3776 197.953C10.2323 196.163 9.58809 194.159 9.37335 192.011C9.01544 188.074 9.30176 180.63 9.44493 171.61C9.44493 169.391 9.51651 167.029 9.51651 164.595C9.51651 162.161 9.51651 159.728 9.44493 157.222C9.30176 152.212 9.08702 147.129 8.72911 142.118C8.3712 137.179 7.79854 132.312 7.22588 127.874C6.65323 123.436 5.93741 119.427 5.29317 115.991C4.64893 112.555 4.00469 109.763 3.5752 107.831C3.1457 105.898 2.85938 104.824 2.85938 104.824C2.85938 104.824 3.1457 105.898 3.78994 107.759C4.3626 109.62 5.22158 112.34 6.3669 115.49Z" fill="#C6CDD9"/>
<path d="M32.7155 130.45C31.6417 129.019 30.568 127.587 29.4943 126.155C28.4205 124.724 27.2752 123.292 26.2015 121.86C23.9824 119.069 21.7634 116.42 19.6875 113.986C18.6138 112.77 17.6116 111.624 16.6811 110.551C15.6789 109.477 14.8199 108.475 13.9609 107.544C12.243 105.683 10.8113 104.251 9.80918 103.249C8.80703 102.247 8.23438 101.674 8.23438 101.674C8.23438 101.674 8.80703 102.175 9.88076 103.106C10.9545 104.037 12.4577 105.325 14.3189 106.9C18.0411 109.978 23.3382 114.058 29.1364 118.138C34.8629 122.147 41.2337 126.155 46.7456 129.52C52.2574 132.884 56.9818 135.604 59.5588 137.465C60.8472 138.396 61.8494 139.47 62.7084 140.687C63.4958 141.903 64.0684 143.192 64.2832 144.552C64.4263 145.196 64.4263 145.912 64.4263 146.628C64.4263 146.986 64.3548 147.344 64.3548 147.63C64.2832 147.988 64.2116 148.274 64.14 148.632C63.9253 149.276 63.7105 149.921 63.3526 150.565C63.2094 150.851 62.9947 151.209 62.7799 151.424C62.5652 151.71 62.3505 151.997 62.0641 152.211C61.5631 152.712 60.9904 153.213 60.4177 153.571C60.2746 153.643 60.1314 153.786 59.9882 153.858C59.8451 153.929 59.7019 154.001 59.5588 154.072C59.2724 154.216 58.9145 154.359 58.6282 154.43C57.3397 154.86 55.9796 155.075 54.6196 154.86C51.8995 154.573 49.2509 153.07 47.2466 150.637C45.4571 148.489 42.4506 144.051 38.7999 138.754C36.7956 136.177 34.7913 133.314 32.7155 130.45Z" fill="#C6CDD9"/>
<path d="M79.172 73.2563C77.5972 75.547 75.0918 77.1934 72.0137 77.8376C69.2936 78.4818 63.925 79.0545 57.5542 79.8419C54.333 80.2714 50.9686 80.7009 47.3895 81.2735C43.882 81.8462 40.2313 82.4905 36.7238 83.1347C33.2162 83.8505 29.8519 84.5663 26.7023 85.3537C23.5527 86.1411 20.761 86.8569 18.3272 87.5727C15.8934 88.217 13.9606 88.8612 12.6006 89.2907C11.2405 89.7202 10.4531 89.935 10.4531 89.935C10.4531 89.935 11.1689 89.6486 12.4574 89.1476C13.1017 88.8612 13.8891 88.5749 14.8196 88.217C15.7502 87.8591 16.7524 87.4296 17.8977 86.9285C22.4073 84.9958 28.4202 82.2041 34.6479 78.9113C40.8755 75.6186 47.3179 71.8247 52.8297 68.4604C58.3416 65.096 62.9228 62.0895 65.7145 60.7295C68.5062 59.2978 71.5843 58.9399 74.1612 59.7989C76.8098 60.5863 79.0288 62.519 79.9594 65.3107C80.1741 66.0266 80.3173 66.6708 80.3889 67.3866C80.4604 67.7445 80.4604 68.1024 80.4604 68.3888C80.4604 68.7467 80.3889 69.1046 80.3889 69.3909C80.4604 70.8226 79.9594 72.111 79.172 73.2563Z" fill="#C6CDD9"/>
<path d="M46.8861 108.045C42.3048 106.113 37.7236 104.395 33.5002 102.892C29.2769 101.388 25.4114 100.171 22.0471 99.1692C18.6827 98.1671 15.9626 97.4513 14.0299 96.9502C12.0972 96.4491 11.0234 96.2344 11.0234 96.2344C11.0234 96.2344 12.0972 96.4491 14.0299 96.7355C14.9605 96.8786 16.1773 97.0934 17.5374 97.3081C18.8975 97.5229 20.4007 97.7376 22.1187 97.9523C25.483 98.3818 29.4916 98.8113 33.9297 99.0977C38.3678 99.4556 43.0922 99.6703 48.0314 99.7419C50.4652 99.7419 52.9706 99.7419 55.5475 99.7419C58.0529 99.7419 60.5583 99.6703 63.0636 99.5271C68.0028 99.3124 72.8704 99.0261 77.4516 98.6681C86.5426 97.9523 94.1303 97.1649 98.4968 97.3081C100.716 97.3797 102.72 97.9524 104.653 98.8829C106.514 99.8851 108.089 101.317 109.377 103.106C109.735 103.536 110.021 104.037 110.308 104.538C110.594 105.039 110.809 105.54 111.024 106.113C111.453 107.186 111.811 108.332 112.097 109.549C112.312 110.766 112.455 111.982 112.455 113.342C112.455 113.987 112.455 114.631 112.384 115.275C112.312 115.919 112.169 116.564 112.026 117.279C111.739 118.64 111.382 119.856 110.88 121.073C110.379 122.29 109.735 123.364 109.019 124.366C108.375 125.368 107.516 126.299 106.657 127.086C105.798 127.874 104.868 128.589 103.937 129.162C102.004 130.307 99.9284 131.023 97.8525 131.166C95.7767 131.381 93.6292 131.023 91.6249 130.236C87.9742 128.804 81.4602 125.082 73.5146 120.787C71.5103 119.713 69.4344 118.64 67.3586 117.566C65.2111 116.492 62.9921 115.347 60.773 114.273C56.1202 112.126 51.4673 109.978 46.8861 108.045Z" fill="#C6CDD9"/>
<path d="M73.5089 28.2312C70.574 30.8797 64.3464 34.9599 56.9734 40.1854C53.3227 42.7624 49.3141 45.6257 45.3771 48.6321C43.3728 50.1353 41.3685 51.7101 39.4358 53.285C37.4315 54.8598 35.4988 56.5062 33.6376 58.081C29.8438 61.3022 26.2647 64.5233 23.0435 67.6729C19.8223 70.751 16.959 73.6858 14.5252 76.2628C13.3083 77.5513 12.2346 78.6966 11.304 79.6987C10.3734 80.7725 9.58604 81.6315 8.9418 82.4189C7.65332 83.9221 6.9375 84.7811 6.9375 84.7811C6.9375 84.7811 7.58174 83.9221 8.72705 82.3473C9.87237 80.7725 11.5188 78.4818 13.4515 75.6901C13.9525 74.9743 14.4536 74.2585 14.9547 73.4711C15.4558 72.6837 15.9568 71.8963 16.5295 71.0373C17.6032 69.3909 18.677 67.6014 19.8223 65.6686C20.9676 63.8075 22.1129 61.8032 23.2582 59.7273C24.4035 57.6515 25.5488 55.504 26.6942 53.3565C28.9848 48.99 31.2038 44.4088 33.2797 39.8991C35.3556 35.3178 37.2167 30.8797 38.9347 26.6564C42.3706 18.2813 45.0908 11.0515 47.1666 7.25766C48.2404 5.32494 49.6004 3.75011 51.3184 2.53321C52.1774 1.96055 53.108 1.4595 54.1101 1.03C54.6112 0.815257 55.1123 0.672084 55.6849 0.52892C55.9712 0.457338 56.186 0.385764 56.4723 0.314182C56.7586 0.2426 57.045 0.242591 57.2597 0.171009C58.3335 0.0278451 59.4788 -0.0437458 60.6957 0.0278363C61.2683 0.0994184 61.841 0.0994097 62.4852 0.242574C63.0579 0.314156 63.6305 0.457346 64.2748 0.672093C65.4201 1.03 66.637 1.45947 67.7823 2.03213C68.9276 2.60478 70.0013 3.3206 71.0751 4.17959C71.5761 4.60908 72.0772 5.03861 72.5783 5.4681C73.0794 5.96918 73.5089 6.39867 73.8668 6.89975C74.7258 7.9019 75.4416 8.90404 76.0142 9.97777C76.5869 11.0515 77.088 12.1968 77.3743 13.2705C77.7322 14.4158 77.947 15.4896 78.0185 16.6349C78.1617 18.8539 77.8754 21.0014 77.088 22.9341C76.3722 25.01 75.1553 26.7996 73.5089 28.2312Z" fill="#C6CDD9"/>
<path d="M4.50967 10.622C5.08233 10.2641 5.65499 9.97782 6.29923 9.69149C6.94346 9.47674 7.5877 9.26199 8.30352 9.19041C9.01934 9.11882 9.73517 9.11882 10.451 9.19041C11.1668 9.26199 11.8826 9.47674 12.5269 9.69149C13.0995 9.90624 13.6722 10.1926 14.1733 10.5505C14.8891 10.98 15.4617 11.5526 16.0344 12.1969C16.1776 12.4116 16.3207 12.5548 16.4639 12.7695C16.6786 13.0558 16.8218 13.3422 17.0365 13.6285C18.3966 16.0623 18.7545 19.0687 17.9671 22.0752C17.2513 24.7953 15.3902 29.8061 13.3143 35.8906C11.1668 41.975 8.87618 49.0617 7.01505 55.9336C6.08448 59.3695 5.22549 62.7338 4.50967 65.8834C3.79385 69.0331 3.22119 71.8963 2.72012 74.3301C2.21905 76.7639 1.93272 78.7682 1.64639 80.1999C1.43164 81.6315 1.28848 82.4189 1.28848 82.4189C1.28848 82.4189 1.36006 81.6315 1.50322 80.2715C1.64639 78.9114 1.78955 76.9071 1.93272 74.4017C2.07588 71.9679 2.21905 69.1047 2.29063 65.955C2.36221 62.8054 2.36221 59.3695 2.29063 55.8619C2.29063 54.0724 2.21905 52.2828 2.14746 50.4933C2.07588 48.7037 2.0043 46.9142 1.86113 45.1246C1.64639 41.6171 1.36006 38.1096 1.14531 34.8884C0.572657 28.446 0 22.9342 0 19.8562C0 16.7065 1.07373 13.9149 2.93487 11.9106C3.36436 11.4095 3.93702 10.98 4.50967 10.622Z" fill="#C6CDD9"/>
</g>
</g>
<path d="M459.135 351.539C433.517 413.829 373.075 465.865 324.452 519.321C276.788 571.725 216.38 641.045 256.327 711.258C290.699 771.664 395.668 812.722 482.728 832.242C572.485 852.359 663.153 859.625 753.026 871.14C794.878 876.502 836.966 882.567 878.662 891.85C925.834 902.363 967.204 918.549 1009.69 938.991C1166.41 1014.45 1311.25 1106.9 1450.85 1197.64C1558.41 1267.57 1663.87 1339.56 1770.1 1410.77C1810.73 1438.02 1851.41 1465.27 1893.27 1491.61C1918.33 1507.36 1944.77 1525.02 1973.85 1536.41C1981.22 1539.29 1987.51 1540.42 1988.89 1537.46C1995.75 1522.75 1971.42 1493.71 1958.91 1477.77C1937.78 1450.87 1909.35 1425.5 1880.47 1401.29C1705.9 1254.92 1496.9 1118.38 1280.35 1000.87C1212.43 964.017 1136.17 920.947 1057.19 900.73C991.389 883.887 923.785 876.718 857.62 869.154C713.974 852.734 456.057 824.278 429.724 696.351C415.715 628.277 448.15 562.482 479.842 502.318C509.637 445.721 555.085 386.261 553.103 321.439C551.527 269.82 515.227 209.671 476.619 159.923C431.942 102.377 368.395 49.2039 296.655 4.58019C276.61 -7.88485 253.486 -21.4945 229.074 -28.5934C187.554 -40.6703 215.721 -9.40988 227.713 2.14635C251.179 24.7484 279.215 45.4594 303.087 67.7019C362.129 122.695 414.806 181.35 445.997 243.001C465.865 282.307 473.728 316.054 459.135 351.539Z" fill="#E8ECF4"/>
<path d="M-988.56 -31.4611C-1014.18 30.8286 -1074.62 82.8651 -1123.24 136.321C-1170.91 188.725 -1231.32 258.045 -1191.37 328.258C-1157 388.664 -1052.03 429.722 -964.968 449.242C-875.21 469.359 -784.542 476.625 -694.669 488.14C-652.817 493.502 -610.729 499.567 -569.034 508.85C-521.861 519.363 -480.492 535.549 -438.003 555.991C-281.285 631.445 -136.45 723.896 3.15057 814.64C110.713 884.574 216.175 956.563 322.409 1027.77C363.038 1055.02 403.71 1082.27 445.571 1108.61C470.634 1124.36 497.078 1142.02 526.158 1153.41C533.52 1156.29 539.818 1157.42 541.196 1154.46C548.059 1139.75 523.727 1110.71 511.212 1094.77C490.083 1067.87 461.654 1042.5 432.778 1018.29C258.201 871.916 49.2042 735.384 -167.34 617.874C-235.265 581.017 -311.53 537.947 -390.507 517.73C-456.306 500.887 -523.91 493.718 -590.076 486.154C-733.722 469.734 -991.638 441.278 -1017.97 313.351C-1031.98 245.277 -999.546 179.482 -967.853 119.318C-938.059 62.7207 -892.61 3.26092 -894.592 -61.561C-896.168 -113.18 -932.468 -173.329 -971.077 -223.077C-1015.75 -280.623 -1079.3 -333.796 -1151.04 -378.42C-1171.09 -390.885 -1194.21 -404.495 -1218.62 -411.593C-1260.14 -423.67 -1231.97 -392.41 -1219.98 -380.854C-1196.52 -358.252 -1168.48 -337.541 -1144.61 -315.298C-1085.57 -260.305 -1032.89 -201.65 -1001.7 -139.999C-981.83 -100.693 -973.967 -66.9463 -988.56 -31.4611Z" fill="#E8ECF4"/>
</g>
<defs>
<clipPath id="clip0_407_2706">
<rect width="375" height="927" fill="white"/>
</clipPath>
<clipPath id="clip1_407_2706">
<rect width="112.454" height="204.8" fill="white"/>
</clipPath>
</defs>
</svg>
