<svg width="159" height="64" viewBox="0 0 159 64" fill="none" xmlns="http://www.w3.org/2000/svg">
<g clip-path="url(#clip0_298_7036)">
<mask id="mask0_298_7036" style="mask-type:luminance" maskUnits="userSpaceOnUse" x="104" y="0" width="55" height="64">
<path d="M158.298 0H104V64H158.298V0Z" fill="white"/>
</mask>
<g mask="url(#mask0_298_7036)">
<path d="M127.109 37.6676C127.45 38.6101 127.878 39.7172 128.386 40.9141C128.894 42.1159 129.478 43.3893 130.126 44.6921C130.449 45.3427 130.786 45.9983 131.135 46.6521C131.31 46.9782 131.486 47.3043 131.663 47.6288C131.841 47.9516 132.02 48.2712 132.202 48.5892C132.924 49.8627 133.666 51.0938 134.37 52.2319C135.078 53.3651 135.731 54.4103 136.293 55.3088C136.849 56.2072 137.297 56.9687 137.57 57.5459C137.848 58.1281 137.985 58.7428 137.975 59.3657C137.966 59.9869 137.802 60.6016 137.501 61.1887C137.426 61.3354 137.341 61.4789 137.248 61.6207C137.155 61.761 137.05 61.8947 136.942 62.0267C136.72 62.2893 136.466 62.5387 136.182 62.7671C135.898 62.9953 135.58 63.1894 135.241 63.3639C135.071 63.4503 134.895 63.5302 134.712 63.6035C134.53 63.6736 134.341 63.7339 134.148 63.7862C133.762 63.8905 133.375 63.9639 132.994 63.9899C132.612 64.0144 132.239 64.003 131.878 63.959C131.52 63.9183 131.173 63.8302 130.846 63.716C130.52 63.6019 130.215 63.46 129.937 63.2904C129.375 62.9447 128.919 62.4899 128.591 61.9681C128.262 61.4447 128.062 60.8495 127.999 60.2087C127.883 59.0575 127.986 56.8481 128.029 54.1984C128.038 53.5363 128.046 52.8467 128.046 52.139C128.046 51.4313 128.04 50.7073 128.024 49.9687C127.991 48.4947 127.919 46.988 127.807 45.527C127.696 44.0692 127.539 42.6376 127.36 41.3331C127.181 40.0255 126.98 38.8383 126.788 37.8339C126.595 36.8247 126.413 36.0028 126.282 35.4321C126.15 34.8614 126.07 34.5435 126.07 34.5435C126.07 34.5435 126.162 34.8516 126.336 35.3979C126.51 35.9441 126.77 36.73 127.11 37.6709L127.109 37.6676Z" fill="#EA2427"/>
<path d="M134.859 42.0704C134.547 41.6465 134.231 41.2242 133.907 40.7986C133.583 40.3746 133.257 39.9539 132.93 39.543C132.275 38.7196 131.62 37.9336 131.003 37.221C130.695 36.864 130.397 36.5265 130.112 36.2102C129.827 35.8922 129.554 35.597 129.303 35.328C128.801 34.7899 128.382 34.3578 128.087 34.0594C127.791 33.7626 127.625 33.5947 127.625 33.5947C127.625 33.5947 127.798 33.7463 128.107 34.0186C128.416 34.2877 128.867 34.6758 129.42 35.1323C130.527 36.047 132.077 37.2504 133.786 38.4407C135.483 39.6294 137.34 40.8067 138.977 41.7965C140.606 42.7846 142.003 43.5934 142.743 44.133C143.115 44.4054 143.427 44.7266 143.663 45.0821C143.903 45.4392 144.058 45.824 144.13 46.2218C144.166 46.4208 144.18 46.623 144.174 46.8235C144.171 46.9246 144.163 47.0257 144.146 47.1235C144.13 47.2214 144.107 47.3192 144.081 47.4154C144.026 47.6078 143.949 47.797 143.851 47.978C143.8 48.0677 143.748 48.1574 143.687 48.2405C143.624 48.3237 143.556 48.4035 143.483 48.4818C143.335 48.6367 143.176 48.7704 143.005 48.8846C142.963 48.9123 142.919 48.94 142.875 48.9661C142.829 48.9906 142.785 49.0134 142.737 49.0362C142.646 49.0802 142.551 49.1178 142.457 49.152C142.075 49.2824 141.676 49.333 141.27 49.2824C140.461 49.1878 139.691 48.7509 139.099 48.0383C138.57 47.404 137.695 46.0898 136.615 44.5342C136.075 43.7564 135.483 42.9199 134.862 42.0737L134.859 42.0704Z" fill="url(#paint0_linear_298_7036)"/>
<path d="M148.55 25.2215C148.092 25.8999 147.341 26.3842 146.44 26.5815C145.629 26.7608 144.063 26.932 142.189 27.1766C141.25 27.2989 140.24 27.4391 139.2 27.6038C138.158 27.7685 137.096 27.956 136.066 28.1599C135.036 28.3636 134.038 28.5854 133.123 28.8071C132.204 29.0306 131.365 29.2539 130.657 29.4545C129.95 29.6551 129.374 29.8295 128.975 29.9551C128.576 30.0823 128.352 30.154 128.352 30.154C128.352 30.154 128.567 30.0709 128.95 29.9208C129.141 29.8442 129.374 29.7496 129.644 29.642C129.911 29.5327 130.211 29.4072 130.542 29.2654C131.863 28.7028 133.643 27.8778 135.486 26.9043C137.318 25.9407 139.216 24.827 140.844 23.8242C142.471 22.8263 143.824 21.9539 144.644 21.543C145.468 21.1271 146.364 21.0228 147.135 21.2658C147.914 21.4973 148.561 22.0762 148.852 22.8833C148.921 23.0855 148.965 23.291 148.988 23.4947C149 23.5975 149.004 23.6986 149.004 23.7997C149.004 23.9008 148.992 24.0035 148.979 24.103C148.918 24.5041 148.772 24.8856 148.552 25.2199L148.55 25.2215Z" fill="#C2C4C3"/>
<path d="M139.032 35.4732C137.685 34.9058 136.339 34.3905 135.097 33.9518C133.851 33.5132 132.706 33.1496 131.723 32.861C130.737 32.5707 129.923 32.3571 129.356 32.2137C128.788 32.0702 128.469 31.9951 128.469 31.9951C128.469 31.9951 128.785 32.0538 129.351 32.1484C129.633 32.1957 129.978 32.2511 130.38 32.3115C130.779 32.3718 131.23 32.4338 131.726 32.4974C132.722 32.6246 133.9 32.7501 135.198 32.8446C136.499 32.9409 137.9 33.0045 139.353 33.0241C140.078 33.0338 140.817 33.0338 141.556 33.0241C142.296 33.0142 143.039 32.993 143.769 32.9621C145.23 32.9034 146.664 32.8072 147.998 32.7045C150.669 32.4974 152.911 32.2561 154.19 32.2984C154.834 32.3196 155.443 32.4794 155.993 32.7713C156.534 33.0632 157.012 33.4871 157.395 34.0219C157.49 34.1557 157.582 34.2959 157.664 34.441C157.744 34.5878 157.818 34.7394 157.884 34.8976C158.016 35.2139 158.122 35.553 158.196 35.9086C158.267 36.264 158.297 36.6342 158.297 37.0157C158.297 37.2065 158.287 37.3989 158.269 37.5946C158.25 37.7886 158.215 37.9842 158.174 38.1799C158.09 38.5713 157.979 38.9479 157.829 39.2985C157.675 39.649 157.494 39.9768 157.29 40.2768C157.09 40.5785 156.854 40.8459 156.604 41.0856C156.353 41.3237 156.087 41.5307 155.809 41.7019C155.244 42.0427 154.63 42.2433 154.015 42.2971C153.398 42.351 152.778 42.2563 152.178 42.0199C151.104 41.596 149.185 40.4921 146.849 39.243C146.265 38.93 145.655 38.6087 145.026 38.2842C144.396 37.9598 143.75 37.6353 143.086 37.3125C141.759 36.6667 140.386 36.0422 139.035 35.4732H139.032Z" fill="url(#paint1_linear_298_7036)"/>
<path d="M146.88 11.9685C146.017 12.7397 144.181 13.9513 142.011 15.4841C140.926 16.2488 139.764 17.0901 138.597 17.9821C138.014 18.4256 137.424 18.8886 136.845 19.355C136.265 19.8229 135.69 20.2975 135.133 20.7736C134.014 21.7275 132.962 22.6813 132.006 23.5994C131.052 24.5141 130.207 25.3767 129.506 26.1219C129.155 26.4937 128.842 26.8377 128.566 27.1426C128.291 27.4492 128.054 27.7182 127.862 27.9383C127.478 28.3802 127.266 28.6329 127.266 28.6329C127.266 28.6329 127.459 28.3769 127.798 27.9155C128.136 27.4541 128.618 26.7839 129.182 25.949C129.322 25.7403 129.469 25.5202 129.618 25.2919C129.769 25.0653 129.922 24.8272 130.078 24.5826C130.391 24.0918 130.719 23.5635 131.054 23.0075C131.388 22.4515 131.729 21.8645 132.07 21.2562C132.41 20.6481 132.754 20.0154 133.088 19.3745C133.76 18.0913 134.414 16.7461 135.022 15.409C135.634 14.0703 136.191 12.7512 136.698 11.5169C137.713 9.04654 138.512 6.92189 139.125 5.80168C139.433 5.23587 139.85 4.76626 140.358 4.41243C140.61 4.23633 140.887 4.08795 141.181 3.97054C141.328 3.91185 141.479 3.86129 141.636 3.8189C141.714 3.7977 141.792 3.77813 141.872 3.76183C141.95 3.74553 142.03 3.73248 142.112 3.72107C142.434 3.67378 142.77 3.66237 143.114 3.68357C143.286 3.69497 143.461 3.71454 143.635 3.74226C143.81 3.76998 143.981 3.81401 144.155 3.86293C144.502 3.96239 144.85 4.0961 145.19 4.26568C145.53 4.43852 145.854 4.65376 146.167 4.89997C146.324 5.02389 146.472 5.15271 146.614 5.28641C146.753 5.42338 146.882 5.56525 147.004 5.712C147.246 6.00387 147.46 6.30879 147.634 6.62349C147.804 6.94308 147.942 7.27082 148.041 7.59857C148.14 7.92632 148.207 8.25246 148.23 8.58342C148.278 9.24054 148.184 9.87318 147.956 10.4456C147.726 11.0195 147.358 11.5364 146.878 11.9653L146.88 11.9685Z" fill="url(#paint2_linear_298_7036)"/>
<path d="M126.548 6.76343C126.714 6.65418 126.894 6.56287 127.081 6.49276C127.271 6.42264 127.468 6.37046 127.672 6.34274C127.876 6.31828 128.084 6.32317 128.296 6.34764C128.508 6.37372 128.712 6.42427 128.904 6.49439C129.096 6.56613 129.276 6.66885 129.442 6.783C129.608 6.89876 129.76 7.03084 129.896 7.1776C129.963 7.25097 130.028 7.3276 130.087 7.40914C130.145 7.49229 130.199 7.57872 130.249 7.66676C130.651 8.37771 130.75 9.26147 130.522 10.1567C130.32 10.9605 129.772 12.4411 129.151 14.2282C128.526 16.0169 127.844 18.1073 127.288 20.1423C127.009 21.1565 126.76 22.1495 126.548 23.0675C126.336 23.9855 126.162 24.8302 126.023 25.5542C125.884 26.2765 125.784 26.8716 125.715 27.2858C125.65 27.7 125.612 27.9331 125.612 27.9331C125.612 27.9331 125.633 27.7032 125.671 27.2956C125.707 26.8863 125.754 26.2977 125.796 25.5754C125.84 24.8514 125.876 24.01 125.896 23.0806C125.916 22.1527 125.917 21.1435 125.896 20.1015C125.886 19.5814 125.87 19.0531 125.848 18.5247C125.828 17.9964 125.8 17.4714 125.768 16.9496C125.707 15.906 125.628 14.8837 125.547 13.9331C125.385 12.0318 125.217 10.4208 125.219 9.50443C125.219 8.58155 125.528 7.74992 126.088 7.15803C126.227 7.01128 126.382 6.87268 126.548 6.76669V6.76343Z" fill="url(#paint3_linear_298_7036)"/>
<path d="M104.446 17.0526C104.507 16.9646 104.57 16.8814 104.639 16.8015C104.709 16.7232 104.782 16.6514 104.859 16.5829C105.014 16.4477 105.179 16.3286 105.356 16.2357C105.535 16.1427 105.723 16.0694 105.917 16.0172C106.109 15.965 106.308 15.934 106.512 15.9291C106.918 15.9145 107.329 15.9862 107.723 16.1378C108.122 16.2927 108.501 16.5275 108.847 16.8341C109.47 17.3836 110.525 18.5446 111.829 19.9208C112.48 20.6073 113.192 21.3459 113.935 22.0894C114.675 22.8314 115.454 23.583 116.223 24.2956C117.759 25.7224 119.294 27.0073 120.445 27.9138C121.019 28.3671 121.5 28.7308 121.838 28.9835C122.175 29.233 122.366 29.3732 122.366 29.3732C122.366 29.3732 122.172 29.2493 121.827 29.0275C121.479 28.8074 120.979 28.4943 120.359 28.1258C119.739 27.7557 119.007 27.3333 118.191 26.8865C117.376 26.4414 116.475 25.9718 115.546 25.5137C114.615 25.0554 113.647 24.6021 112.689 24.1749C111.728 23.7461 110.789 23.3482 109.907 22.9829C108.146 22.2525 106.638 21.6622 105.826 21.2415C105.006 20.8192 104.405 20.1589 104.139 19.3876C103.879 18.6261 103.955 17.7554 104.443 17.0526H104.446Z" fill="#4470B5"/>
<path d="M120.518 22.2426C119.833 21.1355 119.058 19.9615 118.22 18.7744C117.801 18.1808 117.367 17.5824 116.923 16.9922C116.482 16.4019 116.03 15.8165 115.575 15.2409C115.12 14.6653 114.662 14.1012 114.21 13.5533C113.758 13.0071 113.312 12.4788 112.878 11.97C112.006 10.9574 111.2 10.0215 110.509 9.21924C109.822 8.41372 109.263 7.73052 108.904 7.20221C108.542 6.66901 108.313 6.08038 108.231 5.46892C108.19 5.16236 108.184 4.85092 108.214 4.5346C108.23 4.37643 108.254 4.21989 108.288 4.06173C108.322 3.9052 108.366 3.75029 108.418 3.59539C108.525 3.28557 108.665 2.9774 108.841 2.68226C109.02 2.38876 109.232 2.10667 109.477 1.83763C109.723 1.57184 110.005 1.32726 110.313 1.10224C110.623 0.878853 110.964 0.686443 111.327 0.518494C111.693 0.353806 112.066 0.233144 112.436 0.143462C112.808 0.0586723 113.182 0.0146468 113.543 0.00323281C113.906 -0.00818119 114.262 0.0244303 114.602 0.0847615C114.941 0.143462 115.266 0.242927 115.569 0.370112C115.872 0.497297 116.154 0.652201 116.411 0.836453C116.669 1.02234 116.901 1.23432 117.105 1.46748C117.51 1.93546 117.799 2.49475 117.961 3.11926C118.249 4.23946 118.482 6.43748 118.844 9.05941C119.024 10.3688 119.239 11.7956 119.497 13.2435C119.626 13.9691 119.762 14.6964 119.912 15.4268C120.062 16.1573 120.221 16.8845 120.389 17.5988C120.557 18.3129 120.731 19.0157 120.912 19.6956C121.094 20.3788 121.281 21.0409 121.47 21.6736C121.846 22.9388 122.226 24.0803 122.57 25.0488C122.914 26.0158 123.219 26.7984 123.434 27.3398C123.544 27.6104 123.63 27.8208 123.689 27.966C123.747 28.1094 123.78 28.186 123.78 28.186C123.78 28.186 123.643 27.8975 123.387 27.3855C123.131 26.8735 122.758 26.1413 122.274 25.2576C121.789 24.3738 121.201 23.3514 120.516 22.2459L120.518 22.2426Z" fill="#4889C8"/>
</g>
<path d="M4.42344 32.5064L1.41093 40.8002H0.179688L3.64844 31.7002H4.44219L4.42344 32.5064ZM6.94844 40.8002L3.92969 32.5064L3.91093 31.7002H4.70469L8.18596 40.8002H6.94844ZM6.79219 37.4315V38.4189H1.67969V37.4315H6.79219ZM11.8672 40.8002H9.96716L9.97972 39.8189H11.8672C12.5172 39.8189 13.0588 39.6836 13.4922 39.4127C13.9256 39.1377 14.2505 38.7544 14.4672 38.2627C14.688 37.7668 14.7984 37.1877 14.7984 36.5252V35.9689C14.7984 35.4481 14.736 34.9856 14.6109 34.5815C14.486 34.1731 14.3026 33.8294 14.0609 33.5502C13.8192 33.2668 13.5234 33.0523 13.1735 32.9064C12.8276 32.7606 12.4297 32.6877 11.9797 32.6877H9.92972V31.7002H11.9797C12.5756 31.7002 13.1192 31.8002 13.6109 32.0002C14.1026 32.196 14.5256 32.4815 14.8797 32.8564C15.238 33.2273 15.513 33.6773 15.7047 34.2064C15.8964 34.7315 15.9922 35.3231 15.9922 35.9815V36.5252C15.9922 37.1836 15.8964 37.7773 15.7047 38.3064C15.513 38.8315 15.236 39.2794 14.8735 39.6502C14.5151 40.021 14.0818 40.3064 13.5735 40.5064C13.0692 40.7023 12.5005 40.8002 11.8672 40.8002ZM10.6109 31.7002V40.8002H9.40468V31.7002H10.6109ZM23.586 39.8189V40.8002H18.7672V39.8189H23.586ZM19.0109 31.7002V40.8002H17.8047V31.7002H19.0109ZM22.9484 35.6127V36.594H18.7672V35.6127H22.9484ZM23.5234 31.7002V32.6877H18.7672V31.7002H23.5234ZM25.4984 31.7002L27.8609 36.2689L30.2297 31.7002H31.5984L28.4609 37.4002V40.8002H27.2547V37.4002L24.1172 31.7002H25.4984ZM34.0609 31.7002V40.8002H32.8547V31.7002H34.0609ZM43.2547 31.7002V40.8002H42.0422L37.4609 33.7815V40.8002H36.2547V31.7002H37.4609L42.0609 38.7377V31.7002H43.2547ZM46.5984 31.7002V40.8002H45.3922V31.7002H46.5984ZM52.0922 31.7002L48.3109 35.944L46.186 38.1502L45.986 36.8627L47.586 35.1002L50.6422 31.7002H52.0922ZM50.9297 40.8002L47.5609 36.3627L48.2797 35.4064L52.3672 40.8002H50.9297ZM56.7984 32.5064L53.786 40.8002H52.5547L56.0234 31.7002H56.8172L56.7984 32.5064ZM59.3234 40.8002L56.3047 32.5064L56.286 31.7002H57.0797L60.5609 40.8002H59.3234ZM59.1672 37.4315V38.4189H54.0547V37.4315H59.1672Z" fill="white"/>
<path d="M68.5329 33.4314L66.1829 40.8002H64.0078L67.3766 31.7002H68.7516L68.5329 33.4314ZM70.4829 40.8002L68.1265 33.4314L67.8829 31.7002H69.2766L72.6578 40.8002H70.4829ZM70.3829 37.4126V38.9877H65.6391V37.4126H70.3829ZM76.4233 40.8002H74.4233L74.4358 39.2251H76.4233C76.8775 39.2251 77.2609 39.121 77.5733 38.9126C77.8858 38.7002 78.1233 38.3877 78.2858 37.9752C78.4483 37.5585 78.5296 37.0522 78.5296 36.4564V36.0377C78.5296 35.5877 78.4837 35.1918 78.3921 34.8502C78.3004 34.5043 78.165 34.2147 77.9858 33.9814C77.8067 33.7481 77.5837 33.573 77.3171 33.4564C77.0545 33.3398 76.7525 33.2814 76.4109 33.2814H74.3858V31.7002H76.4109C77.0275 31.7002 77.59 31.8043 78.0983 32.0126C78.6109 32.221 79.0525 32.5189 79.4233 32.9064C79.7983 33.2939 80.088 33.7522 80.292 34.2814C80.496 34.8106 80.5984 35.4002 80.5984 36.0502V36.4564C80.5984 37.1022 80.496 37.6918 80.292 38.2251C80.088 38.7543 79.7983 39.2126 79.4233 39.6002C79.0525 39.9835 78.6129 40.2794 78.1045 40.4877C77.5962 40.696 77.0358 40.8002 76.4233 40.8002ZM75.5796 31.7002V40.8002H73.5421V31.7002H75.5796ZM88.1576 39.2251V40.8002H83.3136V39.2251H88.1576ZM84.0072 31.7002V40.8002H81.9704V31.7002H84.0072ZM87.5328 35.3626V36.8877H83.3136V35.3626H87.5328ZM88.164 31.7002V33.2814H83.3136V31.7002H88.164ZM94.004 38.4002C94.004 38.246 93.9816 38.1085 93.9352 37.9877C93.8896 37.8626 93.8064 37.7481 93.6856 37.6439C93.5648 37.5398 93.3936 37.4356 93.1728 37.3314C92.952 37.223 92.6624 37.1126 92.304 37.0002C91.896 36.8668 91.5064 36.7168 91.1352 36.5502C90.7688 36.3794 90.4416 36.1814 90.1544 35.9564C89.8672 35.7314 89.64 35.4689 89.4728 35.1689C89.3104 34.8689 89.2296 34.5189 89.2296 34.1189C89.2296 33.7314 89.3144 33.3814 89.4856 33.0689C89.6568 32.7564 89.896 32.4898 90.204 32.2689C90.5128 32.0439 90.8752 31.873 91.292 31.7564C91.7088 31.6356 92.1672 31.5752 92.6672 31.5752C93.3336 31.5752 93.9192 31.6939 94.4232 31.9314C94.9312 32.1647 95.3272 32.4939 95.6104 32.9189C95.8936 33.3398 96.0352 33.8294 96.0352 34.3877H94.0104C94.0104 34.1418 93.9584 33.9251 93.8544 33.7377C93.7544 33.546 93.6 33.396 93.392 33.2877C93.188 33.1794 92.9312 33.1251 92.6232 33.1251C92.3232 33.1251 92.0712 33.171 91.8672 33.2626C91.6672 33.3502 91.5144 33.471 91.4104 33.6251C91.3104 33.7794 91.2608 33.9481 91.2608 34.1314C91.2608 34.2773 91.2984 34.4106 91.3728 34.5314C91.452 34.6481 91.5648 34.7585 91.7104 34.8626C91.8608 34.9626 92.044 35.0585 92.2608 35.1502C92.4776 35.2418 92.7248 35.3294 93.004 35.4126C93.492 35.5668 93.9232 35.7377 94.2984 35.9251C94.6776 36.1126 94.996 36.3251 95.2544 36.5626C95.5128 36.8002 95.7064 37.0689 95.8352 37.3689C95.9688 37.6689 96.0352 38.0085 96.0352 38.3877C96.0352 38.7918 95.9568 39.1502 95.7984 39.4626C95.644 39.7752 95.4192 40.0418 95.1232 40.2626C94.8312 40.4794 94.4816 40.6439 94.0728 40.7564C93.6648 40.8689 93.2088 40.9251 92.704 40.9251C92.2464 40.9251 91.7936 40.8668 91.348 40.7502C90.9024 40.6294 90.4984 40.446 90.1352 40.2002C89.7776 39.9543 89.4896 39.6418 89.2728 39.2626C89.0608 38.8794 88.9544 38.4251 88.9544 37.9002H90.992C90.992 38.1752 91.0312 38.4085 91.1104 38.6002C91.1896 38.7877 91.3024 38.9398 91.448 39.0564C91.5984 39.173 91.7792 39.2564 91.992 39.3064C92.204 39.3564 92.4416 39.3814 92.704 39.3814C93.0088 39.3814 93.2544 39.3398 93.4416 39.2564C93.6336 39.1689 93.7752 39.0502 93.8672 38.9002C93.9584 38.7502 94.004 38.5835 94.004 38.4002ZM104.951 36.0502V36.4564C104.951 37.1481 104.855 37.7689 104.663 38.3189C104.476 38.8689 104.207 39.3377 103.858 39.7251C103.511 40.1126 103.099 40.4106 102.62 40.6189C102.145 40.823 101.618 40.9251 101.038 40.9251C100.459 40.9251 99.9304 40.823 99.4512 40.6189C98.972 40.4106 98.5552 40.1126 98.2008 39.7251C97.8512 39.3377 97.58 38.8689 97.3888 38.3189C97.1968 37.7689 97.1008 37.1481 97.1008 36.4564V36.0502C97.1008 35.3585 97.1968 34.7377 97.3888 34.1877C97.58 33.6335 97.8488 33.1626 98.1952 32.7752C98.5448 32.3877 98.9592 32.0918 99.4384 31.8877C99.9176 31.6794 100.447 31.5752 101.026 31.5752C101.606 31.5752 102.134 31.6794 102.614 31.8877C103.093 32.0918 103.506 32.3877 103.851 32.7752C104.201 33.1626 104.472 33.6335 104.663 34.1877C104.855 34.7377 104.951 35.3585 104.951 36.0502ZM102.895 36.4564V36.0377C102.895 35.5752 102.853 35.1668 102.77 34.8126C102.686 34.4543 102.566 34.1543 102.407 33.9126C102.249 33.671 102.053 33.4898 101.82 33.3689C101.586 33.2439 101.322 33.1814 101.026 33.1814C100.718 33.1814 100.449 33.2439 100.22 33.3689C99.9904 33.4898 99.7968 33.671 99.6384 33.9126C99.4848 34.1543 99.3656 34.4543 99.2824 34.8126C99.2032 35.1668 99.1632 35.5752 99.1632 36.0377V36.4564C99.1632 36.9147 99.2032 37.323 99.2824 37.6814C99.3656 38.0356 99.4864 38.3356 99.6448 38.5814C99.8032 38.8273 99.9968 39.0126 100.226 39.1377C100.459 39.2626 100.73 39.3251 101.038 39.3251C101.334 39.3251 101.597 39.2626 101.826 39.1377C102.059 39.0126 102.255 38.8273 102.414 38.5814C102.572 38.3356 102.69 38.0356 102.77 37.6814C102.853 37.323 102.895 36.9147 102.895 36.4564ZM109.917 37.6377H107.629V36.0564H109.917C110.254 36.0564 110.525 36.0002 110.729 35.8877C110.938 35.7752 111.09 35.621 111.186 35.4251C111.286 35.2251 111.335 35.0002 111.335 34.7502C111.335 34.4918 111.286 34.2522 111.186 34.0314C111.09 33.8064 110.938 33.6251 110.729 33.4877C110.525 33.3502 110.254 33.2814 109.917 33.2814H108.366V40.8002H106.329V31.7002H109.917C110.642 31.7002 111.262 31.8314 111.779 32.0939C112.3 32.3564 112.698 32.7168 112.973 33.1752C113.252 33.6294 113.391 34.1502 113.391 34.7377C113.391 35.3251 113.252 35.8356 112.973 36.2689C112.698 36.7022 112.3 37.0398 111.779 37.2814C111.262 37.5189 110.642 37.6377 109.917 37.6377ZM120.945 39.2251V40.8002H116.101V39.2251H120.945ZM116.794 31.7002V40.8002H114.757V31.7002H116.794ZM120.319 35.3626V36.8877H116.101V35.3626H120.319ZM120.951 31.7002V33.2814H116.101V31.7002H120.951Z" fill="white"/>
<path d="M64.2703 47.5752V54.4002H63.0938V47.5752H64.2703ZM67.0547 50.5611V51.4939H63.9703V50.5611H67.0547ZM67.4437 47.5752V48.5126H63.9703V47.5752H67.4437ZM73.8234 50.8002V51.1752C73.8234 51.6908 73.7562 52.1533 73.6218 52.5626C73.4875 52.972 73.2953 53.3205 73.0453 53.608C72.7984 53.8954 72.5016 54.1158 72.1547 54.2689C71.8078 54.4189 71.4234 54.4939 71.0016 54.4939C70.5828 54.4939 70.2 54.4189 69.8531 54.2689C69.5093 54.1158 69.211 53.8954 68.9578 53.608C68.7047 53.3205 68.5078 52.972 68.3672 52.5626C68.2297 52.1533 68.1609 51.6908 68.1609 51.1752V50.8002C68.1609 50.2846 68.2297 49.8236 68.3672 49.4174C68.5047 49.008 68.6984 48.6595 68.9484 48.372C69.2016 48.0814 69.5 47.8611 69.8437 47.7111C70.1906 47.558 70.5734 47.4814 70.9921 47.4814C71.4141 47.4814 71.7984 47.558 72.1453 47.7111C72.4921 47.8611 72.7906 48.0814 73.0406 48.372C73.2906 48.6595 73.4828 49.008 73.6172 49.4174C73.7547 49.8236 73.8234 50.2846 73.8234 50.8002ZM72.6469 51.1752V50.7908C72.6469 50.4095 72.6093 50.0736 72.5344 49.783C72.4625 49.4892 72.3547 49.2439 72.2109 49.047C72.0703 48.847 71.8969 48.697 71.6906 48.597C71.4844 48.4939 71.2516 48.4423 70.9921 48.4423C70.7328 48.4423 70.5016 48.4939 70.2984 48.597C70.0953 48.697 69.9218 48.847 69.7781 49.047C69.6375 49.2439 69.5297 49.4892 69.4547 49.783C69.3797 50.0736 69.3421 50.4095 69.3421 50.7908V51.1752C69.3421 51.5564 69.3797 51.8939 69.4547 52.1877C69.5297 52.4814 69.639 52.7298 69.7828 52.933C69.9297 53.133 70.1047 53.2846 70.3078 53.3877C70.511 53.4877 70.7421 53.5377 71.0016 53.5377C71.2641 53.5377 71.4969 53.4877 71.7 53.3877C71.9031 53.2846 72.075 53.133 72.2156 52.933C72.3562 52.7298 72.4625 52.4814 72.5344 52.1877C72.6093 51.8939 72.6469 51.5564 72.6469 51.1752ZM78.8297 47.5752H80.0016V52.1361C80.0016 52.6549 79.889 53.0892 79.6641 53.4392C79.439 53.7892 79.1328 54.0533 78.7453 54.2314C78.3609 54.4064 77.9313 54.4939 77.4562 54.4939C76.9656 54.4939 76.5281 54.4064 76.1437 54.2314C75.7593 54.0533 75.4562 53.7892 75.2344 53.4392C75.0156 53.0892 74.9062 52.6549 74.9062 52.1361V47.5752H76.0781V52.1361C76.0781 52.4642 76.1344 52.7346 76.2469 52.947C76.3593 53.1564 76.5187 53.3111 76.7249 53.4111C76.9313 53.5111 77.175 53.5611 77.4562 53.5611C77.7375 53.5611 77.9797 53.5111 78.1828 53.4111C78.389 53.3111 78.5484 53.1564 78.6609 52.947C78.7734 52.7346 78.8297 52.4642 78.8297 52.1361V47.5752ZM86.6952 47.5752V54.4002H85.5184L82.4576 49.5111V54.4002H81.2816V47.5752H82.4576L85.528 52.4736V47.5752H86.6952ZM90.08 54.4002H88.6216L88.6312 53.4674H90.08C90.5016 53.4674 90.8544 53.3752 91.1392 53.1908C91.4264 53.0064 91.6424 52.7423 91.7856 52.3986C91.9328 52.0549 92.0064 51.6454 92.0064 51.1705V50.8002C92.0064 50.4314 91.964 50.1049 91.88 49.8205C91.7984 49.5361 91.6768 49.297 91.5144 49.1033C91.3544 48.9095 91.1576 48.7626 90.9232 48.6626C90.692 48.5626 90.4248 48.5126 90.1216 48.5126H88.5936V47.5752H90.1216C90.5752 47.5752 90.9888 47.6518 91.364 47.8049C91.7392 47.9549 92.0624 48.172 92.3344 48.4564C92.6096 48.7408 92.82 49.0814 92.9672 49.4783C93.1144 49.8752 93.1872 50.3189 93.1872 50.8095V51.1705C93.1872 51.6611 93.1144 52.1049 92.9672 52.5018C92.82 52.8986 92.6096 53.2392 92.3344 53.5236C92.0592 53.8049 91.7312 54.022 91.3504 54.1752C90.972 54.3251 90.5488 54.4002 90.08 54.4002ZM89.2736 47.5752V54.4002H88.0968V47.5752H89.2736ZM96.9232 48.4846L94.884 54.4002H93.6512L96.22 47.5752H97.008L96.9232 48.4846ZM98.6296 54.4002L96.5856 48.4846L96.4968 47.5752H97.2888L99.8672 54.4002H98.6296ZM98.5312 51.8689V52.8018H94.8184V51.8689H98.5312ZM102.849 47.5752V54.4002H101.682V47.5752H102.849ZM104.99 47.5752V48.5126H99.5576V47.5752H104.99ZM107.147 47.5752V54.4002H105.97V47.5752H107.147ZM114.051 50.8002V51.1752C114.051 51.6908 113.984 52.1533 113.85 52.5626C113.716 52.972 113.523 53.3205 113.274 53.608C113.026 53.8954 112.73 54.1158 112.383 54.2689C112.036 54.4189 111.651 54.4939 111.23 54.4939C110.811 54.4939 110.428 54.4189 110.082 54.2689C109.738 54.1158 109.439 53.8954 109.186 53.608C108.933 53.3205 108.736 52.972 108.595 52.5626C108.458 52.1533 108.389 51.6908 108.389 51.1752V50.8002C108.389 50.2846 108.458 49.8236 108.595 49.4174C108.733 49.008 108.926 48.6595 109.177 48.372C109.43 48.0814 109.728 47.8611 110.072 47.7111C110.418 47.558 110.802 47.4814 111.22 47.4814C111.642 47.4814 112.026 47.558 112.374 47.7111C112.72 47.8611 113.018 48.0814 113.269 48.372C113.518 48.6595 113.711 49.008 113.846 49.4174C113.983 49.8236 114.051 50.2846 114.051 50.8002ZM112.875 51.1752V50.7908C112.875 50.4095 112.838 50.0736 112.762 49.783C112.69 49.4892 112.583 49.2439 112.439 49.047C112.298 48.847 112.125 48.697 111.918 48.597C111.713 48.4939 111.48 48.4423 111.22 48.4423C110.961 48.4423 110.73 48.4939 110.526 48.597C110.323 48.697 110.15 48.847 110.006 49.047C109.866 49.2439 109.758 49.4892 109.683 49.783C109.608 50.0736 109.57 50.4095 109.57 50.7908V51.1752C109.57 51.5564 109.608 51.8939 109.683 52.1877C109.758 52.4814 109.867 52.7298 110.011 52.933C110.158 53.133 110.333 53.2846 110.536 53.3877C110.739 53.4877 110.97 53.5377 111.23 53.5377C111.492 53.5377 111.725 53.4877 111.928 53.3877C112.131 53.2846 112.303 53.133 112.444 52.933C112.584 52.7298 112.69 52.4814 112.762 52.1877C112.838 51.8939 112.875 51.5564 112.875 51.1752ZM120.642 47.5752V54.4002H119.466L116.405 49.5111V54.4002H115.228V47.5752H116.405L119.475 52.4736V47.5752H120.642Z" fill="white"/>
</g>
<defs>
<linearGradient id="paint0_linear_298_7036" x1="127.625" y1="41.4475" x2="144.174" y2="41.4475" gradientUnits="userSpaceOnUse">
<stop stop-color="#EB207E"/>
<stop offset="1" stop-color="#FFCC07"/>
</linearGradient>
<linearGradient id="paint1_linear_298_7036" x1="128.469" y1="37.1543" x2="158.294" y2="37.1543" gradientUnits="userSpaceOnUse">
<stop stop-color="#116C61"/>
<stop offset="0.49" stop-color="#16AA4F"/>
<stop offset="1" stop-color="#B1D135"/>
</linearGradient>
<linearGradient id="paint2_linear_298_7036" x1="127.266" y1="16.1542" x2="148.243" y2="16.1542" gradientUnits="userSpaceOnUse">
<stop stop-color="#FAEF66"/>
<stop offset="1" stop-color="#FFCC07"/>
</linearGradient>
<linearGradient id="paint3_linear_298_7036" x1="125.219" y1="17.1274" x2="130.641" y2="17.1274" gradientUnits="userSpaceOnUse">
<stop stop-color="#90549F"/>
<stop offset="0.58" stop-color="#7E529E"/>
<stop offset="1" stop-color="#C266A6"/>
</linearGradient>
<clipPath id="clip0_298_7036">
<rect width="158.4" height="64" fill="white"/>
</clipPath>
</defs>
</svg>
