<svg width="186" height="366" viewBox="0 0 186 366" fill="none" xmlns="http://www.w3.org/2000/svg">
<g clip-path="url(#clip0_281_5009)">
<path d="M188.754 205.783C186.662 211.447 184.135 218.157 180.998 225.39C177.948 232.623 174.375 240.38 170.453 248.223C168.536 252.144 166.445 256.153 164.353 260.074C163.307 262.079 162.262 263.996 161.129 266C160.083 267.917 158.95 269.922 157.904 271.839C153.547 279.508 149.016 287.002 144.745 293.887C140.475 300.771 136.467 307.046 133.155 312.536C129.756 317.939 127.055 322.557 125.399 326.043C123.743 329.529 122.872 333.276 122.959 337.024C123.046 340.771 124.005 344.518 125.835 348.091C126.271 348.963 126.794 349.834 127.404 350.706C127.926 351.577 128.624 352.361 129.234 353.146C130.541 354.714 132.109 356.283 133.852 357.59C135.595 358.984 137.512 360.117 139.517 361.163C140.562 361.686 141.608 362.209 142.741 362.644C143.874 363.08 145.007 363.429 146.14 363.777C148.493 364.387 150.846 364.823 153.111 364.997C155.377 365.172 157.643 365.084 159.822 364.823C162 364.561 164.092 364.039 166.096 363.342C168.1 362.645 169.93 361.773 171.586 360.727C174.985 358.636 177.773 355.847 179.691 352.71C181.695 349.573 182.915 345.913 183.264 342.078C183.961 335.107 183.351 321.773 183.089 305.739C183.002 301.73 183.002 297.547 183.002 293.277C183.002 289.007 183.002 284.649 183.176 280.118C183.351 271.229 183.787 262.079 184.484 253.277C185.181 244.475 186.14 235.761 187.185 227.918C188.231 219.988 189.451 212.842 190.671 206.741C191.804 200.641 192.937 195.674 193.721 192.188C194.505 188.703 195.028 186.785 195.028 186.785C195.028 186.785 194.505 188.615 193.46 191.927C192.327 195.325 190.758 200.118 188.754 205.783Z" fill="#E7EBF2"/>
<path d="M141.873 232.362C143.79 229.835 145.707 227.22 147.624 224.693C149.542 222.166 151.546 219.551 153.55 217.111C157.472 212.144 161.481 207.351 165.228 203.081C167.058 200.903 168.888 198.898 170.631 196.981C172.374 195.064 174.029 193.234 175.511 191.665C178.561 188.441 181.088 185.826 182.831 183.996C184.661 182.166 185.62 181.208 185.62 181.208C185.62 181.208 184.574 182.166 182.744 183.735C180.914 185.391 178.125 187.744 174.814 190.445C168.104 195.935 158.779 203.256 148.409 210.489C138.126 217.722 126.884 224.78 117.036 230.793C107.189 236.806 98.7359 241.687 94.2915 244.911C92.0257 246.567 90.1085 248.484 88.7141 250.662C87.2327 252.841 86.3612 255.107 85.9255 257.547C85.7512 258.767 85.6641 259.987 85.6641 261.207C85.6641 261.817 85.7512 262.427 85.8384 263.037C85.9255 263.647 86.0998 264.257 86.2741 264.78C86.6227 265.913 87.0584 267.046 87.6684 268.179C87.9298 268.702 88.2784 269.225 88.627 269.748C88.9756 270.27 89.4113 270.706 89.847 271.229C90.7185 272.187 91.6771 272.972 92.7229 273.669C92.9843 273.843 93.2457 274.017 93.5071 274.192C93.7686 274.366 94.03 274.453 94.2915 274.627C94.8143 274.889 95.4244 275.15 96.0344 275.325C98.3873 276.109 100.74 276.458 103.18 276.109C108.06 275.499 112.766 272.885 116.339 268.614C119.564 264.78 124.792 256.85 131.328 247.438C134.553 242.558 138.126 237.503 141.873 232.362Z" fill="#E7EBF2"/>
<path d="M58.9996 130.489C61.7883 134.585 66.3198 137.548 71.7228 138.681C76.6029 139.727 86.1018 140.772 97.4307 142.254C103.095 142.951 109.195 143.823 115.47 144.868C121.744 145.827 128.193 146.96 134.467 148.267C140.742 149.487 146.755 150.881 152.245 152.188C157.822 153.496 162.877 154.89 167.147 156.11C171.417 157.33 174.903 158.376 177.343 159.16C179.783 159.944 181.09 160.38 181.09 160.38C181.09 160.38 179.783 159.857 177.43 158.986C176.297 158.55 174.903 157.94 173.247 157.33C171.591 156.633 169.848 155.936 167.844 155.064C159.827 151.666 149.108 146.699 137.953 140.773C126.886 134.934 115.383 128.223 105.535 122.123C95.6878 116.11 87.4961 110.795 82.5288 108.354C77.5616 105.827 72.1586 105.217 67.4527 106.699C62.7469 108.093 58.8253 111.579 57.0824 116.459C56.6467 117.679 56.3852 118.899 56.2981 120.119C56.2109 120.729 56.2109 121.339 56.2109 121.949C56.2109 122.559 56.2981 123.169 56.3852 123.779C56.821 126.132 57.6924 128.485 58.9996 130.489Z" fill="#E7EBF2"/>
<path d="M116.6 192.537C124.705 189.138 132.897 186.001 140.391 183.299C147.886 180.685 154.857 178.419 160.783 176.676C166.709 174.933 171.676 173.626 175.075 172.754C178.474 171.883 180.478 171.447 180.478 171.447C180.478 171.447 178.561 171.796 175.162 172.406C173.419 172.667 171.328 173.016 168.975 173.365C166.535 173.713 163.833 174.149 160.783 174.497C154.77 175.282 147.624 176.066 139.781 176.589C131.938 177.199 123.398 177.548 114.683 177.635C110.326 177.722 105.794 177.722 101.35 177.635C96.9056 177.548 92.3741 177.46 87.9297 177.286C79.128 176.938 70.4135 176.327 62.3089 175.717C46.187 174.497 32.5924 173.016 24.8364 173.277C20.9149 173.365 17.2548 174.41 13.9433 176.153C10.6317 177.896 7.75593 180.51 5.49015 183.735C4.88013 184.519 4.35729 185.391 3.83442 186.262C3.31154 187.133 2.87582 188.092 2.52724 189.051C1.74293 190.968 1.04575 192.972 0.610028 195.151C0.174301 197.33 0 199.508 0 201.861C0 202.994 0.087156 204.214 0.174301 205.347C0.261447 206.48 0.522893 207.7 0.784329 208.92C1.3072 211.273 2.00433 213.539 2.87579 215.717C3.83439 217.809 4.88014 219.813 6.10017 221.643C7.32021 223.473 8.71453 225.129 10.2831 226.523C11.7646 228.005 13.4204 229.225 15.0761 230.27C18.4748 232.362 22.2221 233.582 25.8822 233.843C29.6294 234.192 33.3767 233.582 37.0368 232.188C43.5727 229.661 55.163 222.95 69.2806 215.368C72.8535 213.451 76.5136 211.534 80.348 209.53C84.1824 207.613 88.104 205.608 92.1127 203.691C100.13 199.682 108.409 195.935 116.6 192.537Z" fill="#E7EBF2"/>
<path d="M69.1094 50.3153C74.3381 55.0212 85.4056 62.3413 98.5645 71.5787C105.1 76.1974 112.159 81.2521 119.218 86.6551C122.704 89.3566 126.277 92.1453 129.85 94.9339C133.336 97.7226 136.821 100.598 140.22 103.561C147.017 109.313 153.379 115.064 159.131 120.642C164.882 126.132 170.024 131.361 174.207 135.892C176.298 138.158 178.215 140.25 179.871 142.08C181.527 143.91 183.008 145.565 184.141 146.873C186.494 149.574 187.714 151.055 187.714 151.055C187.714 151.055 186.581 149.487 184.49 146.698C182.485 143.91 179.523 139.814 176.124 134.759C175.252 133.539 174.381 132.145 173.51 130.751C172.638 129.356 171.68 127.962 170.721 126.48C168.804 123.517 166.799 120.293 164.795 116.982C162.791 113.583 160.699 110.097 158.608 106.35C156.516 102.69 154.425 98.8554 152.42 94.9339C148.325 87.178 144.403 79.0735 140.743 70.9689C137.083 62.8644 133.684 54.9342 130.634 47.4397C124.534 32.5378 119.654 19.6402 115.994 12.8428C114.164 9.44415 111.636 6.56827 108.499 4.47678C106.93 3.43103 105.275 2.47278 103.532 1.77561C102.66 1.42703 101.702 1.07845 100.743 0.90416C100.307 0.817014 99.7846 0.642383 99.3488 0.555238C98.9131 0.468092 98.3902 0.381117 97.8674 0.293972C95.9502 0.0325359 93.8587 -0.0544392 91.7672 0.0327061C90.7214 0.119851 89.6757 0.206912 88.63 0.381202C87.5842 0.555493 86.5385 0.816759 85.4927 1.0782C83.4012 1.68821 81.3098 2.47278 79.2183 3.51852C77.1268 4.56426 75.2096 5.87136 73.2924 7.35283C72.3338 8.13714 71.4623 8.92119 70.5909 9.7055C69.7194 10.577 68.9351 11.3613 68.2379 12.3199C66.7565 14.0628 65.4493 15.8931 64.4036 17.8103C63.3578 19.7275 62.5735 21.7316 61.9635 23.736C61.3534 25.7403 60.9177 27.6578 60.8306 29.6621C60.5691 33.6708 61.092 37.5051 62.4864 40.9038C64.055 44.5639 66.2336 47.701 69.1094 50.3153Z" fill="#E7EBF2"/>
<path d="M192.153 18.856C191.107 18.1589 190.062 17.6361 188.929 17.2004C187.796 16.7646 186.576 16.5032 185.356 16.3289C184.136 16.1546 182.829 16.2418 181.609 16.3289C180.301 16.5032 179.081 16.7646 177.948 17.2004C176.903 17.6361 175.857 18.1592 174.985 18.7692C173.765 19.5535 172.633 20.5992 171.674 21.7321C171.412 22.0807 171.064 22.429 170.802 22.7776C170.454 23.3004 170.105 23.8236 169.844 24.3464C167.404 28.6166 166.794 34.0194 168.188 39.4224C169.408 44.3026 172.72 53.2788 176.467 64.0848C180.214 74.8908 184.397 87.5269 187.709 99.8144C189.364 105.915 190.933 111.927 192.153 117.505C193.46 123.082 194.506 128.136 195.29 132.581C196.162 136.938 196.772 140.511 197.12 143.038C197.556 145.565 197.73 146.96 197.73 146.96C197.73 146.96 197.643 145.565 197.382 143.125C197.208 140.685 196.859 137.112 196.597 132.755C196.336 128.398 196.075 123.257 195.987 117.679C195.9 112.102 195.813 105.914 195.987 99.6399C196.075 96.5027 196.162 93.2784 196.249 90.1412C196.336 86.9168 196.51 83.7797 196.685 80.6424C197.033 74.368 197.556 68.1803 197.992 62.4287C198.95 50.9255 199.996 41.1655 199.996 35.6753C199.996 30.098 198.166 25.0433 194.767 21.4704C194.07 20.3375 193.112 19.466 192.153 18.856Z" fill="#E7EBF2"/>
</g>
<defs>
<clipPath id="clip0_281_5009">
<rect width="200" height="365.088" fill="white"/>
</clipPath>
</defs>
</svg>
