<svg width="64" height="64" viewBox="0 0 64 64" fill="none" xmlns="http://www.w3.org/2000/svg">
<path d="M4.98875 18.6562L29.6637 30.5713C30.3062 30.8775 31.1637 31.0375 32.0125 31.0375C32.8612 31.0375 33.7187 30.8775 34.36 30.5713L59.035 18.6562C60.3325 18.0312 60.3325 17.0087 59.035 16.3813L34.36 4.46625C33.7187 4.16 32.86 4 32.0125 4C31.165 4 30.3062 4.16 29.6637 4.46625L4.98875 16.3813C3.69125 17.0087 3.69125 18.0288 4.98875 18.6562Z" fill="#488AC9"/>
<path d="M59.0362 30.8626C59.0362 30.8626 54.53 28.6901 53.9325 28.3976C53.335 28.1051 53.1737 28.1213 52.5462 28.4126C51.9188 28.7038 34.3463 37.1913 34.3463 37.1913C33.6055 37.5112 32.8055 37.6705 31.9988 37.6588C31.1525 37.6588 30.2925 37.4976 29.6513 37.1913C29.6513 37.1913 12.545 28.9413 11.7425 28.5438C10.8737 28.1251 10.6237 28.1251 9.8325 28.5001L4.9575 30.8476C3.66 31.4726 3.66 32.4963 4.9575 33.1226L29.6363 45.0376C30.2775 45.3438 31.1363 45.5038 31.9838 45.5038C32.8313 45.5038 33.69 45.3438 34.3325 45.0376L59.0075 33.1251C60.3337 32.5101 60.3337 31.4901 59.0362 30.8626Z" fill="#488AC9"/>
<path d="M59.0391 45.3439C59.0391 45.3439 54.5328 43.1714 53.9353 42.8751C53.3378 42.5789 53.1766 42.5989 52.5491 42.8901C51.9216 43.1814 34.3641 51.6876 34.3641 51.6876C33.6232 52.0069 32.8232 52.1658 32.0166 52.1539C31.1703 52.1539 30.3103 51.9939 29.6678 51.6876C29.6678 51.6876 12.5616 43.4376 11.7603 43.0401C10.8853 42.6164 10.6353 42.6164 9.84906 42.9964L4.97406 45.3439C3.67531 45.9689 3.67531 46.9914 4.97406 47.6189L29.6491 59.5339C30.2903 59.8539 31.1491 60.0001 31.9966 60.0001C32.8441 60.0001 33.7028 59.8401 34.3441 59.5339L59.0241 47.6251C60.3366 46.9914 60.3366 45.9714 59.0391 45.3439Z" fill="#488AC9"/>
</svg>
