<svg width="38" height="54" viewBox="0 0 38 54" fill="none" xmlns="http://www.w3.org/2000/svg">
<path d="M19.0026 25.6666C17.2345 25.6666 15.5388 24.9642 14.2886 23.714C13.0383 22.4637 12.3359 20.768 12.3359 18.9999C12.3359 17.2318 13.0383 15.5361 14.2886 14.2859C15.5388 13.0356 17.2345 12.3333 19.0026 12.3333C20.7707 12.3333 22.4664 13.0356 23.7166 14.2859C24.9669 15.5361 25.6693 17.2318 25.6693 18.9999C25.6693 19.8754 25.4968 20.7423 25.1618 21.5511C24.8268 22.36 24.3357 23.0949 23.7166 23.714C23.0976 24.333 22.3627 24.8241 21.5538 25.1591C20.745 25.4941 19.8781 25.6666 19.0026 25.6666ZM19.0026 0.333252C14.0519 0.333252 9.30396 2.29991 5.80328 5.80059C2.3026 9.30127 0.335938 14.0492 0.335938 18.9999C0.335938 32.9999 19.0026 53.6666 19.0026 53.6666C19.0026 53.6666 37.6693 32.9999 37.6693 18.9999C37.6693 14.0492 35.7026 9.30127 32.2019 5.80059C28.7012 2.29991 23.9533 0.333252 19.0026 0.333252Z" fill="#488AC9"/>
</svg>
