<svg width="1440" height="1291" viewBox="0 0 1440 1291" fill="none" xmlns="http://www.w3.org/2000/svg">
<g clip-path="url(#clip0_404_1658)">
<rect width="1440" height="1291" fill="white"/>
<g clip-path="url(#clip1_404_1658)">
<path d="M1316.14 -23.4611C1290.52 38.8286 1230.08 90.8651 1181.45 144.321C1133.79 196.725 1073.38 266.045 1113.33 336.258C1147.7 396.664 1252.67 437.722 1339.73 457.242C1429.48 477.359 1520.15 484.625 1610.03 496.14C1651.88 501.502 1693.97 507.567 1735.66 516.85C1782.83 527.363 1824.2 543.549 1866.69 563.991C2023.41 639.445 2168.25 731.896 2307.85 822.64C2415.41 892.574 2520.87 964.563 2627.1 1035.77C2667.73 1063.02 2708.41 1090.27 2750.27 1116.61C2775.33 1132.36 2801.77 1150.02 2830.85 1161.41C2838.22 1164.29 2844.51 1165.42 2845.89 1162.46C2852.75 1147.75 2828.42 1118.71 2815.91 1102.77C2794.78 1075.87 2766.35 1050.5 2737.47 1026.29C2562.9 879.916 2353.9 743.384 2137.35 625.874C2069.43 589.017 1993.17 545.947 1914.19 525.73C1848.39 508.887 1780.79 501.718 1714.62 494.154C1570.97 477.734 1313.06 449.278 1286.72 321.351C1272.72 253.277 1305.15 187.482 1336.84 127.318C1366.64 70.7207 1412.09 11.2609 1410.1 -53.561C1408.53 -105.18 1372.23 -165.329 1333.62 -215.077C1288.94 -272.623 1225.4 -325.796 1153.66 -370.42C1133.61 -382.885 1110.49 -396.495 1086.07 -403.593C1044.55 -415.67 1072.72 -384.41 1084.71 -372.854C1108.18 -350.252 1136.21 -329.541 1160.09 -307.298C1219.13 -252.305 1271.81 -193.65 1303 -131.999C1322.87 -92.693 1330.73 -58.9463 1316.14 -23.4611Z" fill="#E8ECF4"/>
<path d="M111.94 392.539C86.3219 454.829 25.8798 506.865 -22.7434 560.321C-70.4072 612.725 -130.815 682.045 -90.8685 752.258C-56.4967 812.664 48.4728 853.722 135.532 873.242C225.29 893.359 315.958 900.625 405.831 912.14C447.683 917.502 489.771 923.567 531.466 932.85C578.639 943.363 620.008 959.549 662.497 979.991C819.215 1055.45 964.05 1147.9 1103.65 1238.64C1211.21 1308.57 1316.67 1380.56 1422.91 1451.77C1463.54 1479.02 1504.21 1506.27 1546.07 1532.61C1571.13 1548.36 1597.58 1566.02 1626.66 1577.41C1634.02 1580.29 1640.32 1581.42 1641.7 1578.46C1648.56 1563.75 1624.23 1534.71 1611.71 1518.77C1590.58 1491.87 1562.15 1466.5 1533.28 1442.29C1358.7 1295.92 1149.7 1159.38 933.16 1041.87C865.235 1005.02 788.97 961.947 709.993 941.73C644.194 924.887 576.59 917.718 510.424 910.154C366.778 893.734 108.862 865.278 82.5289 737.351C68.5198 669.277 100.954 603.482 132.647 543.318C162.441 486.721 207.89 427.261 205.908 362.439C204.332 310.82 168.032 250.671 129.423 200.923C84.7468 143.377 21.1999 90.2039 -50.5399 45.5802C-70.5854 33.1151 -93.7095 19.5055 -118.121 12.4066C-159.641 0.329729 -131.474 31.5901 -119.482 43.1463C-96.0166 65.7484 -67.9805 86.4594 -44.1082 108.702C14.9337 163.695 67.6103 222.35 98.8019 284.001C118.67 323.307 126.533 357.054 111.94 392.539Z" fill="#E8ECF4"/>
</g>
<g clip-path="url(#clip2_404_1658)">
<path d="M1428.75 1131.78C1426.66 1137.45 1424.14 1144.16 1421 1151.39C1417.95 1158.62 1414.37 1166.38 1410.45 1174.22C1408.54 1178.14 1406.44 1182.15 1404.35 1186.07C1403.31 1188.08 1402.26 1190 1401.13 1192C1400.08 1193.92 1398.95 1195.92 1397.9 1197.84C1393.55 1205.51 1389.02 1213 1384.75 1219.89C1380.48 1226.77 1376.47 1233.05 1373.16 1238.54C1369.76 1243.94 1367.05 1248.56 1365.4 1252.04C1363.74 1255.53 1362.87 1259.28 1362.96 1263.02C1363.05 1266.77 1364 1270.52 1365.83 1274.09C1366.27 1274.96 1366.79 1275.83 1367.4 1276.71C1367.93 1277.58 1368.62 1278.36 1369.23 1279.15C1370.54 1280.71 1372.11 1282.28 1373.85 1283.59C1375.6 1284.98 1377.51 1286.12 1379.52 1287.16C1380.56 1287.69 1381.61 1288.21 1382.74 1288.64C1383.87 1289.08 1385.01 1289.43 1386.14 1289.78C1388.49 1290.39 1390.85 1290.82 1393.11 1291C1395.38 1291.17 1397.64 1291.08 1399.82 1290.82C1402 1290.56 1404.09 1290.04 1406.1 1289.34C1408.1 1288.64 1409.93 1287.77 1411.59 1286.73C1414.98 1284.64 1417.77 1281.85 1419.69 1278.71C1421.7 1275.57 1422.92 1271.91 1423.26 1268.08C1423.96 1261.11 1423.35 1247.77 1423.09 1231.74C1423 1227.73 1423 1223.55 1423 1219.28C1423 1215.01 1423 1210.65 1423.18 1206.12C1423.35 1197.23 1423.79 1188.08 1424.48 1179.28C1425.18 1170.48 1426.14 1161.76 1427.19 1153.92C1428.23 1145.99 1429.45 1138.84 1430.67 1132.74C1431.8 1126.64 1432.94 1121.67 1433.72 1118.19C1434.51 1114.7 1435.03 1112.79 1435.03 1112.79C1435.03 1112.79 1434.51 1114.62 1433.46 1117.93C1432.33 1121.33 1430.76 1126.12 1428.75 1131.78Z" fill="#E7EBF2"/>
<path d="M1381.87 1158.36C1383.79 1155.83 1385.71 1153.22 1387.62 1150.69C1389.54 1148.17 1391.55 1145.55 1393.55 1143.11C1397.47 1138.14 1401.48 1133.35 1405.23 1129.08C1407.06 1126.9 1408.89 1124.9 1410.63 1122.98C1412.37 1121.06 1414.03 1119.23 1415.51 1117.67C1418.56 1114.44 1421.09 1111.83 1422.83 1110C1424.66 1108.17 1425.62 1107.21 1425.62 1107.21C1425.62 1107.21 1424.57 1108.17 1422.74 1109.73C1420.91 1111.39 1418.13 1113.74 1414.81 1116.45C1408.1 1121.94 1398.78 1129.26 1388.41 1136.49C1378.13 1143.72 1366.88 1150.78 1357.04 1156.79C1347.19 1162.81 1338.74 1167.69 1334.29 1170.91C1332.03 1172.57 1330.11 1174.48 1328.71 1176.66C1327.23 1178.84 1326.36 1181.11 1325.93 1183.55C1325.75 1184.77 1325.66 1185.99 1325.66 1187.21C1325.66 1187.82 1325.75 1188.43 1325.84 1189.04C1325.93 1189.65 1326.1 1190.26 1326.27 1190.78C1326.62 1191.91 1327.06 1193.05 1327.67 1194.18C1327.93 1194.7 1328.28 1195.22 1328.63 1195.75C1328.98 1196.27 1329.41 1196.71 1329.85 1197.23C1330.72 1198.19 1331.68 1198.97 1332.72 1199.67C1332.98 1199.84 1333.25 1200.02 1333.51 1200.19C1333.77 1200.37 1334.03 1200.45 1334.29 1200.63C1334.81 1200.89 1335.42 1201.15 1336.03 1201.32C1338.39 1202.11 1340.74 1202.46 1343.18 1202.11C1348.06 1201.5 1352.77 1198.88 1356.34 1194.61C1359.56 1190.78 1364.79 1182.85 1371.33 1173.44C1374.55 1168.56 1378.13 1163.5 1381.87 1158.36Z" fill="#E7EBF2"/>
<path d="M1299 1056.49C1301.79 1060.59 1306.32 1063.55 1311.72 1064.68C1316.6 1065.73 1326.1 1066.77 1337.43 1068.25C1343.1 1068.95 1349.2 1069.82 1355.47 1070.87C1361.74 1071.83 1368.19 1072.96 1374.47 1074.27C1380.74 1075.49 1386.75 1076.88 1392.25 1078.19C1397.82 1079.5 1402.88 1080.89 1407.15 1082.11C1411.42 1083.33 1414.9 1084.38 1417.34 1085.16C1419.78 1085.94 1421.09 1086.38 1421.09 1086.38C1421.09 1086.38 1419.78 1085.86 1417.43 1084.99C1416.3 1084.55 1414.9 1083.94 1413.25 1083.33C1411.59 1082.63 1409.85 1081.94 1407.84 1081.06C1399.83 1077.67 1389.11 1072.7 1377.95 1066.77C1366.89 1060.93 1355.38 1054.22 1345.54 1048.12C1335.69 1042.11 1327.5 1036.79 1322.53 1034.35C1317.56 1031.83 1312.16 1031.22 1307.45 1032.7C1302.75 1034.09 1298.83 1037.58 1297.08 1042.46C1296.65 1043.68 1296.39 1044.9 1296.3 1046.12C1296.21 1046.73 1296.21 1047.34 1296.21 1047.95C1296.21 1048.56 1296.3 1049.17 1296.39 1049.78C1296.82 1052.13 1297.69 1054.48 1299 1056.49Z" fill="#E7EBF2"/>
<path d="M1356.6 1118.54C1364.7 1115.14 1372.9 1112 1380.39 1109.3C1387.89 1106.68 1394.86 1104.42 1400.78 1102.68C1406.71 1100.93 1411.68 1099.63 1415.08 1098.75C1418.47 1097.88 1420.48 1097.45 1420.48 1097.45C1420.48 1097.45 1418.56 1097.8 1415.16 1098.41C1413.42 1098.67 1411.33 1099.02 1408.97 1099.36C1406.53 1099.71 1403.83 1100.15 1400.78 1100.5C1394.77 1101.28 1387.62 1102.07 1379.78 1102.59C1371.94 1103.2 1363.4 1103.55 1354.68 1103.63C1350.33 1103.72 1345.79 1103.72 1341.35 1103.63C1336.91 1103.55 1332.37 1103.46 1327.93 1103.29C1319.13 1102.94 1310.41 1102.33 1302.31 1101.72C1286.19 1100.5 1272.59 1099.02 1264.84 1099.28C1260.91 1099.36 1257.25 1100.41 1253.94 1102.15C1250.63 1103.9 1247.76 1106.51 1245.49 1109.73C1244.88 1110.52 1244.36 1111.39 1243.83 1112.26C1243.31 1113.13 1242.88 1114.09 1242.53 1115.05C1241.74 1116.97 1241.05 1118.97 1240.61 1121.15C1240.17 1123.33 1240 1125.51 1240 1127.86C1240 1128.99 1240.09 1130.21 1240.17 1131.35C1240.26 1132.48 1240.52 1133.7 1240.78 1134.92C1241.31 1137.27 1242 1139.54 1242.88 1141.72C1243.83 1143.81 1244.88 1145.81 1246.1 1147.64C1247.32 1149.47 1248.71 1151.13 1250.28 1152.52C1251.76 1154 1253.42 1155.22 1255.08 1156.27C1258.47 1158.36 1262.22 1159.58 1265.88 1159.84C1269.63 1160.19 1273.38 1159.58 1277.04 1158.19C1283.57 1155.66 1295.16 1148.95 1309.28 1141.37C1312.85 1139.45 1316.51 1137.53 1320.35 1135.53C1324.18 1133.61 1328.1 1131.61 1332.11 1129.69C1340.13 1125.68 1348.41 1121.94 1356.6 1118.54Z" fill="#E7EBF2"/>
<path d="M1309.11 976.315C1314.34 981.021 1325.41 988.341 1338.56 997.579C1345.1 1002.2 1352.16 1007.25 1359.22 1012.66C1362.7 1015.36 1366.28 1018.15 1369.85 1020.93C1373.34 1023.72 1376.82 1026.6 1380.22 1029.56C1387.02 1035.31 1393.38 1041.06 1399.13 1046.64C1404.88 1052.13 1410.02 1057.36 1414.21 1061.89C1416.3 1064.16 1418.22 1066.25 1419.87 1068.08C1421.53 1069.91 1423.01 1071.57 1424.14 1072.87C1426.49 1075.57 1427.71 1077.06 1427.71 1077.06C1427.71 1077.06 1426.58 1075.49 1424.49 1072.7C1422.49 1069.91 1419.52 1065.81 1416.12 1060.76C1415.25 1059.54 1414.38 1058.15 1413.51 1056.75C1412.64 1055.36 1411.68 1053.96 1410.72 1052.48C1408.8 1049.52 1406.8 1046.29 1404.79 1042.98C1402.79 1039.58 1400.7 1036.1 1398.61 1032.35C1396.52 1028.69 1394.42 1024.86 1392.42 1020.93C1388.32 1013.18 1384.4 1005.07 1380.74 996.969C1377.08 988.864 1373.68 980.934 1370.63 973.44C1364.53 958.538 1359.65 945.64 1355.99 938.843C1354.16 935.444 1351.64 932.568 1348.5 930.477C1346.93 929.431 1345.27 928.473 1343.53 927.776C1342.66 927.427 1341.7 927.078 1340.74 926.904C1340.31 926.817 1339.78 926.642 1339.35 926.555C1338.91 926.468 1338.39 926.381 1337.87 926.294C1335.95 926.033 1333.86 925.946 1331.77 926.033C1330.72 926.12 1329.68 926.207 1328.63 926.381C1327.58 926.555 1326.54 926.817 1325.49 927.078C1323.4 927.688 1321.31 928.473 1319.22 929.519C1317.13 930.564 1315.21 931.871 1313.29 933.353C1312.33 934.137 1311.46 934.921 1310.59 935.706C1309.72 936.577 1308.94 937.361 1308.24 938.32C1306.76 940.063 1305.45 941.893 1304.4 943.81C1303.36 945.727 1302.57 947.732 1301.96 949.736C1301.35 951.74 1300.92 953.658 1300.83 955.662C1300.57 959.671 1301.09 963.505 1302.49 966.904C1304.05 970.564 1306.23 973.701 1309.11 976.315Z" fill="#E7EBF2"/>
<path d="M1432.15 944.856C1431.11 944.159 1430.06 943.636 1428.93 943.2C1427.8 942.765 1426.58 942.503 1425.36 942.329C1424.14 942.155 1422.83 942.242 1421.61 942.329C1420.3 942.503 1419.08 942.765 1417.95 943.2C1416.9 943.636 1415.86 944.159 1414.99 944.769C1413.77 945.554 1412.63 946.599 1411.67 947.732C1411.41 948.081 1411.06 948.429 1410.8 948.778C1410.45 949.3 1410.11 949.824 1409.84 950.346C1407.4 954.617 1406.79 960.019 1408.19 965.422C1409.41 970.303 1412.72 979.279 1416.47 990.085C1420.21 1000.89 1424.4 1013.53 1427.71 1025.81C1429.36 1031.91 1430.93 1037.93 1432.15 1043.5C1433.46 1049.08 1434.51 1054.14 1435.29 1058.58C1436.16 1062.94 1436.77 1066.51 1437.12 1069.04C1437.56 1071.57 1437.73 1072.96 1437.73 1072.96C1437.73 1072.96 1437.64 1071.57 1437.38 1069.13C1437.21 1066.69 1436.86 1063.11 1436.6 1058.76C1436.34 1054.4 1436.07 1049.26 1435.99 1043.68C1435.9 1038.1 1435.81 1031.91 1435.99 1025.64C1436.07 1022.5 1436.16 1019.28 1436.25 1016.14C1436.34 1012.92 1436.51 1009.78 1436.68 1006.64C1437.03 1000.37 1437.56 994.18 1437.99 988.429C1438.95 976.926 1440 967.165 1440 961.675C1440 956.098 1438.17 951.043 1434.77 947.47C1434.07 946.337 1433.11 945.466 1432.15 944.856Z" fill="#E7EBF2"/>
</g>
</g>
<defs>
<clipPath id="clip0_404_1658">
<rect width="1440" height="1291" fill="white"/>
</clipPath>
<clipPath id="clip1_404_1658">
<rect width="1440" height="880" fill="white"/>
</clipPath>
<clipPath id="clip2_404_1658">
<rect width="200" height="365.088" fill="white" transform="translate(1240 926)"/>
</clipPath>
</defs>
</svg>
