<svg width="375" height="1951" viewBox="0 0 375 1951" fill="none" xmlns="http://www.w3.org/2000/svg">
<g clip-path="url(#clip0_404_1722)">
<rect width="375" height="1951" fill="white"/>
<path d="M409.135 351.539C383.517 413.829 323.075 465.865 274.452 519.321C226.788 571.725 166.38 641.045 206.327 711.258C240.699 771.664 345.668 812.722 432.728 832.242C522.485 852.359 613.153 859.625 703.026 871.14C744.878 876.502 786.966 882.567 828.662 891.85C875.834 902.363 917.204 918.549 959.692 938.991C1116.41 1014.45 1261.25 1106.9 1400.85 1197.64C1508.41 1267.57 1613.87 1339.56 1720.1 1410.77C1760.73 1438.02 1801.41 1465.27 1843.27 1491.61C1868.33 1507.36 1894.77 1525.02 1923.85 1536.41C1931.22 1539.29 1937.51 1540.42 1938.89 1537.46C1945.75 1522.75 1921.42 1493.71 1908.91 1477.77C1887.78 1450.87 1859.35 1425.5 1830.47 1401.29C1655.9 1254.92 1446.9 1118.38 1230.35 1000.87C1162.43 964.017 1086.17 920.947 1007.19 900.73C941.389 883.887 873.785 876.718 807.62 869.154C663.974 852.734 406.057 824.278 379.724 696.351C365.715 628.277 398.15 562.482 429.842 502.318C459.637 445.721 505.085 386.261 503.103 321.439C501.527 269.82 465.227 209.671 426.619 159.923C381.942 102.377 318.395 49.2039 246.655 4.58019C226.61 -7.88485 203.486 -21.4945 179.074 -28.5934C137.554 -40.6703 165.721 -9.40988 177.713 2.14635C201.179 24.7484 229.215 45.4594 253.087 67.7019C312.129 122.695 364.806 181.35 395.997 243.001C415.865 282.307 423.728 316.054 409.135 351.539Z" fill="#E8ECF4"/>
<path d="M-858.56 518.539C-884.178 580.829 -944.62 632.865 -993.243 686.321C-1040.91 738.725 -1101.32 808.045 -1061.37 878.258C-1027 938.664 -922.027 979.722 -834.968 999.242C-745.21 1019.36 -654.542 1026.63 -564.669 1038.14C-522.817 1043.5 -480.729 1049.57 -439.034 1058.85C-391.861 1069.36 -350.492 1085.55 -308.003 1105.99C-151.285 1181.45 -6.4502 1273.9 133.151 1364.64C240.713 1434.57 346.175 1506.56 452.409 1577.77C493.038 1605.02 533.71 1632.27 575.571 1658.61C600.634 1674.36 627.078 1692.02 656.158 1703.41C663.52 1706.29 669.818 1707.42 671.196 1704.46C678.059 1689.75 653.727 1660.71 641.212 1644.77C620.083 1617.87 591.654 1592.5 562.778 1568.29C388.201 1421.92 179.204 1285.38 -37.3404 1167.87C-105.265 1131.02 -181.53 1087.95 -260.507 1067.73C-326.306 1050.89 -393.91 1043.72 -460.076 1036.15C-603.722 1019.73 -861.638 991.278 -887.971 863.351C-901.98 795.277 -869.546 729.482 -837.853 669.318C-808.059 612.721 -762.61 553.261 -764.592 488.439C-766.168 436.82 -802.468 376.671 -841.077 326.923C-885.753 269.377 -949.3 216.204 -1021.04 171.58C-1041.09 159.115 -1064.21 145.505 -1088.62 138.407C-1130.14 126.33 -1101.97 157.59 -1089.98 169.146C-1066.52 191.748 -1038.48 212.459 -1014.61 234.702C-955.566 289.695 -902.89 348.35 -871.698 410.001C-851.83 449.307 -843.967 483.054 -858.56 518.539Z" fill="#E8ECF4"/>
<g clip-path="url(#clip1_404_1722)">
<path d="M365.448 1754.56C363.615 1759.42 361.4 1765.18 358.65 1771.39C355.976 1777.59 352.845 1784.25 349.407 1790.98C347.727 1794.34 345.894 1797.78 344.061 1801.15C343.144 1802.87 342.227 1804.51 341.234 1806.23C340.318 1807.88 339.325 1809.6 338.408 1811.24C334.589 1817.82 330.617 1824.25 326.874 1830.16C323.132 1836.07 319.618 1841.45 316.715 1846.16C313.737 1850.8 311.369 1854.76 309.917 1857.75C308.466 1860.74 307.702 1863.96 307.779 1867.17C307.855 1870.39 308.695 1873.6 310.299 1876.67C310.681 1877.41 311.139 1878.16 311.674 1878.91C312.132 1879.66 312.744 1880.33 313.278 1881C314.424 1882.35 315.799 1883.69 317.327 1884.82C318.854 1886.01 320.535 1886.98 322.291 1887.88C323.208 1888.33 324.125 1888.78 325.118 1889.15C326.111 1889.53 327.104 1889.83 328.097 1890.12C330.159 1890.65 332.221 1891.02 334.207 1891.17C336.193 1891.32 338.179 1891.25 340.089 1891.02C341.998 1890.8 343.831 1890.35 345.588 1889.75C347.345 1889.15 348.949 1888.41 350.4 1887.51C353.379 1885.71 355.824 1883.32 357.504 1880.63C359.261 1877.94 360.33 1874.8 360.636 1871.51C361.247 1865.53 360.712 1854.08 360.483 1840.33C360.406 1836.89 360.407 1833.3 360.407 1829.63C360.407 1825.97 360.407 1822.23 360.559 1818.34C360.712 1810.72 361.094 1802.87 361.705 1795.31C362.316 1787.76 363.156 1780.29 364.073 1773.56C364.99 1766.75 366.059 1760.62 367.128 1755.39C368.121 1750.15 369.114 1745.89 369.802 1742.9C370.489 1739.91 370.947 1738.26 370.947 1738.26C370.947 1738.26 370.489 1739.83 369.572 1742.68C368.656 1745.59 367.281 1749.63 365.448 1754.56Z" fill="#E7EBF2"/>
<path d="M324.353 1777.37C326.033 1775.2 327.714 1772.96 329.394 1770.79C331.075 1768.62 332.831 1766.38 334.588 1764.28C338.026 1760.02 341.539 1755.91 344.824 1752.25C346.428 1750.38 348.032 1748.66 349.559 1747.01C351.087 1745.37 352.538 1743.8 353.837 1742.45C356.51 1739.68 358.725 1737.44 360.253 1735.87C361.857 1734.3 362.697 1733.48 362.697 1733.48C362.697 1733.48 361.781 1734.3 360.177 1735.65C358.573 1737.07 356.128 1739.09 353.226 1741.4C347.344 1746.11 339.171 1752.4 330.082 1758.6C321.068 1764.81 311.215 1770.86 302.584 1776.02C293.953 1781.18 286.543 1785.37 282.648 1788.14C280.662 1789.56 278.981 1791.2 277.759 1793.07C276.461 1794.94 275.697 1796.88 275.315 1798.98C275.162 1800.03 275.086 1801.07 275.086 1802.12C275.086 1802.64 275.162 1803.17 275.239 1803.69C275.315 1804.21 275.468 1804.74 275.621 1805.18C275.926 1806.16 276.308 1807.2 276.843 1808.1C277.072 1808.55 277.377 1809 277.683 1809.45C277.988 1809.89 278.37 1810.27 278.752 1810.72C279.516 1811.54 280.356 1812.21 281.273 1812.81C281.502 1812.96 281.731 1813.11 281.96 1813.26C282.19 1813.41 282.419 1813.48 282.648 1813.63C283.106 1813.86 283.641 1814.08 284.175 1814.23C286.238 1814.9 288.3 1815.2 290.439 1814.9C294.716 1814.38 298.841 1812.14 301.973 1808.47C304.799 1805.18 309.382 1798.38 315.111 1790.3C317.937 1786.12 321.068 1781.78 324.353 1777.37Z" fill="#E7EBF2"/>
<path d="M251.788 1689.96C254.232 1693.48 258.204 1696.02 262.94 1696.99C267.217 1697.89 275.543 1698.78 285.473 1700.06C290.438 1700.73 295.785 1701.4 301.284 1702.3C306.784 1703.12 312.436 1704.09 317.936 1705.21C323.435 1706.26 328.706 1707.46 333.518 1708.58C338.406 1709.7 342.837 1710.9 346.579 1711.94C350.322 1712.99 353.377 1713.89 355.516 1714.56C357.655 1715.23 358.801 1715.61 358.801 1715.61C358.801 1715.61 357.655 1715.16 355.593 1714.41C354.6 1714.04 353.377 1713.51 351.926 1712.99C350.475 1712.39 348.947 1711.79 347.19 1711.05C340.163 1708.13 330.768 1703.87 320.991 1698.78C311.29 1693.77 301.208 1688.02 292.576 1682.78C283.945 1677.62 276.765 1673.06 272.411 1670.97C268.058 1668.8 263.322 1668.28 259.197 1669.55C255.072 1670.74 251.635 1673.74 250.108 1677.92C249.726 1678.97 249.496 1680.02 249.42 1681.06C249.344 1681.59 249.344 1682.11 249.344 1682.63C249.344 1683.16 249.42 1683.68 249.497 1684.2C249.802 1686.22 250.566 1688.24 251.788 1689.96Z" fill="#E7EBF2"/>
<path d="M302.2 1743.12C309.304 1740.21 316.484 1737.52 323.053 1735.2C329.622 1732.96 335.733 1731.01 340.927 1729.52C346.121 1728.02 350.474 1726.9 353.453 1726.15C356.432 1725.4 358.189 1725.03 358.189 1725.03C358.189 1725.03 356.509 1725.33 353.53 1725.85C352.002 1726.08 350.169 1726.37 348.107 1726.67C345.968 1726.97 343.6 1727.35 340.927 1727.65C335.656 1728.32 329.393 1728.99 322.518 1729.44C315.644 1729.96 308.158 1730.26 300.52 1730.34C296.701 1730.41 292.729 1730.41 288.833 1730.34C284.938 1730.26 280.966 1730.19 277.07 1730.04C269.356 1729.74 261.717 1729.22 254.614 1728.69C240.483 1727.65 228.567 1726.38 221.769 1726.6C218.332 1726.67 215.124 1727.57 212.221 1729.07C209.319 1730.56 206.798 1732.81 204.812 1735.57C204.277 1736.25 203.819 1736.99 203.361 1737.74C202.903 1738.49 202.521 1739.31 202.215 1740.13C201.528 1741.78 200.917 1743.5 200.535 1745.37C200.153 1747.24 200 1749.11 200 1751.12C200 1752.1 200.076 1753.14 200.153 1754.12C200.229 1755.09 200.458 1756.13 200.687 1757.18C201.146 1759.2 201.757 1761.14 202.521 1763.01C203.361 1764.81 204.277 1766.53 205.347 1768.1C206.416 1769.67 207.638 1771.09 209.013 1772.28C210.312 1773.56 211.763 1774.6 213.214 1775.5C216.193 1777.29 219.478 1778.34 222.686 1778.57C225.97 1778.86 229.255 1778.34 232.463 1777.14C238.191 1774.98 248.35 1769.22 260.724 1762.71C263.856 1761.07 267.064 1759.42 270.425 1757.7C273.786 1756.06 277.223 1754.34 280.737 1752.69C287.764 1749.33 295.02 1746.11 302.2 1743.12Z" fill="#E7EBF2"/>
<path d="M260.649 1621.17C265.232 1625.21 274.933 1631.49 286.467 1639.42C292.195 1643.38 298.382 1647.72 304.569 1652.35C307.625 1654.67 310.756 1657.06 313.888 1659.45C316.944 1661.85 319.999 1664.31 322.978 1666.86C328.936 1671.79 334.512 1676.73 339.553 1681.51C344.594 1686.22 349.101 1690.71 352.767 1694.6C354.6 1696.54 356.281 1698.34 357.732 1699.91C359.183 1701.48 360.482 1702.9 361.475 1704.02C363.537 1706.34 364.606 1707.61 364.606 1707.61C364.606 1707.61 363.614 1706.26 361.78 1703.87C360.024 1701.48 357.427 1697.96 354.448 1693.63C353.684 1692.58 352.92 1691.38 352.156 1690.19C351.392 1688.99 350.552 1687.79 349.712 1686.52C348.031 1683.98 346.275 1681.21 344.518 1678.37C342.761 1675.46 340.928 1672.46 339.095 1669.25C337.261 1666.11 335.428 1662.82 333.671 1659.45C330.081 1652.8 326.644 1645.85 323.436 1638.89C320.228 1631.94 317.249 1625.13 314.576 1618.7C309.229 1605.92 304.951 1594.85 301.743 1589.02C300.139 1586.1 297.924 1583.64 295.174 1581.84C293.799 1580.94 292.348 1580.12 290.821 1579.52C290.057 1579.22 289.216 1578.93 288.376 1578.78C287.994 1578.7 287.536 1578.55 287.154 1578.48C286.772 1578.4 286.314 1578.33 285.856 1578.25C284.175 1578.03 282.342 1577.95 280.509 1578.03C279.592 1578.1 278.676 1578.18 277.759 1578.33C276.842 1578.48 275.926 1578.7 275.009 1578.93C273.176 1579.45 271.343 1580.12 269.51 1581.02C267.676 1581.92 265.996 1583.04 264.316 1584.31C263.475 1584.98 262.712 1585.65 261.948 1586.33C261.184 1587.08 260.496 1587.75 259.885 1588.57C258.587 1590.07 257.441 1591.64 256.525 1593.28C255.608 1594.93 254.921 1596.65 254.386 1598.37C253.851 1600.09 253.469 1601.73 253.393 1603.45C253.164 1606.89 253.622 1610.18 254.844 1613.1C256.143 1616.24 258.052 1618.93 260.649 1621.17Z" fill="#E7EBF2"/>
<path d="M368.423 1594.18C367.506 1593.58 366.59 1593.13 365.597 1592.76C364.604 1592.38 363.535 1592.16 362.465 1592.01C361.396 1591.86 360.25 1591.94 359.181 1592.01C358.035 1592.16 356.966 1592.38 355.973 1592.76C355.056 1593.13 354.139 1593.58 353.376 1594.1C352.306 1594.78 351.313 1595.67 350.473 1596.65C350.244 1596.95 349.938 1597.24 349.709 1597.54C349.404 1597.99 349.098 1598.44 348.869 1598.89C346.73 1602.55 346.196 1607.19 347.418 1611.83C348.487 1616.01 351.39 1623.71 354.674 1632.99C357.958 1642.26 361.625 1653.1 364.527 1663.64C365.979 1668.88 367.354 1674.03 368.423 1678.82C369.569 1683.61 370.485 1687.94 371.173 1691.76C371.937 1695.49 372.471 1698.56 372.777 1700.73C373.159 1702.9 373.311 1704.09 373.311 1704.09C373.311 1704.09 373.235 1702.9 373.006 1700.8C372.853 1698.71 372.548 1695.64 372.318 1691.91C372.089 1688.17 371.86 1683.76 371.784 1678.97C371.707 1674.18 371.631 1668.88 371.784 1663.49C371.86 1660.8 371.937 1658.03 372.013 1655.34C372.089 1652.58 372.242 1649.88 372.395 1647.19C372.7 1641.81 373.159 1636.5 373.541 1631.56C374.381 1621.69 375.297 1613.32 375.297 1608.61C375.297 1603.82 373.693 1599.49 370.714 1596.42C370.103 1595.45 369.263 1594.7 368.423 1594.18Z" fill="#E7EBF2"/>
</g>
</g>
<defs>
<clipPath id="clip0_404_1722">
<rect width="375" height="1951" fill="white"/>
</clipPath>
<clipPath id="clip1_404_1722">
<rect width="175.299" height="313.249" fill="white" transform="translate(200 1578)"/>
</clipPath>
</defs>
</svg>
