<svg width="522" height="165" viewBox="0 0 522 165" fill="none" xmlns="http://www.w3.org/2000/svg">
<rect x="0.75" y="0.25" width="520.5" height="164.5" rx="8.25" fill="white"/>
<rect x="0.75" y="0.25" width="520.5" height="164.5" rx="8.25" stroke="#BDBDBD" stroke-width="0.5"/>
<path d="M59.1641 46.5039V75H53.5391V52.9883L46.7812 55.1367V50.7031L58.5586 46.5039H59.1641ZM87.5625 58.2812V63.2031C87.5625 65.3385 87.3346 67.181 86.8789 68.7305C86.4232 70.2669 85.7656 71.5299 84.9062 72.5195C84.0599 73.4961 83.0508 74.2188 81.8789 74.6875C80.707 75.1562 79.4049 75.3906 77.9727 75.3906C76.8268 75.3906 75.7591 75.2474 74.7695 74.9609C73.7799 74.6615 72.888 74.1992 72.0938 73.5742C71.3125 72.9492 70.6354 72.1615 70.0625 71.2109C69.5026 70.2474 69.0729 69.1016 68.7734 67.7734C68.474 66.4453 68.3242 64.9219 68.3242 63.2031V58.2812C68.3242 56.1458 68.5521 54.3164 69.0078 52.793C69.4766 51.2565 70.1341 50 70.9805 49.0234C71.8398 48.0469 72.8555 47.3307 74.0273 46.875C75.1992 46.4062 76.5013 46.1719 77.9336 46.1719C79.0794 46.1719 80.1406 46.3216 81.1172 46.6211C82.1068 46.9076 82.9987 47.3568 83.793 47.9688C84.5872 48.5807 85.2643 49.3685 85.8242 50.332C86.3841 51.2826 86.8138 52.4219 87.1133 53.75C87.4128 55.0651 87.5625 56.5755 87.5625 58.2812ZM81.918 63.9453V57.5195C81.918 56.4909 81.8594 55.5924 81.7422 54.8242C81.638 54.056 81.4753 53.4049 81.2539 52.8711C81.0326 52.3242 80.7591 51.8815 80.4336 51.543C80.1081 51.2044 79.737 50.957 79.3203 50.8008C78.9036 50.6445 78.4414 50.5664 77.9336 50.5664C77.2956 50.5664 76.7292 50.6901 76.2344 50.9375C75.7526 51.1849 75.3424 51.582 75.0039 52.1289C74.6654 52.6628 74.4049 53.3789 74.2227 54.2773C74.0534 55.1628 73.9688 56.2435 73.9688 57.5195V63.9453C73.9688 64.974 74.0208 65.8789 74.125 66.6602C74.2422 67.4414 74.4115 68.112 74.6328 68.6719C74.8672 69.2188 75.1406 69.668 75.4531 70.0195C75.7786 70.3581 76.1497 70.6055 76.5664 70.7617C76.9961 70.918 77.4648 70.9961 77.9727 70.9961C78.5977 70.9961 79.151 70.8724 79.6328 70.625C80.1276 70.3646 80.5443 69.9609 80.8828 69.4141C81.2344 68.8542 81.4948 68.125 81.6641 67.2266C81.8333 66.3281 81.918 65.2344 81.918 63.9453ZM110.531 58.2812V63.2031C110.531 65.3385 110.303 67.181 109.848 68.7305C109.392 70.2669 108.734 71.5299 107.875 72.5195C107.029 73.4961 106.02 74.2188 104.848 74.6875C103.676 75.1562 102.374 75.3906 100.941 75.3906C99.7956 75.3906 98.7279 75.2474 97.7383 74.9609C96.7487 74.6615 95.8568 74.1992 95.0625 73.5742C94.2812 72.9492 93.6042 72.1615 93.0312 71.2109C92.4714 70.2474 92.0417 69.1016 91.7422 67.7734C91.4427 66.4453 91.293 64.9219 91.293 63.2031V58.2812C91.293 56.1458 91.5208 54.3164 91.9766 52.793C92.4453 51.2565 93.1029 50 93.9492 49.0234C94.8086 48.0469 95.8242 47.3307 96.9961 46.875C98.168 46.4062 99.4701 46.1719 100.902 46.1719C102.048 46.1719 103.109 46.3216 104.086 46.6211C105.076 46.9076 105.967 47.3568 106.762 47.9688C107.556 48.5807 108.233 49.3685 108.793 50.332C109.353 51.2826 109.783 52.4219 110.082 53.75C110.382 55.0651 110.531 56.5755 110.531 58.2812ZM104.887 63.9453V57.5195C104.887 56.4909 104.828 55.5924 104.711 54.8242C104.607 54.056 104.444 53.4049 104.223 52.8711C104.001 52.3242 103.728 51.8815 103.402 51.543C103.077 51.2044 102.706 50.957 102.289 50.8008C101.872 50.6445 101.41 50.5664 100.902 50.5664C100.264 50.5664 99.6979 50.6901 99.2031 50.9375C98.7214 51.1849 98.3112 51.582 97.9727 52.1289C97.6341 52.6628 97.3737 53.3789 97.1914 54.2773C97.0221 55.1628 96.9375 56.2435 96.9375 57.5195V63.9453C96.9375 64.974 96.9896 65.8789 97.0938 66.6602C97.2109 67.4414 97.3802 68.112 97.6016 68.6719C97.8359 69.2188 98.1094 69.668 98.4219 70.0195C98.7474 70.3581 99.1185 70.6055 99.5352 70.7617C99.9648 70.918 100.434 70.9961 100.941 70.9961C101.566 70.9961 102.12 70.8724 102.602 70.625C103.096 70.3646 103.513 69.9609 103.852 69.4141C104.203 68.8542 104.464 68.125 104.633 67.2266C104.802 66.3281 104.887 65.2344 104.887 63.9453ZM132.992 59.1602V64.0625H113.5V59.1602H132.992ZM125.922 51.4453V72.1484H120.59V51.4453H125.922Z" fill="#488AC9"/>
<path d="M54.5742 110.688C54.5742 110.289 54.5117 109.938 54.3867 109.633C54.2695 109.32 54.0586 109.039 53.7539 108.789C53.457 108.539 53.043 108.301 52.5117 108.074C51.9883 107.848 51.3242 107.617 50.5195 107.383C49.6758 107.133 48.9141 106.855 48.2344 106.551C47.5547 106.238 46.9727 105.883 46.4883 105.484C46.0039 105.086 45.6328 104.629 45.375 104.113C45.1172 103.598 44.9883 103.008 44.9883 102.344C44.9883 101.68 45.125 101.066 45.3984 100.504C45.6719 99.9414 46.0625 99.4531 46.5703 99.0391C47.0859 98.6172 47.6992 98.2891 48.4102 98.0547C49.1211 97.8203 49.9141 97.7031 50.7891 97.7031C52.0703 97.7031 53.1562 97.9492 54.0469 98.4414C54.9453 98.9258 55.6289 99.5625 56.0977 100.352C56.5664 101.133 56.8008 101.969 56.8008 102.859H54.5508C54.5508 102.219 54.4141 101.652 54.1406 101.16C53.8672 100.66 53.4531 100.27 52.8984 99.9883C52.3438 99.6992 51.6406 99.5547 50.7891 99.5547C49.9844 99.5547 49.3203 99.6758 48.7969 99.918C48.2734 100.16 47.8828 100.488 47.625 100.902C47.375 101.316 47.25 101.789 47.25 102.32C47.25 102.68 47.3242 103.008 47.4727 103.305C47.6289 103.594 47.8672 103.863 48.1875 104.113C48.5156 104.363 48.9297 104.594 49.4297 104.805C49.9375 105.016 50.543 105.219 51.2461 105.414C52.2148 105.688 53.0508 105.992 53.7539 106.328C54.457 106.664 55.0352 107.043 55.4883 107.465C55.9492 107.879 56.2891 108.352 56.5078 108.883C56.7344 109.406 56.8477 110 56.8477 110.664C56.8477 111.359 56.707 111.988 56.4258 112.551C56.1445 113.113 55.7422 113.594 55.2188 113.992C54.6953 114.391 54.0664 114.699 53.332 114.918C52.6055 115.129 51.793 115.234 50.8945 115.234C50.1055 115.234 49.3281 115.125 48.5625 114.906C47.8047 114.688 47.1133 114.359 46.4883 113.922C45.8711 113.484 45.375 112.945 45 112.305C44.6328 111.656 44.4492 110.906 44.4492 110.055H46.6992C46.6992 110.641 46.8125 111.145 47.0391 111.566C47.2656 111.98 47.5742 112.324 47.9648 112.598C48.3633 112.871 48.8125 113.074 49.3125 113.207C49.8203 113.332 50.3477 113.395 50.8945 113.395C51.6836 113.395 52.3516 113.285 52.8984 113.066C53.4453 112.848 53.8594 112.535 54.1406 112.129C54.4297 111.723 54.5742 111.242 54.5742 110.688ZM64.4766 113.453C64.9922 113.453 65.4688 113.348 65.9062 113.137C66.3438 112.926 66.7031 112.637 66.9844 112.27C67.2656 111.895 67.4258 111.469 67.4648 110.992H69.5273C69.4883 111.742 69.2344 112.441 68.7656 113.09C68.3047 113.73 67.6992 114.25 66.9492 114.648C66.1992 115.039 65.375 115.234 64.4766 115.234C63.5234 115.234 62.6914 115.066 61.9805 114.73C61.2773 114.395 60.6914 113.934 60.2227 113.348C59.7617 112.762 59.4141 112.09 59.1797 111.332C58.9531 110.566 58.8398 109.758 58.8398 108.906V108.414C58.8398 107.562 58.9531 106.758 59.1797 106C59.4141 105.234 59.7617 104.559 60.2227 103.973C60.6914 103.387 61.2773 102.926 61.9805 102.59C62.6914 102.254 63.5234 102.086 64.4766 102.086C65.4688 102.086 66.3359 102.289 67.0781 102.695C67.8203 103.094 68.4023 103.641 68.8242 104.336C69.2539 105.023 69.4883 105.805 69.5273 106.68H67.4648C67.4258 106.156 67.2773 105.684 67.0195 105.262C66.7695 104.84 66.4258 104.504 65.9883 104.254C65.5586 103.996 65.0547 103.867 64.4766 103.867C63.8125 103.867 63.2539 104 62.8008 104.266C62.3555 104.523 62 104.875 61.7344 105.32C61.4766 105.758 61.2891 106.246 61.1719 106.785C61.0625 107.316 61.0078 107.859 61.0078 108.414V108.906C61.0078 109.461 61.0625 110.008 61.1719 110.547C61.2812 111.086 61.4648 111.574 61.7227 112.012C61.9883 112.449 62.3438 112.801 62.7891 113.066C63.2422 113.324 63.8047 113.453 64.4766 113.453ZM74.1328 97V115H71.9648V97H74.1328ZM73.6172 108.18L72.7148 108.145C72.7227 107.277 72.8516 106.477 73.1016 105.742C73.3516 105 73.7031 104.355 74.1562 103.809C74.6094 103.262 75.1484 102.84 75.7734 102.543C76.4062 102.238 77.1055 102.086 77.8711 102.086C78.4961 102.086 79.0586 102.172 79.5586 102.344C80.0586 102.508 80.4844 102.773 80.8359 103.141C81.1953 103.508 81.4688 103.984 81.6562 104.57C81.8438 105.148 81.9375 105.855 81.9375 106.691V115H79.7578V106.668C79.7578 106.004 79.6602 105.473 79.4648 105.074C79.2695 104.668 78.9844 104.375 78.6094 104.195C78.2344 104.008 77.7734 103.914 77.2266 103.914C76.6875 103.914 76.1953 104.027 75.75 104.254C75.3125 104.48 74.9336 104.793 74.6133 105.191C74.3008 105.59 74.0547 106.047 73.875 106.562C73.7031 107.07 73.6172 107.609 73.6172 108.18ZM84.6094 108.801V108.531C84.6094 107.617 84.7422 106.77 85.0078 105.988C85.2734 105.199 85.6562 104.516 86.1562 103.938C86.6562 103.352 87.2617 102.898 87.9727 102.578C88.6836 102.25 89.4805 102.086 90.3633 102.086C91.2539 102.086 92.0547 102.25 92.7656 102.578C93.4844 102.898 94.0938 103.352 94.5938 103.938C95.1016 104.516 95.4883 105.199 95.7539 105.988C96.0195 106.77 96.1523 107.617 96.1523 108.531V108.801C96.1523 109.715 96.0195 110.562 95.7539 111.344C95.4883 112.125 95.1016 112.809 94.5938 113.395C94.0938 113.973 93.4883 114.426 92.7773 114.754C92.0742 115.074 91.2773 115.234 90.3867 115.234C89.4961 115.234 88.6953 115.074 87.9844 114.754C87.2734 114.426 86.6641 113.973 86.1562 113.395C85.6562 112.809 85.2734 112.125 85.0078 111.344C84.7422 110.562 84.6094 109.715 84.6094 108.801ZM86.7773 108.531V108.801C86.7773 109.434 86.8516 110.031 87 110.594C87.1484 111.148 87.3711 111.641 87.668 112.07C87.9727 112.5 88.3516 112.84 88.8047 113.09C89.2578 113.332 89.7852 113.453 90.3867 113.453C90.9805 113.453 91.5 113.332 91.9453 113.09C92.3984 112.84 92.7734 112.5 93.0703 112.07C93.3672 111.641 93.5898 111.148 93.7383 110.594C93.8945 110.031 93.9727 109.434 93.9727 108.801V108.531C93.9727 107.906 93.8945 107.316 93.7383 106.762C93.5898 106.199 93.3633 105.703 93.0586 105.273C92.7617 104.836 92.3867 104.492 91.9336 104.242C91.4883 103.992 90.9648 103.867 90.3633 103.867C89.7695 103.867 89.2461 103.992 88.793 104.242C88.3477 104.492 87.9727 104.836 87.668 105.273C87.3711 105.703 87.1484 106.199 87 106.762C86.8516 107.316 86.7773 107.906 86.7773 108.531ZM98.2969 108.801V108.531C98.2969 107.617 98.4297 106.77 98.6953 105.988C98.9609 105.199 99.3438 104.516 99.8438 103.938C100.344 103.352 100.949 102.898 101.66 102.578C102.371 102.25 103.168 102.086 104.051 102.086C104.941 102.086 105.742 102.25 106.453 102.578C107.172 102.898 107.781 103.352 108.281 103.938C108.789 104.516 109.176 105.199 109.441 105.988C109.707 106.77 109.84 107.617 109.84 108.531V108.801C109.84 109.715 109.707 110.562 109.441 111.344C109.176 112.125 108.789 112.809 108.281 113.395C107.781 113.973 107.176 114.426 106.465 114.754C105.762 115.074 104.965 115.234 104.074 115.234C103.184 115.234 102.383 115.074 101.672 114.754C100.961 114.426 100.352 113.973 99.8438 113.395C99.3438 112.809 98.9609 112.125 98.6953 111.344C98.4297 110.562 98.2969 109.715 98.2969 108.801ZM100.465 108.531V108.801C100.465 109.434 100.539 110.031 100.688 110.594C100.836 111.148 101.059 111.641 101.355 112.07C101.66 112.5 102.039 112.84 102.492 113.09C102.945 113.332 103.473 113.453 104.074 113.453C104.668 113.453 105.188 113.332 105.633 113.09C106.086 112.84 106.461 112.5 106.758 112.07C107.055 111.641 107.277 111.148 107.426 110.594C107.582 110.031 107.66 109.434 107.66 108.801V108.531C107.66 107.906 107.582 107.316 107.426 106.762C107.277 106.199 107.051 105.703 106.746 105.273C106.449 104.836 106.074 104.492 105.621 104.242C105.176 103.992 104.652 103.867 104.051 103.867C103.457 103.867 102.934 103.992 102.48 104.242C102.035 104.492 101.66 104.836 101.355 105.273C101.059 105.703 100.836 106.199 100.688 106.762C100.539 107.316 100.465 107.906 100.465 108.531ZM114.914 97V115H112.734V97H114.914ZM125.777 111.637C125.777 111.324 125.707 111.035 125.566 110.77C125.434 110.496 125.156 110.25 124.734 110.031C124.32 109.805 123.695 109.609 122.859 109.445C122.156 109.297 121.52 109.121 120.949 108.918C120.387 108.715 119.906 108.469 119.508 108.18C119.117 107.891 118.816 107.551 118.605 107.16C118.395 106.77 118.289 106.312 118.289 105.789C118.289 105.289 118.398 104.816 118.617 104.371C118.844 103.926 119.16 103.531 119.566 103.188C119.98 102.844 120.477 102.574 121.055 102.379C121.633 102.184 122.277 102.086 122.988 102.086C124.004 102.086 124.871 102.266 125.59 102.625C126.309 102.984 126.859 103.465 127.242 104.066C127.625 104.66 127.816 105.32 127.816 106.047H125.648C125.648 105.695 125.543 105.355 125.332 105.027C125.129 104.691 124.828 104.414 124.43 104.195C124.039 103.977 123.559 103.867 122.988 103.867C122.387 103.867 121.898 103.961 121.523 104.148C121.156 104.328 120.887 104.559 120.715 104.84C120.551 105.121 120.469 105.418 120.469 105.73C120.469 105.965 120.508 106.176 120.586 106.363C120.672 106.543 120.82 106.711 121.031 106.867C121.242 107.016 121.539 107.156 121.922 107.289C122.305 107.422 122.793 107.555 123.387 107.688C124.426 107.922 125.281 108.203 125.953 108.531C126.625 108.859 127.125 109.262 127.453 109.738C127.781 110.215 127.945 110.793 127.945 111.473C127.945 112.027 127.828 112.535 127.594 112.996C127.367 113.457 127.035 113.855 126.598 114.191C126.168 114.52 125.652 114.777 125.051 114.965C124.457 115.145 123.789 115.234 123.047 115.234C121.93 115.234 120.984 115.035 120.211 114.637C119.438 114.238 118.852 113.723 118.453 113.09C118.055 112.457 117.855 111.789 117.855 111.086H120.035C120.066 111.68 120.238 112.152 120.551 112.504C120.863 112.848 121.246 113.094 121.699 113.242C122.152 113.383 122.602 113.453 123.047 113.453C123.641 113.453 124.137 113.375 124.535 113.219C124.941 113.062 125.25 112.848 125.461 112.574C125.672 112.301 125.777 111.988 125.777 111.637ZM143.156 107.02H138.832L138.809 105.203H142.734C143.383 105.203 143.949 105.094 144.434 104.875C144.918 104.656 145.293 104.344 145.559 103.938C145.832 103.523 145.969 103.031 145.969 102.461C145.969 101.836 145.848 101.328 145.605 100.938C145.371 100.539 145.008 100.25 144.516 100.07C144.031 99.8828 143.414 99.7891 142.664 99.7891H139.336V115H137.074V97.9375H142.664C143.539 97.9375 144.32 98.0273 145.008 98.207C145.695 98.3789 146.277 98.6523 146.754 99.0273C147.238 99.3945 147.605 99.8633 147.855 100.434C148.105 101.004 148.23 101.688 148.23 102.484C148.23 103.188 148.051 103.824 147.691 104.395C147.332 104.957 146.832 105.418 146.191 105.777C145.559 106.137 144.816 106.367 143.965 106.469L143.156 107.02ZM143.051 115H137.941L139.219 113.16H143.051C143.77 113.16 144.379 113.035 144.879 112.785C145.387 112.535 145.773 112.184 146.039 111.73C146.305 111.27 146.438 110.727 146.438 110.102C146.438 109.469 146.324 108.922 146.098 108.461C145.871 108 145.516 107.645 145.031 107.395C144.547 107.145 143.922 107.02 143.156 107.02H139.934L139.957 105.203H144.363L144.844 105.859C145.664 105.93 146.359 106.164 146.93 106.562C147.5 106.953 147.934 107.453 148.23 108.062C148.535 108.672 148.688 109.344 148.688 110.078C148.688 111.141 148.453 112.039 147.984 112.773C147.523 113.5 146.871 114.055 146.027 114.438C145.184 114.812 144.191 115 143.051 115ZM159.457 112.07V102.32H161.637V115H159.562L159.457 112.07ZM159.867 109.398L160.77 109.375C160.77 110.219 160.68 111 160.5 111.719C160.328 112.43 160.047 113.047 159.656 113.57C159.266 114.094 158.754 114.504 158.121 114.801C157.488 115.09 156.719 115.234 155.812 115.234C155.195 115.234 154.629 115.145 154.113 114.965C153.605 114.785 153.168 114.508 152.801 114.133C152.434 113.758 152.148 113.27 151.945 112.668C151.75 112.066 151.652 111.344 151.652 110.5V102.32H153.82V110.523C153.82 111.094 153.883 111.566 154.008 111.941C154.141 112.309 154.316 112.602 154.535 112.82C154.762 113.031 155.012 113.18 155.285 113.266C155.566 113.352 155.855 113.395 156.152 113.395C157.074 113.395 157.805 113.219 158.344 112.867C158.883 112.508 159.27 112.027 159.504 111.426C159.746 110.816 159.867 110.141 159.867 109.398ZM167.297 102.32V115H165.117V102.32H167.297ZM164.953 98.957C164.953 98.6055 165.059 98.3086 165.27 98.0664C165.488 97.8242 165.809 97.7031 166.23 97.7031C166.645 97.7031 166.961 97.8242 167.18 98.0664C167.406 98.3086 167.52 98.6055 167.52 98.957C167.52 99.293 167.406 99.582 167.18 99.8242C166.961 100.059 166.645 100.176 166.23 100.176C165.809 100.176 165.488 100.059 165.27 99.8242C165.059 99.582 164.953 99.293 164.953 98.957ZM173.133 97V115H170.953V97H173.133ZM181.922 102.32V103.984H175.066V102.32H181.922ZM177.387 99.2383H179.555V111.859C179.555 112.289 179.621 112.613 179.754 112.832C179.887 113.051 180.059 113.195 180.27 113.266C180.48 113.336 180.707 113.371 180.949 113.371C181.129 113.371 181.316 113.355 181.512 113.324C181.715 113.285 181.867 113.254 181.969 113.23L181.98 115C181.809 115.055 181.582 115.105 181.301 115.152C181.027 115.207 180.695 115.234 180.305 115.234C179.773 115.234 179.285 115.129 178.84 114.918C178.395 114.707 178.039 114.355 177.773 113.863C177.516 113.363 177.387 112.691 177.387 111.848V99.2383Z" fill="#828282"/>
<line x1="264.3" y1="27.5" x2="264.3" y2="131.5" stroke="#4383FF" stroke-width="1.6"/>
<path d="M350.746 62.0508L346.254 60.9766L347.875 46.5625H363.852V51.1133H352.504L351.801 57.4219C352.178 57.2005 352.751 56.9661 353.52 56.7188C354.288 56.4583 355.147 56.3281 356.098 56.3281C357.478 56.3281 358.702 56.543 359.77 56.9727C360.837 57.4023 361.742 58.0273 362.484 58.8477C363.24 59.668 363.812 60.6706 364.203 61.8555C364.594 63.0404 364.789 64.3815 364.789 65.8789C364.789 67.1419 364.594 68.3464 364.203 69.4922C363.812 70.625 363.22 71.6406 362.426 72.5391C361.632 73.4245 360.635 74.1211 359.438 74.6289C358.24 75.1367 356.82 75.3906 355.18 75.3906C353.956 75.3906 352.771 75.2083 351.625 74.8438C350.492 74.4792 349.47 73.9388 348.559 73.2227C347.66 72.5065 346.938 71.6406 346.391 70.625C345.857 69.5964 345.577 68.4245 345.551 67.1094H351.137C351.215 67.9167 351.423 68.6133 351.762 69.1992C352.113 69.7721 352.576 70.2148 353.148 70.5273C353.721 70.8398 354.392 70.9961 355.16 70.9961C355.876 70.9961 356.488 70.8594 356.996 70.5859C357.504 70.3125 357.914 69.9349 358.227 69.4531C358.539 68.9583 358.767 68.3854 358.91 67.7344C359.066 67.0703 359.145 66.3542 359.145 65.5859C359.145 64.8177 359.053 64.1211 358.871 63.4961C358.689 62.8711 358.409 62.3307 358.031 61.875C357.654 61.4193 357.172 61.0677 356.586 60.8203C356.013 60.5729 355.342 60.4492 354.574 60.4492C353.533 60.4492 352.725 60.612 352.152 60.9375C351.592 61.263 351.124 61.6341 350.746 62.0508ZM387.562 58.2812V63.2031C387.562 65.3385 387.335 67.181 386.879 68.7305C386.423 70.2669 385.766 71.5299 384.906 72.5195C384.06 73.4961 383.051 74.2188 381.879 74.6875C380.707 75.1562 379.405 75.3906 377.973 75.3906C376.827 75.3906 375.759 75.2474 374.77 74.9609C373.78 74.6615 372.888 74.1992 372.094 73.5742C371.312 72.9492 370.635 72.1615 370.062 71.2109C369.503 70.2474 369.073 69.1016 368.773 67.7734C368.474 66.4453 368.324 64.9219 368.324 63.2031V58.2812C368.324 56.1458 368.552 54.3164 369.008 52.793C369.477 51.2565 370.134 50 370.98 49.0234C371.84 48.0469 372.855 47.3307 374.027 46.875C375.199 46.4062 376.501 46.1719 377.934 46.1719C379.079 46.1719 380.141 46.3216 381.117 46.6211C382.107 46.9076 382.999 47.3568 383.793 47.9688C384.587 48.5807 385.264 49.3685 385.824 50.332C386.384 51.2826 386.814 52.4219 387.113 53.75C387.413 55.0651 387.562 56.5755 387.562 58.2812ZM381.918 63.9453V57.5195C381.918 56.4909 381.859 55.5924 381.742 54.8242C381.638 54.056 381.475 53.4049 381.254 52.8711C381.033 52.3242 380.759 51.8815 380.434 51.543C380.108 51.2044 379.737 50.957 379.32 50.8008C378.904 50.6445 378.441 50.5664 377.934 50.5664C377.296 50.5664 376.729 50.6901 376.234 50.9375C375.753 51.1849 375.342 51.582 375.004 52.1289C374.665 52.6628 374.405 53.3789 374.223 54.2773C374.053 55.1628 373.969 56.2435 373.969 57.5195V63.9453C373.969 64.974 374.021 65.8789 374.125 66.6602C374.242 67.4414 374.411 68.112 374.633 68.6719C374.867 69.2188 375.141 69.668 375.453 70.0195C375.779 70.3581 376.15 70.6055 376.566 70.7617C376.996 70.918 377.465 70.9961 377.973 70.9961C378.598 70.9961 379.151 70.8724 379.633 70.625C380.128 70.3646 380.544 69.9609 380.883 69.4141C381.234 68.8542 381.495 68.125 381.664 67.2266C381.833 66.3281 381.918 65.2344 381.918 63.9453ZM410.531 58.2812V63.2031C410.531 65.3385 410.303 67.181 409.848 68.7305C409.392 70.2669 408.734 71.5299 407.875 72.5195C407.029 73.4961 406.02 74.2188 404.848 74.6875C403.676 75.1562 402.374 75.3906 400.941 75.3906C399.796 75.3906 398.728 75.2474 397.738 74.9609C396.749 74.6615 395.857 74.1992 395.062 73.5742C394.281 72.9492 393.604 72.1615 393.031 71.2109C392.471 70.2474 392.042 69.1016 391.742 67.7734C391.443 66.4453 391.293 64.9219 391.293 63.2031V58.2812C391.293 56.1458 391.521 54.3164 391.977 52.793C392.445 51.2565 393.103 50 393.949 49.0234C394.809 48.0469 395.824 47.3307 396.996 46.875C398.168 46.4062 399.47 46.1719 400.902 46.1719C402.048 46.1719 403.109 46.3216 404.086 46.6211C405.076 46.9076 405.967 47.3568 406.762 47.9688C407.556 48.5807 408.233 49.3685 408.793 50.332C409.353 51.2826 409.783 52.4219 410.082 53.75C410.382 55.0651 410.531 56.5755 410.531 58.2812ZM404.887 63.9453V57.5195C404.887 56.4909 404.828 55.5924 404.711 54.8242C404.607 54.056 404.444 53.4049 404.223 52.8711C404.001 52.3242 403.728 51.8815 403.402 51.543C403.077 51.2044 402.706 50.957 402.289 50.8008C401.872 50.6445 401.41 50.5664 400.902 50.5664C400.264 50.5664 399.698 50.6901 399.203 50.9375C398.721 51.1849 398.311 51.582 397.973 52.1289C397.634 52.6628 397.374 53.3789 397.191 54.2773C397.022 55.1628 396.938 56.2435 396.938 57.5195V63.9453C396.938 64.974 396.99 65.8789 397.094 66.6602C397.211 67.4414 397.38 68.112 397.602 68.6719C397.836 69.2188 398.109 69.668 398.422 70.0195C398.747 70.3581 399.118 70.6055 399.535 70.7617C399.965 70.918 400.434 70.9961 400.941 70.9961C401.566 70.9961 402.12 70.8724 402.602 70.625C403.096 70.3646 403.513 69.9609 403.852 69.4141C404.203 68.8542 404.464 68.125 404.633 67.2266C404.802 66.3281 404.887 65.2344 404.887 63.9453ZM432.992 59.1602V64.0625H413.5V59.1602H432.992ZM425.922 51.4453V72.1484H420.59V51.4453H425.922Z" fill="#488AC9"/>
<path d="M356.625 105.273V107.113H347.391V105.273H356.625ZM347.742 97.9375V115H345.48V97.9375H347.742ZM358.594 97.9375V115H356.344V97.9375H358.594ZM361.711 108.801V108.531C361.711 107.617 361.844 106.77 362.109 105.988C362.375 105.199 362.758 104.516 363.258 103.938C363.758 103.352 364.363 102.898 365.074 102.578C365.785 102.25 366.582 102.086 367.465 102.086C368.355 102.086 369.156 102.25 369.867 102.578C370.586 102.898 371.195 103.352 371.695 103.938C372.203 104.516 372.59 105.199 372.855 105.988C373.121 106.77 373.254 107.617 373.254 108.531V108.801C373.254 109.715 373.121 110.562 372.855 111.344C372.59 112.125 372.203 112.809 371.695 113.395C371.195 113.973 370.59 114.426 369.879 114.754C369.176 115.074 368.379 115.234 367.488 115.234C366.598 115.234 365.797 115.074 365.086 114.754C364.375 114.426 363.766 113.973 363.258 113.395C362.758 112.809 362.375 112.125 362.109 111.344C361.844 110.562 361.711 109.715 361.711 108.801ZM363.879 108.531V108.801C363.879 109.434 363.953 110.031 364.102 110.594C364.25 111.148 364.473 111.641 364.77 112.07C365.074 112.5 365.453 112.84 365.906 113.09C366.359 113.332 366.887 113.453 367.488 113.453C368.082 113.453 368.602 113.332 369.047 113.09C369.5 112.84 369.875 112.5 370.172 112.07C370.469 111.641 370.691 111.148 370.84 110.594C370.996 110.031 371.074 109.434 371.074 108.801V108.531C371.074 107.906 370.996 107.316 370.84 106.762C370.691 106.199 370.465 105.703 370.16 105.273C369.863 104.836 369.488 104.492 369.035 104.242C368.59 103.992 368.066 103.867 367.465 103.867C366.871 103.867 366.348 103.992 365.895 104.242C365.449 104.492 365.074 104.836 364.77 105.273C364.473 105.703 364.25 106.199 364.102 106.762C363.953 107.316 363.879 107.906 363.879 108.531ZM383.73 112.07V102.32H385.91V115H383.836L383.73 112.07ZM384.141 109.398L385.043 109.375C385.043 110.219 384.953 111 384.773 111.719C384.602 112.43 384.32 113.047 383.93 113.57C383.539 114.094 383.027 114.504 382.395 114.801C381.762 115.09 380.992 115.234 380.086 115.234C379.469 115.234 378.902 115.145 378.387 114.965C377.879 114.785 377.441 114.508 377.074 114.133C376.707 113.758 376.422 113.27 376.219 112.668C376.023 112.066 375.926 111.344 375.926 110.5V102.32H378.094V110.523C378.094 111.094 378.156 111.566 378.281 111.941C378.414 112.309 378.59 112.602 378.809 112.82C379.035 113.031 379.285 113.18 379.559 113.266C379.84 113.352 380.129 113.395 380.426 113.395C381.348 113.395 382.078 113.219 382.617 112.867C383.156 112.508 383.543 112.027 383.777 111.426C384.02 110.816 384.141 110.141 384.141 109.398ZM396.598 111.637C396.598 111.324 396.527 111.035 396.387 110.77C396.254 110.496 395.977 110.25 395.555 110.031C395.141 109.805 394.516 109.609 393.68 109.445C392.977 109.297 392.34 109.121 391.77 108.918C391.207 108.715 390.727 108.469 390.328 108.18C389.938 107.891 389.637 107.551 389.426 107.16C389.215 106.77 389.109 106.312 389.109 105.789C389.109 105.289 389.219 104.816 389.438 104.371C389.664 103.926 389.98 103.531 390.387 103.188C390.801 102.844 391.297 102.574 391.875 102.379C392.453 102.184 393.098 102.086 393.809 102.086C394.824 102.086 395.691 102.266 396.41 102.625C397.129 102.984 397.68 103.465 398.062 104.066C398.445 104.66 398.637 105.32 398.637 106.047H396.469C396.469 105.695 396.363 105.355 396.152 105.027C395.949 104.691 395.648 104.414 395.25 104.195C394.859 103.977 394.379 103.867 393.809 103.867C393.207 103.867 392.719 103.961 392.344 104.148C391.977 104.328 391.707 104.559 391.535 104.84C391.371 105.121 391.289 105.418 391.289 105.73C391.289 105.965 391.328 106.176 391.406 106.363C391.492 106.543 391.641 106.711 391.852 106.867C392.062 107.016 392.359 107.156 392.742 107.289C393.125 107.422 393.613 107.555 394.207 107.688C395.246 107.922 396.102 108.203 396.773 108.531C397.445 108.859 397.945 109.262 398.273 109.738C398.602 110.215 398.766 110.793 398.766 111.473C398.766 112.027 398.648 112.535 398.414 112.996C398.188 113.457 397.855 113.855 397.418 114.191C396.988 114.52 396.473 114.777 395.871 114.965C395.277 115.145 394.609 115.234 393.867 115.234C392.75 115.234 391.805 115.035 391.031 114.637C390.258 114.238 389.672 113.723 389.273 113.09C388.875 112.457 388.676 111.789 388.676 111.086H390.855C390.887 111.68 391.059 112.152 391.371 112.504C391.684 112.848 392.066 113.094 392.52 113.242C392.973 113.383 393.422 113.453 393.867 113.453C394.461 113.453 394.957 113.375 395.355 113.219C395.762 113.062 396.07 112.848 396.281 112.574C396.492 112.301 396.598 111.988 396.598 111.637ZM406.875 115.234C405.992 115.234 405.191 115.086 404.473 114.789C403.762 114.484 403.148 114.059 402.633 113.512C402.125 112.965 401.734 112.316 401.461 111.566C401.188 110.816 401.051 109.996 401.051 109.105V108.613C401.051 107.582 401.203 106.664 401.508 105.859C401.812 105.047 402.227 104.359 402.75 103.797C403.273 103.234 403.867 102.809 404.531 102.52C405.195 102.23 405.883 102.086 406.594 102.086C407.5 102.086 408.281 102.242 408.938 102.555C409.602 102.867 410.145 103.305 410.566 103.867C410.988 104.422 411.301 105.078 411.504 105.836C411.707 106.586 411.809 107.406 411.809 108.297V109.27H402.34V107.5H409.641V107.336C409.609 106.773 409.492 106.227 409.289 105.695C409.094 105.164 408.781 104.727 408.352 104.383C407.922 104.039 407.336 103.867 406.594 103.867C406.102 103.867 405.648 103.973 405.234 104.184C404.82 104.387 404.465 104.691 404.168 105.098C403.871 105.504 403.641 106 403.477 106.586C403.312 107.172 403.23 107.848 403.23 108.613V109.105C403.23 109.707 403.312 110.273 403.477 110.805C403.648 111.328 403.895 111.789 404.215 112.188C404.543 112.586 404.938 112.898 405.398 113.125C405.867 113.352 406.398 113.465 406.992 113.465C407.758 113.465 408.406 113.309 408.938 112.996C409.469 112.684 409.934 112.266 410.332 111.742L411.645 112.785C411.371 113.199 411.023 113.594 410.602 113.969C410.18 114.344 409.66 114.648 409.043 114.883C408.434 115.117 407.711 115.234 406.875 115.234ZM421.723 111.637C421.723 111.324 421.652 111.035 421.512 110.77C421.379 110.496 421.102 110.25 420.68 110.031C420.266 109.805 419.641 109.609 418.805 109.445C418.102 109.297 417.465 109.121 416.895 108.918C416.332 108.715 415.852 108.469 415.453 108.18C415.062 107.891 414.762 107.551 414.551 107.16C414.34 106.77 414.234 106.312 414.234 105.789C414.234 105.289 414.344 104.816 414.562 104.371C414.789 103.926 415.105 103.531 415.512 103.188C415.926 102.844 416.422 102.574 417 102.379C417.578 102.184 418.223 102.086 418.934 102.086C419.949 102.086 420.816 102.266 421.535 102.625C422.254 102.984 422.805 103.465 423.188 104.066C423.57 104.66 423.762 105.32 423.762 106.047H421.594C421.594 105.695 421.488 105.355 421.277 105.027C421.074 104.691 420.773 104.414 420.375 104.195C419.984 103.977 419.504 103.867 418.934 103.867C418.332 103.867 417.844 103.961 417.469 104.148C417.102 104.328 416.832 104.559 416.66 104.84C416.496 105.121 416.414 105.418 416.414 105.73C416.414 105.965 416.453 106.176 416.531 106.363C416.617 106.543 416.766 106.711 416.977 106.867C417.188 107.016 417.484 107.156 417.867 107.289C418.25 107.422 418.738 107.555 419.332 107.688C420.371 107.922 421.227 108.203 421.898 108.531C422.57 108.859 423.07 109.262 423.398 109.738C423.727 110.215 423.891 110.793 423.891 111.473C423.891 112.027 423.773 112.535 423.539 112.996C423.312 113.457 422.98 113.855 422.543 114.191C422.113 114.52 421.598 114.777 420.996 114.965C420.402 115.145 419.734 115.234 418.992 115.234C417.875 115.234 416.93 115.035 416.156 114.637C415.383 114.238 414.797 113.723 414.398 113.09C414 112.457 413.801 111.789 413.801 111.086H415.98C416.012 111.68 416.184 112.152 416.496 112.504C416.809 112.848 417.191 113.094 417.645 113.242C418.098 113.383 418.547 113.453 418.992 113.453C419.586 113.453 420.082 113.375 420.48 113.219C420.887 113.062 421.195 112.848 421.406 112.574C421.617 112.301 421.723 111.988 421.723 111.637ZM439.102 107.02H434.777L434.754 105.203H438.68C439.328 105.203 439.895 105.094 440.379 104.875C440.863 104.656 441.238 104.344 441.504 103.938C441.777 103.523 441.914 103.031 441.914 102.461C441.914 101.836 441.793 101.328 441.551 100.938C441.316 100.539 440.953 100.25 440.461 100.07C439.977 99.8828 439.359 99.7891 438.609 99.7891H435.281V115H433.02V97.9375H438.609C439.484 97.9375 440.266 98.0273 440.953 98.207C441.641 98.3789 442.223 98.6523 442.699 99.0273C443.184 99.3945 443.551 99.8633 443.801 100.434C444.051 101.004 444.176 101.688 444.176 102.484C444.176 103.188 443.996 103.824 443.637 104.395C443.277 104.957 442.777 105.418 442.137 105.777C441.504 106.137 440.762 106.367 439.91 106.469L439.102 107.02ZM438.996 115H433.887L435.164 113.16H438.996C439.715 113.16 440.324 113.035 440.824 112.785C441.332 112.535 441.719 112.184 441.984 111.73C442.25 111.27 442.383 110.727 442.383 110.102C442.383 109.469 442.27 108.922 442.043 108.461C441.816 108 441.461 107.645 440.977 107.395C440.492 107.145 439.867 107.02 439.102 107.02H435.879L435.902 105.203H440.309L440.789 105.859C441.609 105.93 442.305 106.164 442.875 106.562C443.445 106.953 443.879 107.453 444.176 108.062C444.48 108.672 444.633 109.344 444.633 110.078C444.633 111.141 444.398 112.039 443.93 112.773C443.469 113.5 442.816 114.055 441.973 114.438C441.129 114.812 440.137 115 438.996 115ZM455.402 112.07V102.32H457.582V115H455.508L455.402 112.07ZM455.812 109.398L456.715 109.375C456.715 110.219 456.625 111 456.445 111.719C456.273 112.43 455.992 113.047 455.602 113.57C455.211 114.094 454.699 114.504 454.066 114.801C453.434 115.09 452.664 115.234 451.758 115.234C451.141 115.234 450.574 115.145 450.059 114.965C449.551 114.785 449.113 114.508 448.746 114.133C448.379 113.758 448.094 113.27 447.891 112.668C447.695 112.066 447.598 111.344 447.598 110.5V102.32H449.766V110.523C449.766 111.094 449.828 111.566 449.953 111.941C450.086 112.309 450.262 112.602 450.48 112.82C450.707 113.031 450.957 113.18 451.23 113.266C451.512 113.352 451.801 113.395 452.098 113.395C453.02 113.395 453.75 113.219 454.289 112.867C454.828 112.508 455.215 112.027 455.449 111.426C455.691 110.816 455.812 110.141 455.812 109.398ZM463.242 102.32V115H461.062V102.32H463.242ZM460.898 98.957C460.898 98.6055 461.004 98.3086 461.215 98.0664C461.434 97.8242 461.754 97.7031 462.176 97.7031C462.59 97.7031 462.906 97.8242 463.125 98.0664C463.352 98.3086 463.465 98.6055 463.465 98.957C463.465 99.293 463.352 99.582 463.125 99.8242C462.906 100.059 462.59 100.176 462.176 100.176C461.754 100.176 461.434 100.059 461.215 99.8242C461.004 99.582 460.898 99.293 460.898 98.957ZM469.078 97V115H466.898V97H469.078ZM477.867 102.32V103.984H471.012V102.32H477.867ZM473.332 99.2383H475.5V111.859C475.5 112.289 475.566 112.613 475.699 112.832C475.832 113.051 476.004 113.195 476.215 113.266C476.426 113.336 476.652 113.371 476.895 113.371C477.074 113.371 477.262 113.355 477.457 113.324C477.66 113.285 477.812 113.254 477.914 113.23L477.926 115C477.754 115.055 477.527 115.105 477.246 115.152C476.973 115.207 476.641 115.234 476.25 115.234C475.719 115.234 475.23 115.129 474.785 114.918C474.34 114.707 473.984 114.355 473.719 113.863C473.461 113.363 473.332 112.691 473.332 111.848V99.2383Z" fill="#828282"/>
</svg>
