<svg width="1440" height="1700" viewBox="0 0 1440 1700" fill="none" xmlns="http://www.w3.org/2000/svg">
<g clip-path="url(#clip0_403_705)">
<rect width="1440" height="1700" fill="white"/>
<g clip-path="url(#clip1_403_705)">
<g opacity="0.4">
<path d="M6.9365 317.573C9.78822 325.593 13.3529 334.861 17.8087 345.021C22.0862 355.18 27.0767 365.874 32.6019 376.924C35.2754 382.449 38.1271 387.974 41.1571 393.5C42.5829 396.173 44.187 399.025 45.6129 401.698C47.0387 404.372 48.6428 407.045 50.2469 409.897C56.3068 420.591 62.545 431.107 68.6048 440.731C74.6647 450.356 80.1899 459.089 84.824 466.753C89.458 474.417 93.3791 480.833 95.6961 485.646C98.0132 490.636 99.2608 495.805 99.0826 500.974C99.0826 506.142 97.6567 511.489 94.9832 516.302C94.2703 517.549 93.5574 518.797 92.8444 519.866C92.1315 521.114 91.2403 522.183 90.1709 523.253C88.2104 525.391 86.0716 527.53 83.7546 529.491C81.4376 531.451 78.5858 533.055 75.7341 534.481C74.3083 535.194 72.8824 535.907 71.2783 536.442C69.6742 536.977 68.0701 537.511 66.4661 538.046C63.2579 538.937 59.8715 539.472 56.6633 539.828C53.4551 540.007 50.2469 540.007 47.217 539.65C44.187 539.294 41.3353 538.581 38.4836 537.689C35.8101 536.798 33.1366 535.551 30.8196 534.125C26.0074 531.273 22.2645 527.352 19.4128 522.896C16.561 518.44 14.957 513.45 14.4223 508.103C13.5311 498.3 14.244 479.764 14.6005 457.307C14.6005 451.782 14.7787 445.9 14.7787 439.84C14.7787 433.78 14.7787 427.72 14.6005 421.482C14.244 409.006 13.7093 396.351 12.8182 383.875C11.927 371.577 10.5011 359.457 9.07529 348.407C7.64943 337.357 5.86711 327.375 4.26302 318.82C2.65893 310.265 1.05484 303.314 -0.0145525 298.502C-1.08395 293.69 -1.79688 291.016 -1.79688 291.016C-1.79688 291.016 -1.08395 293.69 0.520144 298.324C1.946 302.958 4.08479 309.73 6.9365 317.573Z" fill="#C6CDD9"/>
<path d="M72.5257 354.823C69.8522 351.259 67.1788 347.694 64.5053 344.129C61.8318 340.565 58.9801 337 56.3066 333.435C50.7814 326.484 45.2562 319.89 40.0875 313.83C37.414 310.8 34.9187 307.948 32.6017 305.275C30.1065 302.601 27.9677 300.106 25.8289 297.789C21.5513 293.155 17.9867 289.59 15.4914 287.095C12.9962 284.6 11.5703 283.174 11.5703 283.174C11.5703 283.174 12.9962 284.422 15.6697 286.739C18.3431 289.056 22.086 292.264 26.72 296.185C35.9881 303.849 49.1773 314.008 63.6141 324.167C77.8727 334.148 93.7354 344.129 107.459 352.506C121.183 360.883 132.946 367.656 139.363 372.29C142.571 374.607 145.066 377.281 147.205 380.31C149.166 383.34 150.591 386.549 151.126 389.935C151.483 391.539 151.483 393.321 151.483 395.104C151.483 395.995 151.304 396.886 151.304 397.599C151.126 398.49 150.948 399.203 150.77 400.094C150.235 401.698 149.7 403.302 148.809 404.907C148.453 405.619 147.918 406.511 147.383 407.045C146.849 407.758 146.314 408.471 145.601 409.006C144.353 410.254 142.927 411.501 141.502 412.392C141.145 412.571 140.789 412.927 140.432 413.105C140.076 413.283 139.719 413.462 139.363 413.64C138.65 413.996 137.759 414.353 137.046 414.531C133.838 415.6 130.451 416.135 127.065 415.6C120.292 414.888 113.697 411.145 108.707 405.085C104.251 399.738 96.7653 388.687 87.6755 375.498C82.685 369.082 77.6945 361.953 72.5257 354.823Z" fill="#C6CDD9"/>
<path d="M188.197 212.415C184.276 218.119 178.037 222.218 170.373 223.822C163.601 225.426 150.233 226.852 134.371 228.813C126.35 229.882 117.973 230.952 109.062 232.377C100.328 233.803 91.2383 235.407 82.505 237.012C73.7716 238.794 65.3947 240.576 57.5525 242.537C49.7102 244.497 42.7592 246.28 36.6993 248.062C30.6394 249.666 25.8271 251.27 22.4407 252.34C19.0543 253.409 17.0938 253.944 17.0938 253.944C17.0938 253.944 18.8761 253.231 22.0843 251.983C23.6883 251.27 25.6489 250.557 27.9659 249.666C30.2829 248.775 32.7782 247.705 35.6299 246.458C46.8585 241.646 61.83 234.695 77.3362 226.496C92.8424 218.297 108.883 208.851 122.607 200.474C136.331 192.097 147.738 184.611 154.689 181.225C161.64 177.66 169.304 176.769 175.72 178.908C182.315 180.868 187.84 185.681 190.157 192.632C190.692 194.414 191.048 196.018 191.227 197.801C191.405 198.692 191.405 199.583 191.405 200.296C191.405 201.187 191.227 202.078 191.227 202.791C191.405 206.356 190.157 209.564 188.197 212.415Z" fill="#C6CDD9"/>
<path d="M107.81 299.037C96.4031 294.224 84.9962 289.947 74.4805 286.204C63.9648 282.461 54.3403 279.431 45.9634 276.936C37.5865 274.441 30.8136 272.658 26.0014 271.411C21.1891 270.163 18.5156 269.628 18.5156 269.628C18.5156 269.628 21.1891 270.163 26.0014 270.876C28.3184 271.232 31.3483 271.767 34.7348 272.302C38.1212 272.837 41.864 273.371 46.1416 273.906C54.5185 274.975 64.4995 276.045 75.5499 276.758C86.6003 277.649 98.3637 278.183 110.662 278.362C116.722 278.362 122.96 278.362 129.376 278.362C135.614 278.362 141.852 278.183 148.09 277.827C160.388 277.292 172.508 276.579 183.915 275.688C206.551 273.906 225.443 271.945 236.315 272.302C241.841 272.48 246.831 273.906 251.643 276.223C256.277 278.718 260.199 282.283 263.407 286.739C264.298 287.808 265.011 289.056 265.724 290.303C266.437 291.551 266.971 292.798 267.506 294.224C268.575 296.898 269.467 299.75 270.179 302.779C270.714 305.809 271.071 308.839 271.071 312.226C271.071 313.83 271.071 315.434 270.892 317.038C270.714 318.642 270.358 320.246 270.001 322.029C269.288 325.415 268.397 328.445 267.15 331.475C265.902 334.505 264.298 337.178 262.516 339.674C260.911 342.169 258.773 344.486 256.634 346.446C254.495 348.407 252.178 350.189 249.861 351.615C245.049 354.467 239.88 356.249 234.711 356.606C229.543 357.14 224.196 356.249 219.205 354.289C210.115 350.724 193.896 341.456 174.112 330.762C169.122 328.088 163.953 325.415 158.784 322.741C153.437 320.068 147.912 317.216 142.387 314.543C130.802 309.196 119.217 303.849 107.81 299.037Z" fill="#C6CDD9"/>
<path d="M174.108 100.308C166.8 106.902 151.294 117.061 132.936 130.072C123.846 136.489 113.865 143.618 104.062 151.104C99.0718 154.847 94.0813 158.768 89.269 162.689C84.2785 166.61 79.4662 170.709 74.8322 174.63C65.3859 182.651 56.4743 190.671 48.4538 198.514C40.4334 206.178 33.3041 213.485 27.2442 219.901C24.2142 223.11 21.5407 225.961 19.2237 228.456C16.9067 231.13 14.9462 233.269 13.3421 235.229C10.1339 238.972 8.35156 241.111 8.35156 241.111C8.35156 241.111 9.95565 238.972 12.8074 235.051C15.6591 231.13 19.7584 225.427 24.5707 218.476C25.8183 216.693 27.0659 214.911 28.3136 212.95C29.5612 210.99 30.8088 209.029 32.2347 206.89C34.9082 202.791 37.5816 198.335 40.4334 193.523C43.2851 188.889 46.1368 183.899 48.9885 178.73C51.8402 173.561 54.6919 168.214 57.5436 162.867C63.2471 151.995 68.7723 140.588 73.941 129.359C79.1097 117.953 83.7438 106.902 88.0214 96.3865C96.5765 75.5333 103.349 57.5319 108.518 48.0856C111.192 43.2733 114.578 39.3522 118.856 36.3222C120.994 34.8963 123.311 33.6488 125.807 32.5794C127.054 32.0447 128.302 31.6882 129.728 31.3317C130.441 31.1535 130.975 30.9753 131.688 30.797C132.401 30.6188 133.114 30.6188 133.649 30.4406C136.322 30.0841 139.174 29.9058 142.204 30.0841C143.63 30.2623 145.056 30.2623 146.66 30.6188C148.086 30.797 149.511 31.1535 151.116 31.6882C153.967 32.5794 156.997 33.6487 159.849 35.0746C162.701 36.5004 165.374 38.2827 168.048 40.4215C169.295 41.4909 170.543 42.5604 171.79 43.6298C173.038 44.8774 174.108 45.9468 174.999 47.1944C177.137 49.6897 178.92 52.1849 180.346 54.8584C181.771 57.5319 183.019 60.3836 183.732 63.057C184.623 65.9088 185.158 68.5823 185.336 71.434C185.693 76.9592 184.98 82.3061 183.019 87.1184C181.237 92.2871 178.207 96.743 174.108 100.308Z" fill="#C6CDD9"/>
<path d="M2.29894 56.4624C3.7248 55.5713 5.15065 54.8584 6.75474 54.1454C8.35884 53.6107 9.96292 53.076 11.7452 52.8978C13.5276 52.7196 15.3099 52.7196 17.0922 52.8978C18.8745 53.076 20.6569 53.6107 22.2609 54.1454C23.6868 54.6801 25.1127 55.3931 26.3603 56.2843C28.1426 57.3536 29.5685 58.7795 30.9943 60.3836C31.3508 60.9183 31.7072 61.2747 32.0637 61.8094C32.5984 62.5223 32.9549 63.2353 33.4896 63.9482C36.876 70.0081 37.7671 77.4938 35.8066 84.9796C34.0243 91.7524 29.3902 104.229 24.2215 119.378C18.8745 134.528 13.1711 152.173 8.53707 169.284C6.22005 177.839 4.08126 186.215 2.29894 194.058C0.516618 201.9 -0.90924 209.029 -2.15686 215.089C-3.40449 221.149 -4.11742 226.14 -4.83035 229.704C-5.36504 233.269 -5.72151 235.229 -5.72151 235.229C-5.72151 235.229 -5.54328 233.269 -5.18681 229.882C-4.83035 226.496 -4.47388 221.506 -4.11742 215.267C-3.76095 209.207 -3.40449 202.078 -3.22626 194.236C-3.04803 186.394 -3.04803 177.839 -3.22626 169.105C-3.22626 164.649 -3.40449 160.194 -3.58272 155.738C-3.76095 151.282 -3.93919 146.826 -4.29565 142.37C-4.83035 133.637 -5.54328 124.904 -6.07797 116.883C-7.50383 100.842 -8.92969 87.1184 -8.92969 79.4544C-8.92969 71.6122 -6.2562 64.6612 -1.62217 59.6707C-0.552775 58.4231 0.873082 57.3536 2.29894 56.4624Z" fill="#C6CDD9"/>
</g>
</g>
<path d="M-786.06 559.539C-811.678 621.829 -872.12 673.865 -920.743 727.321C-968.407 779.725 -1028.82 849.045 -988.869 919.258C-954.497 979.664 -849.527 1020.72 -762.468 1040.24C-672.71 1060.36 -582.042 1067.63 -492.169 1079.14C-450.317 1084.5 -408.229 1090.57 -366.534 1099.85C-319.361 1110.36 -277.992 1126.55 -235.503 1146.99C-78.7852 1222.45 66.0498 1314.9 205.651 1405.64C313.213 1475.57 418.675 1547.56 524.909 1618.77C565.538 1646.02 606.21 1673.27 648.071 1699.61C673.134 1715.36 699.578 1733.02 728.658 1744.41C736.02 1747.29 742.318 1748.42 743.696 1745.46C750.559 1730.75 726.227 1701.71 713.712 1685.77C692.583 1658.87 664.154 1633.5 635.278 1609.29C460.701 1462.92 251.704 1326.38 35.1596 1208.87C-32.7649 1172.02 -109.03 1128.95 -188.007 1108.73C-253.806 1091.89 -321.41 1084.72 -387.576 1077.15C-531.222 1060.73 -789.138 1032.28 -815.471 904.351C-829.48 836.277 -797.046 770.482 -765.353 710.318C-735.559 653.721 -690.11 594.261 -692.092 529.439C-693.668 477.82 -729.968 417.671 -768.577 367.923C-813.253 310.377 -876.8 257.204 -948.54 212.58C-968.585 200.115 -991.71 186.505 -1016.12 179.407C-1057.64 167.33 -1029.47 198.59 -1017.48 210.146C-994.017 232.748 -965.98 253.459 -942.108 275.702C-883.066 330.695 -830.39 389.35 -799.198 451.001C-779.33 490.307 -771.467 524.054 -786.06 559.539Z" fill="#E8ECF4"/>
<path d="M1342.94 282.539C1317.32 344.829 1256.88 396.865 1208.26 450.321C1160.59 502.725 1100.18 572.045 1140.13 642.258C1174.5 702.664 1279.47 743.722 1366.53 763.242C1456.29 783.359 1546.96 790.625 1636.83 802.14C1678.68 807.502 1720.77 813.567 1762.47 822.85C1809.64 833.363 1851.01 849.549 1893.5 869.991C2050.21 945.445 2195.05 1037.9 2334.65 1128.64C2442.21 1198.57 2547.67 1270.56 2653.91 1341.77C2694.54 1369.02 2735.21 1396.27 2777.07 1422.61C2802.13 1438.36 2828.58 1456.02 2857.66 1467.41C2865.02 1470.29 2871.32 1471.42 2872.7 1468.46C2879.56 1453.75 2855.23 1424.71 2842.71 1408.77C2821.58 1381.87 2793.15 1356.5 2764.28 1332.29C2589.7 1185.92 2380.7 1049.38 2164.16 931.874C2096.24 895.017 2019.97 851.947 1940.99 831.73C1875.19 814.887 1807.59 807.718 1741.42 800.154C1597.78 783.734 1339.86 755.278 1313.53 627.351C1299.52 559.277 1331.95 493.482 1363.65 433.318C1393.44 376.721 1438.89 317.261 1436.91 252.439C1435.33 200.82 1399.03 140.671 1360.42 90.923C1315.75 33.3772 1252.2 -19.7961 1180.46 -64.4198C1160.41 -76.8849 1137.29 -90.4945 1112.88 -97.5934C1071.36 -109.67 1099.53 -78.4099 1111.52 -66.8537C1134.98 -44.2516 1163.02 -23.5406 1186.89 -1.29811C1245.93 53.6945 1298.61 112.35 1329.8 174.001C1349.67 213.307 1357.53 247.054 1342.94 282.539Z" fill="#E8ECF4"/>
</g>
<defs>
<clipPath id="clip0_403_705">
<rect width="1440" height="1700" fill="white"/>
</clipPath>
<clipPath id="clip1_403_705">
<rect width="280" height="509.931" fill="white" transform="translate(-8.92969 30.0142)"/>
</clipPath>
</defs>
</svg>
