<svg width="1460" height="920" viewBox="0 0 1460 920" fill="none" xmlns="http://www.w3.org/2000/svg">
<rect width="1440" height="920" transform="translate(20)" fill="white"/>
<g opacity="0.4">
<path d="M10.2706 204.873C12.1038 210.029 14.3954 215.987 17.2598 222.518C20.0097 229.049 23.2179 235.924 26.7698 243.028C28.4884 246.58 30.3217 250.132 32.2695 253.684C33.1861 255.402 34.2173 257.235 35.134 258.954C36.0506 260.673 37.0818 262.391 38.113 264.225C42.0086 271.099 46.0189 277.859 49.9145 284.047C53.8101 290.234 57.3621 295.848 60.3411 300.775C63.3201 305.702 65.8408 309.827 67.3303 312.92C68.8198 316.128 69.6219 319.451 69.5073 322.774C69.5073 326.097 68.5907 329.534 66.872 332.628C66.4137 333.43 65.9554 334.232 65.4971 334.919C65.0388 335.721 64.4659 336.409 63.7784 337.096C62.5181 338.471 61.1431 339.846 59.6536 341.106C58.1641 342.367 56.3309 343.398 54.4976 344.315C53.581 344.773 52.6644 345.231 51.6332 345.575C50.602 345.919 49.5708 346.262 48.5396 346.606C46.4772 347.179 44.3002 347.523 42.2378 347.752C40.1754 347.866 38.113 347.867 36.1652 347.637C34.2173 347.408 32.3841 346.95 30.5508 346.377C28.8322 345.804 27.1135 345.002 25.624 344.085C22.5304 342.252 20.1243 339.731 18.291 336.867C16.4578 334.003 15.4266 330.794 15.0828 327.357C14.5099 321.055 14.9683 309.139 15.1974 294.702C15.1974 291.15 15.312 287.369 15.312 283.474C15.312 279.578 15.312 275.682 15.1974 271.672C14.9683 263.652 14.6245 255.517 14.0516 247.496C13.4787 239.59 12.5621 231.799 11.6455 224.695C10.7289 217.592 9.5831 211.175 8.5519 205.675C7.5207 200.176 6.4895 195.707 5.80203 192.614C5.11456 189.52 4.65625 187.801 4.65625 187.801C4.65625 187.801 5.11456 189.52 6.14576 192.499C7.06238 195.478 8.43732 199.832 10.2706 204.873Z" fill="#46B8E1"/>
<path d="M52.4356 228.82C50.717 226.529 48.9983 224.237 47.2796 221.945C45.561 219.654 43.7277 217.362 42.009 215.071C38.4571 210.602 34.9052 206.363 31.5825 202.467C29.8638 200.519 28.2597 198.686 26.7702 196.967C25.1661 195.249 23.7912 193.645 22.4162 192.155C19.6664 189.176 17.3748 186.885 15.7707 185.28C14.1666 183.676 13.25 182.76 13.25 182.76C13.25 182.76 14.1666 183.562 15.8853 185.051C17.604 186.541 20.0101 188.603 22.9891 191.124C28.9472 196.051 37.4259 202.582 46.7067 209.113C55.873 215.529 66.0704 221.945 74.8929 227.331C83.7154 232.716 91.2775 237.07 95.4023 240.049C97.4647 241.538 99.0688 243.257 100.444 245.205C101.704 247.153 102.621 249.215 102.964 251.392C103.194 252.423 103.194 253.569 103.194 254.715C103.194 255.288 103.079 255.86 103.079 256.319C102.964 256.892 102.85 257.35 102.735 257.923C102.392 258.954 102.048 259.985 101.475 261.016C101.246 261.475 100.902 262.048 100.558 262.391C100.215 262.85 99.8708 263.308 99.4125 263.652C98.6105 264.454 97.6939 265.256 96.7772 265.829C96.5481 265.943 96.3189 266.172 96.0898 266.287C95.8606 266.402 95.6315 266.516 95.4023 266.631C94.944 266.86 94.3711 267.089 93.9128 267.204C91.8504 267.891 89.6734 268.235 87.4964 267.891C83.1425 267.433 78.9031 265.027 75.6949 261.131C72.8305 257.694 68.0182 250.59 62.1747 242.111C58.9666 237.986 55.7584 233.403 52.4356 228.82Z" fill="#46B8E1"/>
<path d="M126.792 137.272C124.271 140.939 120.261 143.574 115.334 144.605C110.98 145.636 102.387 146.553 92.1891 147.813C87.0331 148.501 81.6479 149.188 75.919 150.105C70.3047 151.021 64.4613 152.053 58.8469 153.084C53.2326 154.23 47.8475 155.375 42.806 156.636C37.7646 157.896 33.2961 159.042 29.4004 160.188C25.5048 161.219 22.4112 162.25 20.2342 162.938C18.0572 163.625 16.7969 163.969 16.7969 163.969C16.7969 163.969 17.9427 163.51 20.0051 162.708C21.0363 162.25 22.2966 161.792 23.7861 161.219C25.2756 160.646 26.8797 159.959 28.713 159.157C35.9314 156.063 45.5559 151.594 55.5242 146.324C65.4925 141.053 75.8045 134.981 84.627 129.595C93.4494 124.21 100.782 119.398 105.251 117.221C109.719 114.929 114.646 114.357 118.771 115.731C123.011 116.992 126.562 120.085 128.052 124.554C128.396 125.7 128.625 126.731 128.739 127.877C128.854 128.45 128.854 129.023 128.854 129.481C128.854 130.054 128.739 130.627 128.739 131.085C128.854 133.376 128.052 135.439 126.792 137.272Z" fill="#46B8E1"/>
<path d="M75.1144 192.957C67.7815 189.863 60.4485 187.114 53.6884 184.707C46.9283 182.301 40.7411 180.354 35.3559 178.749C29.9708 177.145 25.6168 176 22.5232 175.198C19.4296 174.395 17.7109 174.052 17.7109 174.052C17.7109 174.052 19.4296 174.396 22.5232 174.854C24.0127 175.083 25.9605 175.427 28.1375 175.77C30.3145 176.114 32.7206 176.458 35.4705 176.802C40.8557 177.489 47.272 178.177 54.3758 178.635C61.4797 179.208 69.0418 179.551 76.9477 179.666C80.8433 179.666 84.8536 179.666 88.9784 179.666C92.9886 179.666 96.9988 179.551 101.009 179.322C108.915 178.979 116.706 178.52 124.039 177.947C138.591 176.802 150.736 175.541 157.725 175.77C161.277 175.885 164.485 176.802 167.579 178.291C170.558 179.895 173.079 182.187 175.141 185.051C175.714 185.739 176.172 186.541 176.63 187.343C177.089 188.145 177.432 188.947 177.776 189.863C178.464 191.582 179.037 193.415 179.495 195.363C179.839 197.311 180.068 199.259 180.068 201.436C180.068 202.467 180.068 203.498 179.953 204.529C179.839 205.561 179.609 206.592 179.38 207.738C178.922 209.915 178.349 211.862 177.547 213.81C176.745 215.758 175.714 217.477 174.568 219.081C173.537 220.685 172.162 222.174 170.787 223.435C169.412 224.695 167.922 225.841 166.433 226.758C163.339 228.591 160.017 229.737 156.694 229.966C153.371 230.309 149.934 229.737 146.726 228.476C140.882 226.185 130.456 220.227 117.737 213.352C114.529 211.633 111.206 209.915 107.884 208.196C104.446 206.477 100.894 204.644 97.3425 202.925C89.895 199.488 82.4474 196.051 75.1144 192.957Z" fill="#46B8E1"/>
<path d="M117.737 65.2028C113.039 69.4422 103.071 75.9731 91.2696 84.3373C85.4261 88.4621 79.0098 93.0452 72.708 97.8575C69.4998 100.264 66.2916 102.784 63.198 105.305C59.9898 107.826 56.8962 110.461 53.9172 112.982C47.8446 118.138 42.1157 123.294 36.9597 128.335C31.8037 133.262 27.2206 137.96 23.3249 142.085C21.3771 144.147 19.6584 145.98 18.1689 147.584C16.6794 149.303 15.4191 150.678 14.3879 151.938C12.3255 154.344 11.1797 155.719 11.1797 155.719C11.1797 155.719 12.2109 154.344 14.0441 151.824C15.8774 149.303 18.5127 145.636 21.6063 141.168C22.4083 140.022 23.2104 138.876 24.0124 137.616C24.8145 136.356 25.6165 135.095 26.5331 133.72C28.2518 131.085 29.9705 128.221 31.8037 125.127C33.6369 122.148 35.4702 118.94 37.3034 115.617C39.1367 112.294 40.9699 108.857 42.8032 105.42C46.4697 98.4304 50.0216 91.0974 53.3443 83.879C56.6671 76.546 59.6461 69.4422 62.396 62.6821C67.8957 49.2765 72.2497 37.7041 75.5724 31.6315C77.2911 28.5379 79.4681 26.0172 82.2179 24.0693C83.5929 23.1527 85.0824 22.3507 86.6865 21.6632C87.4885 21.3195 88.2906 21.0903 89.2072 20.8612C89.6655 20.7466 90.0092 20.632 90.4676 20.5174C90.9259 20.4029 91.3842 20.4029 91.7279 20.2883C93.4466 20.0591 95.2798 19.9445 97.2276 20.0591C98.1443 20.1737 99.0609 20.1737 100.092 20.4028C101.009 20.5174 101.925 20.7466 102.957 21.0903C104.79 21.6632 106.738 22.3507 108.571 23.2673C110.404 24.1839 112.123 25.3297 113.841 26.7046C114.643 27.3921 115.446 28.0796 116.248 28.7671C117.05 29.5691 117.737 30.2566 118.31 31.0586C119.685 32.6627 120.831 34.2668 121.747 35.9855C122.664 37.7041 123.466 39.5373 123.924 41.256C124.497 43.0893 124.841 44.8079 124.955 46.6412C125.185 50.1931 124.726 53.6304 123.466 56.724C122.32 60.0468 120.372 62.9112 117.737 65.2028Z" fill="#46B8E1"/>
<path d="M7.28872 37.0167C8.20534 36.4438 9.12196 35.9855 10.1532 35.5272C11.1844 35.1834 12.2156 34.8397 13.3613 34.7251C14.5071 34.6105 15.6529 34.6105 16.7987 34.7251C17.9445 34.8397 19.0902 35.1834 20.1214 35.5272C21.0381 35.8709 21.9547 36.3292 22.7567 36.9021C23.9025 37.5896 24.8191 38.5062 25.7358 39.5374C25.9649 39.8811 26.1941 40.1103 26.4232 40.454C26.7669 40.9123 26.9961 41.3706 27.3398 41.8289C29.5168 45.7246 30.0897 50.5368 28.8294 55.3491C27.6836 59.7031 24.7045 67.7236 21.3818 77.4627C17.9445 87.2018 14.278 98.545 11.2989 109.544C9.80943 115.044 8.43449 120.429 7.28872 125.471C6.14294 130.512 5.22632 135.095 4.42427 138.991C3.62223 142.887 3.16391 146.095 2.7056 148.386C2.36187 150.678 2.13271 151.938 2.13271 151.938C2.13271 151.938 2.24729 150.678 2.47645 148.501C2.7056 146.324 2.93476 143.116 3.16391 139.106C3.39307 135.21 3.62223 130.627 3.7368 125.585C3.85138 120.544 3.85138 115.044 3.7368 109.43C3.7368 106.565 3.62223 103.701 3.50765 100.837C3.39307 97.9721 3.27849 95.1076 3.04934 92.2432C2.7056 86.6289 2.24729 81.0146 1.90356 75.8586C0.986935 65.5466 0.0703125 56.7241 0.0703125 51.7972C0.0703125 46.7558 1.78898 42.2873 4.768 39.0791C5.45547 38.2771 6.37209 37.5895 7.28872 37.0167Z" fill="#46B8E1"/>
</g>
</svg>
