<svg width="375" height="3275" viewBox="0 0 375 3275" fill="none" xmlns="http://www.w3.org/2000/svg">
<g clip-path="url(#clip0_334_2594)">
<rect width="375" height="3275" fill="white"/>
<g clip-path="url(#clip1_334_2594)">
<g opacity="0.4">
<path d="M1.02738 180.453C2.81693 185.486 5.05387 191.302 7.85005 197.678C10.5344 204.053 13.6661 210.764 17.1334 217.698C18.8111 221.166 20.6006 224.633 22.502 228.1C23.3968 229.778 24.4034 231.567 25.2982 233.245C26.193 234.923 27.1996 236.601 28.2062 238.39C32.009 245.101 35.9237 251.7 39.7265 257.74C43.5293 263.779 46.9965 269.26 49.9045 274.069C52.8126 278.879 55.2732 282.905 56.7272 285.925C58.1812 289.057 58.9642 292.3 58.8523 295.544C58.8523 298.787 57.9575 302.143 56.2798 305.163C55.8324 305.946 55.3851 306.729 54.9377 307.4C54.4903 308.183 53.931 308.854 53.26 309.525C52.0296 310.867 50.6875 312.209 49.2335 313.439C47.7794 314.67 45.9899 315.676 44.2003 316.571C43.3056 317.019 42.4108 317.466 41.4042 317.801C40.3975 318.137 39.3909 318.473 38.3843 318.808C36.371 319.367 34.246 319.703 32.2327 319.927C30.2195 320.038 28.2062 320.038 26.3048 319.815C24.4034 319.591 22.6139 319.144 20.8243 318.584C19.1466 318.025 17.4689 317.242 16.0149 316.347C12.995 314.558 10.6462 312.097 8.85667 309.301C7.06712 306.505 6.0605 303.373 5.72496 300.018C5.16572 293.866 5.61311 282.234 5.8368 268.141C5.8368 264.674 5.94865 260.983 5.94865 257.18C5.94865 253.378 5.94865 249.575 5.8368 245.66C5.61311 237.831 5.27757 229.89 4.71833 222.06C4.1591 214.343 3.26432 206.737 2.36954 199.803C1.47477 192.868 0.356298 186.605 -0.650325 181.236C-1.65695 175.868 -2.66357 171.506 -3.33465 168.486C-4.00574 165.466 -4.45312 163.788 -4.45312 163.788C-4.45312 163.788 -4.00574 165.466 -2.99911 168.374C-2.10434 171.282 -0.762173 175.532 1.02738 180.453Z" fill="#C6CDD9"/>
<path d="M42.1892 203.829C40.5115 201.592 38.8338 199.355 37.1561 197.118C35.4784 194.882 33.6888 192.645 32.0111 190.408C28.5439 186.046 25.0766 181.907 21.833 178.104C20.1553 176.203 18.5895 174.414 17.1355 172.736C15.5696 171.058 14.2274 169.492 12.8853 168.038C10.2009 165.13 7.96399 162.893 6.39813 161.327C4.83228 159.762 3.9375 158.867 3.9375 158.867C3.9375 158.867 4.83228 159.65 6.50998 161.104C8.18769 162.558 10.5365 164.571 13.4445 167.032C19.2605 171.841 27.5372 178.216 36.5968 184.592C45.5446 190.855 55.499 197.118 64.1112 202.375C72.7234 207.632 80.1053 211.882 84.1318 214.79C86.1451 216.244 87.7109 217.922 89.0531 219.823C90.2834 221.725 91.1782 223.738 91.5137 225.863C91.7374 226.87 91.7374 227.988 91.7374 229.107C91.7374 229.666 91.6256 230.225 91.6256 230.673C91.5137 231.232 91.4019 231.679 91.29 232.238C90.9545 233.245 90.619 234.252 90.0597 235.258C89.836 235.706 89.5005 236.265 89.165 236.6C88.8294 237.048 88.4939 237.495 88.0465 237.831C87.2635 238.614 86.3688 239.397 85.474 239.956C85.2503 240.068 85.0266 240.291 84.8029 240.403C84.5792 240.515 84.3555 240.627 84.1318 240.739C83.6844 240.963 83.1252 241.186 82.6778 241.298C80.6646 241.969 78.5395 242.305 76.4144 241.969C72.1642 241.522 68.0259 239.173 64.8941 235.37C62.098 232.015 57.4004 225.08 51.6962 216.804C48.5645 212.777 45.4328 208.303 42.1892 203.829Z" fill="#C6CDD9"/>
<path d="M114.772 114.463C112.311 118.042 108.396 120.615 103.587 121.622C99.3367 122.628 90.9482 123.523 80.9938 124.753C75.9607 125.424 70.7039 126.095 65.1115 126.99C59.631 127.885 53.9268 128.892 48.4463 129.898C42.9658 131.017 37.709 132.135 32.7877 133.365C27.8664 134.596 23.5044 135.714 19.7016 136.833C15.8988 137.839 12.8789 138.846 10.7538 139.517C8.62876 140.188 7.39844 140.524 7.39844 140.524C7.39844 140.524 8.51691 140.076 10.5302 139.293C11.5368 138.846 12.7671 138.399 14.2211 137.839C15.6751 137.28 17.241 136.609 19.0305 135.826C26.0769 132.806 35.4721 128.444 45.2027 123.299C54.9334 118.154 64.9997 112.226 73.6119 106.97C82.2241 101.713 89.3823 97.0151 93.7444 94.89C98.1064 92.6531 102.916 92.0939 106.942 93.436C111.081 94.6664 114.548 97.6862 116.002 102.048C116.337 103.167 116.561 104.173 116.673 105.292C116.785 105.851 116.785 106.41 116.785 106.858C116.785 107.417 116.673 107.976 116.673 108.424C116.785 110.661 116.002 112.674 114.772 114.463Z" fill="#C6CDD9"/>
<path d="M64.3323 168.821C57.174 165.801 50.0158 163.117 43.4168 160.768C36.8179 158.419 30.7781 156.518 25.5213 154.952C20.2645 153.386 16.0143 152.268 12.9945 151.485C9.97458 150.702 8.29688 150.366 8.29688 150.366C8.29688 150.366 9.97458 150.702 12.9945 151.149C14.4485 151.373 16.3499 151.709 18.475 152.044C20.6 152.38 22.9488 152.715 25.6332 153.051C30.89 153.722 37.1534 154.393 44.0879 154.84C51.0224 155.4 58.4044 155.735 66.1218 155.847C69.9246 155.847 73.8392 155.847 77.8657 155.847C81.7804 155.847 85.695 155.735 89.6097 155.511C97.3271 155.176 104.933 154.728 112.091 154.169C126.296 153.051 138.151 151.82 144.974 152.044C148.441 152.156 151.573 153.051 154.593 154.505C157.501 156.071 159.961 158.308 161.975 161.104C162.534 161.775 162.981 162.558 163.429 163.341C163.876 164.124 164.212 164.907 164.547 165.801C165.218 167.479 165.778 169.269 166.225 171.17C166.56 173.071 166.784 174.973 166.784 177.098C166.784 178.104 166.784 179.111 166.672 180.118C166.56 181.124 166.337 182.131 166.113 183.249C165.666 185.375 165.106 187.276 164.324 189.177C163.541 191.079 162.534 192.756 161.415 194.322C160.409 195.888 159.067 197.342 157.725 198.572C156.382 199.803 154.928 200.921 153.474 201.816C150.454 203.606 147.211 204.724 143.967 204.948C140.724 205.283 137.368 204.724 134.237 203.494C128.532 201.257 118.354 195.441 105.939 188.73C102.808 187.052 99.5641 185.375 96.3205 183.697C92.9651 182.019 89.4978 180.23 86.0306 178.552C78.7605 175.197 71.4905 171.841 64.3323 168.821Z" fill="#C6CDD9"/>
<path d="M105.932 44.1116C101.346 48.25 91.6154 54.6253 80.0952 62.7901C74.391 66.8166 68.1275 71.2905 61.9759 75.9881C58.8442 78.3368 55.7125 80.7975 52.6926 83.2581C49.5609 85.7188 46.541 88.2912 43.633 90.7519C37.7051 95.785 32.1128 100.818 27.0796 105.739C22.0465 110.549 17.5727 115.134 13.7699 119.161C11.8685 121.174 10.1907 122.964 8.73673 124.53C7.28272 126.207 6.0524 127.55 5.04578 128.78C3.03253 131.129 1.91406 132.471 1.91406 132.471C1.91406 132.471 2.92069 131.129 4.71024 128.668C6.49979 126.207 9.07227 122.628 12.0921 118.266C12.8751 117.148 13.658 116.029 14.4409 114.799C15.2239 113.569 16.0068 112.338 16.9016 110.996C18.5793 108.424 20.257 105.628 22.0465 102.608C23.8361 99.6996 25.6256 96.5679 27.4152 93.3243C29.2047 90.0808 30.9943 86.7253 32.7838 83.3699C36.363 76.5473 39.8302 69.3891 43.0738 62.3427C46.3173 55.1845 49.2254 48.25 51.9097 41.651C57.2784 28.5649 61.5285 17.2684 64.7721 11.3405C66.4498 8.3206 68.5749 5.85992 71.2592 3.95852C72.6014 3.06375 74.0554 2.28084 75.6213 1.60976C76.4042 1.27422 77.1871 1.05051 78.0819 0.826819C78.5293 0.714972 78.8648 0.603138 79.3122 0.491291C79.7596 0.379444 80.207 0.379431 80.5425 0.267583C82.2203 0.0438894 84.0098 -0.0679713 85.9112 0.0438757C86.806 0.155723 87.7008 0.155709 88.7074 0.379403C89.6021 0.49125 90.4969 0.714985 91.5036 1.05053C93.2931 1.60976 95.1945 2.2808 96.9841 3.17558C98.7736 4.07036 100.451 5.18883 102.129 6.53099C102.912 7.20207 103.695 7.87321 104.478 8.54429C105.261 9.32722 105.932 9.9983 106.491 10.7812C107.833 12.3471 108.952 13.9129 109.846 15.5906C110.741 17.2683 111.524 19.0579 111.972 20.7356C112.531 22.5251 112.866 24.2029 112.978 25.9924C113.202 29.4597 112.754 32.8151 111.524 35.8349C110.406 39.0785 108.504 41.8747 105.932 44.1116Z" fill="#C6CDD9"/>
<path d="M-1.88332 16.5972C-0.988548 16.038 -0.093771 15.5906 0.912852 15.1432C1.91948 14.8077 2.9261 14.4721 4.04457 14.3603C5.16304 14.2484 6.28151 14.2484 7.39998 14.3603C8.51845 14.4721 9.63692 14.8077 10.6435 15.1432C11.5383 15.4788 12.4331 15.9262 13.216 16.4854C14.3345 17.1565 15.2293 18.0512 16.1241 19.0579C16.3477 19.3934 16.5714 19.6171 16.7951 19.9526C17.1307 20.4 17.3544 20.8474 17.6899 21.2948C19.815 25.0976 20.3742 29.7952 19.1439 34.4928C18.0254 38.7429 15.1174 46.5723 11.8739 56.0793C8.51845 65.5863 4.93935 76.6591 2.03132 87.3965C0.577312 92.7651 -0.764853 98.0219 -1.88332 102.943C-3.00179 107.864 -3.89657 112.338 -4.6795 116.141C-5.46243 119.944 -5.90982 123.076 -6.35721 125.313C-6.69275 127.549 -6.91644 128.78 -6.91644 128.78C-6.91644 128.78 -6.80459 127.55 -6.5809 125.424C-6.35721 123.299 -6.13351 120.168 -5.90982 116.253C-5.68612 112.45 -5.46243 107.976 -5.35058 103.055C-5.23873 98.1338 -5.23873 92.7651 -5.35058 87.2846C-5.35058 84.4884 -5.46243 81.6922 -5.57428 78.896C-5.68612 76.0999 -5.79797 73.3037 -6.02166 70.5075C-6.35721 65.027 -6.80459 59.5465 -7.14013 54.5134C-8.03491 44.4472 -8.92969 35.8349 -8.92969 31.0255C-8.92969 26.1042 -7.25198 21.7422 -4.34396 18.6105C-3.67288 17.8276 -2.7781 17.1565 -1.88332 16.5972Z" fill="#C6CDD9"/>
</g>
</g>
<path d="M409.135 351.539C383.517 413.829 323.075 465.865 274.452 519.321C226.788 571.725 166.38 641.045 206.327 711.258C240.699 771.664 345.668 812.722 432.728 832.242C522.485 852.359 613.153 859.625 703.026 871.14C744.878 876.502 786.966 882.567 828.662 891.85C875.834 902.363 917.204 918.549 959.692 938.991C1116.41 1014.45 1261.25 1106.9 1400.85 1197.64C1508.41 1267.57 1613.87 1339.56 1720.1 1410.77C1760.73 1438.02 1801.41 1465.27 1843.27 1491.61C1868.33 1507.36 1894.77 1525.02 1923.85 1536.41C1931.22 1539.29 1937.51 1540.42 1938.89 1537.46C1945.75 1522.75 1921.42 1493.71 1908.91 1477.77C1887.78 1450.87 1859.35 1425.5 1830.47 1401.29C1655.9 1254.92 1446.9 1118.38 1230.35 1000.87C1162.43 964.017 1086.17 920.947 1007.19 900.73C941.389 883.887 873.785 876.718 807.62 869.154C663.974 852.734 406.057 824.278 379.724 696.351C365.715 628.277 398.15 562.482 429.842 502.318C459.637 445.721 505.085 386.261 503.103 321.439C501.527 269.82 465.227 209.671 426.619 159.923C381.942 102.377 318.395 49.2039 246.655 4.58019C226.61 -7.88485 203.486 -21.4945 179.074 -28.5934C137.554 -40.6703 165.721 -9.40988 177.713 2.14635C201.179 24.7484 229.215 45.4594 253.087 67.7019C312.129 122.695 364.806 181.35 395.997 243.001C415.865 282.307 423.728 316.054 409.135 351.539Z" fill="#E8ECF4"/>
<path d="M-858.56 858.539C-884.178 920.829 -944.62 972.865 -993.243 1026.32C-1040.91 1078.73 -1101.32 1148.04 -1061.37 1218.26C-1027 1278.66 -922.027 1319.72 -834.968 1339.24C-745.21 1359.36 -654.542 1366.63 -564.669 1378.14C-522.817 1383.5 -480.729 1389.57 -439.034 1398.85C-391.861 1409.36 -350.492 1425.55 -308.003 1445.99C-151.285 1521.45 -6.4502 1613.9 133.151 1704.64C240.713 1774.57 346.175 1846.56 452.409 1917.77C493.038 1945.02 533.71 1972.27 575.571 1998.61C600.634 2014.36 627.078 2032.02 656.158 2043.41C663.52 2046.29 669.818 2047.42 671.196 2044.46C678.059 2029.75 653.727 2000.71 641.212 1984.77C620.083 1957.87 591.654 1932.5 562.778 1908.29C388.201 1761.92 179.204 1625.38 -37.3404 1507.87C-105.265 1471.02 -181.53 1427.95 -260.507 1407.73C-326.306 1390.89 -393.91 1383.72 -460.076 1376.15C-603.722 1359.73 -861.638 1331.28 -887.971 1203.35C-901.98 1135.28 -869.546 1069.48 -837.853 1009.32C-808.059 952.721 -762.61 893.261 -764.592 828.439C-766.168 776.82 -802.468 716.671 -841.077 666.923C-885.753 609.377 -949.3 556.204 -1021.04 511.58C-1041.09 499.115 -1064.21 485.505 -1088.62 478.407C-1130.14 466.33 -1101.97 497.59 -1089.98 509.146C-1066.52 531.748 -1038.48 552.459 -1014.61 574.702C-955.566 629.695 -902.89 688.35 -871.698 750.001C-851.83 789.307 -843.967 823.054 -858.56 858.539Z" fill="#E8ECF4"/>
</g>
<defs>
<clipPath id="clip0_334_2594">
<rect width="375" height="3275" fill="white"/>
</clipPath>
<clipPath id="clip1_334_2594">
<rect width="175.71" height="320" fill="white" transform="translate(-8.92969)"/>
</clipPath>
</defs>
</svg>
