<svg width="374" height="974" viewBox="0 0 374 974" fill="none" xmlns="http://www.w3.org/2000/svg">
<rect width="374" height="974" fill="#E9FAFF"/>
<g opacity="0.4" clip-path="url(#clip0_403_845)">
<path d="M4.71385 119.168C5.51385 121.354 6.52719 123.914 7.70052 126.741C8.87385 129.514 10.2605 132.501 11.7539 135.541C12.5005 137.034 13.3005 138.581 14.1005 140.128C14.5272 140.874 14.9005 141.621 15.3272 142.421C15.7539 143.168 16.1805 143.914 16.5539 144.661C18.2605 147.648 19.9672 150.474 21.6205 153.141C23.2739 155.754 24.7672 158.208 26.1005 160.288C27.3805 162.368 28.4472 164.128 29.0872 165.514C29.7272 166.848 30.0472 168.288 30.0472 169.728C30.0472 171.168 29.6205 172.608 28.9272 173.994C28.7672 174.314 28.5539 174.688 28.3405 175.008C28.1272 175.328 27.8605 175.648 27.6472 175.968C27.1139 176.554 26.5272 177.141 25.8872 177.674C25.2472 178.208 24.5005 178.634 23.7005 179.061C23.3272 179.274 22.9005 179.434 22.4739 179.594C22.0472 179.754 21.6205 179.914 21.1405 180.021C20.2339 180.288 19.3272 180.448 18.4739 180.501C17.5672 180.554 16.7139 180.554 15.8605 180.448C15.0072 180.341 14.2072 180.128 13.4605 179.861C12.7139 179.594 11.9672 179.274 11.3272 178.848C10.0472 178.048 8.98052 176.981 8.18052 175.754C7.43385 174.528 6.95385 173.141 6.79385 171.648C6.52719 168.981 6.74052 163.808 6.84719 157.674C6.84719 156.128 6.90052 154.528 6.90052 152.874C6.90052 151.221 6.90052 149.568 6.84719 147.808C6.79385 144.394 6.58052 140.874 6.36719 137.461C6.10052 134.048 5.72719 130.741 5.35385 127.701C4.92719 124.661 4.44719 121.888 4.02052 119.541C3.59385 117.194 3.16719 115.274 2.84719 113.941C2.52719 112.608 2.36719 111.861 2.36719 111.861C2.36719 111.861 2.58052 112.554 3.00719 113.834C3.32719 115.168 3.91385 116.981 4.71385 119.168Z" fill="#46B8E1"/>
<path d="M22.7908 129.408C22.0442 128.448 21.3508 127.434 20.5508 126.474C19.8042 125.461 19.0575 124.501 18.2575 123.541C16.7108 121.621 15.2175 119.808 13.7775 118.154C13.0842 117.301 12.3908 116.554 11.6975 115.808C11.0575 115.061 10.4175 114.368 9.83083 113.781C8.6575 112.554 7.6975 111.541 7.00417 110.848C6.31083 110.154 5.9375 109.781 5.9375 109.781C5.9375 109.781 6.36417 110.154 7.0575 110.741C7.75083 111.381 8.8175 112.288 10.0975 113.354C12.6575 115.488 16.2842 118.261 20.2842 121.034C24.2308 123.808 28.5508 126.528 32.3908 128.821C36.1775 131.114 39.4308 132.981 41.1375 134.261C41.9908 134.901 42.7375 135.648 43.2708 136.448C43.8042 137.301 44.1775 138.154 44.3375 139.114C44.4442 139.594 44.4442 140.021 44.4442 140.501C44.4442 140.714 44.3908 140.981 44.3908 141.194C44.3375 141.407 44.2842 141.674 44.2308 141.888C44.1242 142.314 43.9108 142.794 43.6975 143.221C43.5908 143.434 43.4842 143.648 43.3242 143.808C43.1642 144.021 43.0042 144.181 42.8442 144.394C42.5242 144.767 42.1508 145.088 41.7242 145.354C41.6175 145.408 41.5108 145.461 41.4042 145.568C41.2975 145.621 41.1908 145.674 41.0842 145.727C40.8708 145.834 40.6575 145.941 40.4442 145.994C39.5375 146.314 38.6308 146.421 37.6708 146.314C35.8042 146.101 33.9908 145.088 32.6042 143.434C31.3775 141.941 29.3508 138.901 26.8442 135.274C25.6175 133.354 24.2308 131.381 22.7908 129.408Z" fill="#46B8E1"/>
<path d="M54.6351 90.2077C53.5684 91.8077 51.8084 92.9276 49.7284 93.3543C47.8618 93.781 44.1818 94.1543 39.8084 94.741C37.6218 95.0077 35.2751 95.3276 32.8751 95.7543C30.4751 96.1276 27.9684 96.5544 25.5684 97.0344C23.1684 97.5144 20.8218 98.0476 18.7418 98.5276C16.6084 99.0609 14.6351 99.5943 12.9818 100.021C11.3284 100.501 9.9951 100.874 9.08844 101.194C8.18177 101.514 7.64844 101.674 7.64844 101.674C7.64844 101.674 8.12844 101.461 9.0351 101.141C9.46177 100.981 9.9951 100.768 10.6351 100.501C11.2751 100.234 11.9684 99.9676 12.7151 99.6476C15.8084 98.3143 19.9151 96.3943 24.2351 94.1543C28.5018 91.9143 32.9284 89.301 36.7151 87.0077C40.5018 84.661 43.6484 82.6343 45.5684 81.6743C47.4884 80.7143 49.5684 80.4476 51.3818 81.0343C53.1951 81.5676 54.6884 82.901 55.3818 84.821C55.5418 85.301 55.6484 85.781 55.7018 86.261C55.7018 86.4743 55.7551 86.741 55.7551 86.9543C55.7551 87.1676 55.7018 87.4343 55.7018 87.6476C55.4884 88.5543 55.1684 89.4077 54.6351 90.2077Z" fill="#46B8E1"/>
<path d="M32.5007 114.101C29.3541 112.768 26.2074 111.594 23.3274 110.581C20.4474 109.568 17.7807 108.714 15.4874 108.021C13.1941 107.328 11.2741 106.847 9.99406 106.527C8.66073 106.207 7.91406 105.994 7.91406 105.994C7.91406 105.994 8.66073 106.154 9.94073 106.368C10.5807 106.474 11.3807 106.581 12.3407 106.741C13.2474 106.901 14.3141 107.008 15.4874 107.168C17.7807 107.488 20.5541 107.754 23.5941 107.968C26.6341 108.181 29.8874 108.341 33.2474 108.394C34.9541 108.394 36.6607 108.394 38.3674 108.394C40.0741 108.394 41.8341 108.341 43.5407 108.234C46.9541 108.074 50.2607 107.861 53.4074 107.648C59.6474 107.168 64.8207 106.581 67.8074 106.688C69.3007 106.741 70.7407 107.114 72.0207 107.808C73.3007 108.501 74.3674 109.461 75.2741 110.741C75.4874 111.061 75.7007 111.381 75.9141 111.701C76.0741 112.021 76.2874 112.394 76.4474 112.768C76.7674 113.514 76.9807 114.314 77.1941 115.114C77.3541 115.914 77.4074 116.821 77.4074 117.674C77.4074 118.101 77.4074 118.581 77.3541 119.008C77.3007 119.434 77.2474 119.914 77.1407 120.394C76.9274 121.301 76.6607 122.208 76.3407 123.008C75.9674 123.808 75.5407 124.608 75.0607 125.301C74.5807 125.994 74.0474 126.634 73.4607 127.168C72.8741 127.701 72.2341 128.181 71.5941 128.608C70.2607 129.408 68.8741 129.887 67.4341 129.994C65.9941 130.101 64.5541 129.888 63.1674 129.354C60.6607 128.394 56.1807 125.781 50.7407 122.901C49.4074 122.154 47.9674 121.407 46.4741 120.661C45.0341 119.914 43.4874 119.168 41.9407 118.421C38.8474 116.874 35.6474 115.381 32.5007 114.101Z" fill="#46B8E1"/>
<path d="M50.7406 59.3809C48.714 61.1943 44.4473 64.021 39.434 67.541C36.9273 69.301 34.2073 71.2742 31.4873 73.3542C30.154 74.3676 28.7673 75.4876 27.434 76.5542C26.1006 77.6209 24.7673 78.741 23.434 79.861C20.8206 82.101 18.3673 84.2876 16.1806 86.4209C13.9406 88.5542 11.9673 90.5809 10.3673 92.2876C9.56729 93.1409 8.82063 93.9409 8.18062 94.6876C7.54063 95.3809 7.00729 96.0209 6.52729 96.5542C5.62063 97.5676 5.14062 98.1542 5.14062 98.1542C5.14062 98.1542 5.56729 97.5677 6.36729 96.501C7.16729 95.4343 8.28729 93.8876 9.56729 91.9143C9.88729 91.4343 10.2606 90.901 10.5806 90.3677C10.954 89.8343 11.274 89.3009 11.6473 88.7143C12.394 87.5943 13.1406 86.3676 13.9406 85.0343C14.7406 83.7543 15.4873 82.3676 16.2873 80.9809C17.0873 79.5409 17.8873 78.101 18.634 76.6076C20.1806 73.621 21.7273 70.4743 23.114 67.3809C24.554 64.2876 25.834 61.1943 27.0073 58.3143C29.354 52.5543 31.2206 47.5943 32.6606 45.0343C33.354 43.7009 34.3673 42.6343 35.5406 41.7809C36.1273 41.3543 36.7673 41.0343 37.4606 40.7676C37.7806 40.6076 38.154 40.501 38.5273 40.3943C38.6873 40.341 38.9006 40.2876 39.0606 40.2343C39.2206 40.1809 39.434 40.181 39.594 40.1276C40.3406 40.021 41.1406 39.9676 41.9406 40.0209C42.3673 40.0209 42.7406 40.0743 43.1673 40.1809C43.594 40.2343 43.9673 40.3409 44.394 40.4476C45.194 40.6609 45.994 40.981 46.794 41.4076C47.594 41.8343 48.3406 42.3143 49.0873 42.9009C49.4606 43.1676 49.7806 43.4876 50.1006 43.8076C50.4206 44.1276 50.7406 44.4476 51.0073 44.8209C51.594 45.5142 52.074 46.2076 52.5006 46.9542C52.874 47.7009 53.194 48.4476 53.4606 49.2476C53.674 49.9943 53.834 50.7943 53.8873 51.541C53.994 53.0876 53.7806 54.5276 53.2473 55.861C52.714 57.141 51.8606 58.3676 50.7406 59.3809Z" fill="#46B8E1"/>
<path d="M3.43333 47.2209C3.80667 46.9542 4.23333 46.7409 4.66 46.5809C5.08667 46.4209 5.56667 46.3143 6.04667 46.2076C6.52667 46.1543 7.00667 46.1543 7.48667 46.2076C7.96667 46.2609 8.44667 46.3676 8.92667 46.5276C9.35333 46.6876 9.72667 46.9009 10.1 47.1142C10.58 47.4342 11.0067 47.8076 11.38 48.2342C11.4867 48.3409 11.5933 48.5009 11.7 48.6076C11.86 48.8209 11.9667 48.9809 12.0733 49.1943C13.0333 50.8476 13.2467 52.9276 12.7133 55.0076C12.2333 56.8743 10.9533 60.3409 9.51333 64.5009C8.07333 68.6609 6.47333 73.5143 5.19333 78.2609C4.55333 80.6076 3.96667 82.9542 3.48667 85.0875C3.00667 87.2209 2.58 89.1943 2.26 90.901C1.94 92.6076 1.72667 93.9942 1.56667 94.9542C1.40667 95.9142 1.35333 96.4476 1.35333 96.4476C1.35333 96.4476 1.40667 95.9142 1.51333 94.9542C1.62 93.9942 1.72667 92.6075 1.83333 90.9542C1.94 89.2475 2.04667 87.3276 2.04667 85.1409C2.1 82.9543 2.1 80.6076 2.04667 78.2076C2.04667 76.9809 1.99333 75.7543 1.94 74.5276C1.88667 73.3009 1.83333 72.0742 1.78 70.8476C1.62 68.3942 1.46 66.0476 1.24667 63.8076C0.873333 59.3809 0.5 55.6476 0.5 53.5142C0.5 51.3809 1.19333 49.4076 2.52667 48.0743C2.68667 47.8076 3.06 47.4876 3.43333 47.2209Z" fill="#46B8E1"/>
</g>
<defs>
<clipPath id="clip0_403_845">
<rect width="76.9058" height="140.536" fill="white" transform="translate(0.5 40)"/>
</clipPath>
</defs>
</svg>
