<svg width="1460" height="928" viewBox="0 0 1460 928" fill="none" xmlns="http://www.w3.org/2000/svg">
<rect width="1440" height="928" transform="translate(20)" fill="#E9FAFF"/>
<g opacity="0.4">
<path d="M11.9396 225.133C14.0729 231.133 16.7396 238.067 20.0729 245.667C23.2729 253.267 27.0063 261.267 31.1396 269.533C33.1396 273.667 35.2729 277.8 37.5396 281.933C38.6063 283.933 39.8063 286.067 40.8729 288.067C41.9396 290.067 43.1396 292.067 44.3396 294.2C48.8729 302.2 53.5396 310.067 58.0729 317.267C62.6063 324.467 66.7396 331 70.2063 336.733C73.6729 342.467 76.6063 347.267 78.3396 350.867C80.0729 354.6 81.0063 358.467 80.8729 362.333C80.8729 366.2 79.8063 370.2 77.8063 373.8C77.2729 374.733 76.7396 375.667 76.2063 376.467C75.6729 377.4 75.0063 378.2 74.2063 379C72.7396 380.6 71.1396 382.2 69.4062 383.667C67.6729 385.133 65.5396 386.333 63.4062 387.4C62.3396 387.933 61.2729 388.467 60.0729 388.867C58.8729 389.267 57.6729 389.667 56.4729 390.067C54.0729 390.733 51.5396 391.133 49.1396 391.4C46.7396 391.533 44.3396 391.533 42.0729 391.267C39.8063 391 37.6729 390.467 35.5396 389.8C33.5396 389.133 31.5396 388.2 29.8063 387.133C26.2063 385 23.4062 382.067 21.2729 378.733C19.1396 375.4 17.9396 371.667 17.5396 367.667C16.8729 360.333 17.4062 346.467 17.6729 329.667C17.6729 325.533 17.8063 321.133 17.8063 316.6C17.8063 312.067 17.8063 307.533 17.6729 302.867C17.4062 293.533 17.0063 284.067 16.3396 274.733C15.6729 265.533 14.6062 256.467 13.5396 248.2C12.4729 239.933 11.1396 232.467 9.93958 226.067C8.73958 219.667 7.53958 214.467 6.73958 210.867C5.93958 207.267 5.40625 205.267 5.40625 205.267C5.40625 205.267 5.93958 207.267 7.13958 210.733C8.20625 214.2 9.80625 219.267 11.9396 225.133Z" fill="#46B8E1"/>
<path d="M61.0062 253C59.0062 250.333 57.0062 247.667 55.0062 245C53.0062 242.333 50.8729 239.667 48.8729 237C44.7396 231.8 40.6062 226.867 36.7396 222.333C34.7396 220.067 32.8729 217.933 31.1396 215.933C29.2729 213.933 27.6729 212.067 26.0729 210.333C22.8729 206.867 20.2062 204.2 18.3396 202.333C16.4729 200.467 15.4062 199.4 15.4062 199.4C15.4062 199.4 16.4729 200.333 18.4729 202.067C20.4729 203.8 23.2729 206.2 26.7396 209.133C33.6729 214.867 43.5396 222.467 54.3396 230.067C65.0062 237.533 76.8729 245 87.1396 251.267C97.4062 257.533 106.206 262.6 111.006 266.067C113.406 267.8 115.273 269.8 116.873 272.067C118.34 274.333 119.406 276.733 119.806 279.267C120.073 280.467 120.073 281.8 120.073 283.133C120.073 283.8 119.94 284.467 119.94 285C119.806 285.667 119.673 286.2 119.54 286.867C119.14 288.067 118.74 289.267 118.073 290.467C117.806 291 117.406 291.667 117.006 292.067C116.606 292.6 116.206 293.133 115.673 293.533C114.74 294.467 113.673 295.4 112.606 296.067C112.34 296.2 112.073 296.467 111.806 296.6C111.54 296.733 111.273 296.867 111.006 297C110.473 297.267 109.806 297.533 109.273 297.667C106.873 298.467 104.34 298.867 101.806 298.467C96.7396 297.933 91.8063 295.133 88.0729 290.6C84.7396 286.6 79.1396 278.333 72.3396 268.467C68.6062 263.667 64.8729 258.333 61.0062 253Z" fill="#46B8E1"/>
<path d="M147.539 146.466C144.606 150.733 139.939 153.8 134.206 155C129.139 156.2 119.139 157.266 107.272 158.733C101.272 159.533 95.0057 160.333 88.3391 161.4C81.8057 162.466 75.0057 163.666 68.4724 164.866C61.9391 166.2 55.6724 167.533 49.8057 169C43.9391 170.466 38.7391 171.8 34.2057 173.133C29.6724 174.333 26.0724 175.533 23.5391 176.333C21.0057 177.133 19.5391 177.533 19.5391 177.533C19.5391 177.533 20.8724 177 23.2724 176.066C24.4724 175.533 25.9391 175 27.6724 174.333C29.4057 173.666 31.2724 172.866 33.4057 171.933C41.8057 168.333 53.0057 163.133 64.6057 157C76.2057 150.866 88.2057 143.8 98.4724 137.533C108.739 131.266 117.272 125.666 122.472 123.133C127.672 120.466 133.406 119.8 138.206 121.4C143.139 122.866 147.272 126.466 149.006 131.666C149.406 133 149.672 134.2 149.806 135.533C149.939 136.2 149.939 136.866 149.939 137.4C149.939 138.066 149.806 138.733 149.806 139.266C149.939 141.933 149.006 144.333 147.539 146.466Z" fill="#46B8E1"/>
<path d="M87.4016 211.267C78.8682 207.667 70.3349 204.467 62.4682 201.667C54.6016 198.867 47.4016 196.6 41.1349 194.733C34.8682 192.867 29.8016 191.533 26.2016 190.6C22.6016 189.667 20.6016 189.267 20.6016 189.267C20.6016 189.267 22.6016 189.667 26.2016 190.2C27.9349 190.467 30.2016 190.867 32.7349 191.267C35.2682 191.667 38.0682 192.067 41.2682 192.467C47.5349 193.267 55.0016 194.067 63.2682 194.6C71.5349 195.267 80.3349 195.667 89.5349 195.8C94.0682 195.8 98.7349 195.8 103.535 195.8C108.202 195.8 112.868 195.667 117.535 195.4C126.735 195 135.802 194.467 144.335 193.8C161.268 192.467 175.402 191 183.535 191.267C187.668 191.4 191.402 192.467 195.002 194.2C198.468 196.067 201.402 198.733 203.802 202.067C204.468 202.867 205.002 203.8 205.535 204.733C206.068 205.667 206.468 206.6 206.868 207.667C207.668 209.667 208.335 211.8 208.868 214.067C209.268 216.333 209.535 218.6 209.535 221.133C209.535 222.333 209.535 223.533 209.402 224.733C209.268 225.933 209.002 227.133 208.735 228.467C208.202 231 207.535 233.267 206.602 235.533C205.668 237.8 204.468 239.8 203.135 241.667C201.935 243.533 200.335 245.267 198.735 246.733C197.135 248.2 195.402 249.533 193.668 250.6C190.068 252.733 186.202 254.067 182.335 254.333C178.468 254.733 174.468 254.067 170.735 252.6C163.935 249.933 151.802 243 137.002 235C133.268 233 129.402 231 125.535 229C121.535 227 117.402 224.867 113.268 222.867C104.602 218.867 95.9349 214.867 87.4016 211.267Z" fill="#46B8E1"/>
<path d="M137 62.5998C131.533 67.5332 119.933 75.1332 106.2 84.8665C99.4 89.6665 91.9333 94.9998 84.6 100.6C80.8667 103.4 77.1333 106.333 73.5333 109.267C69.8 112.2 66.2 115.267 62.7333 118.2C55.6667 124.2 49 130.2 43 136.066C37 141.8 31.6667 147.266 27.1333 152.066C24.8667 154.466 22.8667 156.6 21.1333 158.466C19.4 160.466 17.9333 162.067 16.7333 163.533C14.3333 166.333 13 167.933 13 167.933C13 167.933 14.2 166.333 16.3333 163.4C18.4667 160.466 21.5333 156.2 25.1333 151C26.0667 149.666 27 148.333 27.9333 146.867C28.8667 145.4 29.8 143.933 30.8667 142.333C32.8667 139.266 34.8667 135.933 37 132.333C39.1333 128.866 41.2667 125.133 43.4 121.267C45.5333 117.4 47.6667 113.4 49.8 109.4C54.0667 101.266 58.2 92.7331 62.0667 84.3331C65.9333 75.7998 69.4 67.5331 72.6 59.6665C79 44.0665 84.0667 30.5998 87.9333 23.5332C89.9333 19.9332 92.4667 16.9998 95.6667 14.7331C97.2667 13.6665 99 12.7332 100.867 11.9332C101.8 11.5332 102.733 11.2665 103.8 10.9998C104.333 10.8665 104.733 10.7332 105.267 10.5998C105.8 10.4665 106.333 10.4665 106.733 10.3331C108.733 10.0665 110.867 9.93313 113.133 10.0665C114.2 10.1998 115.267 10.1998 116.467 10.4664C117.533 10.5998 118.6 10.8665 119.8 11.2665C121.933 11.9332 124.2 12.7331 126.333 13.7998C128.467 14.8664 130.467 16.1998 132.467 17.7998C133.4 18.5998 134.333 19.3998 135.267 20.1998C136.2 21.1332 137 21.9332 137.667 22.8665C139.267 24.7332 140.6 26.5998 141.667 28.5998C142.733 30.5998 143.667 32.7331 144.2 34.7331C144.867 36.8665 145.267 38.8665 145.4 40.9998C145.667 45.1331 145.133 49.1331 143.667 52.7331C142.333 56.5998 140.067 59.9332 137 62.5998Z" fill="#46B8E1"/>
<path d="M8.47031 29.7997C9.53698 29.1331 10.6036 28.5998 11.8036 28.0664C13.0036 27.6664 14.2036 27.2664 15.537 27.1331C16.8703 26.9997 18.2036 26.9997 19.537 27.1331C20.8703 27.2664 22.2036 27.6664 23.4036 28.0664C24.4703 28.4664 25.537 28.9998 26.4703 29.6664C27.8036 30.4664 28.8703 31.5331 29.937 32.7331C30.2036 33.1331 30.4703 33.3997 30.737 33.7997C31.137 34.3331 31.4036 34.8664 31.8036 35.3998C34.337 39.9331 35.0036 45.5331 33.537 51.1331C32.2036 56.1997 28.737 65.5331 24.8703 76.8665C20.8703 88.1998 16.6036 101.4 13.137 114.2C11.4036 120.6 9.80365 126.866 8.47031 132.733C7.13698 138.6 6.07031 143.933 5.13698 148.466C4.20365 153 3.67031 156.733 3.13698 159.4C2.73698 162.066 2.47031 163.533 2.47031 163.533C2.47031 163.533 2.60365 162.066 2.87031 159.533C3.13698 157 3.40365 153.266 3.67031 148.6C3.93698 144.066 4.20365 138.733 4.33698 132.866C4.47031 127 4.47031 120.6 4.33698 114.066C4.33698 110.733 4.20365 107.4 4.07031 104.066C3.93698 100.733 3.80365 97.3998 3.53698 94.0664C3.13698 87.5331 2.60365 80.9998 2.20365 74.9998C1.13698 62.9998 0.0703125 52.7331 0.0703125 46.9998C0.0703125 41.1331 2.07031 35.9331 5.53698 32.1998C6.33698 31.2665 7.40365 30.4664 8.47031 29.7997Z" fill="#46B8E1"/>
</g>
</svg>
