<svg width="1446" height="920" viewBox="0 0 1446 920" fill="none" xmlns="http://www.w3.org/2000/svg">
<rect width="1440" height="920" fill="#C5E8F5"/>
<g opacity="0.4">
<path d="M1431.46 678.488C1429.01 685.363 1425.96 693.307 1422.14 702.015C1418.47 710.722 1414.19 719.889 1409.46 729.36C1407.17 734.096 1404.72 738.832 1402.12 743.567C1400.9 745.859 1399.53 748.303 1398.31 750.595C1397.08 752.886 1395.71 755.178 1394.33 757.622C1389.14 766.788 1383.79 775.801 1378.6 784.051C1373.4 792.3 1368.67 799.786 1364.7 806.355C1360.72 812.924 1357.36 818.424 1355.38 822.548C1353.39 826.826 1352.32 831.256 1352.48 835.686C1352.48 840.117 1353.7 844.7 1355.99 848.824C1356.6 849.894 1357.21 850.963 1357.82 851.88C1358.43 852.949 1359.2 853.866 1360.11 854.782C1361.79 856.616 1363.63 858.449 1365.61 860.129C1367.6 861.81 1370.04 863.185 1372.49 864.407C1373.71 865.018 1374.93 865.629 1376.31 866.087C1377.68 866.545 1379.06 867.004 1380.43 867.462C1383.18 868.226 1386.08 868.684 1388.83 868.99C1391.58 869.143 1394.33 869.142 1396.93 868.837C1399.53 868.531 1401.97 867.92 1404.42 867.156C1406.71 866.393 1409 865.323 1410.99 864.101C1415.11 861.657 1418.32 858.296 1420.76 854.477C1423.21 850.658 1424.58 846.38 1425.04 841.797C1425.8 833.395 1425.19 817.507 1424.89 798.258C1424.89 793.523 1424.73 788.481 1424.73 783.287C1424.73 778.093 1424.73 772.899 1424.89 767.552C1425.19 756.858 1425.65 746.012 1426.41 735.318C1427.18 724.777 1428.4 714.389 1429.62 704.917C1430.85 695.446 1432.37 686.891 1433.75 679.558C1435.12 672.225 1436.5 666.267 1437.41 662.142C1438.33 658.018 1438.94 655.726 1438.94 655.726C1438.94 655.726 1438.33 658.018 1436.96 661.99C1435.89 665.962 1433.9 671.767 1431.46 678.488Z" fill="#46B8E1"/>
<path d="M1375.39 710.417C1377.68 707.361 1379.97 704.306 1382.26 701.251C1384.55 698.195 1387 695.14 1389.29 692.085C1394.02 686.127 1398.76 680.474 1403.19 675.28C1405.48 672.683 1407.62 670.239 1409.61 667.947C1411.75 665.656 1413.58 663.517 1415.41 661.531C1419.08 657.559 1422.13 654.504 1424.27 652.365C1426.41 650.226 1427.63 649.004 1427.63 649.004C1427.63 649.004 1426.41 650.074 1424.12 652.06C1421.83 654.045 1418.62 656.795 1414.65 660.156C1406.7 666.725 1395.4 675.433 1383.03 684.141C1370.8 692.696 1357.21 701.251 1345.44 708.431C1333.68 715.611 1323.6 721.416 1318.1 725.388C1315.35 727.374 1313.21 729.665 1311.38 732.262C1309.7 734.86 1308.47 737.609 1308.02 740.512C1307.71 741.887 1307.71 743.414 1307.71 744.942C1307.71 745.706 1307.86 746.47 1307.86 747.081C1308.02 747.845 1308.17 748.456 1308.32 749.22C1308.78 750.595 1309.24 751.969 1310 753.344C1310.31 753.955 1310.77 754.719 1311.22 755.178C1311.68 755.789 1312.14 756.4 1312.75 756.858C1313.82 757.927 1315.04 758.997 1316.27 759.761C1316.57 759.913 1316.88 760.219 1317.18 760.372C1317.49 760.524 1317.79 760.677 1318.1 760.83C1318.71 761.135 1319.47 761.441 1320.09 761.594C1322.83 762.51 1325.74 762.969 1328.64 762.51C1334.45 761.899 1340.1 758.691 1344.38 753.497C1348.19 748.914 1354.61 739.442 1362.4 728.138C1366.53 722.638 1370.8 716.527 1375.39 710.417Z" fill="#46B8E1"/>
<path d="M1276.09 588.355C1279.45 593.244 1284.8 596.757 1291.37 598.132C1297.18 599.507 1308.63 600.729 1322.23 602.41C1329.1 603.326 1336.28 604.243 1343.92 605.465C1351.41 606.687 1359.2 608.062 1366.68 609.437C1374.17 610.965 1381.35 612.492 1388.07 614.173C1394.79 615.853 1400.75 617.381 1405.95 618.909C1411.14 620.283 1415.26 621.658 1418.17 622.575C1421.07 623.492 1422.75 623.95 1422.75 623.95C1422.75 623.95 1421.22 623.339 1418.47 622.27C1417.1 621.658 1415.42 621.047 1413.43 620.283C1411.45 619.52 1409.31 618.603 1406.86 617.534C1397.24 613.409 1384.41 607.451 1371.12 600.424C1357.82 593.396 1344.08 585.3 1332.31 578.12C1320.55 570.94 1310.77 564.523 1304.81 561.621C1298.86 558.565 1292.29 557.802 1286.79 559.635C1281.13 561.315 1276.4 565.44 1274.41 571.398C1273.95 572.926 1273.65 574.3 1273.5 575.828C1273.34 576.592 1273.34 577.356 1273.34 577.967C1273.34 578.731 1273.5 579.494 1273.5 580.106C1273.5 583.161 1274.57 585.911 1276.09 588.355Z" fill="#46B8E1"/>
<path d="M1345.14 662.6C1354.92 658.476 1364.69 654.809 1373.71 651.601C1382.72 648.393 1390.97 645.796 1398.15 643.657C1405.33 641.518 1411.13 639.991 1415.26 638.921C1419.38 637.852 1421.67 637.394 1421.67 637.394C1421.67 637.394 1419.38 637.852 1415.26 638.463C1413.27 638.769 1410.68 639.227 1407.77 639.685C1404.87 640.143 1401.66 640.602 1398 641.06C1390.82 641.977 1382.26 642.893 1372.79 643.504C1363.32 644.268 1353.23 644.726 1342.69 644.879C1337.5 644.879 1332.15 644.879 1326.65 644.879C1321.31 644.879 1315.96 644.727 1310.61 644.421C1300.07 643.963 1289.68 643.352 1279.91 642.588C1260.5 641.06 1244.31 639.38 1234.99 639.685C1230.26 639.838 1225.98 641.06 1221.85 643.046C1217.88 645.185 1214.52 648.24 1211.77 652.059C1211.01 652.976 1210.4 654.045 1209.79 655.115C1209.18 656.184 1208.72 657.253 1208.26 658.476C1207.34 660.767 1206.58 663.211 1205.97 665.809C1205.51 668.406 1205.2 671.003 1205.2 673.905C1205.2 675.28 1205.2 676.655 1205.36 678.03C1205.51 679.405 1205.81 680.78 1206.12 682.307C1206.73 685.21 1207.49 687.807 1208.56 690.404C1209.63 693.001 1211.01 695.293 1212.54 697.431C1213.91 699.57 1215.74 701.556 1217.58 703.237C1219.41 704.917 1221.4 706.445 1223.38 707.667C1227.51 710.111 1231.94 711.639 1236.37 711.944C1240.8 712.403 1245.38 711.639 1249.66 709.958C1257.45 706.903 1271.35 698.959 1288.31 689.793C1292.59 687.501 1297.02 685.21 1301.45 682.918C1306.03 680.627 1310.77 678.183 1315.5 675.891C1325.43 671.308 1335.36 666.725 1345.14 662.6Z" fill="#46B8E1"/>
<path d="M1288.31 492.265C1294.57 497.917 1307.86 506.625 1323.6 517.777C1331.39 523.276 1339.94 529.387 1348.35 535.803C1352.62 539.011 1356.9 542.372 1361.03 545.733C1365.3 549.094 1369.43 552.608 1373.4 555.969C1381.5 562.843 1389.14 569.718 1396.01 576.44C1402.89 583.009 1409 589.272 1414.19 594.772C1416.79 597.521 1419.08 599.966 1421.06 602.104C1423.05 604.396 1424.73 606.229 1426.11 607.91C1428.86 611.118 1430.38 612.951 1430.38 612.951C1430.38 612.951 1429.01 611.118 1426.56 607.757C1424.12 604.396 1420.61 599.507 1416.48 593.549C1415.41 592.022 1414.34 590.494 1413.27 588.814C1412.2 587.133 1411.13 585.453 1409.91 583.62C1407.62 580.106 1405.33 576.287 1402.89 572.162C1400.44 568.19 1398 563.912 1395.55 559.482C1393.11 555.052 1390.66 550.469 1388.22 545.886C1383.33 536.567 1378.6 526.79 1374.16 517.166C1369.73 507.389 1365.76 497.917 1362.1 488.904C1354.76 471.03 1348.96 455.6 1344.53 447.504C1342.24 443.379 1339.33 440.018 1335.67 437.421C1333.83 436.199 1331.85 435.129 1329.71 434.213C1328.64 433.755 1327.57 433.449 1326.35 433.143C1325.74 432.991 1325.28 432.838 1324.67 432.685C1324.06 432.532 1323.45 432.532 1322.99 432.38C1320.7 432.074 1318.25 431.921 1315.65 432.074C1314.43 432.227 1313.21 432.227 1311.84 432.532C1310.61 432.685 1309.39 432.991 1308.02 433.449C1305.57 434.213 1302.98 435.129 1300.53 436.352C1298.09 437.574 1295.8 439.101 1293.5 440.935C1292.43 441.851 1291.36 442.768 1290.3 443.684C1289.23 444.754 1288.31 445.67 1287.55 446.74C1285.71 448.879 1284.18 451.017 1282.96 453.309C1281.74 455.6 1280.67 458.045 1280.06 460.336C1279.3 462.78 1278.84 465.072 1278.69 467.516C1278.38 472.252 1278.99 476.835 1280.67 480.96C1282.05 485.39 1284.8 489.209 1288.31 492.265Z" fill="#46B8E1"/>
<path d="M1435.58 454.684C1434.35 453.92 1433.13 453.309 1431.76 452.698C1430.38 452.24 1429.01 451.781 1427.48 451.628C1425.95 451.476 1424.42 451.476 1422.9 451.628C1421.37 451.781 1419.84 452.24 1418.47 452.698C1417.24 453.156 1416.02 453.767 1414.95 454.531C1413.42 455.448 1412.2 456.67 1410.98 458.045C1410.68 458.503 1410.37 458.809 1410.06 459.267C1409.61 459.878 1409.3 460.489 1408.84 461.1C1405.94 466.294 1405.18 472.71 1406.86 479.127C1408.38 484.932 1412.36 495.626 1416.79 508.611C1421.37 521.596 1426.26 536.72 1430.23 551.386C1432.22 558.719 1434.05 565.899 1435.58 572.621C1437.1 579.342 1438.33 585.453 1439.4 590.647C1440.46 595.841 1441.08 600.119 1441.69 603.174C1442.15 606.229 1442.45 607.91 1442.45 607.91C1442.45 607.91 1442.3 606.229 1441.99 603.327C1441.69 600.424 1441.38 596.147 1441.08 590.8C1440.77 585.606 1440.46 579.495 1440.31 572.773C1440.16 566.051 1440.16 558.719 1440.31 551.233C1440.31 547.414 1440.46 543.595 1440.62 539.776C1440.77 535.956 1440.92 532.137 1441.23 528.318C1441.69 520.832 1442.3 513.347 1442.76 506.472C1443.98 492.723 1445.2 480.96 1445.2 474.391C1445.2 467.669 1442.91 461.711 1438.94 457.434C1437.87 456.364 1436.8 455.448 1435.58 454.684Z" fill="#46B8E1"/>
</g>
</svg>
