<svg width="375" height="1033" viewBox="0 0 375 1033" fill="none" xmlns="http://www.w3.org/2000/svg">
<g clip-path="url(#clip0_403_952)">
<rect width="375" height="1033" fill="white"/>
<g clip-path="url(#clip1_403_952)">
<path d="M368.884 238.915C366.821 244.501 364.329 251.117 361.236 258.25C358.228 265.382 354.705 273.03 350.838 280.763C348.948 284.63 346.885 288.583 344.823 292.45C343.792 294.426 342.761 296.317 341.644 298.294C340.612 300.184 339.495 302.16 338.464 304.051C334.168 311.613 329.699 319.003 325.489 325.791C321.278 332.58 317.325 338.767 314.06 344.181C310.708 349.508 308.045 354.063 306.412 357.5C304.779 360.937 303.92 364.632 304.006 368.327C304.092 372.022 305.037 375.717 306.842 379.24C307.271 380.1 307.787 380.959 308.388 381.818C308.904 382.677 309.591 383.451 310.193 384.224C311.482 385.771 313.029 387.318 314.747 388.607C316.466 389.981 318.356 391.099 320.333 392.13C321.364 392.645 322.395 393.161 323.512 393.591C324.629 394.02 325.746 394.364 326.863 394.708C329.184 395.309 331.504 395.739 333.738 395.911C335.972 396.083 338.206 395.997 340.355 395.739C342.503 395.481 344.565 394.966 346.542 394.278C348.518 393.591 350.323 392.731 351.955 391.7C355.307 389.638 358.056 386.888 359.947 383.795C361.923 380.701 363.126 377.092 363.47 373.311C364.157 366.437 363.556 353.289 363.298 337.478C363.212 333.525 363.212 329.4 363.212 325.19C363.212 320.979 363.212 316.683 363.384 312.214C363.556 303.449 363.986 294.427 364.673 285.748C365.361 277.069 366.306 268.475 367.337 260.742C368.368 252.922 369.571 245.876 370.774 239.861C371.891 233.845 373.008 228.947 373.782 225.51C374.555 222.073 375.071 220.182 375.071 220.182C375.071 220.182 374.555 221.987 373.524 225.252C372.493 228.604 370.946 233.244 368.884 238.915Z" fill="#E7EBF2"/>
<path d="M331.425 265.124C333.316 262.632 335.206 260.054 337.097 257.562C338.987 255.07 340.964 252.492 342.94 250.086C346.807 245.188 350.76 240.462 354.455 236.251C356.259 234.103 358.064 232.127 359.783 230.236C361.501 228.346 363.134 226.541 364.595 224.994C367.602 221.815 370.094 219.237 371.813 217.433C373.617 215.628 374.563 214.683 374.563 214.683C374.563 214.683 373.532 215.628 371.727 217.175C369.922 218.807 367.173 221.128 363.907 223.791C357.291 229.205 348.096 236.423 337.87 243.555C327.73 250.688 316.645 257.648 306.935 263.577C297.225 269.506 288.89 274.319 284.507 277.498C282.273 279.131 280.382 281.021 279.008 283.17C277.547 285.318 276.687 287.552 276.258 289.958C276.086 291.161 276 292.364 276 293.567C276 294.169 276.086 294.77 276.172 295.372C276.258 295.973 276.43 296.575 276.601 297.09C276.945 298.207 277.375 299.411 277.976 300.442C278.234 300.957 278.578 301.473 278.922 301.988C279.265 302.504 279.695 302.934 280.125 303.449C280.984 304.395 281.929 305.168 282.96 305.855C283.218 306.027 283.476 306.199 283.734 306.371C283.992 306.543 284.249 306.629 284.507 306.801C285.023 307.058 285.624 307.316 286.226 307.488C288.546 308.261 290.866 308.605 293.272 308.261C298.084 307.66 302.724 305.082 306.248 300.872C309.427 297.091 314.583 289.271 321.028 279.99C324.207 275.178 327.73 270.194 331.425 265.124Z" fill="#E7EBF2"/>
<path d="M254.75 164.671C257.5 168.71 261.968 171.631 267.296 172.748C272.108 173.78 281.474 174.811 292.645 176.272C298.231 177.045 304.246 177.818 310.433 178.85C316.62 179.795 322.979 180.912 329.166 182.201C335.353 183.404 341.282 184.779 346.696 186.068C352.195 187.357 357.179 188.732 361.39 189.935C365.601 191.138 369.038 192.169 371.444 192.942C373.85 193.716 375.139 194.145 375.139 194.145C375.139 194.145 373.85 193.629 371.53 192.77C370.413 192.34 369.038 191.739 367.405 191.138C365.772 190.45 364.054 189.763 362.077 188.903C354.172 185.552 343.602 180.654 332.603 174.811C321.69 169.053 310.347 162.437 300.637 156.422C290.927 150.492 282.849 145.25 277.951 142.844C273.053 140.352 267.725 139.751 263.085 141.212C258.445 142.587 254.578 146.024 252.859 150.836C252.43 152.039 252.172 153.242 252.086 154.445C252 155.046 252 155.648 252 156.25C252 156.851 252.086 157.453 252.172 158.054C252.516 160.374 253.375 162.695 254.75 164.671Z" fill="#E7EBF2"/>
<path d="M311.976 225.768C319.967 222.416 328.045 219.323 335.435 216.659C342.825 214.081 349.699 211.847 355.542 210.129C361.386 208.41 366.284 207.121 369.635 206.262C372.986 205.402 374.963 204.973 374.963 204.973C374.963 204.973 373.072 205.316 369.721 205.918C368.002 206.176 365.94 206.519 363.62 206.863C361.214 207.207 358.55 207.637 355.542 207.98C349.613 208.754 342.567 209.527 334.833 210.042C327.099 210.644 318.678 210.988 310.085 211.074C305.788 211.16 301.32 211.16 296.938 211.074C292.555 210.988 288.087 210.902 283.704 210.73C275.025 210.386 266.432 209.785 258.441 209.183C242.543 207.98 229.138 206.519 221.49 206.777C217.623 206.863 214.014 207.894 210.749 209.613C207.484 211.331 204.648 213.91 202.414 217.089C201.812 217.862 201.297 218.722 200.781 219.581C200.265 220.44 199.836 221.385 199.492 222.33C198.719 224.221 198.031 226.197 197.602 228.346C197.172 230.494 197 232.642 197 234.962C197 236.08 197.086 237.283 197.172 238.4C197.258 239.517 197.516 240.72 197.773 241.923C198.289 244.243 198.976 246.477 199.836 248.625C200.781 250.688 201.812 252.664 203.015 254.469C204.218 256.273 205.593 257.906 207.14 259.281C208.601 260.742 210.233 261.945 211.866 262.976C215.217 265.038 218.912 266.241 222.521 266.499C226.217 266.843 229.912 266.241 233.521 264.866C239.965 262.374 251.394 255.758 265.315 248.282C268.838 246.391 272.447 244.501 276.228 242.524C280.009 240.634 283.876 238.658 287.829 236.767C295.735 232.9 303.898 229.205 311.976 225.768Z" fill="#E7EBF2"/>
<path d="M258.227 85.6145C263.383 90.2548 274.297 97.4729 287.272 106.582C293.717 111.136 300.677 116.12 307.638 121.447C311.075 124.111 314.598 126.861 318.121 129.611C321.559 132.361 324.996 135.196 328.347 138.118C335.05 143.789 341.323 149.461 346.994 154.96C352.666 160.374 357.735 165.53 361.86 169.998C363.922 172.233 365.813 174.295 367.446 176.1C369.078 177.904 370.539 179.537 371.656 180.826C373.976 183.49 375.179 184.95 375.179 184.95C375.179 184.95 374.062 183.403 372 180.654C370.024 177.904 367.102 173.865 363.751 168.881C362.891 167.678 362.032 166.303 361.173 164.929C360.313 163.554 359.368 162.179 358.423 160.718C356.532 157.796 354.556 154.617 352.58 151.352C350.603 148 348.541 144.563 346.478 140.868C344.416 137.259 342.354 133.478 340.377 129.611C336.339 121.963 332.472 113.971 328.863 105.98C325.254 97.9883 321.902 90.1686 318.895 82.7785C312.879 68.0844 308.067 55.3669 304.458 48.6643C302.654 45.3129 300.162 42.4771 297.068 40.4148C295.521 39.3836 293.889 38.4383 292.17 37.7509C291.311 37.4071 290.366 37.0634 289.42 36.8916C288.991 36.8056 288.475 36.6339 288.046 36.5479C287.616 36.462 287.1 36.3758 286.585 36.2899C284.694 36.0321 282.632 35.9463 280.57 36.0323C279.538 36.1182 278.507 36.204 277.476 36.3759C276.445 36.5478 275.414 36.8058 274.382 37.0636C272.32 37.6651 270.258 38.4383 268.195 39.4695C266.133 40.5007 264.243 41.7895 262.352 43.2504C261.407 44.0237 260.548 44.7973 259.688 45.5707C258.829 46.43 258.056 47.2033 257.368 48.1486C255.907 49.8672 254.618 51.6716 253.587 53.5621C252.556 55.4525 251.783 57.4292 251.181 59.4056C250.58 61.382 250.15 63.2723 250.064 65.2487C249.806 69.2016 250.322 72.9824 251.697 76.3337C253.158 79.9428 255.306 83.0366 258.227 85.6145Z" fill="#E7EBF2"/>
<path d="M367.356 54.5936C366.325 53.9061 365.293 53.3906 364.176 52.961C363.059 52.5313 361.856 52.2735 360.653 52.1017C359.45 51.9298 358.161 52.0157 356.958 52.1017C355.669 52.2735 354.466 52.5313 353.349 52.961C352.318 53.3906 351.287 53.906 350.427 54.5076C349.224 55.2809 348.107 56.312 347.162 57.4291C346.904 57.7728 346.56 58.1167 346.303 58.4605C345.959 58.976 345.615 59.4915 345.357 60.0071C342.951 64.2177 342.35 69.5456 343.725 74.8733C344.928 79.6855 348.193 88.5362 351.888 99.1916C355.583 109.847 359.708 122.307 362.973 134.423C364.606 140.438 366.153 146.367 367.356 151.867C368.645 157.367 369.676 162.351 370.449 166.733C371.309 171.03 371.91 174.553 372.254 177.045C372.683 179.537 372.855 180.912 372.855 180.912C372.855 180.912 372.769 179.537 372.512 177.131C372.34 174.725 371.996 171.201 371.738 166.905C371.48 162.608 371.223 157.539 371.137 152.039C371.051 146.539 370.965 140.438 371.137 134.251C371.223 131.158 371.309 127.978 371.395 124.885C371.48 121.705 371.652 118.612 371.824 115.518C372.168 109.331 372.683 103.23 373.113 97.559C374.058 86.2161 375.089 76.5917 375.089 71.1781C375.089 65.6785 373.285 60.6947 369.934 57.1715C369.246 56.0544 368.301 55.1951 367.356 54.5936Z" fill="#E7EBF2"/>
</g>
</g>
<defs>
<clipPath id="clip0_403_952">
<rect width="375" height="1033" fill="white"/>
</clipPath>
<clipPath id="clip1_403_952">
<rect width="197.211" height="360" fill="white" transform="translate(178 36)"/>
</clipPath>
</defs>
</svg>
