<svg width="1440" height="837" viewBox="0 0 1440 837" fill="none" xmlns="http://www.w3.org/2000/svg">
<rect width="1440" height="837" fill="white"/>
<g clip-path="url(#clip0_403_766)">
<path d="M1419.6 453.799C1416.4 462.466 1412.53 472.733 1407.73 483.799C1403.06 494.866 1397.6 506.732 1391.6 518.732C1388.66 524.732 1385.46 530.866 1382.26 536.866C1380.66 539.933 1379.06 542.866 1377.33 545.933C1375.73 548.866 1374 551.933 1372.4 554.866C1365.73 566.599 1358.8 578.066 1352.26 588.6C1345.73 599.133 1339.6 608.733 1334.53 617.133C1329.33 625.399 1325.2 632.466 1322.66 637.799C1320.13 643.133 1318.8 648.866 1318.93 654.6C1319.06 660.333 1320.53 666.066 1323.33 671.533C1324 672.866 1324.8 674.199 1325.73 675.533C1326.53 676.866 1327.6 678.066 1328.53 679.266C1330.53 681.666 1332.93 684.066 1335.6 686.066C1338.26 688.199 1341.2 689.933 1344.26 691.533C1345.86 692.333 1347.46 693.133 1349.2 693.799C1350.93 694.466 1352.66 694.999 1354.4 695.533C1358 696.466 1361.6 697.132 1365.06 697.399C1368.53 697.666 1372 697.533 1375.33 697.133C1378.66 696.733 1381.86 695.933 1384.93 694.866C1388 693.799 1390.8 692.466 1393.33 690.866C1398.53 687.666 1402.8 683.4 1405.73 678.6C1408.8 673.8 1410.66 668.199 1411.2 662.333C1412.26 651.666 1411.33 631.266 1410.93 606.732C1410.8 600.599 1410.8 594.199 1410.8 587.666C1410.8 581.133 1410.8 574.466 1411.06 567.533C1411.33 553.933 1412 539.933 1413.06 526.466C1414.13 512.999 1415.6 499.666 1417.2 487.666C1418.8 475.533 1420.66 464.6 1422.53 455.266C1424.26 445.933 1426 438.333 1427.2 432.999C1428.4 427.666 1429.2 424.732 1429.2 424.732C1429.2 424.732 1428.4 427.533 1426.8 432.6C1425.2 437.8 1422.8 444.999 1419.6 453.799Z" fill="#E7EBF2"/>
<path d="M1347.87 494.466C1350.8 490.599 1353.73 486.599 1356.67 482.732C1359.6 478.866 1362.67 474.866 1365.73 471.133C1371.73 463.533 1377.87 456.199 1383.6 449.666C1386.4 446.333 1389.2 443.266 1391.87 440.333C1394.53 437.399 1397.07 434.599 1399.33 432.199C1404 427.266 1407.87 423.266 1410.53 420.466C1413.33 417.666 1414.8 416.199 1414.8 416.199C1414.8 416.199 1413.2 417.666 1410.4 420.066C1407.6 422.599 1403.33 426.199 1398.27 430.333C1388 438.733 1373.73 449.933 1357.87 460.999C1342.13 472.066 1324.93 482.866 1309.87 492.066C1294.8 501.266 1281.87 508.733 1275.07 513.666C1271.6 516.199 1268.67 519.133 1266.53 522.466C1264.27 525.799 1262.93 529.266 1262.27 532.999C1262 534.866 1261.87 536.733 1261.87 538.6C1261.87 539.533 1262 540.466 1262.13 541.399C1262.27 542.332 1262.53 543.266 1262.8 544.066C1263.33 545.799 1264 547.666 1264.93 549.266C1265.33 550.066 1265.87 550.866 1266.4 551.666C1266.93 552.466 1267.6 553.133 1268.27 553.933C1269.6 555.4 1271.07 556.599 1272.67 557.666C1273.07 557.933 1273.47 558.199 1273.87 558.466C1274.27 558.733 1274.67 558.866 1275.07 559.133C1275.87 559.533 1276.8 559.933 1277.73 560.199C1281.33 561.399 1284.93 561.932 1288.67 561.399C1296.13 560.466 1303.33 556.466 1308.8 549.933C1313.73 544.066 1321.73 531.933 1331.73 517.533C1336.67 510.066 1342.13 502.333 1347.87 494.466Z" fill="#E7EBF2"/>
<path d="M1221.2 338.6C1225.46 344.867 1232.4 349.4 1240.66 351.133C1248.13 352.733 1262.66 354.333 1280 356.6C1288.66 357.8 1298 359 1307.6 360.6C1317.2 362.067 1327.06 363.8 1336.66 365.8C1346.26 367.666 1355.46 369.8 1363.86 371.8C1372.4 373.8 1380.13 375.933 1386.66 377.8C1393.2 379.666 1398.53 381.266 1402.26 382.466C1406 383.666 1408 384.333 1408 384.333C1408 384.333 1406 383.533 1402.4 382.199C1400.66 381.533 1398.53 380.6 1396 379.666C1393.46 378.6 1390.8 377.533 1387.73 376.199C1375.46 370.999 1359.06 363.4 1342 354.333C1325.06 345.4 1307.46 335.133 1292.4 325.8C1277.33 316.6 1264.8 308.466 1257.2 304.733C1249.6 300.866 1241.33 299.933 1234.13 302.199C1226.93 304.333 1220.93 309.666 1218.26 317.133C1217.6 319 1217.2 320.866 1217.06 322.733C1216.93 323.666 1216.93 324.599 1216.93 325.533C1216.93 326.466 1217.06 327.4 1217.2 328.333C1217.73 331.933 1219.06 335.533 1221.2 338.6Z" fill="#E7EBF2"/>
<path d="M1309.2 433.399C1321.6 428.199 1334.13 423.4 1345.6 419.266C1357.06 415.266 1367.73 411.799 1376.8 409.133C1385.86 406.466 1393.46 404.466 1398.66 403.133C1403.86 401.799 1406.93 401.133 1406.93 401.133C1406.93 401.133 1404 401.666 1398.8 402.6C1396.13 403 1392.93 403.532 1389.33 404.066C1385.6 404.599 1381.46 405.266 1376.8 405.799C1367.6 406.999 1356.66 408.199 1344.66 408.999C1332.66 409.933 1319.6 410.466 1306.26 410.6C1299.6 410.733 1292.66 410.733 1285.86 410.6C1279.06 410.466 1272.13 410.332 1265.33 410.066C1251.86 409.532 1238.53 408.599 1226.13 407.666C1201.46 405.799 1180.66 403.533 1168.8 403.933C1162.8 404.066 1157.2 405.666 1152.13 408.333C1147.06 410.999 1142.66 415 1139.2 419.933C1138.26 421.133 1137.46 422.466 1136.66 423.799C1135.86 425.133 1135.2 426.599 1134.66 428.066C1133.46 430.999 1132.4 434.066 1131.73 437.399C1131.06 440.732 1130.8 444.066 1130.8 447.666C1130.8 449.399 1130.93 451.266 1131.06 452.999C1131.2 454.733 1131.6 456.599 1132 458.466C1132.8 462.066 1133.86 465.533 1135.2 468.866C1136.66 472.066 1138.26 475.133 1140.13 477.933C1142 480.733 1144.13 483.266 1146.53 485.399C1148.8 487.666 1151.33 489.533 1153.86 491.133C1159.06 494.333 1164.8 496.2 1170.4 496.6C1176.13 497.133 1181.86 496.199 1187.46 494.066C1197.46 490.199 1215.2 479.933 1236.8 468.333C1242.26 465.399 1247.86 462.466 1253.73 459.399C1259.6 456.466 1265.6 453.399 1271.73 450.466C1284 444.466 1296.66 438.732 1309.2 433.399Z" fill="#E7EBF2"/>
<path d="M1236.66 215.933C1244.66 223.133 1261.6 234.333 1281.73 248.466C1291.73 255.533 1302.53 263.266 1313.33 271.532C1318.66 275.666 1324.13 279.932 1329.6 284.199C1334.93 288.466 1340.26 292.866 1345.46 297.399C1355.86 306.199 1365.6 314.999 1374.4 323.532C1383.2 331.932 1391.06 339.932 1397.46 346.866C1400.66 350.332 1403.6 353.533 1406.13 356.333C1408.66 359.133 1410.93 361.666 1412.66 363.666C1416.26 367.799 1418.13 370.066 1418.13 370.066C1418.13 370.066 1416.4 367.666 1413.2 363.399C1410.13 359.132 1405.6 352.866 1400.4 345.133C1399.06 343.266 1397.73 341.133 1396.4 338.999C1395.06 336.866 1393.6 334.733 1392.13 332.466C1389.2 327.933 1386.13 323 1383.06 317.933C1380 312.733 1376.8 307.399 1373.6 301.666C1370.4 296.066 1367.2 290.199 1364.13 284.199C1357.86 272.332 1351.86 259.932 1346.26 247.532C1340.66 235.132 1335.46 222.999 1330.8 211.532C1321.46 188.732 1314 169 1308.4 158.6C1305.6 153.4 1301.73 148.999 1296.93 145.799C1294.53 144.199 1292 142.733 1289.33 141.666C1288 141.133 1286.53 140.599 1285.06 140.333C1284.4 140.199 1283.6 139.933 1282.93 139.799C1282.26 139.666 1281.46 139.532 1280.66 139.399C1277.73 138.999 1274.53 138.866 1271.33 138.999C1269.73 139.133 1268.13 139.266 1266.53 139.532C1264.93 139.799 1263.33 140.2 1261.73 140.6C1258.53 141.533 1255.33 142.733 1252.13 144.333C1248.93 145.933 1246 147.932 1243.06 150.199C1241.6 151.399 1240.26 152.599 1238.93 153.799C1237.6 155.133 1236.4 156.333 1235.33 157.799C1233.06 160.466 1231.06 163.266 1229.46 166.199C1227.86 169.132 1226.66 172.2 1225.73 175.266C1224.8 178.333 1224.13 181.266 1224 184.333C1223.6 190.466 1224.4 196.332 1226.53 201.532C1228.8 207.132 1232.13 211.933 1236.66 215.933Z" fill="#E7EBF2"/>
<path d="M1424.8 167.8C1423.2 166.733 1421.6 165.933 1419.87 165.267C1418.13 164.6 1416.27 164.2 1414.4 163.933C1412.53 163.667 1410.53 163.8 1408.67 163.933C1406.67 164.2 1404.8 164.6 1403.07 165.267C1401.47 165.933 1399.87 166.733 1398.53 167.666C1396.67 168.866 1394.93 170.466 1393.47 172.2C1393.07 172.733 1392.53 173.266 1392.13 173.8C1391.6 174.6 1391.07 175.4 1390.67 176.2C1386.93 182.733 1386 191 1388.13 199.267C1390 206.733 1395.07 220.466 1400.8 237C1406.53 253.533 1412.93 272.866 1418 291.666C1420.53 301 1422.93 310.199 1424.8 318.733C1426.8 327.266 1428.4 335 1429.6 341.8C1430.93 348.466 1431.87 353.933 1432.4 357.8C1433.07 361.666 1433.33 363.8 1433.33 363.8C1433.33 363.8 1433.2 361.667 1432.8 357.933C1432.53 354.2 1432 348.733 1431.6 342.066C1431.2 335.399 1430.8 327.533 1430.67 319C1430.53 310.466 1430.4 300.999 1430.67 291.399C1430.8 286.599 1430.93 281.666 1431.07 276.866C1431.2 271.933 1431.47 267.133 1431.73 262.333C1432.27 252.733 1433.07 243.266 1433.73 234.466C1435.2 216.866 1436.8 201.933 1436.8 193.533C1436.8 185 1434 177.266 1428.8 171.8C1427.73 170.066 1426.27 168.733 1424.8 167.8Z" fill="#E7EBF2"/>
</g>
<defs>
<clipPath id="clip0_403_766">
<rect width="306" height="558.589" fill="white" transform="translate(1130.8 138.949)"/>
</clipPath>
</defs>
</svg>
