<svg width="1338" height="340" viewBox="0 0 1338 340" fill="none" xmlns="http://www.w3.org/2000/svg">
<path fill-rule="evenodd" clip-rule="evenodd" d="M0.726562 330.61H40.4781C78.9874 330.61 157.248 330.61 235.509 275.596C313.77 220.583 392.031 110.557 470.292 118.861C548.553 126.126 626.814 252.761 705.074 268.33C783.335 283.9 861.596 189.444 939.857 189.444C1018.12 189.444 1096.38 283.9 1174.64 260.027C1252.9 236.153 1331.16 94.9869 1409.42 103.291C1487.68 110.557 1565.94 268.33 1644.2 275.596C1722.47 283.9 1800.73 142.734 1840.48 72.1513L1878.99 0.530273V425.066H1840.48C1800.73 425.066 1722.47 425.066 1644.2 425.066C1565.94 425.066 1487.68 425.066 1409.42 425.066C1331.16 425.066 1252.9 425.066 1174.64 425.066C1096.38 425.066 1018.12 425.066 939.857 425.066C861.596 425.066 783.335 425.066 705.074 425.066C626.814 425.066 548.553 425.066 470.292 425.066C392.031 425.066 313.77 425.066 235.509 425.066C157.248 425.066 78.9874 425.066 40.4781 425.066H0.726562L0.726562 330.61Z" fill="#4DB8E0"/>
</svg>
