<svg width="375" height="2541" viewBox="0 0 375 2541" fill="none" xmlns="http://www.w3.org/2000/svg">
<g clip-path="url(#clip0_399_446)">
<rect width="375" height="2541" fill="#00314C"/>
<g clip-path="url(#clip1_399_446)">
<g clip-path="url(#clip2_399_446)">
<path d="M5.99584 151.495C7.13434 154.607 8.57644 158.25 10.2462 162.273C11.916 166.22 13.8894 170.47 16.0146 174.797C17.0772 176.922 18.2157 179.123 19.3542 181.324C19.9614 182.387 20.4927 183.449 21.0999 184.588C21.7071 185.65 22.3143 186.713 22.8456 187.775C25.2744 192.026 27.7032 196.049 30.0561 199.844C32.409 203.563 34.5342 207.054 36.4317 210.014C38.2533 212.974 39.7713 215.479 40.6821 217.452C41.5929 219.35 42.0483 221.399 42.0483 223.448C42.0483 225.498 41.4411 227.547 40.4544 229.52C40.2267 229.976 39.9231 230.507 39.6195 230.963C39.3159 231.418 38.9364 231.873 38.6328 232.329C37.8738 233.164 37.0389 233.999 36.1281 234.758C35.2173 235.517 34.1547 236.124 33.0162 236.731C32.4849 237.034 31.8777 237.262 31.2705 237.49C30.6633 237.718 30.0561 237.945 29.373 238.097C28.0827 238.477 26.7924 238.704 25.578 238.78C24.2877 238.856 23.0733 238.856 21.8589 238.704C20.6445 238.552 19.506 238.249 18.4434 237.869C17.3808 237.49 16.3182 237.034 15.4074 236.427C13.5858 235.289 12.0678 233.771 10.9293 232.025C9.86674 230.279 9.18364 228.306 8.95594 226.181C8.57644 222.386 8.88004 215.024 9.03184 206.295C9.03184 204.094 9.10774 201.817 9.10774 199.464C9.10774 197.111 9.10774 194.758 9.03184 192.254C8.95594 187.396 8.65234 182.387 8.34874 177.529C7.96924 172.671 7.43794 167.966 6.90664 163.639C6.29944 159.313 5.61634 155.366 5.00915 152.027C4.40195 148.687 3.79475 145.955 3.33935 144.057C2.88395 142.16 2.65625 141.097 2.65625 141.097C2.65625 141.097 2.95985 142.084 3.56705 143.905C4.02245 145.803 4.85735 148.384 5.99584 151.495Z" fill="#389DC3"/>
<path d="M31.7265 166.068C30.6639 164.702 29.6772 163.26 28.5388 161.893C27.4762 160.451 26.4136 159.085 25.2751 157.719C23.074 154.987 20.9488 152.406 18.8995 150.053C17.9128 148.839 16.9261 147.776 15.9394 146.713C15.0286 145.651 14.1178 144.664 13.2829 143.829C11.6131 142.084 10.2469 140.641 9.26018 139.655C8.27349 138.668 7.74219 138.137 7.74219 138.137C7.74219 138.137 8.34939 138.668 9.33609 139.503C10.3228 140.414 11.8408 141.704 13.6624 143.222C17.3056 146.258 22.4668 150.205 28.1593 154.152C33.7758 158.098 39.9237 161.969 45.3885 165.233C50.7774 168.497 55.4073 171.153 57.8361 172.975C59.0505 173.886 60.1131 174.948 60.8721 176.087C61.6311 177.301 62.1624 178.515 62.3901 179.882C62.5419 180.565 62.5419 181.172 62.5419 181.855C62.5419 182.159 62.466 182.538 62.466 182.842C62.3901 183.145 62.3142 183.525 62.2383 183.828C62.0865 184.436 61.7829 185.119 61.4793 185.726C61.3275 186.03 61.1757 186.333 60.948 186.561C60.7203 186.864 60.4926 187.092 60.2649 187.396C59.8095 187.927 59.2782 188.382 58.671 188.762C58.5192 188.838 58.3674 188.914 58.2156 189.066C58.0638 189.142 57.912 189.217 57.7602 189.293C57.4566 189.445 57.153 189.597 56.8494 189.673C55.5591 190.128 54.2688 190.28 52.9026 190.128C50.2461 189.825 47.6655 188.383 45.6921 186.03C43.9464 183.904 41.0622 179.578 37.4949 174.417C35.7492 171.685 33.7758 168.876 31.7265 166.068Z" fill="#389DC3"/>
<path d="M77.0397 110.282C75.5217 112.559 73.017 114.153 70.0569 114.76C67.4004 115.367 62.1633 115.898 55.9395 116.733C52.8276 117.113 49.488 117.568 46.0725 118.175C42.657 118.707 39.0897 119.314 35.6742 119.997C32.2587 120.68 28.9191 121.439 25.959 122.122C22.9231 122.881 20.1148 123.64 17.7619 124.247C15.409 124.93 13.5115 125.462 12.2212 125.917C10.9309 126.372 10.1719 126.6 10.1719 126.6C10.1719 126.6 10.855 126.297 12.1453 125.841C12.7525 125.613 13.5115 125.31 14.4223 124.93C15.3331 124.551 16.3198 124.171 17.3824 123.716C21.7846 121.818 27.6288 119.086 33.7767 115.898C39.8487 112.71 46.1484 108.991 51.5373 105.728C56.9262 102.388 61.4043 99.5039 64.1367 98.1377C66.8691 96.7715 69.8292 96.392 72.4098 97.2269C74.9904 97.9859 77.1156 99.8834 78.1023 102.616C78.33 103.299 78.4818 103.982 78.5577 104.665C78.5577 104.969 78.6336 105.348 78.6336 105.652C78.6336 105.955 78.5577 106.335 78.5577 106.638C78.2541 107.929 77.7987 109.143 77.0397 110.282Z" fill="#389DC3"/>
<path d="M45.5367 144.285C41.0586 142.387 36.5805 140.717 32.4819 139.275C28.3833 137.833 24.5884 136.619 21.3247 135.632C18.061 134.645 15.3286 133.962 13.507 133.507C11.6095 133.051 10.5469 132.748 10.5469 132.748C10.5469 132.748 11.6095 132.976 13.4311 133.279C14.3419 133.431 15.4804 133.583 16.8466 133.811C18.1369 134.038 19.6549 134.19 21.3247 134.418C24.5884 134.873 28.5351 135.253 32.8614 135.556C37.1877 135.86 41.8176 136.087 46.5993 136.163C49.0281 136.163 51.4569 136.163 53.8857 136.163C56.3145 136.163 58.8192 136.088 61.248 135.936C66.1056 135.708 70.8114 135.404 75.2895 135.101C84.1698 134.418 91.532 133.583 95.7824 133.735C97.9076 133.81 99.9569 134.342 101.779 135.329C103.6 136.315 105.118 137.681 106.408 139.503C106.712 139.958 107.016 140.414 107.319 140.869C107.547 141.325 107.851 141.856 108.078 142.387C108.534 143.45 108.837 144.588 109.141 145.727C109.369 146.865 109.444 148.156 109.444 149.37C109.444 149.977 109.444 150.66 109.368 151.268C109.293 151.875 109.217 152.558 109.065 153.241C108.761 154.531 108.382 155.822 107.926 156.96C107.395 158.099 106.788 159.237 106.105 160.224C105.422 161.21 104.663 162.121 103.828 162.88C102.993 163.639 102.082 164.322 101.171 164.93C99.2738 166.068 97.3004 166.751 95.2511 166.903C93.2018 167.055 91.1525 166.751 89.1791 165.992C85.6118 164.626 79.2363 160.907 71.4945 156.808C69.597 155.746 67.5477 154.683 65.4225 153.62C63.3732 152.558 61.1721 151.495 58.971 150.433C54.5688 148.231 50.0148 146.106 45.5367 144.285Z" fill="#389DC3"/>
<path d="M71.4959 66.4115C68.6118 68.9921 62.5398 73.0149 55.4052 78.0243C51.8379 80.5289 47.967 83.3372 44.0961 86.2973C42.1986 87.7394 40.2252 89.3333 38.3277 90.8512C36.4302 92.3692 34.5327 93.9632 32.6352 95.5571C28.9161 98.7449 25.4247 101.857 22.3128 104.893C19.125 107.929 16.3167 110.813 14.0397 113.242C12.9013 114.456 11.8387 115.595 10.9279 116.657C10.0171 117.644 9.25806 118.555 8.57496 119.314C7.28466 120.756 6.60156 121.591 6.60156 121.591C6.60156 121.591 7.20876 120.756 8.34726 119.238C9.48576 117.72 11.0797 115.519 12.9013 112.71C13.3566 112.027 13.8879 111.268 14.3433 110.509C14.8746 109.75 15.33 108.991 15.8613 108.156C16.9239 106.563 17.9865 104.817 19.125 102.919C20.2635 101.098 21.3261 99.1244 22.4646 97.151C23.6031 95.1017 24.7416 93.0524 25.8042 90.9272C28.0053 86.6768 30.2064 82.1987 32.1798 77.7965C34.2291 73.3943 36.0507 68.9921 37.7205 64.8935C41.0601 56.6964 43.7166 49.6376 45.7659 45.9945C46.7526 44.097 48.1947 42.579 49.8645 41.3646C50.6994 40.7574 51.6102 40.302 52.5969 39.9225C53.0523 39.6948 53.5836 39.543 54.1149 39.3912C54.3426 39.3153 54.6462 39.2394 54.8739 39.1635C55.1016 39.0876 55.4052 39.0876 55.6329 39.0117C56.6955 38.8599 57.834 38.7839 58.9725 38.8598C59.5797 38.8598 60.111 38.9358 60.7182 39.0876C61.3254 39.1635 61.8567 39.3153 62.4639 39.4671C63.6024 39.7707 64.7409 40.2261 65.8794 40.8333C67.0179 41.4405 68.0805 42.1236 69.1431 42.9585C69.6744 43.338 70.1297 43.7934 70.5851 44.2488C71.0406 44.7042 71.4959 45.1595 71.8754 45.6908C72.7103 46.6775 73.3934 47.6642 74.0006 48.7268C74.5319 49.7894 74.9873 50.8521 75.3668 51.9906C75.6704 53.0532 75.8981 54.1917 75.974 55.2543C76.1258 57.4554 75.8222 59.5047 75.0632 61.4022C74.3042 63.2238 73.0898 64.9694 71.4959 66.4115Z" fill="#389DC3"/>
<path d="M4.17449 49.1064C4.70579 48.7269 5.31299 48.4233 5.92019 48.1956C6.52739 47.9679 7.21049 47.8161 7.89359 47.6643C8.57668 47.5884 9.25978 47.5884 9.94288 47.6643C10.626 47.7402 11.3091 47.892 11.9922 48.1197C12.5994 48.3474 13.1307 48.651 13.662 48.9546C14.3451 49.41 14.9523 49.9413 15.4836 50.5485C15.6354 50.7003 15.7872 50.928 15.939 51.0798C16.1667 51.3834 16.3185 51.6111 16.4703 51.9147C17.8365 54.2676 18.1401 57.2277 17.3811 60.1878C16.698 62.8443 14.8764 67.7778 12.8271 73.6979C10.7778 79.6181 8.50078 86.5251 6.67919 93.2801C5.76839 96.6197 4.93349 99.9593 4.25039 102.995C3.56729 106.031 2.96009 108.84 2.5047 111.268C2.0493 113.697 1.7457 115.671 1.518 117.037C1.2903 118.403 1.2144 119.162 1.2144 119.162C1.2144 119.162 1.2903 118.403 1.4421 117.037C1.5939 115.671 1.7457 113.697 1.8975 111.344C2.0493 108.915 2.2011 106.183 2.2011 103.071C2.277 99.9593 2.277 96.6198 2.2011 93.2043C2.2011 91.4586 2.1252 89.7128 2.0493 87.9672C1.9734 86.2215 1.8975 84.4757 1.8216 82.73C1.5939 79.2387 1.3662 75.8991 1.0626 72.7113C0.531299 66.4116 0 61.0986 0 58.0626C0 55.0266 0.986698 52.2183 2.88419 50.3208C3.11189 49.9413 3.64319 49.4859 4.17449 49.1064Z" fill="#389DC3"/>
</g>
<g clip-path="url(#clip3_399_446)">
<path d="M369.849 2453.67C368.702 2456.79 367.301 2460.49 365.644 2464.44C363.987 2468.45 362.012 2472.66 359.846 2476.99C358.763 2479.16 357.68 2481.32 356.533 2483.49C355.959 2484.57 355.386 2485.66 354.749 2486.74C354.175 2487.82 353.538 2488.84 352.965 2489.93C350.544 2494.13 348.122 2498.21 345.765 2501.97C343.408 2505.73 341.241 2509.17 339.393 2512.16C337.546 2515.16 336.08 2517.64 335.125 2519.55C334.233 2521.47 333.723 2523.5 333.787 2525.61C333.85 2527.65 334.36 2529.68 335.379 2531.66C335.634 2532.17 335.889 2532.62 336.208 2533.06C336.526 2533.51 336.845 2533.95 337.227 2534.4C337.992 2535.29 338.82 2536.12 339.776 2536.88C340.731 2537.65 341.751 2538.29 342.898 2538.86C343.471 2539.18 344.045 2539.43 344.618 2539.62C345.191 2539.88 345.829 2540.07 346.466 2540.26C347.74 2540.58 349.014 2540.83 350.289 2540.96C351.563 2541.03 352.774 2541.03 353.984 2540.83C355.195 2540.71 356.342 2540.39 357.425 2540.01C358.508 2539.62 359.527 2539.18 360.419 2538.6C362.267 2537.46 363.796 2535.93 364.879 2534.21C365.963 2532.49 366.663 2530.51 366.855 2528.35C367.237 2524.52 366.918 2517.2 366.791 2508.4C366.727 2506.24 366.727 2503.94 366.727 2501.59C366.727 2499.23 366.727 2496.87 366.791 2494.39C366.918 2489.48 367.109 2484.51 367.492 2479.67C367.874 2474.83 368.384 2470.11 368.957 2465.78C369.531 2461.45 370.231 2457.5 370.869 2454.18C371.506 2450.81 372.079 2448.13 372.525 2446.22C372.971 2444.31 373.226 2443.29 373.226 2443.29C373.226 2443.29 372.907 2444.31 372.334 2446.09C371.824 2448 370.932 2450.55 369.849 2453.67Z" fill="#389DC3"/>
<path d="M344.106 2468.33C345.126 2466.93 346.209 2465.52 347.228 2464.12C348.312 2462.72 349.395 2461.32 350.478 2459.98C352.644 2457.24 354.81 2454.63 356.849 2452.27C357.869 2451.06 358.888 2449.98 359.78 2448.89C360.736 2447.81 361.628 2446.86 362.456 2445.96C364.113 2444.18 365.514 2442.78 366.47 2441.76C367.426 2440.8 367.999 2440.23 367.999 2440.23C367.999 2440.23 367.426 2440.74 366.406 2441.63C365.387 2442.52 363.858 2443.8 362.074 2445.33C358.378 2448.38 353.281 2452.33 347.611 2456.29C342.004 2460.24 335.823 2464.12 330.408 2467.44C324.992 2470.68 320.404 2473.36 317.92 2475.21C316.709 2476.1 315.626 2477.18 314.861 2478.33C314.097 2479.54 313.523 2480.82 313.332 2482.09C313.205 2482.73 313.141 2483.43 313.205 2484.06C313.205 2484.38 313.268 2484.77 313.268 2485.08C313.332 2485.4 313.396 2485.72 313.46 2486.04C313.651 2486.68 313.906 2487.31 314.224 2487.89C314.415 2488.21 314.543 2488.46 314.798 2488.78C314.989 2489.03 315.244 2489.35 315.498 2489.61C316.008 2490.12 316.518 2490.56 317.091 2490.95C317.219 2491.01 317.346 2491.14 317.537 2491.2C317.665 2491.26 317.856 2491.33 317.983 2491.46C318.302 2491.58 318.62 2491.71 318.939 2491.84C320.213 2492.28 321.551 2492.41 322.889 2492.28C325.565 2491.97 328.114 2490.5 330.089 2488.14C331.873 2486.04 334.74 2481.71 338.308 2476.55C340.092 2473.87 342.067 2471.13 344.106 2468.33Z" fill="#389DC3"/>
<path d="M298.74 2412.45C300.269 2414.68 302.754 2416.27 305.749 2416.97C308.425 2417.55 313.649 2418.12 319.83 2418.95C322.952 2419.33 326.265 2419.84 329.769 2420.35C333.21 2420.92 336.714 2421.5 340.155 2422.2C343.595 2422.9 346.908 2423.6 349.903 2424.36C352.961 2425.13 355.701 2425.83 358.059 2426.53C360.416 2427.17 362.327 2427.8 363.665 2428.19C365.003 2428.63 365.704 2428.82 365.704 2428.82C365.704 2428.82 365.003 2428.57 363.729 2428.06C363.092 2427.8 362.327 2427.49 361.435 2427.1C360.543 2426.72 359.524 2426.34 358.441 2425.83C354.045 2423.98 348.183 2421.24 342.066 2417.99C336.013 2414.81 329.705 2411.11 324.29 2407.8C318.874 2404.48 314.414 2401.62 311.674 2400.22C308.934 2398.81 305.94 2398.5 303.391 2399.32C300.779 2400.09 298.676 2402 297.721 2404.68C297.466 2405.38 297.338 2406.01 297.275 2406.71C297.211 2407.03 297.211 2407.42 297.211 2407.73C297.211 2408.05 297.275 2408.44 297.275 2408.75C297.53 2410.09 297.976 2411.3 298.74 2412.45Z" fill="#389DC3"/>
<path d="M330.278 2446.41C334.739 2444.5 339.198 2442.84 343.34 2441.38C347.481 2439.91 351.241 2438.7 354.554 2437.74C357.803 2436.79 360.543 2436.09 362.391 2435.58C364.302 2435.13 365.322 2434.88 365.322 2434.88C365.322 2434.88 364.302 2435.07 362.391 2435.39C361.435 2435.51 360.288 2435.71 359.014 2435.9C357.676 2436.09 356.21 2436.28 354.554 2436.53C351.241 2436.98 347.354 2437.36 343.021 2437.68C338.689 2438 334.038 2438.19 329.259 2438.25C326.838 2438.32 324.417 2438.32 321.932 2438.25C319.447 2438.19 317.026 2438.13 314.605 2438.06C309.762 2437.87 304.984 2437.55 300.587 2437.23C291.731 2436.53 284.276 2435.77 280.071 2435.9C277.905 2435.96 275.93 2436.47 274.082 2437.49C272.298 2438.44 270.705 2439.85 269.431 2441.63C269.112 2442.08 268.794 2442.52 268.539 2443.03C268.284 2443.54 268.029 2444.05 267.838 2444.56C267.392 2445.58 267.073 2446.73 266.819 2447.94C266.564 2449.09 266.5 2450.36 266.5 2451.63C266.5 2452.27 266.564 2452.91 266.564 2453.55C266.627 2454.18 266.755 2454.82 266.882 2455.46C267.137 2456.73 267.519 2458.01 268.029 2459.15C268.539 2460.3 269.112 2461.38 269.813 2462.4C270.45 2463.42 271.279 2464.31 272.107 2465.08C272.935 2465.84 273.827 2466.54 274.719 2467.12C276.567 2468.26 278.606 2468.9 280.645 2469.09C282.684 2469.28 284.722 2468.96 286.761 2468.2C290.329 2466.8 296.701 2463.17 304.41 2458.96C306.322 2457.94 308.361 2456.86 310.463 2455.78C312.566 2454.69 314.668 2453.61 316.898 2452.53C321.231 2450.36 325.818 2448.32 330.278 2446.41Z" fill="#389DC3"/>
<path d="M304.28 2368.49C307.147 2371.03 313.2 2375.05 320.4 2380.15C323.968 2382.69 327.854 2385.5 331.741 2388.43C333.652 2389.89 335.627 2391.42 337.539 2392.95C339.45 2394.48 341.362 2396.07 343.21 2397.67C346.905 2400.85 350.409 2403.98 353.595 2407.03C356.781 2410.09 359.584 2412.96 361.878 2415.38C363.025 2416.59 364.108 2417.74 365 2418.76C365.892 2419.78 366.72 2420.67 367.357 2421.37C368.632 2422.83 369.333 2423.66 369.333 2423.66C369.333 2423.66 368.695 2422.83 367.549 2421.31C366.402 2419.78 364.809 2417.55 362.961 2414.81C362.515 2414.11 362.005 2413.41 361.496 2412.64C360.986 2411.88 360.476 2411.11 359.967 2410.28C358.947 2408.63 357.864 2406.91 356.717 2405.06C355.634 2403.21 354.487 2401.3 353.34 2399.26C352.193 2397.22 351.046 2395.12 349.963 2393.02C347.733 2388.75 345.567 2384.29 343.528 2379.89C341.489 2375.43 339.641 2371.1 337.985 2366.96C334.608 2358.8 331.996 2351.73 329.957 2348.03C328.937 2346.19 327.536 2344.59 325.879 2343.45C325.051 2342.87 324.095 2342.36 323.139 2341.98C322.63 2341.79 322.12 2341.6 321.61 2341.47C321.355 2341.41 321.101 2341.34 320.846 2341.28C320.591 2341.22 320.336 2341.15 320.081 2341.15C318.998 2341.02 317.915 2340.96 316.768 2341.03C316.194 2341.09 315.621 2341.15 315.048 2341.22C314.474 2341.28 313.901 2341.47 313.327 2341.6C312.18 2341.92 311.034 2342.36 309.887 2342.94C308.74 2343.51 307.657 2344.21 306.637 2345.04C306.128 2345.42 305.618 2345.87 305.172 2346.31C304.726 2346.76 304.28 2347.27 303.898 2347.72C303.069 2348.67 302.368 2349.69 301.795 2350.71C301.222 2351.79 300.776 2352.88 300.457 2353.96C300.138 2355.04 299.884 2356.13 299.82 2357.21C299.629 2359.37 299.947 2361.48 300.712 2363.39C301.476 2365.36 302.687 2367.08 304.28 2368.49Z" fill="#389DC3"/>
<path d="M371.691 2351.22C371.118 2350.84 370.545 2350.58 369.908 2350.33C369.27 2350.07 368.633 2349.95 367.932 2349.82C367.232 2349.75 366.594 2349.75 365.83 2349.82C365.129 2349.88 364.428 2350.07 363.791 2350.33C363.217 2350.52 362.644 2350.84 362.134 2351.16C361.433 2351.6 360.86 2352.18 360.287 2352.75C360.159 2352.94 359.968 2353.13 359.841 2353.32C359.649 2353.58 359.458 2353.9 359.331 2354.15C357.993 2356.51 357.674 2359.44 358.439 2362.43C359.076 2365.11 360.924 2370.02 362.963 2375.94C365.001 2381.87 367.295 2388.81 369.143 2395.57C370.099 2398.94 370.927 2402.19 371.628 2405.25C372.329 2408.31 372.902 2411.11 373.348 2413.47C373.794 2415.89 374.176 2417.87 374.368 2419.2C374.559 2420.6 374.686 2421.37 374.686 2421.37C374.686 2421.37 374.622 2420.6 374.495 2419.27C374.368 2417.93 374.24 2415.95 374.049 2413.6C373.922 2411.18 373.794 2408.44 373.73 2405.31C373.667 2402.26 373.667 2398.88 373.73 2395.44C373.794 2393.72 373.794 2391.93 373.858 2390.21C373.922 2388.43 374.049 2386.71 374.113 2384.99C374.304 2381.55 374.559 2378.11 374.877 2374.99C375.387 2368.68 375.96 2363.33 375.96 2360.33C375.96 2357.27 374.941 2354.53 373.093 2352.56C372.711 2352.05 372.201 2351.6 371.691 2351.22Z" fill="#389DC3"/>
</g>
</g>
</g>
<defs>
<clipPath id="clip0_399_446">
<rect width="375" height="2541" fill="white"/>
</clipPath>
<clipPath id="clip1_399_446">
<rect width="375" height="2541" fill="white"/>
</clipPath>
<clipPath id="clip2_399_446">
<rect width="109.446" height="200" fill="white" transform="translate(0 38.8301)"/>
</clipPath>
<clipPath id="clip3_399_446">
<rect width="109.462" height="200" fill="white" transform="translate(266.5 2341)"/>
</clipPath>
</defs>
</svg>
