<svg width="1440" height="1505" viewBox="0 0 1440 1505" fill="none" xmlns="http://www.w3.org/2000/svg">
<g clip-path="url(#clip0_399_335)">
<rect width="1440" height="1505" fill="#00314C"/>
<g clip-path="url(#clip1_399_335)">
<path d="M12.0489 265.3C14.3374 271.556 17.2362 278.879 20.5927 286.965C23.9492 294.899 27.9159 303.442 32.1878 312.139C34.3238 316.411 36.6123 320.835 38.9008 325.259C40.1213 327.395 41.1893 329.531 42.4099 331.82C43.6304 333.956 44.8509 336.092 45.9189 338.227C50.8011 346.771 55.6832 354.858 60.4128 362.486C65.1424 369.962 69.4143 376.98 73.2285 382.93C76.8901 388.88 79.9415 393.915 81.7723 397.882C83.6031 401.696 84.5185 405.815 84.5185 409.934C84.5185 414.054 83.298 418.173 81.3146 422.14C80.8569 423.055 80.2466 424.123 79.6363 425.039C79.0261 425.954 78.2632 426.869 77.653 427.785C76.1273 429.463 74.449 431.141 72.6182 432.667C70.7874 434.193 68.6515 435.413 66.363 436.634C65.295 437.244 64.0744 437.701 62.8539 438.159C61.6334 438.617 60.4128 439.075 59.0397 439.38C56.4461 440.143 53.8524 440.601 51.4113 440.753C48.8177 440.906 46.3766 440.906 43.9355 440.6C41.4944 440.295 39.2059 439.685 37.07 438.922C34.934 438.159 32.7981 437.244 30.9673 436.023C27.3057 433.735 24.2543 430.683 21.9658 427.174C19.8299 423.665 18.4567 419.699 17.999 415.427C17.2362 407.798 17.8465 392.999 18.1516 375.454C18.1516 371.03 18.3042 366.453 18.3042 361.723C18.3042 356.993 18.3042 352.264 18.1516 347.229C17.999 337.465 17.3888 327.395 16.7785 317.631C16.0157 307.867 14.9477 298.408 13.8797 289.711C12.6592 281.015 11.2861 273.081 10.0655 266.368C8.84499 259.655 7.62445 254.163 6.70905 250.349C5.79364 246.535 5.33594 244.398 5.33594 244.398C5.33594 244.398 5.94621 246.382 7.16675 250.044C8.08215 253.858 9.7604 259.045 12.0489 265.3Z" fill="#389DC3"/>
<path d="M63.7738 294.593C61.6379 291.847 59.6545 288.948 57.366 286.202C55.2301 283.303 53.0941 280.557 50.8056 277.81C46.3811 272.318 42.1093 267.131 37.9899 262.401C36.0065 259.96 34.0232 257.824 32.0398 255.688C30.209 253.552 28.3782 251.569 26.6999 249.891C23.3434 246.382 20.5972 243.483 18.6139 241.499C16.6305 239.516 15.5625 238.448 15.5625 238.448C15.5625 238.448 16.783 239.516 18.7664 241.194C20.7498 243.025 23.8011 245.619 27.4628 248.67C34.786 254.773 45.1606 262.706 56.6032 270.64C67.8932 278.573 80.2511 286.354 91.236 292.915C102.068 299.475 111.375 304.815 116.257 308.476C118.698 310.307 120.834 312.443 122.36 314.732C123.885 317.173 124.953 319.614 125.411 322.36C125.716 323.733 125.716 324.954 125.716 326.327C125.716 326.937 125.564 327.7 125.564 328.31C125.411 328.92 125.259 329.683 125.106 330.294C124.801 331.514 124.191 332.887 123.58 334.108C123.275 334.718 122.97 335.328 122.512 335.786C122.055 336.396 121.597 336.854 121.139 337.464C120.224 338.532 119.156 339.448 117.935 340.21C117.63 340.363 117.325 340.516 117.02 340.821C116.715 340.974 116.41 341.126 116.105 341.278C115.494 341.583 114.884 341.889 114.274 342.041C111.68 342.957 109.086 343.262 106.34 342.957C101 342.346 95.813 339.448 91.8463 334.718C88.3372 330.446 82.5396 321.75 75.369 311.375C71.8599 305.883 67.8932 300.238 63.7738 294.593Z" fill="#389DC3"/>
<path d="M154.857 182.456C151.806 187.033 146.771 190.237 140.821 191.458C135.481 192.678 124.954 193.746 112.444 195.424C106.188 196.187 99.4753 197.103 92.6098 198.323C85.7442 199.391 78.5735 200.612 71.708 201.985C64.8425 203.358 58.1295 204.883 52.1794 206.256C46.0767 207.782 40.4317 209.308 35.7021 210.528C30.9725 211.902 27.1583 212.969 24.5646 213.885C21.971 214.8 20.4453 215.258 20.4453 215.258C20.4453 215.258 21.8184 214.648 24.4121 213.733C25.6326 213.275 27.1583 212.665 28.9891 211.902C30.8199 211.139 32.8033 210.376 34.9392 209.461C43.7881 205.646 55.5358 200.154 67.8938 193.746C80.0992 187.338 92.7623 179.863 103.595 173.302C114.427 166.589 123.428 160.792 128.921 158.045C134.413 155.299 140.363 154.536 145.551 156.214C150.738 157.74 155.01 161.554 156.993 167.047C157.451 168.42 157.756 169.793 157.909 171.166C157.909 171.776 158.061 172.539 158.061 173.149C158.061 173.76 157.909 174.523 157.909 175.133C157.298 177.727 156.383 180.168 154.857 182.456Z" fill="#389DC3"/>
<path d="M91.5368 250.806C82.5353 246.992 73.5338 243.635 65.2951 240.737C57.0565 237.838 49.4281 235.397 42.8677 233.413C36.3073 231.43 30.8149 230.057 27.1533 229.141C23.3391 228.226 21.2031 227.616 21.2031 227.616C21.2031 227.616 23.3391 228.074 27.0007 228.684C28.8315 228.989 31.12 229.294 33.8662 229.752C36.4599 230.21 39.5112 230.515 42.8677 230.973C49.4281 231.888 57.3616 232.651 66.058 233.261C74.7543 233.871 84.0609 234.329 93.6727 234.481C98.5549 234.481 103.437 234.481 108.319 234.481C113.201 234.481 118.236 234.329 123.118 234.024C132.883 233.566 142.342 232.956 151.343 232.345C169.194 230.972 183.993 229.294 192.536 229.599C196.808 229.752 200.928 230.82 204.589 232.803C208.251 234.787 211.302 237.533 213.896 241.194C214.506 242.11 215.116 243.025 215.727 243.941C216.184 244.856 216.795 245.924 217.252 246.992C218.168 249.128 218.778 251.416 219.388 253.705C219.846 255.993 219.999 258.587 219.999 261.028C219.999 262.249 219.999 263.622 219.846 264.842C219.693 266.063 219.541 267.436 219.236 268.809C218.626 271.403 217.863 273.996 216.947 276.285C215.879 278.574 214.659 280.862 213.286 282.845C211.913 284.829 210.387 286.66 208.709 288.185C207.03 289.711 205.2 291.084 203.369 292.305C199.555 294.593 195.588 295.966 191.468 296.271C187.349 296.576 183.23 295.966 179.263 294.44C172.092 291.694 159.277 284.219 143.715 275.98C139.901 273.844 135.781 271.708 131.509 269.572C127.39 267.436 122.966 265.3 118.541 263.164C109.692 258.74 100.538 254.468 91.5368 250.806Z" fill="#389DC3"/>
<path d="M143.719 94.272C137.921 99.4593 125.716 107.545 111.374 117.615C104.204 122.65 96.4227 128.294 88.6418 134.245C84.8276 137.143 80.8609 140.347 77.0467 143.399C73.2325 146.45 69.4183 149.654 65.6041 152.858C58.1283 159.266 51.1102 165.521 44.8549 171.624C38.4471 177.726 32.8021 183.524 28.2251 188.406C25.9365 190.847 23.8006 193.136 21.9698 195.272C20.139 197.255 18.6133 199.086 17.2402 200.611C14.6465 203.51 13.2734 205.189 13.2734 205.189C13.2734 205.189 14.494 203.51 16.7825 200.459C19.071 197.408 22.2749 192.983 25.9365 187.338C26.8519 185.965 27.9199 184.44 28.8353 182.914C29.9033 181.388 30.8187 179.862 31.8867 178.184C34.0226 174.98 36.1586 171.471 38.4471 167.657C40.7356 163.995 42.8715 160.029 45.1601 156.062C47.4486 151.943 49.7371 147.823 51.873 143.551C56.2975 135.008 60.7219 126.006 64.6887 117.157C68.808 108.308 72.4696 99.4593 75.8261 91.2206C82.5391 74.7434 87.879 60.5545 91.9983 53.2313C93.9817 49.4171 96.8804 46.3658 100.237 43.9247C101.915 42.7042 103.746 41.7887 105.729 41.0259C106.645 40.5682 107.713 40.2631 108.781 39.958C109.238 39.8054 109.849 39.6528 110.306 39.5002C110.764 39.3477 111.374 39.3477 111.832 39.1952C113.968 38.89 116.257 38.7373 118.545 38.8899C119.766 38.8899 120.834 39.0426 122.054 39.3477C123.275 39.5003 124.343 39.8054 125.563 40.1105C127.852 40.7208 130.14 41.6363 132.429 42.8568C134.717 44.0774 136.853 45.4504 138.989 47.1286C140.057 47.8914 140.972 48.8069 141.888 49.7224C142.803 50.6378 143.719 51.553 144.482 52.621C146.16 54.6044 147.533 56.5877 148.753 58.7237C149.821 60.8596 150.737 62.9957 151.5 65.2842C152.11 67.4201 152.568 69.7087 152.72 71.8446C153.025 76.2691 152.415 80.3884 150.889 84.2026C149.364 87.8642 146.923 91.3732 143.719 94.272Z" fill="#389DC3"/>
<path d="M8.39121 59.4866C9.45919 58.7238 10.6797 58.1136 11.9003 57.6559C13.1208 57.1982 14.4939 56.8931 15.867 56.588C17.2401 56.4354 18.6132 56.4354 19.9863 56.588C21.3595 56.7406 22.7326 57.0457 24.1057 57.5034C25.3262 57.9611 26.3942 58.5713 27.4622 59.1816C28.8353 60.097 30.0558 61.1649 31.1238 62.3855C31.4289 62.6906 31.734 63.1484 32.0392 63.4535C32.4969 64.0638 32.802 64.5215 33.1072 65.1317C35.8534 69.8613 36.4636 75.8115 34.938 81.7616C33.5649 87.1015 29.9032 97.0183 25.7839 108.919C21.6646 120.819 17.0876 134.703 13.4259 148.281C11.5951 154.994 9.91689 161.707 8.54378 167.81C7.17067 173.912 5.95013 179.557 5.03473 184.44C4.11932 189.322 3.50905 193.288 3.05135 196.035C2.59365 198.781 2.44108 200.307 2.44108 200.307C2.44108 200.307 2.59365 198.781 2.89878 196.035C3.20392 193.288 3.50905 189.322 3.81419 184.592C4.11932 179.71 4.42446 174.218 4.42446 167.962C4.57703 161.707 4.57703 154.994 4.42446 148.129C4.42446 144.619 4.27189 141.11 4.11932 137.601C3.96676 134.092 3.81419 130.583 3.66162 127.074C3.20392 120.056 2.74622 113.343 2.13595 106.935C1.06797 94.2722 0 83.5924 0 77.4897C0 71.387 1.98338 65.742 5.79757 61.9279C6.25527 61.165 7.32324 60.2495 8.39121 59.4866Z" fill="#389DC3"/>
<path d="M1427.27 1011.02C1424.87 1017.55 1421.93 1025.29 1418.47 1033.55C1415 1041.95 1410.87 1050.75 1406.33 1059.82C1404.07 1064.35 1401.8 1068.89 1399.4 1073.42C1398.2 1075.69 1397 1077.95 1395.67 1080.22C1394.47 1082.49 1393.13 1084.62 1391.93 1086.89C1386.87 1095.69 1381.8 1104.22 1376.87 1112.09C1371.93 1119.95 1367.4 1127.15 1363.53 1133.42C1359.67 1139.69 1356.6 1144.89 1354.6 1148.89C1352.73 1152.89 1351.67 1157.15 1351.8 1161.55C1351.93 1165.82 1353 1170.09 1355.13 1174.22C1355.67 1175.29 1356.2 1176.22 1356.87 1177.15C1357.53 1178.09 1358.2 1179.02 1359 1179.95C1360.6 1181.82 1362.33 1183.55 1364.33 1185.15C1366.33 1186.75 1368.47 1188.09 1370.87 1189.29C1372.07 1189.95 1373.27 1190.49 1374.47 1190.89C1375.67 1191.42 1377 1191.82 1378.33 1192.22C1381 1192.89 1383.67 1193.42 1386.33 1193.69C1389 1193.82 1391.53 1193.82 1394.07 1193.42C1396.6 1193.15 1399 1192.49 1401.27 1191.69C1403.53 1190.89 1405.67 1189.95 1407.53 1188.75C1411.4 1186.35 1414.6 1183.15 1416.87 1179.55C1419.13 1175.95 1420.6 1171.82 1421 1167.29C1421.8 1159.29 1421.13 1143.95 1420.87 1125.55C1420.73 1121.02 1420.73 1116.22 1420.73 1111.29C1420.73 1106.35 1420.73 1101.42 1420.87 1096.22C1421.13 1085.95 1421.53 1075.55 1422.33 1065.42C1423.13 1055.29 1424.2 1045.42 1425.4 1036.35C1426.6 1027.29 1428.07 1019.02 1429.4 1012.09C1430.73 1005.02 1431.93 999.42 1432.87 995.42C1433.8 991.42 1434.33 989.286 1434.33 989.286C1434.33 989.286 1433.67 991.42 1432.47 995.153C1431.4 999.153 1429.53 1004.49 1427.27 1011.02Z" fill="#389DC3"/>
<path d="M1373.4 1041.69C1375.53 1038.75 1377.8 1035.82 1379.93 1032.89C1382.2 1029.95 1384.47 1027.02 1386.73 1024.22C1391.27 1018.49 1395.8 1013.02 1400.07 1008.09C1402.2 1005.55 1404.33 1003.29 1406.2 1001.02C1408.2 998.753 1410.07 996.753 1411.8 994.886C1415.27 991.153 1418.2 988.22 1420.2 986.086C1422.2 984.086 1423.4 982.886 1423.4 982.886C1423.4 982.886 1422.2 983.953 1420.07 985.82C1417.93 987.686 1414.73 990.353 1411 993.553C1403.27 999.953 1392.6 1008.22 1380.73 1016.49C1369 1024.75 1356.07 1032.89 1344.73 1039.82C1333.4 1046.62 1323.8 1052.22 1318.6 1056.09C1316.07 1057.95 1313.8 1060.22 1312.2 1062.62C1310.6 1065.15 1309.4 1067.82 1309 1070.49C1308.73 1071.82 1308.6 1073.29 1308.73 1074.62C1308.73 1075.29 1308.87 1076.09 1308.87 1076.75C1309 1077.42 1309.13 1078.09 1309.27 1078.75C1309.67 1080.09 1310.2 1081.42 1310.87 1082.62C1311.27 1083.29 1311.53 1083.82 1312.07 1084.49C1312.47 1085.02 1313 1085.69 1313.53 1086.22C1314.6 1087.29 1315.67 1088.22 1316.87 1089.02C1317.13 1089.15 1317.4 1089.42 1317.8 1089.55C1318.07 1089.69 1318.47 1089.82 1318.73 1090.09C1319.4 1090.35 1320.07 1090.62 1320.73 1090.89C1323.4 1091.82 1326.2 1092.09 1329 1091.82C1334.6 1091.15 1339.93 1088.09 1344.07 1083.15C1347.8 1078.75 1353.8 1069.69 1361.27 1058.89C1365 1053.29 1369.13 1047.55 1373.4 1041.69Z" fill="#389DC3"/>
<path d="M1278.47 924.753C1281.67 929.42 1286.87 932.753 1293.13 934.22C1298.73 935.42 1309.67 936.62 1322.6 938.353C1329.13 939.153 1336.07 940.22 1343.4 941.286C1350.6 942.486 1357.93 943.686 1365.13 945.153C1372.33 946.62 1379.27 948.086 1385.53 949.686C1391.93 951.286 1397.67 952.753 1402.6 954.22C1407.53 955.553 1411.53 956.886 1414.33 957.686C1417.13 958.62 1418.6 959.02 1418.6 959.02C1418.6 959.02 1417.13 958.486 1414.47 957.42C1413.13 956.886 1411.53 956.22 1409.67 955.42C1407.8 954.62 1405.67 953.82 1403.4 952.753C1394.2 948.886 1381.93 943.153 1369.13 936.353C1356.47 929.686 1343.27 921.953 1331.93 915.02C1320.6 908.086 1311.27 902.086 1305.53 899.153C1299.8 896.22 1293.53 895.553 1288.2 897.286C1282.73 898.886 1278.33 902.886 1276.33 908.486C1275.8 909.953 1275.53 911.286 1275.4 912.753C1275.27 913.42 1275.27 914.22 1275.27 914.886C1275.27 915.553 1275.4 916.353 1275.4 917.02C1275.93 919.82 1276.87 922.353 1278.47 924.753Z" fill="#389DC3"/>
<path d="M1344.47 995.82C1353.8 991.82 1363.13 988.353 1371.8 985.286C1380.47 982.22 1388.33 979.686 1395.27 977.686C1402.07 975.686 1407.8 974.22 1411.67 973.153C1415.67 972.22 1417.8 971.686 1417.8 971.686C1417.8 971.686 1415.67 972.086 1411.67 972.753C1409.67 973.02 1407.27 973.42 1404.6 973.82C1401.8 974.22 1398.73 974.62 1395.27 975.153C1388.33 976.087 1380.2 976.886 1371.13 977.553C1362.07 978.22 1352.33 978.62 1342.33 978.753C1337.27 978.886 1332.2 978.886 1327 978.753C1321.8 978.62 1316.73 978.486 1311.67 978.353C1301.53 977.953 1291.53 977.286 1282.33 976.62C1263.8 975.153 1248.2 973.553 1239.4 973.82C1234.87 973.953 1230.73 975.02 1226.87 977.153C1223.13 979.153 1219.8 982.087 1217.13 985.82C1216.47 986.753 1215.8 987.686 1215.27 988.753C1214.73 989.82 1214.2 990.886 1213.8 991.953C1212.87 994.086 1212.2 996.486 1211.67 999.02C1211.13 1001.42 1211 1004.09 1211 1006.75C1211 1008.09 1211.13 1009.42 1211.13 1010.75C1211.27 1012.09 1211.53 1013.42 1211.8 1014.75C1212.33 1017.42 1213.13 1020.09 1214.2 1022.49C1215.27 1024.89 1216.47 1027.15 1217.93 1029.29C1219.27 1031.42 1221 1033.29 1222.73 1034.89C1224.47 1036.49 1226.33 1037.95 1228.2 1039.15C1232.07 1041.55 1236.33 1042.89 1240.6 1043.29C1244.87 1043.69 1249.13 1043.02 1253.4 1041.42C1260.87 1038.49 1274.2 1030.89 1290.33 1022.09C1294.33 1019.95 1298.6 1017.69 1303 1015.42C1307.4 1013.15 1311.8 1010.89 1316.47 1008.62C1325.53 1004.09 1335.13 999.82 1344.47 995.82Z" fill="#389DC3"/>
<path d="M1290.06 832.753C1296.06 838.086 1308.73 846.486 1323.8 857.153C1331.26 862.486 1339.4 868.353 1347.53 874.486C1351.53 877.553 1355.66 880.753 1359.66 883.953C1363.66 887.153 1367.66 890.486 1371.53 893.82C1379.26 900.486 1386.6 907.02 1393.26 913.42C1399.93 919.82 1405.8 925.819 1410.6 930.886C1413 933.419 1415.26 935.82 1417.13 937.953C1419 940.086 1420.73 941.953 1422.06 943.42C1424.73 946.486 1426.2 948.219 1426.2 948.219C1426.2 948.219 1424.86 946.486 1422.46 943.286C1420.06 940.086 1416.73 935.42 1412.86 929.686C1411.93 928.22 1410.86 926.753 1409.8 925.153C1408.73 923.553 1407.66 921.953 1406.6 920.219C1404.46 916.753 1402.2 913.153 1399.8 909.286C1397.53 905.42 1395.13 901.42 1392.73 897.153C1390.33 892.886 1387.93 888.486 1385.66 884.086C1381 875.153 1376.46 865.82 1372.2 856.62C1367.93 847.286 1364.06 838.219 1360.6 829.553C1353.53 812.486 1348.06 797.686 1343.8 789.953C1341.66 786.086 1338.73 782.753 1335.26 780.353C1333.53 779.153 1331.53 778.086 1329.53 777.286C1328.46 776.886 1327.4 776.486 1326.33 776.219C1325.8 776.086 1325.26 775.953 1324.73 775.82C1324.2 775.686 1323.66 775.553 1323.13 775.553C1320.86 775.286 1318.6 775.153 1316.2 775.286C1315 775.42 1313.8 775.553 1312.6 775.686C1311.4 775.82 1310.2 776.22 1309 776.486C1306.6 777.153 1304.2 778.086 1301.8 779.286C1299.4 780.486 1297.13 781.953 1295 783.686C1293.93 784.486 1292.86 785.42 1291.93 786.353C1291 787.286 1290.06 788.353 1289.26 789.286C1287.53 791.286 1286.06 793.419 1284.86 795.553C1283.66 797.819 1282.73 800.086 1282.06 802.353C1281.4 804.62 1280.86 806.886 1280.73 809.153C1280.33 813.686 1281 818.086 1282.6 822.086C1284.2 826.22 1286.73 829.82 1290.06 832.753Z" fill="#389DC3"/>
<path d="M1431.13 796.62C1429.93 795.82 1428.73 795.287 1427.4 794.753C1426.07 794.22 1424.73 793.953 1423.27 793.686C1421.8 793.553 1420.47 793.553 1418.87 793.686C1417.4 793.82 1415.93 794.22 1414.6 794.753C1413.4 795.153 1412.2 795.82 1411.13 796.487C1409.67 797.42 1408.47 798.62 1407.27 799.82C1407 800.22 1406.6 800.62 1406.33 801.02C1405.93 801.553 1405.53 802.22 1405.27 802.753C1402.47 807.687 1401.8 813.82 1403.4 820.087C1404.73 825.687 1408.6 835.953 1412.87 848.353C1417.13 860.753 1421.93 875.286 1425.8 889.42C1427.8 896.486 1429.53 903.286 1431 909.686C1432.47 916.086 1433.67 921.953 1434.6 926.886C1435.53 931.953 1436.33 936.086 1436.73 938.886C1437.13 941.82 1437.4 943.42 1437.4 943.42C1437.4 943.42 1437.27 941.82 1437 939.02C1436.73 936.22 1436.47 932.087 1436.07 927.153C1435.8 922.087 1435.53 916.353 1435.4 909.82C1435.27 903.42 1435.27 896.353 1435.4 889.153C1435.53 885.553 1435.53 881.82 1435.67 878.22C1435.8 874.486 1436.07 870.886 1436.2 867.286C1436.6 860.086 1437.13 852.886 1437.8 846.353C1438.87 833.153 1440.07 821.953 1440.07 815.686C1440.07 809.286 1437.93 803.553 1434.07 799.42C1433.27 798.353 1432.2 797.42 1431.13 796.62Z" fill="#389DC3"/>
</g>
</g>
<defs>
<clipPath id="clip0_399_335">
<rect width="1440" height="1505" fill="white"/>
</clipPath>
<clipPath id="clip1_399_335">
<rect width="1440" height="1505" fill="white"/>
</clipPath>
</defs>
</svg>
