<svg width="280" height="280" viewBox="0 0 280 280" fill="none" xmlns="http://www.w3.org/2000/svg">
<g clip-path="url(#clip0_281_4882)">
<path d="M206.869 234.903C165.795 271.826 102.57 268.461 65.6476 227.387C28.725 186.313 32.0902 123.088 73.1642 86.1652L131.73 33.519C135.921 29.7513 141.438 27.8029 147.065 28.1024C152.693 28.402 157.972 30.9249 161.739 35.1162L214.386 93.6819C251.308 134.756 247.943 197.981 206.869 234.903Z" fill="#BFE3C7"/>
<path d="M127.331 132.333L139.116 120.548L150.901 132.333L139.117 144.118L127.331 132.333ZM148.997 154L160.782 142.215L172.567 154L160.784 165.785L148.997 154ZM105.664 154L117.449 142.215L129.234 154L117.451 165.785L105.664 154ZM127.331 175.667L139.116 163.882L150.901 175.667L139.117 187.452L127.331 175.667Z" fill="#28A444" stroke="#28A444" stroke-width="4" stroke-linecap="round" stroke-linejoin="round"/>
</g>
<defs>
<clipPath id="clip0_281_4882">
<rect width="240" height="240" fill="white" transform="translate(131 330) rotate(-131.953)"/>
</clipPath>
</defs>
</svg>
