<svg width="280" height="280" viewBox="0 0 280 280" fill="none" xmlns="http://www.w3.org/2000/svg">
<g clip-path="url(#clip0_281_4891)">
<path d="M206.869 234.903C165.795 271.826 102.57 268.461 65.6476 227.387C28.725 186.313 32.0902 123.088 73.1642 86.1652L131.73 33.519C135.921 29.7513 141.438 27.8029 147.065 28.1024C152.693 28.402 157.972 30.9249 161.739 35.1162L214.386 93.6819C251.308 134.756 247.943 197.981 206.869 234.903Z" fill="#E6B5E0"/>
<path d="M139 114L107 126V150.36C107 170.56 120.64 189.4 139 194C157.36 189.4 171 170.56 171 150.36V126L139 114ZM134.76 168.16L120.6 154L126.24 148.36L134.72 156.84L151.68 139.88L157.32 145.52L134.76 168.16Z" fill="#AB459E"/>
</g>
<defs>
<clipPath id="clip0_281_4891">
<rect width="240" height="240" fill="white" transform="translate(131 330) rotate(-131.953)"/>
</clipPath>
</defs>
</svg>
