<svg width="280" height="280" viewBox="0 0 280 280" fill="none" xmlns="http://www.w3.org/2000/svg">
<g clip-path="url(#clip0_281_4872)">
<path d="M206.869 234.903C165.795 271.826 102.57 268.461 65.6476 227.387C28.725 186.313 32.0902 123.088 73.1642 86.1652L131.73 33.5189C135.921 29.7512 141.438 27.8028 147.065 28.1024C152.693 28.4019 157.972 30.9249 161.739 35.1162L214.386 93.6818C251.308 134.756 247.943 197.981 206.869 234.903Z" fill="#ACC0DE"/>
<path fill-rule="evenodd" clip-rule="evenodd" d="M135.18 116.731C134.808 116.562 134.405 116.475 133.997 116.475C133.589 116.475 133.186 116.562 132.814 116.731L117.826 123.554L133.986 130.914L150.157 123.549L135.18 116.731ZM115.14 146.057V128.606L131.14 135.891V155.177L116.803 148.657C116.304 148.43 115.88 148.064 115.583 147.603C115.287 147.142 115.129 146.605 115.128 146.057H115.14ZM136.854 184.411V165.326L152.008 172.229V191.514L137.688 184.994C137.376 184.852 137.097 184.655 136.854 184.411ZM157.723 191.526V172.229L173.74 164.937V182.394C173.74 182.943 173.582 183.479 173.285 183.94C172.988 184.401 172.565 184.767 172.066 184.994L157.723 191.526ZM131.128 165.326V184.434C130.891 184.667 130.614 184.857 130.311 184.994L115.968 191.526V172.229L131.128 165.326ZM110.254 172.229V191.514L95.9399 184.994C95.4408 184.767 95.0175 184.401 94.7206 183.94C94.4237 183.479 94.2658 182.943 94.2656 182.394V164.943L110.266 172.229H110.254ZM136.843 155.189V135.886L152.86 128.594V146.057C152.86 146.605 152.702 147.142 152.405 147.603C152.108 148.064 151.685 148.43 151.186 148.657L136.843 155.189ZM153.688 153.074C154.06 152.905 154.463 152.818 154.871 152.818C155.279 152.818 155.683 152.905 156.054 153.074L171.026 159.886L154.854 167.251L138.711 159.886L153.694 153.063L153.688 153.074ZM111.94 153.074C112.311 152.905 112.715 152.818 113.123 152.818C113.531 152.818 113.934 152.905 114.306 153.074L129.277 159.886L113.111 167.257L96.9571 159.886L111.94 153.074Z" fill="#4371B7"/>
</g>
<defs>
<clipPath id="clip0_281_4872">
<rect width="240" height="240" fill="white" transform="translate(131 330) rotate(-131.953)"/>
</clipPath>
</defs>
</svg>
