<svg width="1440" height="1634" viewBox="0 0 1440 1634" fill="none" xmlns="http://www.w3.org/2000/svg">
<g clip-path="url(#clip0_399_188)">
<rect width="1440" height="1634" fill="white"/>
<path d="M-856.06 487.539C-881.678 549.829 -942.12 601.865 -990.743 655.321C-1038.41 707.725 -1098.82 777.045 -1058.87 847.258C-1024.5 907.664 -919.527 948.722 -832.468 968.242C-742.71 988.359 -652.042 995.625 -562.169 1007.14C-520.317 1012.5 -478.229 1018.57 -436.534 1027.85C-389.361 1038.36 -347.992 1054.55 -305.503 1074.99C-148.785 1150.45 -3.9502 1242.9 135.651 1333.64C243.213 1403.57 348.675 1475.56 454.909 1546.77C495.538 1574.02 536.21 1601.27 578.071 1627.61C603.134 1643.36 629.578 1661.02 658.658 1672.41C666.02 1675.29 672.318 1676.42 673.696 1673.46C680.559 1658.75 656.227 1629.71 643.712 1613.77C622.583 1586.87 594.154 1561.5 565.278 1537.29C390.701 1390.92 181.704 1254.38 -34.8404 1136.87C-102.765 1100.02 -179.03 1056.95 -258.007 1036.73C-323.806 1019.89 -391.41 1012.72 -457.576 1005.15C-601.222 988.734 -859.138 960.278 -885.471 832.351C-899.48 764.277 -867.046 698.482 -835.353 638.318C-805.559 581.721 -760.11 522.261 -762.092 457.439C-763.668 405.82 -799.968 345.671 -838.577 295.923C-883.253 238.377 -946.8 185.204 -1018.54 140.58C-1038.59 128.115 -1061.71 114.505 -1086.12 107.407C-1127.64 95.3297 -1099.47 126.59 -1087.48 138.146C-1064.02 160.748 -1035.98 181.459 -1012.11 203.702C-953.066 258.695 -900.39 317.35 -869.198 379.001C-849.33 418.307 -841.467 452.054 -856.06 487.539Z" fill="#E8ECF4"/>
<path d="M1342.94 290.539C1317.32 352.829 1256.88 404.865 1208.26 458.321C1160.59 510.725 1100.18 580.045 1140.13 650.258C1174.5 710.664 1279.47 751.722 1366.53 771.242C1456.29 791.359 1546.96 798.625 1636.83 810.14C1678.68 815.502 1720.77 821.567 1762.47 830.85C1809.64 841.363 1851.01 857.549 1893.5 877.991C2050.21 953.445 2195.05 1045.9 2334.65 1136.64C2442.21 1206.57 2547.67 1278.56 2653.91 1349.77C2694.54 1377.02 2735.21 1404.27 2777.07 1430.61C2802.13 1446.36 2828.58 1464.02 2857.66 1475.41C2865.02 1478.29 2871.32 1479.42 2872.7 1476.46C2879.56 1461.75 2855.23 1432.71 2842.71 1416.77C2821.58 1389.87 2793.15 1364.5 2764.28 1340.29C2589.7 1193.92 2380.7 1057.38 2164.16 939.874C2096.24 903.017 2019.97 859.947 1940.99 839.73C1875.19 822.887 1807.59 815.718 1741.42 808.154C1597.78 791.734 1339.86 763.278 1313.53 635.351C1299.52 567.277 1331.95 501.482 1363.65 441.318C1393.44 384.721 1438.89 325.261 1436.91 260.439C1435.33 208.82 1399.03 148.671 1360.42 98.923C1315.75 41.3772 1252.2 -11.7961 1180.46 -56.4198C1160.41 -68.8849 1137.29 -82.4945 1112.88 -89.5934C1071.36 -101.67 1099.53 -70.4099 1111.52 -58.8537C1134.98 -36.2516 1163.02 -15.5406 1186.89 6.70189C1245.93 61.6945 1298.61 120.35 1329.8 182.001C1349.67 221.307 1357.53 255.054 1342.94 290.539Z" fill="#E8ECF4"/>
<path d="M1452.8 1368.85C1449.6 1377.52 1445.73 1387.78 1440.93 1398.85C1436.27 1409.92 1430.8 1421.78 1424.8 1433.78C1421.87 1439.78 1418.67 1445.92 1415.47 1451.92C1413.87 1454.98 1412.27 1457.92 1410.53 1460.98C1408.93 1463.92 1407.2 1466.98 1405.6 1469.92C1398.93 1481.65 1392 1493.12 1385.47 1503.65C1378.93 1514.18 1372.8 1523.78 1367.73 1532.18C1362.53 1540.45 1358.4 1547.52 1355.87 1552.85C1353.33 1558.18 1352 1563.92 1352.13 1569.65C1352.27 1575.38 1353.73 1581.12 1356.53 1586.58C1357.2 1587.92 1358 1589.25 1358.93 1590.58C1359.73 1591.92 1360.8 1593.12 1361.73 1594.32C1363.73 1596.72 1366.13 1599.12 1368.8 1601.12C1371.47 1603.25 1374.4 1604.98 1377.47 1606.58C1379.07 1607.38 1380.67 1608.18 1382.4 1608.85C1384.13 1609.52 1385.87 1610.05 1387.6 1610.58C1391.2 1611.52 1394.8 1612.18 1398.27 1612.45C1401.73 1612.72 1405.2 1612.58 1408.53 1612.18C1411.87 1611.78 1415.07 1610.98 1418.13 1609.92C1421.2 1608.85 1424 1607.52 1426.53 1605.92C1431.73 1602.72 1436 1598.45 1438.93 1593.65C1442 1588.85 1443.87 1583.25 1444.4 1577.38C1445.47 1566.72 1444.53 1546.32 1444.13 1521.78C1444 1515.65 1444 1509.25 1444 1502.72C1444 1496.18 1444 1489.52 1444.27 1482.58C1444.53 1468.98 1445.2 1454.98 1446.27 1441.52C1447.33 1428.05 1448.8 1414.72 1450.4 1402.72C1452 1390.58 1453.87 1379.65 1455.73 1370.32C1457.47 1360.98 1459.2 1353.38 1460.4 1348.05C1461.6 1342.72 1462.4 1339.78 1462.4 1339.78C1462.4 1339.78 1461.6 1342.58 1460 1347.65C1458.27 1352.85 1455.87 1360.18 1452.8 1368.85Z" fill="#E7EBF2"/>
<path d="M1381.07 1409.52C1384 1405.65 1386.94 1401.65 1389.87 1397.78C1392.8 1393.92 1395.87 1389.92 1398.94 1386.18C1404.94 1378.58 1411.07 1371.25 1416.8 1364.72C1419.6 1361.38 1422.4 1358.32 1425.07 1355.38C1427.74 1352.45 1430.27 1349.65 1432.54 1347.25C1437.2 1342.32 1441.07 1338.32 1443.74 1335.52C1446.54 1332.72 1448 1331.25 1448 1331.25C1448 1331.25 1446.4 1332.72 1443.6 1335.12C1440.8 1337.65 1436.54 1341.25 1431.47 1345.38C1421.2 1353.78 1406.94 1364.98 1391.07 1376.05C1375.34 1387.12 1358.14 1397.92 1343.07 1407.12C1328 1416.32 1315.07 1423.78 1308.27 1428.72C1304.8 1431.25 1301.87 1434.18 1299.74 1437.52C1297.47 1440.85 1296.14 1444.32 1295.47 1448.05C1295.2 1449.92 1295.07 1451.78 1295.07 1453.65C1295.07 1454.58 1295.2 1455.52 1295.34 1456.45C1295.47 1457.38 1295.74 1458.32 1296 1459.12C1296.54 1460.85 1297.2 1462.58 1298.14 1464.32C1298.54 1465.12 1299.07 1465.92 1299.6 1466.72C1300.14 1467.52 1300.8 1468.18 1301.47 1468.98C1302.8 1470.45 1304.27 1471.65 1305.87 1472.72C1306.27 1472.98 1306.67 1473.25 1307.07 1473.52C1307.47 1473.78 1307.87 1473.92 1308.27 1474.18C1309.07 1474.58 1310 1474.98 1310.94 1475.25C1314.54 1476.45 1318.14 1476.98 1321.87 1476.45C1329.34 1475.52 1336.54 1471.52 1342 1464.98C1346.94 1459.12 1354.94 1446.98 1364.94 1432.58C1369.87 1425.12 1375.34 1417.38 1381.07 1409.52Z" fill="#E7EBF2"/>
<path d="M1254.27 1253.65C1258.53 1259.92 1265.47 1264.45 1273.73 1266.18C1281.2 1267.78 1295.73 1269.38 1313.07 1271.65C1321.73 1272.72 1331.07 1274.05 1340.67 1275.65C1350.27 1277.12 1360.13 1278.85 1369.73 1280.85C1379.33 1282.72 1388.53 1284.85 1396.93 1286.85C1405.47 1288.85 1413.2 1290.98 1419.73 1292.85C1426.27 1294.72 1431.6 1296.32 1435.33 1297.52C1439.07 1298.72 1441.07 1299.38 1441.07 1299.38C1441.07 1299.38 1439.07 1298.58 1435.47 1297.25C1433.73 1296.58 1431.6 1295.65 1429.07 1294.72C1426.53 1293.65 1423.87 1292.58 1420.8 1291.25C1408.53 1286.05 1392.13 1278.45 1375.07 1269.38C1358.13 1260.45 1340.53 1250.18 1325.47 1240.85C1310.4 1231.65 1297.87 1223.52 1290.27 1219.78C1282.67 1215.92 1274.4 1214.98 1267.2 1217.25C1260 1219.38 1254 1224.72 1251.33 1232.18C1250.67 1234.05 1250.27 1235.92 1250.13 1237.78C1250 1238.72 1250 1239.65 1250 1240.58C1250 1241.52 1250.13 1242.45 1250.27 1243.38C1250.93 1246.98 1252.27 1250.58 1254.27 1253.65Z" fill="#E7EBF2"/>
<path d="M1342.4 1348.58C1354.8 1343.38 1367.33 1338.58 1378.8 1334.45C1390.27 1330.45 1400.93 1326.98 1410 1324.32C1419.07 1321.65 1426.67 1319.65 1431.87 1318.32C1437.07 1316.98 1440.13 1316.32 1440.13 1316.32C1440.13 1316.32 1437.2 1316.85 1432 1317.78C1429.33 1318.18 1426.13 1318.72 1422.53 1319.25C1418.8 1319.78 1414.67 1320.45 1410 1320.98C1400.8 1322.18 1389.87 1323.38 1377.87 1324.18C1365.87 1325.12 1352.8 1325.65 1339.47 1325.78C1332.8 1325.92 1325.87 1325.92 1319.07 1325.78C1312.27 1325.65 1305.33 1325.52 1298.53 1325.25C1285.07 1324.72 1271.73 1323.78 1259.33 1322.85C1234.67 1320.98 1213.87 1318.72 1202 1319.12C1196 1319.25 1190.4 1320.85 1185.33 1323.52C1180.27 1326.18 1175.87 1330.18 1172.4 1335.12C1171.47 1336.32 1170.67 1337.65 1169.87 1338.98C1169.07 1340.32 1168.4 1341.78 1167.87 1343.25C1166.67 1346.18 1165.6 1349.25 1164.93 1352.58C1164.27 1355.92 1164 1359.25 1164 1362.85C1164 1364.58 1164.13 1366.45 1164.27 1368.18C1164.4 1369.92 1164.8 1371.78 1165.2 1373.65C1166 1377.25 1167.07 1380.72 1168.4 1384.05C1169.87 1387.25 1171.47 1390.32 1173.33 1393.12C1175.2 1395.92 1177.33 1398.45 1179.73 1400.58C1182 1402.85 1184.53 1404.72 1187.07 1406.32C1192.27 1409.52 1198 1411.38 1203.6 1411.78C1209.33 1412.32 1215.07 1411.38 1220.67 1409.25C1230.67 1405.38 1248.4 1395.12 1270 1383.52C1275.47 1380.58 1281.07 1377.65 1286.93 1374.58C1292.8 1371.65 1298.8 1368.58 1304.93 1365.65C1317.2 1359.52 1329.87 1353.78 1342.4 1348.58Z" fill="#E7EBF2"/>
<path d="M1269.73 1130.98C1277.73 1138.18 1294.67 1149.38 1314.8 1163.52C1324.8 1170.58 1335.6 1178.32 1346.4 1186.58C1351.73 1190.72 1357.2 1194.98 1362.67 1199.25C1368 1203.52 1373.33 1207.92 1378.53 1212.45C1388.93 1221.25 1398.67 1230.05 1407.47 1238.58C1416.27 1246.98 1424.13 1254.98 1430.53 1261.92C1433.73 1265.38 1436.67 1268.58 1439.2 1271.38C1441.73 1274.18 1444 1276.72 1445.73 1278.72C1449.33 1282.85 1451.2 1285.12 1451.2 1285.12C1451.2 1285.12 1449.47 1282.72 1446.27 1278.45C1443.2 1274.18 1438.67 1267.92 1433.47 1260.18C1432.13 1258.32 1430.8 1256.18 1429.47 1254.05C1428.13 1251.92 1426.67 1249.78 1425.2 1247.52C1422.27 1242.98 1419.2 1238.05 1416.13 1232.98C1413.07 1227.78 1409.87 1222.45 1406.67 1216.72C1403.47 1211.12 1400.27 1205.25 1397.2 1199.25C1390.93 1187.38 1384.93 1174.98 1379.33 1162.58C1373.73 1150.18 1368.53 1138.05 1363.87 1126.58C1354.53 1103.78 1347.07 1084.05 1341.47 1073.65C1338.67 1068.45 1334.8 1064.05 1330 1060.85C1327.6 1059.25 1325.07 1057.78 1322.4 1056.72C1321.07 1056.18 1319.6 1055.65 1318.13 1055.38C1317.47 1055.25 1316.67 1054.98 1316 1054.85C1315.33 1054.72 1314.53 1054.58 1313.73 1054.45C1310.8 1054.05 1307.6 1053.92 1304.4 1054.05C1302.8 1054.18 1301.2 1054.32 1299.6 1054.58C1298 1054.85 1296.4 1055.25 1294.8 1055.65C1291.6 1056.58 1288.4 1057.78 1285.2 1059.38C1282 1060.98 1279.07 1062.98 1276.13 1065.25C1274.67 1066.45 1273.33 1067.65 1272 1068.85C1270.67 1070.18 1269.47 1071.38 1268.4 1072.85C1266.13 1075.52 1264.13 1078.32 1262.53 1081.25C1260.93 1084.18 1259.73 1087.25 1258.8 1090.32C1257.87 1093.38 1257.2 1096.32 1257.07 1099.38C1256.67 1105.52 1257.47 1111.38 1259.6 1116.58C1262 1122.18 1265.33 1126.98 1269.73 1130.98Z" fill="#E7EBF2"/>
<path d="M1458 1082.85C1456.4 1081.78 1454.8 1080.98 1453.07 1080.32C1451.34 1079.65 1449.47 1079.25 1447.6 1078.98C1445.74 1078.72 1443.74 1078.85 1441.87 1078.98C1439.87 1079.25 1438 1079.65 1436.27 1080.32C1434.67 1080.98 1433.07 1081.78 1431.74 1082.72C1429.87 1083.92 1428.14 1085.52 1426.67 1087.25C1426.27 1087.78 1425.74 1088.32 1425.34 1088.85C1424.8 1089.65 1424.27 1090.45 1423.87 1091.25C1420.14 1097.78 1419.2 1106.05 1421.34 1114.32C1423.2 1121.78 1428.27 1135.52 1434 1152.05C1439.74 1168.58 1446.14 1187.92 1451.2 1206.72C1453.74 1216.05 1456.14 1225.25 1458 1233.78C1460 1242.32 1461.6 1250.05 1462.8 1256.85C1464.14 1263.52 1465.07 1268.98 1465.6 1272.85C1466.27 1276.72 1466.54 1278.85 1466.54 1278.85C1466.54 1278.85 1466.4 1276.72 1466 1272.98C1465.74 1269.25 1465.2 1263.78 1464.8 1257.12C1464.4 1250.45 1464 1242.58 1463.87 1234.05C1463.74 1225.52 1463.6 1216.05 1463.87 1206.45C1464 1201.65 1464.14 1196.72 1464.27 1191.92C1464.4 1186.98 1464.67 1182.18 1464.94 1177.38C1465.47 1167.78 1466.27 1158.32 1466.94 1149.52C1468.4 1131.92 1470 1116.98 1470 1108.58C1470 1100.05 1467.2 1092.32 1462 1086.85C1460.94 1085.12 1459.47 1083.78 1458 1082.85Z" fill="#E7EBF2"/>
</g>
<defs>
<clipPath id="clip0_399_188">
<rect width="1440" height="1634" fill="white"/>
</clipPath>
</defs>
</svg>
