<svg width="376" height="2799" viewBox="0 0 376 2799" fill="none" xmlns="http://www.w3.org/2000/svg">
<g clip-path="url(#clip0_399_542)">
<rect width="376" height="2799" fill="white"/>
<path d="M-856.06 487.539C-881.678 549.829 -942.12 601.865 -990.743 655.321C-1038.41 707.725 -1098.82 777.045 -1058.87 847.258C-1024.5 907.664 -919.527 948.722 -832.468 968.242C-742.71 988.359 -652.042 995.625 -562.169 1007.14C-520.317 1012.5 -478.229 1018.57 -436.534 1027.85C-389.361 1038.36 -347.992 1054.55 -305.503 1074.99C-148.785 1150.45 -3.9502 1242.9 135.651 1333.64C243.213 1403.57 348.675 1475.56 454.909 1546.77C495.538 1574.02 536.21 1601.27 578.071 1627.61C603.134 1643.36 629.578 1661.02 658.658 1672.41C666.02 1675.29 672.318 1676.42 673.696 1673.46C680.559 1658.75 656.227 1629.71 643.712 1613.77C622.583 1586.87 594.154 1561.5 565.278 1537.29C390.701 1390.92 181.704 1254.38 -34.8404 1136.87C-102.765 1100.02 -179.03 1056.95 -258.007 1036.73C-323.806 1019.89 -391.41 1012.72 -457.576 1005.15C-601.222 988.734 -859.138 960.278 -885.471 832.351C-899.48 764.277 -867.046 698.482 -835.353 638.318C-805.559 581.721 -760.11 522.261 -762.092 457.439C-763.668 405.82 -799.968 345.671 -838.577 295.923C-883.253 238.377 -946.8 185.204 -1018.54 140.58C-1038.59 128.115 -1061.71 114.505 -1086.12 107.407C-1127.64 95.3297 -1099.47 126.59 -1087.48 138.146C-1064.02 160.748 -1035.98 181.459 -1012.11 203.702C-953.066 258.695 -900.39 317.35 -869.198 379.001C-849.33 418.307 -841.467 452.054 -856.06 487.539Z" fill="#E8ECF4"/>
<g clip-path="url(#clip1_399_542)">
<path d="M370.674 2662.56C368.841 2667.42 366.626 2673.18 363.876 2679.39C361.203 2685.59 358.071 2692.25 354.634 2698.98C352.953 2702.34 351.12 2705.78 349.287 2709.15C348.37 2710.87 347.454 2712.51 346.461 2714.23C345.544 2715.88 344.551 2717.6 343.635 2719.24C339.816 2725.82 335.844 2732.25 332.101 2738.16C328.358 2744.07 324.845 2749.45 321.942 2754.16C318.963 2758.8 316.595 2762.76 315.144 2765.75C313.693 2768.74 312.929 2771.96 313.005 2775.17C313.082 2778.39 313.922 2781.6 315.526 2784.67C315.908 2785.41 316.366 2786.16 316.901 2786.91C317.359 2787.66 317.97 2788.33 318.505 2789C319.651 2790.35 321.025 2791.69 322.553 2792.82C324.081 2794.01 325.761 2794.98 327.518 2795.88C328.435 2796.33 329.351 2796.78 330.344 2797.15C331.337 2797.53 332.33 2797.83 333.323 2798.12C335.385 2798.65 337.448 2799.02 339.434 2799.17C341.42 2799.32 343.406 2799.25 345.315 2799.02C347.225 2798.8 349.058 2798.35 350.815 2797.75C352.572 2797.15 354.176 2796.41 355.627 2795.51C358.606 2793.71 361.05 2791.32 362.731 2788.63C364.487 2785.94 365.557 2782.8 365.862 2779.51C366.473 2773.53 365.939 2762.08 365.709 2748.33C365.633 2744.89 365.633 2741.3 365.633 2737.63C365.633 2733.97 365.633 2730.23 365.786 2726.34C365.939 2718.72 366.321 2710.87 366.932 2703.31C367.543 2695.76 368.383 2688.29 369.299 2681.56C370.216 2674.75 371.285 2668.62 372.355 2663.39C373.348 2658.15 374.341 2653.89 375.028 2650.9C375.716 2647.91 376.174 2646.26 376.174 2646.26C376.174 2646.26 375.716 2647.83 374.799 2650.68C373.882 2653.59 372.508 2657.63 370.674 2662.56Z" fill="#E7EBF2"/>
<path d="M337.267 2685.37C338.947 2683.2 340.628 2680.96 342.308 2678.79C343.989 2676.62 345.746 2674.38 347.502 2672.28C350.94 2668.02 354.453 2663.91 357.738 2660.25C359.342 2658.38 360.946 2656.66 362.473 2655.01C364.001 2653.37 365.452 2651.8 366.751 2650.45C369.424 2647.68 371.639 2645.44 373.167 2643.87C374.771 2642.3 375.611 2641.48 375.611 2641.48C375.611 2641.48 374.695 2642.3 373.091 2643.65C371.487 2645.07 369.042 2647.09 366.14 2649.4C360.258 2654.11 352.085 2660.4 342.996 2666.6C333.983 2672.81 324.129 2678.86 315.498 2684.02C306.867 2689.18 299.457 2693.37 295.562 2696.14C293.576 2697.56 291.896 2699.2 290.673 2701.07C289.375 2702.94 288.611 2704.88 288.229 2706.98C288.076 2708.02 288 2709.07 288 2710.12C288 2710.64 288.076 2711.17 288.153 2711.69C288.229 2712.21 288.382 2712.74 288.535 2713.18C288.84 2714.16 289.222 2715.2 289.757 2716.1C289.986 2716.55 290.291 2717 290.597 2717.45C290.903 2717.89 291.284 2718.27 291.666 2718.72C292.43 2719.54 293.27 2720.21 294.187 2720.81C294.416 2720.96 294.645 2721.11 294.874 2721.26C295.104 2721.41 295.333 2721.48 295.562 2721.63C296.02 2721.86 296.555 2722.08 297.09 2722.23C299.152 2722.9 301.214 2723.2 303.353 2722.9C307.63 2722.38 311.755 2720.14 314.887 2716.47C317.713 2713.18 322.296 2706.38 328.025 2698.3C330.851 2694.12 333.983 2689.78 337.267 2685.37Z" fill="#E7EBF2"/>
<path d="M269.444 2597.96C271.889 2601.48 275.86 2604.02 280.596 2604.99C284.874 2605.89 293.199 2606.78 303.129 2608.06C308.094 2608.73 313.441 2609.4 318.94 2610.3C324.44 2611.12 330.092 2612.09 335.592 2613.22C341.091 2614.26 346.362 2615.46 351.174 2616.58C356.063 2617.7 360.493 2618.9 364.236 2619.94C367.978 2620.99 371.034 2621.89 373.172 2622.56C375.311 2623.23 376.457 2623.61 376.457 2623.61C376.457 2623.61 375.311 2623.16 373.249 2622.41C372.256 2622.04 371.034 2621.51 369.582 2620.99C368.131 2620.39 366.603 2619.79 364.847 2619.05C357.819 2616.13 348.424 2611.87 338.647 2606.78C328.947 2601.77 318.864 2596.02 310.233 2590.78C301.601 2585.62 294.421 2581.06 290.068 2578.97C285.714 2576.8 280.978 2576.28 276.853 2577.55C272.729 2578.75 269.291 2581.74 267.764 2585.92C267.382 2586.97 267.153 2588.02 267.076 2589.06C267 2589.59 267 2590.11 267 2590.63C267 2591.16 267.076 2591.68 267.153 2592.2C267.458 2594.22 268.222 2596.24 269.444 2597.96Z" fill="#E7EBF2"/>
<path d="M320.2 2651.12C327.304 2648.21 334.484 2645.52 341.053 2643.2C347.622 2640.96 353.733 2639.01 358.927 2637.52C364.121 2636.02 368.474 2634.9 371.453 2634.15C374.432 2633.4 376.189 2633.03 376.189 2633.03C376.189 2633.03 374.509 2633.33 371.53 2633.85C370.002 2634.08 368.169 2634.37 366.107 2634.67C363.968 2634.97 361.6 2635.35 358.927 2635.65C353.656 2636.32 347.393 2636.99 340.518 2637.44C333.644 2637.96 326.158 2638.26 318.52 2638.34C314.701 2638.41 310.729 2638.41 306.833 2638.34C302.938 2638.26 298.966 2638.19 295.07 2638.04C287.356 2637.74 279.717 2637.22 272.614 2636.69C258.483 2635.65 246.567 2634.38 239.769 2634.6C236.332 2634.67 233.124 2635.57 230.221 2637.07C227.319 2638.56 224.798 2640.81 222.812 2643.57C222.277 2644.25 221.819 2644.99 221.361 2645.74C220.903 2646.49 220.521 2647.31 220.215 2648.13C219.528 2649.78 218.917 2651.5 218.535 2653.37C218.153 2655.24 218 2657.11 218 2659.12C218 2660.1 218.076 2661.14 218.153 2662.12C218.229 2663.09 218.458 2664.13 218.687 2665.18C219.146 2667.2 219.757 2669.14 220.521 2671.01C221.361 2672.81 222.277 2674.53 223.347 2676.1C224.416 2677.67 225.638 2679.09 227.013 2680.28C228.312 2681.56 229.763 2682.6 231.214 2683.5C234.193 2685.29 237.478 2686.34 240.686 2686.57C243.97 2686.86 247.255 2686.34 250.463 2685.14C256.191 2682.98 266.35 2677.22 278.724 2670.71C281.856 2669.07 285.064 2667.42 288.425 2665.7C291.786 2664.06 295.223 2662.34 298.737 2660.69C305.764 2657.33 313.02 2654.11 320.2 2651.12Z" fill="#E7EBF2"/>
<path d="M272.313 2529.17C276.896 2533.21 286.597 2539.49 298.131 2547.42C303.859 2551.38 310.047 2555.72 316.234 2560.35C319.289 2562.67 322.421 2565.06 325.552 2567.45C328.608 2569.85 331.663 2572.31 334.642 2574.86C340.6 2579.79 346.176 2584.73 351.217 2589.51C356.258 2594.22 360.765 2598.71 364.431 2602.6C366.264 2604.54 367.945 2606.34 369.396 2607.91C370.847 2609.48 372.146 2610.9 373.139 2612.02C375.201 2614.34 376.271 2615.61 376.271 2615.61C376.271 2615.61 375.278 2614.26 373.444 2611.87C371.688 2609.48 369.091 2605.96 366.112 2601.63C365.348 2600.58 364.584 2599.38 363.82 2598.19C363.056 2596.99 362.216 2595.79 361.376 2594.52C359.695 2591.98 357.939 2589.21 356.182 2586.37C354.425 2583.46 352.592 2580.46 350.759 2577.25C348.925 2574.11 347.092 2570.82 345.335 2567.45C341.745 2560.8 338.308 2553.85 335.1 2546.89C331.892 2539.94 328.913 2533.13 326.24 2526.7C320.893 2513.92 316.615 2502.85 313.407 2497.02C311.803 2494.1 309.588 2491.64 306.838 2489.84C305.464 2488.94 304.012 2488.12 302.485 2487.52C301.721 2487.22 300.881 2486.93 300.04 2486.78C299.658 2486.7 299.2 2486.55 298.818 2486.48C298.436 2486.4 297.978 2486.33 297.52 2486.25C295.839 2486.03 294.006 2485.95 292.173 2486.03C291.256 2486.1 290.34 2486.18 289.423 2486.33C288.507 2486.48 287.59 2486.7 286.673 2486.93C284.84 2487.45 283.007 2488.12 281.174 2489.02C279.341 2489.92 277.66 2491.04 275.98 2492.31C275.139 2492.98 274.376 2493.65 273.612 2494.33C272.848 2495.08 272.161 2495.75 271.549 2496.57C270.251 2498.07 269.105 2499.64 268.189 2501.28C267.272 2502.93 266.585 2504.65 266.05 2506.37C265.515 2508.09 265.133 2509.73 265.057 2511.45C264.828 2514.89 265.286 2518.18 266.508 2521.1C267.807 2524.24 269.716 2526.93 272.313 2529.17Z" fill="#E7EBF2"/>
<path d="M368.65 2502.18C367.733 2501.58 366.816 2501.13 365.823 2500.76C364.83 2500.38 363.761 2500.16 362.692 2500.01C361.622 2499.86 360.477 2499.94 359.407 2500.01C358.261 2500.16 357.192 2500.38 356.199 2500.76C355.283 2501.13 354.366 2501.58 353.602 2502.1C352.533 2502.78 351.54 2503.67 350.7 2504.65C350.47 2504.95 350.165 2505.24 349.936 2505.54C349.63 2505.99 349.325 2506.44 349.096 2506.89C346.957 2510.55 346.422 2515.19 347.644 2519.83C348.714 2524.01 351.616 2531.71 354.901 2540.99C358.185 2550.26 361.851 2561.1 364.754 2571.64C366.205 2576.88 367.58 2582.03 368.65 2586.82C369.795 2591.61 370.712 2595.94 371.399 2599.76C372.163 2603.49 372.698 2606.56 373.003 2608.73C373.385 2610.9 373.538 2612.09 373.538 2612.09C373.538 2612.09 373.462 2610.9 373.233 2608.8C373.08 2606.71 372.774 2603.64 372.545 2599.91C372.316 2596.17 372.087 2591.76 372.01 2586.97C371.934 2582.18 371.858 2576.88 372.01 2571.49C372.087 2568.8 372.163 2566.03 372.24 2563.34C372.316 2560.58 372.469 2557.88 372.621 2555.19C372.927 2549.81 373.385 2544.5 373.767 2539.56C374.607 2529.69 375.524 2521.32 375.524 2516.61C375.524 2511.82 373.92 2507.49 370.941 2504.42C370.33 2503.45 369.49 2502.7 368.65 2502.18Z" fill="#E7EBF2"/>
</g>
</g>
<defs>
<clipPath id="clip0_399_542">
<rect width="376" height="2799" fill="white"/>
</clipPath>
<clipPath id="clip1_399_542">
<rect width="175.299" height="313.249" fill="white" transform="translate(201 2486)"/>
</clipPath>
</defs>
</svg>
