<svg width="1440" height="909" viewBox="0 0 1440 909" fill="none" xmlns="http://www.w3.org/2000/svg">
<g clip-path="url(#clip0_399_318)">
<rect width="1440" height="909" fill="#C5E8F5"/>
<g opacity="0.4">
<path d="M1427.27 661.02C1424.87 667.553 1421.93 675.286 1418.47 683.553C1415 691.953 1410.87 700.753 1406.33 709.82C1404.07 714.353 1401.8 718.886 1399.4 723.42C1398.2 725.686 1397 727.953 1395.67 730.22C1394.47 732.486 1393.13 734.62 1391.93 736.886C1386.87 745.686 1381.8 754.22 1376.87 762.086C1371.93 769.953 1367.4 777.153 1363.53 783.42C1359.67 789.686 1356.6 794.886 1354.6 798.886C1352.73 802.886 1351.67 807.153 1351.8 811.553C1351.93 815.82 1353 820.086 1355.13 824.22C1355.67 825.286 1356.2 826.22 1356.87 827.153C1357.53 828.087 1358.2 829.02 1359 829.953C1360.6 831.82 1362.33 833.553 1364.33 835.153C1366.33 836.753 1368.47 838.086 1370.87 839.286C1372.07 839.953 1373.27 840.486 1374.47 840.886C1375.67 841.42 1377 841.82 1378.33 842.22C1381 842.886 1383.67 843.42 1386.33 843.686C1389 843.82 1391.53 843.82 1394.07 843.42C1396.6 843.153 1399 842.486 1401.27 841.686C1403.53 840.886 1405.67 839.953 1407.53 838.753C1411.4 836.353 1414.6 833.153 1416.87 829.553C1419.13 825.953 1420.6 821.82 1421 817.286C1421.8 809.286 1421.13 793.953 1420.87 775.553C1420.73 771.02 1420.73 766.22 1420.73 761.286C1420.73 756.353 1420.73 751.42 1420.87 746.22C1421.13 735.953 1421.53 725.553 1422.33 715.42C1423.13 705.286 1424.2 695.42 1425.4 686.353C1426.6 677.286 1428.07 669.02 1429.4 662.086C1430.73 655.02 1431.93 649.42 1432.87 645.42C1433.8 641.42 1434.33 639.286 1434.33 639.286C1434.33 639.286 1433.67 641.42 1432.47 645.153C1431.4 649.153 1429.53 654.486 1427.27 661.02Z" fill="#46B8E1"/>
<path d="M1373.4 691.686C1375.53 688.753 1377.8 685.82 1379.93 682.886C1382.2 679.953 1384.47 677.02 1386.73 674.22C1391.27 668.486 1395.8 663.02 1400.07 658.086C1402.2 655.553 1404.33 653.286 1406.2 651.02C1408.2 648.753 1410.07 646.753 1411.8 644.886C1415.27 641.153 1418.2 638.22 1420.2 636.086C1422.2 634.086 1423.4 632.886 1423.4 632.886C1423.4 632.886 1422.2 633.953 1420.07 635.82C1417.93 637.686 1414.73 640.353 1411 643.553C1403.27 649.953 1392.6 658.22 1380.73 666.486C1369 674.753 1356.07 682.886 1344.73 689.82C1333.4 696.62 1323.8 702.22 1318.6 706.086C1316.07 707.953 1313.8 710.22 1312.2 712.62C1310.6 715.153 1309.4 717.82 1309 720.486C1308.73 721.82 1308.6 723.286 1308.73 724.62C1308.73 725.286 1308.87 726.086 1308.87 726.753C1309 727.42 1309.13 728.086 1309.27 728.753C1309.67 730.086 1310.2 731.42 1310.87 732.62C1311.27 733.286 1311.53 733.82 1312.07 734.486C1312.47 735.02 1313 735.686 1313.53 736.22C1314.6 737.286 1315.67 738.22 1316.87 739.02C1317.13 739.153 1317.4 739.42 1317.8 739.553C1318.07 739.686 1318.47 739.82 1318.73 740.086C1319.4 740.353 1320.07 740.62 1320.73 740.886C1323.4 741.82 1326.2 742.086 1329 741.82C1334.6 741.153 1339.93 738.086 1344.07 733.153C1347.8 728.753 1353.8 719.686 1361.27 708.886C1365 703.286 1369.13 697.553 1373.4 691.686Z" fill="#46B8E1"/>
<path d="M1278.47 574.753C1281.67 579.42 1286.87 582.753 1293.13 584.22C1298.73 585.42 1309.67 586.62 1322.6 588.353C1329.13 589.153 1336.07 590.22 1343.4 591.286C1350.6 592.486 1357.93 593.686 1365.13 595.153C1372.33 596.62 1379.27 598.086 1385.53 599.686C1391.93 601.286 1397.67 602.753 1402.6 604.22C1407.53 605.553 1411.53 606.886 1414.33 607.686C1417.13 608.62 1418.6 609.02 1418.6 609.02C1418.6 609.02 1417.13 608.486 1414.47 607.42C1413.13 606.886 1411.53 606.22 1409.67 605.42C1407.8 604.62 1405.67 603.82 1403.4 602.753C1394.2 598.886 1381.93 593.153 1369.13 586.353C1356.47 579.686 1343.27 571.953 1331.93 565.02C1320.6 558.086 1311.27 552.086 1305.53 549.153C1299.8 546.22 1293.53 545.553 1288.2 547.286C1282.73 548.886 1278.33 552.886 1276.33 558.486C1275.8 559.953 1275.53 561.286 1275.4 562.753C1275.27 563.42 1275.27 564.22 1275.27 564.886C1275.27 565.553 1275.4 566.353 1275.4 567.02C1275.93 569.82 1276.87 572.353 1278.47 574.753Z" fill="#46B8E1"/>
<path d="M1344.47 645.82C1353.8 641.82 1363.13 638.353 1371.8 635.286C1380.47 632.22 1388.33 629.686 1395.27 627.686C1402.07 625.686 1407.8 624.22 1411.67 623.153C1415.67 622.22 1417.8 621.686 1417.8 621.686C1417.8 621.686 1415.67 622.086 1411.67 622.753C1409.67 623.02 1407.27 623.42 1404.6 623.82C1401.8 624.22 1398.73 624.62 1395.27 625.153C1388.33 626.087 1380.2 626.886 1371.13 627.553C1362.07 628.22 1352.33 628.62 1342.33 628.753C1337.27 628.886 1332.2 628.886 1327 628.753C1321.8 628.62 1316.73 628.486 1311.67 628.353C1301.53 627.953 1291.53 627.286 1282.33 626.62C1263.8 625.153 1248.2 623.553 1239.4 623.82C1234.87 623.953 1230.73 625.02 1226.87 627.153C1223.13 629.153 1219.8 632.087 1217.13 635.82C1216.47 636.753 1215.8 637.686 1215.27 638.753C1214.73 639.82 1214.2 640.886 1213.8 641.953C1212.87 644.086 1212.2 646.486 1211.67 649.02C1211.13 651.42 1211 654.086 1211 656.753C1211 658.086 1211.13 659.42 1211.13 660.753C1211.27 662.086 1211.53 663.42 1211.8 664.753C1212.33 667.42 1213.13 670.087 1214.2 672.487C1215.27 674.887 1216.47 677.153 1217.93 679.286C1219.27 681.42 1221 683.286 1222.73 684.886C1224.47 686.486 1226.33 687.953 1228.2 689.153C1232.07 691.553 1236.33 692.886 1240.6 693.286C1244.87 693.686 1249.13 693.02 1253.4 691.42C1260.87 688.486 1274.2 680.886 1290.33 672.086C1294.33 669.953 1298.6 667.686 1303 665.42C1307.4 663.153 1311.8 660.886 1316.47 658.62C1325.53 654.086 1335.13 649.82 1344.47 645.82Z" fill="#46B8E1"/>
<path d="M1290.06 482.753C1296.06 488.086 1308.73 496.486 1323.8 507.153C1331.26 512.486 1339.4 518.353 1347.53 524.486C1351.53 527.553 1355.66 530.753 1359.66 533.953C1363.66 537.153 1367.66 540.486 1371.53 543.82C1379.26 550.486 1386.6 557.02 1393.26 563.42C1399.93 569.82 1405.8 575.819 1410.6 580.886C1413 583.419 1415.26 585.82 1417.13 587.953C1419 590.086 1420.73 591.953 1422.06 593.42C1424.73 596.486 1426.2 598.219 1426.2 598.219C1426.2 598.219 1424.86 596.486 1422.46 593.286C1420.06 590.086 1416.73 585.42 1412.86 579.686C1411.93 578.22 1410.86 576.753 1409.8 575.153C1408.73 573.553 1407.66 571.953 1406.6 570.219C1404.46 566.753 1402.2 563.153 1399.8 559.286C1397.53 555.42 1395.13 551.42 1392.73 547.153C1390.33 542.886 1387.93 538.486 1385.66 534.086C1381 525.153 1376.46 515.82 1372.2 506.62C1367.93 497.286 1364.06 488.219 1360.6 479.553C1353.53 462.486 1348.06 447.686 1343.8 439.953C1341.66 436.086 1338.73 432.753 1335.26 430.353C1333.53 429.153 1331.53 428.086 1329.53 427.286C1328.46 426.886 1327.4 426.486 1326.33 426.219C1325.8 426.086 1325.26 425.953 1324.73 425.82C1324.2 425.686 1323.66 425.553 1323.13 425.553C1320.86 425.286 1318.6 425.153 1316.2 425.286C1315 425.42 1313.8 425.553 1312.6 425.686C1311.4 425.82 1310.2 426.22 1309 426.486C1306.6 427.153 1304.2 428.086 1301.8 429.286C1299.4 430.486 1297.13 431.953 1295 433.686C1293.93 434.486 1292.86 435.42 1291.93 436.353C1291 437.286 1290.06 438.353 1289.26 439.286C1287.53 441.286 1286.06 443.419 1284.86 445.553C1283.66 447.819 1282.73 450.086 1282.06 452.353C1281.4 454.62 1280.86 456.886 1280.73 459.153C1280.33 463.686 1281 468.086 1282.6 472.086C1284.2 476.22 1286.73 479.82 1290.06 482.753Z" fill="#46B8E1"/>
<path d="M1431.13 446.62C1429.93 445.82 1428.73 445.286 1427.4 444.753C1426.07 444.22 1424.73 443.953 1423.27 443.686C1421.8 443.553 1420.47 443.553 1418.87 443.686C1417.4 443.82 1415.93 444.22 1414.6 444.753C1413.4 445.153 1412.2 445.82 1411.13 446.487C1409.67 447.42 1408.47 448.62 1407.27 449.82C1407 450.22 1406.6 450.62 1406.33 451.02C1405.93 451.553 1405.53 452.22 1405.27 452.753C1402.47 457.686 1401.8 463.82 1403.4 470.086C1404.73 475.686 1408.6 485.953 1412.87 498.353C1417.13 510.753 1421.93 525.286 1425.8 539.42C1427.8 546.486 1429.53 553.286 1431 559.686C1432.47 566.086 1433.67 571.953 1434.6 576.886C1435.53 581.953 1436.33 586.086 1436.73 588.886C1437.13 591.82 1437.4 593.42 1437.4 593.42C1437.4 593.42 1437.27 591.82 1437 589.02C1436.73 586.22 1436.47 582.087 1436.07 577.153C1435.8 572.087 1435.53 566.353 1435.4 559.82C1435.27 553.42 1435.27 546.353 1435.4 539.153C1435.53 535.553 1435.53 531.82 1435.67 528.22C1435.8 524.486 1436.07 520.886 1436.2 517.286C1436.6 510.086 1437.13 502.886 1437.8 496.353C1438.87 483.153 1440.07 471.953 1440.07 465.686C1440.07 459.286 1437.93 453.553 1434.07 449.42C1433.27 448.353 1432.2 447.42 1431.13 446.62Z" fill="#46B8E1"/>
</g>
</g>
<defs>
<clipPath id="clip0_399_318">
<rect width="1440" height="909" fill="white"/>
</clipPath>
</defs>
</svg>
