<svg width="376" height="890" viewBox="0 0 376 890" fill="none" xmlns="http://www.w3.org/2000/svg">
<rect width="376" height="890" fill="#C5E8F5"/>
<g opacity="0.4" clip-path="url(#clip0_399_433)">
<path d="M369.13 737.893C367.93 741.159 366.463 745.026 364.73 749.159C362.996 753.359 360.93 757.759 358.663 762.293C357.53 764.559 356.396 766.826 355.196 769.093C354.596 770.226 353.996 771.359 353.33 772.493C352.73 773.626 352.063 774.693 351.463 775.826C348.93 780.226 346.396 784.493 343.93 788.426C341.463 792.359 339.196 795.959 337.263 799.093C335.33 802.226 333.796 804.826 332.796 806.826C331.863 808.826 331.33 810.959 331.396 813.159C331.463 815.293 331.996 817.426 333.063 819.493C333.33 820.026 333.596 820.493 333.93 820.959C334.263 821.426 334.596 821.893 334.996 822.359C335.796 823.293 336.663 824.159 337.663 824.959C338.663 825.759 339.73 826.426 340.93 827.026C341.53 827.359 342.13 827.626 342.73 827.826C343.33 828.093 343.996 828.293 344.663 828.493C345.996 828.826 347.33 829.093 348.663 829.226C349.996 829.293 351.263 829.293 352.53 829.093C353.796 828.959 354.996 828.626 356.13 828.226C357.263 827.826 358.33 827.359 359.263 826.759C361.196 825.559 362.796 823.959 363.93 822.159C365.063 820.359 365.796 818.293 365.996 816.026C366.396 812.026 366.063 804.359 365.93 795.159C365.863 792.893 365.863 790.493 365.863 788.026C365.863 785.559 365.863 783.093 365.93 780.493C366.063 775.359 366.263 770.159 366.663 765.093C367.063 760.026 367.596 755.093 368.196 750.559C368.796 746.026 369.53 741.893 370.196 738.426C370.863 734.893 371.463 732.093 371.93 730.093C372.396 728.093 372.663 727.026 372.663 727.026C372.663 727.026 372.33 728.093 371.73 729.959C371.196 731.959 370.263 734.626 369.13 737.893Z" fill="#46B8E1"/>
<path d="M342.203 753.226C343.27 751.759 344.403 750.293 345.47 748.826C346.603 747.359 347.737 745.893 348.87 744.493C351.137 741.626 353.403 738.893 355.537 736.426C356.603 735.159 357.67 734.026 358.603 732.893C359.603 731.759 360.537 730.759 361.403 729.826C363.137 727.959 364.603 726.493 365.603 725.426C366.603 724.426 367.203 723.826 367.203 723.826C367.203 723.826 366.603 724.359 365.537 725.293C364.47 726.226 362.87 727.559 361.003 729.159C357.137 732.359 351.803 736.493 345.87 740.626C340.003 744.759 333.537 748.826 327.87 752.293C322.203 755.693 317.403 758.493 314.803 760.426C313.537 761.359 312.403 762.493 311.603 763.693C310.803 764.959 310.203 766.293 310.003 767.626C309.87 768.293 309.803 769.026 309.87 769.693C309.87 770.026 309.937 770.426 309.937 770.759C310.003 771.093 310.07 771.426 310.137 771.759C310.337 772.426 310.603 773.093 310.937 773.693C311.137 774.026 311.27 774.293 311.537 774.626C311.737 774.893 312.003 775.226 312.27 775.493C312.803 776.026 313.337 776.493 313.937 776.893C314.07 776.959 314.203 777.093 314.403 777.159C314.537 777.226 314.737 777.293 314.87 777.426C315.203 777.559 315.537 777.693 315.87 777.826C317.203 778.293 318.603 778.426 320.003 778.293C322.803 777.959 325.47 776.426 327.537 773.959C329.403 771.759 332.403 767.226 336.137 761.826C338.003 759.026 340.07 756.159 342.203 753.226Z" fill="#46B8E1"/>
<path d="M294.733 694.759C296.333 697.093 298.933 698.759 302.066 699.493C304.866 700.093 310.333 700.693 316.799 701.559C320.066 701.959 323.533 702.493 327.2 703.026C330.8 703.626 334.466 704.226 338.066 704.959C341.666 705.693 345.133 706.426 348.266 707.226C351.466 708.026 354.333 708.759 356.8 709.493C359.266 710.159 361.266 710.826 362.666 711.226C364.066 711.693 364.8 711.893 364.8 711.893C364.8 711.893 364.066 711.626 362.733 711.093C362.066 710.826 361.266 710.493 360.333 710.093C359.399 709.693 358.333 709.293 357.2 708.759C352.6 706.826 346.466 703.959 340.066 700.559C333.733 697.226 327.133 693.359 321.466 689.893C315.799 686.426 311.133 683.426 308.266 681.959C305.399 680.493 302.266 680.159 299.599 681.026C296.866 681.826 294.666 683.826 293.666 686.626C293.399 687.359 293.266 688.026 293.2 688.759C293.133 689.093 293.133 689.493 293.133 689.826C293.133 690.159 293.2 690.559 293.2 690.893C293.466 692.293 293.933 693.559 294.733 694.759Z" fill="#46B8E1"/>
<path d="M327.733 730.293C332.4 728.293 337.067 726.559 341.4 725.026C345.733 723.493 349.667 722.226 353.133 721.226C356.533 720.226 359.4 719.493 361.333 718.959C363.333 718.493 364.4 718.226 364.4 718.226C364.4 718.226 363.333 718.426 361.333 718.759C360.333 718.893 359.133 719.093 357.8 719.293C356.4 719.493 354.867 719.693 353.133 719.959C349.667 720.426 345.6 720.826 341.067 721.159C336.533 721.493 331.667 721.693 326.667 721.759C324.133 721.826 321.6 721.826 319 721.759C316.4 721.693 313.867 721.626 311.333 721.559C306.267 721.359 301.267 721.026 296.667 720.693C287.4 719.959 279.6 719.159 275.2 719.293C272.933 719.359 270.867 719.893 268.933 720.959C267.067 721.959 265.4 723.426 264.067 725.293C263.733 725.759 263.4 726.226 263.133 726.759C262.867 727.293 262.6 727.826 262.4 728.359C261.933 729.426 261.6 730.626 261.333 731.893C261.067 733.093 261 734.426 261 735.759C261 736.426 261.067 737.093 261.067 737.759C261.133 738.426 261.267 739.093 261.4 739.759C261.667 741.093 262.067 742.426 262.6 743.626C263.133 744.826 263.733 745.959 264.467 747.026C265.133 748.093 266 749.026 266.867 749.826C267.733 750.626 268.667 751.359 269.6 751.959C271.533 753.159 273.667 753.826 275.8 754.026C277.933 754.226 280.067 753.893 282.2 753.093C285.933 751.626 292.6 747.826 300.667 743.426C302.667 742.359 304.8 741.226 307 740.093C309.2 738.959 311.4 737.826 313.733 736.693C318.267 734.426 323.067 732.293 327.733 730.293Z" fill="#46B8E1"/>
<path d="M300.536 648.759C303.536 651.426 309.869 655.626 317.403 660.959C321.136 663.626 325.203 666.559 329.269 669.626C331.269 671.159 333.336 672.759 335.336 674.359C337.336 675.959 339.336 677.626 341.269 679.293C345.136 682.626 348.803 685.893 352.136 689.093C355.469 692.293 358.403 695.293 360.803 697.826C362.003 699.093 363.136 700.293 364.069 701.359C365.002 702.426 365.869 703.359 366.536 704.093C367.869 705.626 368.603 706.493 368.603 706.493C368.603 706.493 367.936 705.626 366.736 704.026C365.536 702.426 363.869 700.093 361.936 697.226C361.469 696.493 360.936 695.759 360.402 694.959C359.869 694.159 359.336 693.359 358.803 692.493C357.736 690.759 356.602 688.959 355.402 687.026C354.269 685.093 353.069 683.093 351.869 680.959C350.669 678.826 349.469 676.626 348.336 674.426C346.002 669.959 343.736 665.293 341.603 660.693C339.469 656.026 337.536 651.493 335.803 647.159C332.269 638.626 329.536 631.226 327.403 627.359C326.336 625.426 324.869 623.759 323.136 622.559C322.269 621.959 321.269 621.426 320.269 621.026C319.736 620.826 319.202 620.626 318.669 620.493C318.402 620.426 318.136 620.359 317.869 620.293C317.603 620.226 317.336 620.159 317.069 620.159C315.936 620.026 314.803 619.959 313.603 620.026C313.003 620.093 312.403 620.159 311.803 620.226C311.203 620.293 310.602 620.493 310.002 620.626C308.802 620.959 307.603 621.426 306.403 622.026C305.203 622.626 304.069 623.359 303.003 624.226C302.469 624.626 301.936 625.093 301.469 625.559C301.003 626.026 300.536 626.559 300.136 627.026C299.269 628.026 298.536 629.093 297.936 630.159C297.336 631.293 296.869 632.426 296.536 633.559C296.203 634.693 295.936 635.826 295.869 636.959C295.669 639.226 296.003 641.426 296.803 643.426C297.603 645.493 298.869 647.293 300.536 648.759Z" fill="#46B8E1"/>
<path d="M371.067 630.693C370.467 630.293 369.867 630.026 369.2 629.759C368.533 629.493 367.867 629.359 367.133 629.226C366.4 629.159 365.733 629.159 364.933 629.226C364.2 629.293 363.467 629.493 362.8 629.759C362.2 629.959 361.6 630.293 361.067 630.626C360.333 631.093 359.733 631.693 359.133 632.293C359 632.493 358.8 632.693 358.667 632.893C358.467 633.159 358.267 633.493 358.133 633.759C356.733 636.226 356.4 639.293 357.2 642.426C357.867 645.226 359.8 650.359 361.933 656.559C364.067 662.759 366.467 670.026 368.4 677.093C369.4 680.626 370.267 684.026 371 687.226C371.733 690.426 372.333 693.359 372.8 695.826C373.267 698.359 373.667 700.426 373.867 701.826C374.067 703.293 374.2 704.093 374.2 704.093C374.2 704.093 374.133 703.293 374 701.893C373.867 700.493 373.733 698.426 373.533 695.959C373.4 693.426 373.267 690.559 373.2 687.293C373.133 684.093 373.133 680.559 373.2 676.959C373.267 675.159 373.267 673.293 373.333 671.493C373.4 669.626 373.533 667.826 373.6 666.026C373.8 662.426 374.067 658.826 374.4 655.559C374.933 648.959 375.533 643.359 375.533 640.226C375.533 637.026 374.467 634.159 372.533 632.093C372.133 631.559 371.6 631.093 371.067 630.693Z" fill="#46B8E1"/>
</g>
<defs>
<clipPath id="clip0_399_433">
<rect width="114.533" height="209.266" fill="white" transform="translate(261 620)"/>
</clipPath>
</defs>
</svg>
