<svg width="410" height="800" viewBox="0 0 410 800" fill="none" xmlns="http://www.w3.org/2000/svg">
<path fill-rule="evenodd" clip-rule="evenodd" d="M435.403 2615.51V2559.86C435.403 2505.94 435.403 2396.38 362.836 2286.81C290.269 2177.25 145.134 2067.68 156.088 1958.12C165.672 1848.55 332.714 1738.99 353.252 1629.42C373.79 1519.86 249.193 1410.29 249.193 1300.73C249.193 1191.16 373.79 1081.6 342.298 972.032C310.807 862.466 124.597 752.901 135.55 643.336C145.134 533.771 353.252 424.206 362.836 314.64C373.79 205.075 187.579 95.5098 94.4743 39.8577L0 -14.0554H560V39.8577C560 95.5098 560 205.075 560 314.64C560 424.206 560 533.771 560 643.336C560 752.901 560 862.466 560 972.032C560 1081.6 560 1191.16 560 1300.73C560 1410.29 560 1519.86 560 1629.42C560 1738.99 560 1848.55 560 1958.12C560 2067.68 560 2177.25 560 2286.81C560 2396.38 560 2505.94 560 2559.86V2615.51H435.403Z" fill="#4DB8E0"/>
</svg>
