<svg width="280" height="281" viewBox="0 0 280 281" fill="none" xmlns="http://www.w3.org/2000/svg">
<g clip-path="url(#clip0_281_4863)">
<path d="M206.869 235.403C165.795 272.326 102.57 268.961 65.6476 227.887C28.725 186.813 32.0902 123.588 73.1642 86.6652L131.73 34.0189C135.921 30.2512 141.438 28.3028 147.065 28.6024C152.693 28.9019 157.972 31.4249 161.739 35.6162L214.386 94.1818C251.308 135.256 247.943 198.481 206.869 235.403Z" fill="#F1E9C8"/>
<path d="M177.669 150.833H162.379L174.259 138.953L169.089 133.747L152.003 150.833H144.669V143.5L161.756 126.413L156.549 121.243L144.669 133.123V117.833H137.336V133.123L125.456 121.243L120.249 126.413L137.336 143.5V150.833H130.003L112.916 133.747L107.746 138.953L119.626 150.833H104.336V158.167H119.626L107.746 170.047L112.916 175.253L130.003 158.167H137.336V165.5L120.249 182.587L125.456 187.757L137.336 175.877V191.167H144.669V175.877L156.549 187.757L161.756 182.587L144.669 165.5V158.167H152.003L169.089 175.253L174.259 170.047L162.379 158.167H177.669V150.833Z" fill="#D8B30E"/>
</g>
<defs>
<clipPath id="clip0_281_4863">
<rect width="240" height="240" fill="white" transform="translate(131 330.5) rotate(-131.953)"/>
</clipPath>
</defs>
</svg>
