<svg width="210" height="382" viewBox="0 0 210 382" fill="none" xmlns="http://www.w3.org/2000/svg">
<g opacity="0.4">
<path d="M11.9396 215.132C14.0729 221.132 16.7396 228.066 20.0729 235.666C23.2729 243.266 27.0063 251.266 31.1396 259.532C33.1396 263.666 35.2729 267.799 37.5396 271.932C38.6063 273.932 39.8063 276.066 40.8729 278.066C41.9396 280.066 43.1396 282.066 44.3396 284.199C48.8729 292.199 53.5396 300.066 58.0729 307.266C62.6063 314.466 66.7396 320.999 70.2063 326.732C73.6729 332.466 76.6063 337.266 78.3396 340.866C80.0729 344.599 81.0063 348.466 80.8729 352.332C80.8729 356.199 79.8063 360.199 77.8063 363.799C77.2729 364.732 76.7396 365.666 76.2063 366.466C75.6729 367.399 75.0063 368.199 74.2063 368.999C72.7396 370.599 71.1396 372.199 69.4062 373.666C67.6729 375.132 65.5396 376.332 63.4062 377.399C62.3396 377.932 61.2729 378.466 60.0729 378.866C58.8729 379.266 57.6729 379.666 56.4729 380.066C54.0729 380.732 51.5396 381.132 49.1396 381.399C46.7396 381.532 44.3396 381.532 42.0729 381.266C39.8063 380.999 37.6729 380.466 35.5396 379.799C33.5396 379.132 31.5396 378.199 29.8063 377.132C26.2063 374.999 23.4062 372.066 21.2729 368.732C19.1396 365.399 17.9396 361.666 17.5396 357.666C16.8729 350.332 17.4062 336.466 17.6729 319.666C17.6729 315.532 17.8063 311.132 17.8063 306.599C17.8063 302.066 17.8063 297.532 17.6729 292.866C17.4062 283.532 17.0063 274.066 16.3396 264.732C15.6729 255.532 14.6062 246.466 13.5396 238.199C12.4729 229.932 11.1396 222.466 9.93958 216.066C8.73958 209.666 7.53958 204.466 6.73958 200.866C5.93958 197.266 5.40625 195.266 5.40625 195.266C5.40625 195.266 5.93958 197.266 7.13958 200.732C8.20625 204.199 9.80625 209.266 11.9396 215.132Z" fill="#46B8E1"/>
<path d="M61.0062 242.998C59.0062 240.332 57.0062 237.665 55.0062 234.998C53.0062 232.332 50.8729 229.665 48.8729 226.998C44.7396 221.798 40.6062 216.865 36.7396 212.332C34.7396 210.065 32.8729 207.932 31.1396 205.932C29.2729 203.932 27.6729 202.065 26.0729 200.332C22.8729 196.865 20.2062 194.198 18.3396 192.332C16.4729 190.465 15.4062 189.398 15.4062 189.398C15.4062 189.398 16.4729 190.332 18.4729 192.065C20.4729 193.798 23.2729 196.198 26.7396 199.132C33.6729 204.865 43.5396 212.465 54.3396 220.065C65.0062 227.532 76.8729 234.998 87.1396 241.265C97.4062 247.532 106.206 252.598 111.006 256.065C113.406 257.798 115.273 259.798 116.873 262.065C118.34 264.332 119.406 266.732 119.806 269.265C120.073 270.465 120.073 271.798 120.073 273.132C120.073 273.798 119.94 274.465 119.94 274.998C119.806 275.665 119.673 276.198 119.54 276.865C119.14 278.065 118.74 279.265 118.073 280.465C117.806 280.998 117.406 281.665 117.006 282.065C116.606 282.598 116.206 283.132 115.673 283.532C114.74 284.465 113.673 285.398 112.606 286.065C112.34 286.198 112.073 286.465 111.806 286.598C111.54 286.732 111.273 286.865 111.006 286.998C110.473 287.265 109.806 287.532 109.273 287.665C106.873 288.465 104.34 288.865 101.806 288.465C96.7396 287.932 91.8063 285.132 88.0729 280.598C84.7396 276.598 79.1396 268.332 72.3396 258.465C68.6062 253.665 64.8729 248.332 61.0062 242.998Z" fill="#46B8E1"/>
<path d="M147.539 136.465C144.606 140.732 139.939 143.798 134.206 144.998C129.139 146.198 119.139 147.265 107.272 148.732C101.272 149.532 95.0057 150.332 88.3391 151.398C81.8057 152.465 75.0057 153.665 68.4724 154.865C61.9391 156.198 55.6724 157.532 49.8057 158.998C43.9391 160.465 38.7391 161.798 34.2057 163.132C29.6724 164.332 26.0724 165.532 23.5391 166.332C21.0057 167.132 19.5391 167.532 19.5391 167.532C19.5391 167.532 20.8724 166.998 23.2724 166.065C24.4724 165.532 25.9391 164.998 27.6724 164.332C29.4057 163.665 31.2724 162.865 33.4057 161.932C41.8057 158.332 53.0057 153.132 64.6057 146.998C76.2057 140.865 88.2057 133.798 98.4724 127.532C108.739 121.265 117.272 115.665 122.472 113.132C127.672 110.465 133.406 109.798 138.206 111.398C143.139 112.865 147.272 116.465 149.006 121.665C149.406 122.998 149.672 124.198 149.806 125.532C149.939 126.198 149.939 126.865 149.939 127.398C149.939 128.065 149.806 128.732 149.806 129.265C149.939 131.932 149.006 134.332 147.539 136.465Z" fill="#46B8E1"/>
<path d="M87.4016 201.266C78.8682 197.666 70.3349 194.466 62.4682 191.666C54.6016 188.866 47.4016 186.599 41.1349 184.732C34.8682 182.866 29.8016 181.532 26.2016 180.599C22.6016 179.666 20.6016 179.266 20.6016 179.266C20.6016 179.266 22.6016 179.666 26.2016 180.199C27.9349 180.466 30.2016 180.866 32.7349 181.266C35.2682 181.666 38.0682 182.066 41.2682 182.466C47.5349 183.266 55.0016 184.066 63.2682 184.599C71.5349 185.266 80.3349 185.666 89.5349 185.799C94.0682 185.799 98.7349 185.799 103.535 185.799C108.202 185.799 112.868 185.666 117.535 185.399C126.735 184.999 135.802 184.466 144.335 183.799C161.268 182.466 175.402 180.999 183.535 181.266C187.668 181.399 191.402 182.466 195.002 184.199C198.468 186.066 201.402 188.732 203.802 192.066C204.468 192.866 205.002 193.799 205.535 194.732C206.068 195.666 206.468 196.599 206.868 197.666C207.668 199.666 208.335 201.799 208.868 204.066C209.268 206.332 209.535 208.599 209.535 211.132C209.535 212.332 209.535 213.532 209.402 214.732C209.268 215.932 209.002 217.132 208.735 218.466C208.202 220.999 207.535 223.266 206.602 225.532C205.668 227.799 204.468 229.799 203.135 231.666C201.935 233.532 200.335 235.266 198.735 236.732C197.135 238.199 195.402 239.532 193.668 240.599C190.068 242.732 186.202 244.066 182.335 244.332C178.468 244.732 174.468 244.066 170.735 242.599C163.935 239.932 151.802 232.999 137.002 224.999C133.268 222.999 129.402 220.999 125.535 218.999C121.535 216.999 117.402 214.866 113.268 212.866C104.602 208.866 95.9349 204.866 87.4016 201.266Z" fill="#46B8E1"/>
<path d="M137 52.5993C131.533 57.5327 119.933 65.1327 106.2 74.866C99.4 79.666 91.9333 84.9993 84.6 90.5993C80.8667 93.3993 77.1333 96.3327 73.5333 99.266C69.8 102.199 66.2 105.266 62.7333 108.199C55.6667 114.199 49 120.199 43 126.066C37 131.799 31.6667 137.266 27.1333 142.066C24.8667 144.466 22.8667 146.599 21.1333 148.466C19.4 150.466 17.9333 152.066 16.7333 153.533C14.3333 156.333 13 157.933 13 157.933C13 157.933 14.2 156.333 16.3333 153.399C18.4667 150.466 21.5333 146.199 25.1333 140.999C26.0667 139.666 27 138.333 27.9333 136.866C28.8667 135.399 29.8 133.933 30.8667 132.333C32.8667 129.266 34.8667 125.933 37 122.333C39.1333 118.866 41.2667 115.133 43.4 111.266C45.5333 107.399 47.6667 103.399 49.8 99.3993C54.0667 91.266 58.2 82.7327 62.0667 74.3327C65.9333 65.7993 69.4 57.5327 72.6 49.666C79 34.066 84.0667 20.5994 87.9333 13.5327C89.9333 9.93269 92.4667 6.99931 95.6667 4.73264C97.2667 3.66598 99 2.73268 100.867 1.93268C101.8 1.53268 102.733 1.26599 103.8 0.999326C104.333 0.865993 104.733 0.732676 105.267 0.599342C105.8 0.466009 106.333 0.465993 106.733 0.332659C108.733 0.0659926 110.867 -0.067357 113.133 0.0659763C114.2 0.19931 115.267 0.199293 116.467 0.46596C117.533 0.599293 118.6 0.866009 119.8 1.26601C121.933 1.93268 124.2 2.73263 126.333 3.79929C128.467 4.86596 130.467 6.19929 132.467 7.79929C133.4 8.59929 134.333 9.39936 135.267 10.1994C136.2 11.1327 137 11.9327 137.667 12.866C139.267 14.7327 140.6 16.5993 141.667 18.5993C142.733 20.5993 143.667 22.7326 144.2 24.7326C144.867 26.866 145.267 28.866 145.4 30.9993C145.667 35.1327 145.133 39.1326 143.667 42.7326C142.333 46.5993 140.067 49.9327 137 52.5993Z" fill="#46B8E1"/>
<path d="M8.47031 19.7999C9.53698 19.1332 10.6036 18.5999 11.8036 18.0666C13.0036 17.6666 14.2036 17.2665 15.537 17.1332C16.8703 16.9999 18.2036 16.9999 19.537 17.1332C20.8703 17.2665 22.2036 17.6666 23.4036 18.0666C24.4703 18.4666 25.537 18.9999 26.4703 19.6666C27.8036 20.4666 28.8703 21.5332 29.937 22.7332C30.2036 23.1332 30.4703 23.3999 30.737 23.7999C31.137 24.3332 31.4036 24.8666 31.8036 25.3999C34.337 29.9332 35.0036 35.5332 33.537 41.1332C32.2036 46.1999 28.737 55.5333 24.8703 66.8666C20.8703 78.1999 16.6036 91.3999 13.137 104.2C11.4036 110.6 9.80365 116.867 8.47031 122.733C7.13698 128.6 6.07031 133.933 5.13698 138.467C4.20365 143 3.67031 146.733 3.13698 149.4C2.73698 152.067 2.47031 153.533 2.47031 153.533C2.47031 153.533 2.60365 152.067 2.87031 149.533C3.13698 147 3.40365 143.267 3.67031 138.6C3.93698 134.067 4.20365 128.733 4.33698 122.867C4.47031 117 4.47031 110.6 4.33698 104.067C4.33698 100.733 4.20365 97.3999 4.07031 94.0666C3.93698 90.7332 3.80365 87.3999 3.53698 84.0666C3.13698 77.5332 2.60365 70.9999 2.20365 64.9999C1.13698 52.9999 0.0703125 42.7332 0.0703125 36.9999C0.0703125 31.1332 2.07031 25.9333 5.53698 22.1999C6.33698 21.2666 7.40365 20.4665 8.47031 19.7999Z" fill="#46B8E1"/>
</g>
</svg>
