<svg width="1440" height="909" viewBox="0 0 1440 909" fill="none" xmlns="http://www.w3.org/2000/svg">
<rect width="1440" height="909" fill="#E9FAFF"/>
<g opacity="0.4">
<path d="M10.5307 246.749C12.5307 252.216 15.0641 258.616 17.9974 265.683C20.9307 272.616 24.3974 280.083 28.1307 287.683C29.9974 291.416 31.9974 295.282 33.9974 299.149C35.0641 301.016 35.9974 302.882 37.0641 304.882C38.1307 306.749 39.1974 308.616 40.1307 310.482C44.3974 317.949 48.6641 325.016 52.7974 331.683C56.9307 338.216 60.6641 344.349 63.9974 349.549C67.1974 354.749 69.8641 359.149 71.4641 362.616C73.0641 365.949 73.8641 369.549 73.8641 373.149C73.8641 376.749 72.7974 380.349 71.0641 383.816C70.6641 384.616 70.1307 385.549 69.5974 386.349C69.0641 387.149 68.3974 387.949 67.8641 388.749C66.5307 390.216 65.0641 391.683 63.4641 393.016C61.8641 394.349 59.9974 395.416 57.9974 396.482C57.0641 397.016 55.9974 397.416 54.9307 397.816C53.8641 398.216 52.7974 398.616 51.5974 398.882C49.3307 399.549 47.0641 399.949 44.9307 400.083C42.6641 400.216 40.5307 400.216 38.3974 399.949C36.2641 399.683 34.2641 399.149 32.3974 398.482C30.5307 397.816 28.6641 397.016 27.0641 395.949C23.8641 393.949 21.1974 391.282 19.1974 388.216C17.3307 385.149 16.1307 381.683 15.7307 377.949C15.0641 371.283 15.5974 358.349 15.8641 343.016C15.8641 339.149 15.9974 335.149 15.9974 331.016C15.9974 326.883 15.9974 322.749 15.8641 318.349C15.7307 309.816 15.1974 301.016 14.6641 292.482C13.9974 283.949 13.0641 275.683 12.1307 268.083C11.0641 260.483 9.86406 253.549 8.7974 247.683C7.73073 241.816 6.66406 237.016 5.86406 233.683C5.06406 230.349 4.66406 228.482 4.66406 228.482C4.66406 228.482 5.1974 230.216 6.26406 233.416C7.06406 236.749 8.53073 241.283 10.5307 246.749Z" fill="#46B8E1"/>
<path d="M55.7349 272.349C53.8682 269.949 52.1349 267.416 50.1349 265.016C48.2682 262.482 46.4016 260.082 44.4016 257.682C40.5349 252.882 36.8016 248.349 33.2016 244.215C31.4682 242.082 29.7349 240.216 28.0016 238.349C26.4016 236.482 24.8016 234.749 23.3349 233.282C20.4016 230.216 18.0016 227.682 16.2682 225.949C14.5349 224.216 13.6016 223.282 13.6016 223.282C13.6016 223.282 14.6682 224.216 16.4016 225.682C18.1349 227.282 20.8016 229.549 24.0016 232.215C30.4016 237.549 39.4682 244.482 49.4682 251.416C59.3349 258.349 70.1349 265.149 79.7349 270.882C89.2016 276.615 97.3349 281.282 101.602 284.482C103.735 286.082 105.602 287.949 106.935 289.949C108.268 292.082 109.202 294.216 109.602 296.616C109.868 297.816 109.868 298.882 109.868 300.082C109.868 300.616 109.735 301.282 109.735 301.815C109.602 302.349 109.468 303.015 109.335 303.549C109.068 304.615 108.535 305.815 108.002 306.882C107.735 307.415 107.468 307.949 107.068 308.349C106.668 308.882 106.268 309.282 105.868 309.815C105.068 310.749 104.135 311.549 103.068 312.215C102.802 312.349 102.535 312.482 102.268 312.749C102.002 312.882 101.735 313.015 101.468 313.149C100.935 313.415 100.402 313.682 99.8682 313.815C97.6016 314.615 95.3349 314.882 92.9349 314.616C88.2682 314.082 83.7349 311.549 80.2682 307.416C77.2016 303.682 72.1349 296.082 65.8682 287.016C62.8016 282.216 59.3349 277.282 55.7349 272.349Z" fill="#46B8E1"/>
<path d="M135.334 174.349C132.667 178.349 128.267 181.149 123.067 182.216C118.401 183.283 109.201 184.216 98.2672 185.683C92.8005 186.349 86.9338 187.149 80.9338 188.216C74.9338 189.149 68.6672 190.216 62.6672 191.416C56.6672 192.616 50.8005 193.949 45.6005 195.149C40.2672 196.482 35.3339 197.816 31.2005 198.883C27.0672 200.083 23.7339 201.016 21.4672 201.816C19.2005 202.616 17.8672 203.016 17.8672 203.016C17.8672 203.016 19.0672 202.483 21.3339 201.683C22.4005 201.283 23.7339 200.749 25.3339 200.083C26.9339 199.416 28.6672 198.749 30.5339 197.949C38.2672 194.616 48.5338 189.816 59.3339 184.216C70.0005 178.616 81.0672 172.083 90.5338 166.349C100.001 160.483 107.867 155.416 112.667 153.016C117.467 150.616 122.667 149.949 127.201 151.416C131.734 152.749 135.467 156.083 137.201 160.883C137.601 162.083 137.867 163.283 138.001 164.483C138.001 165.016 138.134 165.683 138.134 166.216C138.134 166.749 138.001 167.416 138.001 167.949C137.467 170.216 136.667 172.349 135.334 174.349Z" fill="#46B8E1"/>
<path d="M79.9979 234.082C72.1312 230.749 64.2646 227.816 57.0646 225.282C49.8646 222.749 43.1979 220.615 37.4646 218.882C31.7312 217.149 26.9313 215.949 23.7313 215.149C20.3979 214.349 18.5312 213.815 18.5312 213.815C18.5312 213.815 20.3979 214.216 23.5979 214.749C25.1979 215.016 27.1979 215.282 29.5979 215.682C31.8646 216.082 34.5312 216.349 37.4646 216.749C43.1979 217.549 50.1312 218.216 57.7312 218.749C65.3312 219.282 73.4646 219.682 81.8646 219.815C86.1312 219.815 90.3979 219.815 94.6646 219.815C98.9313 219.815 103.331 219.682 107.598 219.416C116.131 219.016 124.398 218.482 132.265 217.949C147.865 216.749 160.798 215.282 168.265 215.549C171.998 215.682 175.598 216.616 178.798 218.349C181.998 220.082 184.665 222.482 186.931 225.682C187.465 226.482 187.998 227.282 188.531 228.082C188.931 228.882 189.465 229.816 189.865 230.749C190.665 232.616 191.198 234.616 191.731 236.616C192.131 238.616 192.265 240.882 192.265 243.016C192.265 244.082 192.265 245.282 192.131 246.349C191.998 247.416 191.865 248.615 191.598 249.815C191.065 252.082 190.398 254.349 189.598 256.349C188.665 258.349 187.598 260.349 186.398 262.082C185.198 263.816 183.865 265.416 182.398 266.749C180.931 268.082 179.331 269.282 177.731 270.349C174.398 272.349 170.931 273.549 167.331 273.815C163.731 274.082 160.131 273.549 156.665 272.215C150.398 269.815 139.198 263.282 125.598 256.082C122.265 254.216 118.665 252.349 114.931 250.482C111.331 248.615 107.465 246.749 103.598 244.882C95.8646 241.015 87.8646 237.282 79.9979 234.082Z" fill="#46B8E1"/>
<path d="M125.602 97.2824C120.535 101.816 109.868 108.883 97.3349 117.683C91.0682 122.083 84.2682 127.016 77.4682 132.216C74.1349 134.749 70.6682 137.549 67.3349 140.216C64.0016 142.882 60.6682 145.682 57.3349 148.482C50.8016 154.082 44.6682 159.549 39.2016 164.882C33.6016 170.216 28.6682 175.282 24.6682 179.549C22.6682 181.682 20.8016 183.682 19.2016 185.549C17.6016 187.282 16.2682 188.882 15.0682 190.216C12.8016 192.749 11.6016 194.216 11.6016 194.216C11.6016 194.216 12.6682 192.749 14.6682 190.083C16.6682 187.416 19.4682 183.549 22.6682 178.616C23.4682 177.416 24.4016 176.083 25.2016 174.749C26.1349 173.416 26.9349 172.082 27.8682 170.616C29.7349 167.816 31.6016 164.749 33.6016 161.416C35.6016 158.216 37.4682 154.749 39.4682 151.282C41.4682 147.682 43.4682 144.082 45.3349 140.349C49.2016 132.882 53.0682 125.016 56.5349 117.282C60.1349 109.549 63.3349 101.816 66.2682 94.6158C72.1349 80.2158 76.8016 67.8157 80.4016 61.4157C82.1349 58.0824 84.6682 55.4158 87.6016 53.2824C89.0682 52.2158 90.6682 51.4157 92.4016 50.7491C93.2016 50.3491 94.1349 50.0825 95.0682 49.8158C95.4682 49.6825 96.0016 49.5491 96.4016 49.4157C96.8016 49.2824 97.3349 49.2825 97.7349 49.1491C99.6016 48.8825 101.602 48.749 103.602 48.8824C104.668 48.8824 105.602 49.0158 106.668 49.2824C107.735 49.4158 108.668 49.6824 109.735 49.9491C111.735 50.4824 113.735 51.2825 115.735 52.3492C117.735 53.4158 119.602 54.6157 121.468 56.0824C122.402 56.7491 123.202 57.5492 124.002 58.3492C124.802 59.1492 125.602 59.949 126.268 60.8824C127.735 62.6157 128.935 64.349 130.002 66.2157C130.935 68.0824 131.735 69.9491 132.402 71.9491C132.935 73.8158 133.335 75.8158 133.468 77.6825C133.735 81.5492 133.202 85.1491 131.868 88.4825C130.535 91.6825 128.402 94.7491 125.602 97.2824Z" fill="#46B8E1"/>
<path d="M7.33333 66.8825C8.26667 66.2158 9.33333 65.6825 10.4 65.2825C11.4667 64.8825 12.6667 64.6159 13.8667 64.3493C15.0667 64.2159 16.2667 64.2159 17.4667 64.3493C18.6667 64.4826 19.8667 64.7492 21.0667 65.1492C22.1333 65.5492 23.0667 66.0825 24 66.6159C25.2 67.4159 26.2667 68.3492 27.2 69.4158C27.4667 69.6825 27.7333 70.0826 28 70.3493C28.4 70.8826 28.6667 71.2826 28.9333 71.8159C31.3333 75.9492 31.8667 81.1493 30.5333 86.3493C29.3333 91.0159 26.1333 99.6825 22.5333 110.083C18.9333 120.483 14.9333 132.616 11.7333 144.483C10.1333 150.349 8.66667 156.216 7.46667 161.549C6.26667 166.882 5.2 171.816 4.4 176.083C3.6 180.349 3.06667 183.816 2.66667 186.216C2.26667 188.616 2.13333 189.949 2.13333 189.949C2.13333 189.949 2.26667 188.616 2.53333 186.216C2.8 183.816 3.06667 180.349 3.33333 176.216C3.6 171.949 3.86667 167.149 3.86667 161.683C4 156.216 4 150.349 3.86667 144.349C3.86667 141.283 3.73333 138.216 3.6 135.149C3.46667 132.083 3.33333 129.016 3.2 125.949C2.8 119.816 2.4 113.949 1.86667 108.349C0.933334 97.2826 0 87.9492 0 82.6159C0 77.2825 1.73333 72.3493 5.06667 69.0159C5.46667 68.3493 6.4 67.5491 7.33333 66.8825Z" fill="#46B8E1"/>
</g>
</svg>
