<svg width="1440" height="800" viewBox="0 0 1440 800" fill="none" xmlns="http://www.w3.org/2000/svg">
<g clip-path="url(#clip0_285_6939)">
<rect width="1440" height="800" fill="white"/>
<path fill-rule="evenodd" clip-rule="evenodd" d="M102.727 790.61H142.478C180.987 790.61 259.248 790.61 337.509 735.596C415.77 680.583 494.031 570.557 572.292 578.861C650.553 586.126 728.814 712.761 807.074 728.33C885.335 743.9 963.596 649.444 1041.86 649.444C1120.12 649.444 1198.38 743.9 1276.64 720.027C1354.9 696.153 1433.16 554.987 1511.42 563.291C1589.68 570.557 1667.94 728.33 1746.2 735.596C1824.47 743.9 1902.73 602.734 1942.48 532.151L1980.99 460.53V885.066H1942.48C1902.73 885.066 1824.47 885.066 1746.2 885.066C1667.94 885.066 1589.68 885.066 1511.42 885.066C1433.16 885.066 1354.9 885.066 1276.64 885.066C1198.38 885.066 1120.12 885.066 1041.86 885.066C963.596 885.066 885.335 885.066 807.074 885.066C728.814 885.066 650.553 885.066 572.292 885.066C494.031 885.066 415.77 885.066 337.509 885.066C259.248 885.066 180.987 885.066 142.478 885.066H102.727V790.61Z" fill="#4DB8E0"/>
<g opacity="0.4">
<path d="M11.9396 255.132C14.0729 261.132 16.7396 268.066 20.0729 275.666C23.2729 283.266 27.0063 291.266 31.1396 299.532C33.1396 303.666 35.2729 307.799 37.5396 311.932C38.6063 313.932 39.8063 316.066 40.8729 318.066C41.9396 320.066 43.1396 322.066 44.3396 324.199C48.8729 332.199 53.5396 340.066 58.0729 347.266C62.6063 354.466 66.7396 360.999 70.2063 366.732C73.6729 372.466 76.6063 377.266 78.3396 380.866C80.0729 384.599 81.0063 388.466 80.8729 392.332C80.8729 396.199 79.8063 400.199 77.8063 403.799C77.2729 404.732 76.7396 405.666 76.2063 406.466C75.6729 407.399 75.0063 408.199 74.2063 408.999C72.7396 410.599 71.1396 412.199 69.4062 413.666C67.6729 415.132 65.5396 416.332 63.4062 417.399C62.3396 417.932 61.2729 418.466 60.0729 418.866C58.8729 419.266 57.6729 419.666 56.4729 420.066C54.0729 420.732 51.5396 421.132 49.1396 421.399C46.7396 421.532 44.3396 421.532 42.0729 421.266C39.8063 420.999 37.6729 420.466 35.5396 419.799C33.5396 419.132 31.5396 418.199 29.8063 417.132C26.2063 414.999 23.4062 412.066 21.2729 408.732C19.1396 405.399 17.9396 401.666 17.5396 397.666C16.8729 390.332 17.4062 376.466 17.6729 359.666C17.6729 355.532 17.8063 351.132 17.8063 346.599C17.8063 342.066 17.8063 337.532 17.6729 332.866C17.4062 323.532 17.0063 314.066 16.3396 304.732C15.6729 295.532 14.6062 286.466 13.5396 278.199C12.4729 269.932 11.1396 262.466 9.93958 256.066C8.73958 249.666 7.53958 244.466 6.73958 240.866C5.93958 237.266 5.40625 235.266 5.40625 235.266C5.40625 235.266 5.93958 237.266 7.13958 240.732C8.20625 244.199 9.80625 249.266 11.9396 255.132Z" fill="#46B8E1"/>
<path d="M61.0062 282.998C59.0062 280.332 57.0062 277.665 55.0062 274.998C53.0062 272.332 50.8729 269.665 48.8729 266.998C44.7396 261.798 40.6062 256.865 36.7396 252.332C34.7396 250.065 32.8729 247.932 31.1396 245.932C29.2729 243.932 27.6729 242.065 26.0729 240.332C22.8729 236.865 20.2062 234.198 18.3396 232.332C16.4729 230.465 15.4062 229.398 15.4062 229.398C15.4062 229.398 16.4729 230.332 18.4729 232.065C20.4729 233.798 23.2729 236.198 26.7396 239.132C33.6729 244.865 43.5396 252.465 54.3396 260.065C65.0062 267.532 76.8729 274.998 87.1396 281.265C97.4062 287.532 106.206 292.598 111.006 296.065C113.406 297.798 115.273 299.798 116.873 302.065C118.34 304.332 119.406 306.732 119.806 309.265C120.073 310.465 120.073 311.798 120.073 313.132C120.073 313.798 119.94 314.465 119.94 314.998C119.806 315.665 119.673 316.198 119.54 316.865C119.14 318.065 118.74 319.265 118.073 320.465C117.806 320.998 117.406 321.665 117.006 322.065C116.606 322.598 116.206 323.132 115.673 323.532C114.74 324.465 113.673 325.398 112.606 326.065C112.34 326.198 112.073 326.465 111.806 326.598C111.54 326.732 111.273 326.865 111.006 326.998C110.473 327.265 109.806 327.532 109.273 327.665C106.873 328.465 104.34 328.865 101.806 328.465C96.7396 327.932 91.8063 325.132 88.0729 320.598C84.7396 316.598 79.1396 308.332 72.3396 298.465C68.6062 293.665 64.8729 288.332 61.0062 282.998Z" fill="#46B8E1"/>
<path d="M147.539 176.465C144.606 180.732 139.939 183.798 134.206 184.998C129.139 186.198 119.139 187.265 107.272 188.732C101.272 189.532 95.0057 190.332 88.3391 191.398C81.8057 192.465 75.0057 193.665 68.4724 194.865C61.9391 196.198 55.6724 197.532 49.8057 198.998C43.9391 200.465 38.7391 201.798 34.2057 203.132C29.6724 204.332 26.0724 205.532 23.5391 206.332C21.0057 207.132 19.5391 207.532 19.5391 207.532C19.5391 207.532 20.8724 206.998 23.2724 206.065C24.4724 205.532 25.9391 204.998 27.6724 204.332C29.4057 203.665 31.2724 202.865 33.4057 201.932C41.8057 198.332 53.0057 193.132 64.6057 186.998C76.2057 180.865 88.2057 173.798 98.4724 167.532C108.739 161.265 117.272 155.665 122.472 153.132C127.672 150.465 133.406 149.798 138.206 151.398C143.139 152.865 147.272 156.465 149.006 161.665C149.406 162.998 149.672 164.198 149.806 165.532C149.939 166.198 149.939 166.865 149.939 167.398C149.939 168.065 149.806 168.732 149.806 169.265C149.939 171.932 149.006 174.332 147.539 176.465Z" fill="#46B8E1"/>
<path d="M87.4016 241.266C78.8682 237.666 70.3349 234.466 62.4682 231.666C54.6016 228.866 47.4016 226.599 41.1349 224.732C34.8682 222.866 29.8016 221.532 26.2016 220.599C22.6016 219.666 20.6016 219.266 20.6016 219.266C20.6016 219.266 22.6016 219.666 26.2016 220.199C27.9349 220.466 30.2016 220.866 32.7349 221.266C35.2682 221.666 38.0682 222.066 41.2682 222.466C47.5349 223.266 55.0016 224.066 63.2682 224.599C71.5349 225.266 80.3349 225.666 89.5349 225.799C94.0682 225.799 98.7349 225.799 103.535 225.799C108.202 225.799 112.868 225.666 117.535 225.399C126.735 224.999 135.802 224.466 144.335 223.799C161.268 222.466 175.402 220.999 183.535 221.266C187.668 221.399 191.402 222.466 195.002 224.199C198.468 226.066 201.402 228.732 203.802 232.066C204.468 232.866 205.002 233.799 205.535 234.732C206.068 235.666 206.468 236.599 206.868 237.666C207.668 239.666 208.335 241.799 208.868 244.066C209.268 246.332 209.535 248.599 209.535 251.132C209.535 252.332 209.535 253.532 209.402 254.732C209.268 255.932 209.002 257.132 208.735 258.466C208.202 260.999 207.535 263.266 206.602 265.532C205.668 267.799 204.468 269.799 203.135 271.666C201.935 273.532 200.335 275.266 198.735 276.732C197.135 278.199 195.402 279.532 193.668 280.599C190.068 282.732 186.202 284.066 182.335 284.332C178.468 284.732 174.468 284.066 170.735 282.599C163.935 279.932 151.802 272.999 137.002 264.999C133.268 262.999 129.402 260.999 125.535 258.999C121.535 256.999 117.402 254.866 113.268 252.866C104.602 248.866 95.9349 244.866 87.4016 241.266Z" fill="#46B8E1"/>
<path d="M137 92.5993C131.533 97.5327 119.933 105.133 106.2 114.866C99.4 119.666 91.9333 124.999 84.6 130.599C80.8667 133.399 77.1333 136.333 73.5333 139.266C69.8 142.199 66.2 145.266 62.7333 148.199C55.6667 154.199 49 160.199 43 166.066C37 171.799 31.6667 177.266 27.1333 182.066C24.8667 184.466 22.8667 186.599 21.1333 188.466C19.4 190.466 17.9333 192.066 16.7333 193.533C14.3333 196.333 13 197.933 13 197.933C13 197.933 14.2 196.333 16.3333 193.399C18.4667 190.466 21.5333 186.199 25.1333 180.999C26.0667 179.666 27 178.333 27.9333 176.866C28.8667 175.399 29.8 173.933 30.8667 172.333C32.8667 169.266 34.8667 165.933 37 162.333C39.1333 158.866 41.2667 155.133 43.4 151.266C45.5333 147.399 47.6667 143.399 49.8 139.399C54.0667 131.266 58.2 122.733 62.0667 114.333C65.9333 105.799 69.4 97.5327 72.6 89.666C79 74.066 84.0667 60.5994 87.9333 53.5327C89.9333 49.9327 92.4667 46.9993 95.6667 44.7326C97.2667 43.666 99 42.7327 100.867 41.9327C101.8 41.5327 102.733 41.266 103.8 40.9993C104.333 40.866 104.733 40.7327 105.267 40.5993C105.8 40.466 106.333 40.466 106.733 40.3327C108.733 40.066 110.867 39.9326 113.133 40.066C114.2 40.1993 115.267 40.1993 116.467 40.466C117.533 40.5993 118.6 40.866 119.8 41.266C121.933 41.9327 124.2 42.7326 126.333 43.7993C128.467 44.866 130.467 46.1993 132.467 47.7993C133.4 48.5993 134.333 49.3994 135.267 50.1994C136.2 51.1327 137 51.9327 137.667 52.866C139.267 54.7327 140.6 56.5993 141.667 58.5993C142.733 60.5993 143.667 62.7326 144.2 64.7326C144.867 66.866 145.267 68.866 145.4 70.9993C145.667 75.1327 145.133 79.1326 143.667 82.7326C142.333 86.5993 140.067 89.9327 137 92.5993Z" fill="#46B8E1"/>
<path d="M8.47031 59.7999C9.53698 59.1332 10.6036 58.5999 11.8036 58.0666C13.0036 57.6666 14.2036 57.2665 15.537 57.1332C16.8703 56.9999 18.2036 56.9999 19.537 57.1332C20.8703 57.2665 22.2036 57.6666 23.4036 58.0666C24.4703 58.4666 25.537 58.9999 26.4703 59.6666C27.8036 60.4666 28.8703 61.5332 29.937 62.7332C30.2036 63.1332 30.4703 63.3999 30.737 63.7999C31.137 64.3332 31.4036 64.8666 31.8036 65.3999C34.337 69.9332 35.0036 75.5332 33.537 81.1332C32.2036 86.1999 28.737 95.5333 24.8703 106.867C20.8703 118.2 16.6036 131.4 13.137 144.2C11.4036 150.6 9.80365 156.867 8.47031 162.733C7.13698 168.6 6.07031 173.933 5.13698 178.467C4.20365 183 3.67031 186.733 3.13698 189.4C2.73698 192.067 2.47031 193.533 2.47031 193.533C2.47031 193.533 2.60365 192.067 2.87031 189.533C3.13698 187 3.40365 183.267 3.67031 178.6C3.93698 174.067 4.20365 168.733 4.33698 162.867C4.47031 157 4.47031 150.6 4.33698 144.067C4.33698 140.733 4.20365 137.4 4.07031 134.067C3.93698 130.733 3.80365 127.4 3.53698 124.067C3.13698 117.533 2.60365 111 2.20365 105C1.13698 92.9999 0.0703125 82.7332 0.0703125 76.9999C0.0703125 71.1332 2.07031 65.9333 5.53698 62.1999C6.33698 61.2666 7.40365 60.4665 8.47031 59.7999Z" fill="#46B8E1"/>
</g>
<path fill-rule="evenodd" clip-rule="evenodd" d="M1465.4 2615.51V2559.86C1465.4 2505.94 1465.4 2396.38 1392.84 2286.81C1320.27 2177.25 1175.13 2067.68 1186.09 1958.12C1195.67 1848.55 1362.71 1738.99 1383.25 1629.42C1403.79 1519.86 1279.19 1410.29 1279.19 1300.73C1279.19 1191.16 1403.79 1081.6 1372.3 972.032C1340.81 862.466 1154.6 752.901 1165.55 643.336C1175.13 533.771 1383.25 424.206 1392.84 314.64C1403.79 205.075 1217.58 95.5098 1124.47 39.8577L1030 -14.0554H1590V39.8577C1590 95.5098 1590 205.075 1590 314.64C1590 424.206 1590 533.771 1590 643.336C1590 752.901 1590 862.466 1590 972.032C1590 1081.6 1590 1191.16 1590 1300.73C1590 1410.29 1590 1519.86 1590 1629.42C1590 1738.99 1590 1848.55 1590 1958.12C1590 2067.68 1590 2177.25 1590 2286.81C1590 2396.38 1590 2505.94 1590 2559.86V2615.51H1465.4Z" fill="#4DB8E0"/>
</g>
<defs>
<clipPath id="clip0_285_6939">
<rect width="1440" height="800" fill="white"/>
</clipPath>
</defs>
</svg>
