<svg width="375" height="880" viewBox="0 0 375 880" fill="none" xmlns="http://www.w3.org/2000/svg">
<g clip-path="url(#clip0_399_395)">
<rect width="375" height="880" fill="white"/>
<g clip-path="url(#clip1_399_395)">
<rect width="375" height="880" transform="translate(0.5)" fill="white"/>
<path fill-rule="evenodd" clip-rule="evenodd" d="M-179.5 841.951H-162.646C-146.318 841.951 -113.136 841.951 -79.954 818.626C-46.772 795.301 -13.59 748.65 19.592 752.171C52.774 755.252 85.956 808.944 119.138 815.545C152.32 822.147 185.502 782.098 218.684 782.098C251.866 782.098 285.048 822.147 318.23 812.024C351.412 801.902 384.594 742.049 417.776 745.57C450.958 748.65 484.14 815.545 517.322 818.626C550.504 822.147 583.686 762.293 600.54 732.367L616.868 702V882H600.54C583.686 882 550.504 882 517.322 882C484.14 882 450.958 882 417.776 882C384.594 882 351.412 882 318.23 882C285.048 882 251.866 882 218.684 882C185.502 882 152.32 882 119.138 882C85.956 882 52.774 882 19.592 882C-13.59 882 -46.772 882 -79.954 882C-113.136 882 -146.318 882 -162.646 882H-179.5V841.951Z" fill="#4DB8E0"/>
<path fill-rule="evenodd" clip-rule="evenodd" d="M397.21 882V863.376C397.21 845.333 397.21 808.667 372.925 772C348.64 735.333 300.07 698.667 303.736 662C306.943 625.333 362.845 588.667 369.718 552C376.591 515.333 334.894 478.667 334.894 442C334.894 405.333 376.591 368.667 366.052 332C355.513 295.333 293.197 258.667 296.863 222C300.07 185.333 369.718 148.667 372.925 112C376.591 75.3334 314.275 38.6667 283.116 20.0424L251.5 2H438.907V20.0424C438.907 38.6667 438.907 75.3334 438.907 112C438.907 148.667 438.907 185.333 438.907 222C438.907 258.667 438.907 295.333 438.907 332C438.907 368.667 438.907 405.333 438.907 442C438.907 478.667 438.907 515.333 438.907 552C438.907 588.667 438.907 625.333 438.907 662C438.907 698.667 438.907 735.333 438.907 772C438.907 808.667 438.907 845.333 438.907 863.376V882H397.21Z" fill="#4DB8E0"/>
</g>
<g opacity="0.4" clip-path="url(#clip2_399_395)">
<path d="M4.71385 89.1676C5.51385 91.3543 6.52719 93.9143 7.70052 96.7409C8.87385 99.5142 10.2605 102.501 11.7539 105.541C12.5005 107.034 13.3005 108.581 14.1005 110.128C14.5272 110.874 14.9005 111.621 15.3272 112.421C15.7539 113.168 16.1805 113.914 16.5539 114.661C18.2605 117.648 19.9672 120.474 21.6205 123.141C23.2739 125.754 24.7672 128.208 26.1005 130.288C27.3805 132.368 28.4472 134.128 29.0872 135.514C29.7272 136.848 30.0472 138.288 30.0472 139.728C30.0472 141.168 29.6205 142.608 28.9272 143.994C28.7672 144.314 28.5539 144.688 28.3405 145.008C28.1272 145.328 27.8605 145.648 27.6472 145.968C27.1139 146.554 26.5272 147.141 25.8872 147.674C25.2472 148.208 24.5005 148.634 23.7005 149.061C23.3272 149.274 22.9005 149.434 22.4739 149.594C22.0472 149.754 21.6205 149.914 21.1405 150.021C20.2339 150.288 19.3272 150.448 18.4739 150.501C17.5672 150.554 16.7139 150.554 15.8605 150.448C15.0072 150.341 14.2072 150.128 13.4605 149.861C12.7139 149.594 11.9672 149.274 11.3272 148.848C10.0472 148.048 8.98052 146.981 8.18052 145.754C7.43385 144.528 6.95385 143.141 6.79385 141.648C6.52719 138.981 6.74052 133.808 6.84719 127.674C6.84719 126.128 6.90052 124.528 6.90052 122.874C6.90052 121.221 6.90052 119.568 6.84719 117.808C6.79385 114.394 6.58052 110.874 6.36719 107.461C6.10052 104.048 5.72719 100.741 5.35385 97.7009C4.92719 94.6609 4.44719 91.8876 4.02052 89.5409C3.59385 87.1943 3.16719 85.2743 2.84719 83.9409C2.52719 82.6076 2.36719 81.8608 2.36719 81.8608C2.36719 81.8608 2.58052 82.5543 3.00719 83.8343C3.32719 85.1676 3.91385 86.9809 4.71385 89.1676Z" fill="#46B8E1"/>
<path d="M22.7908 99.4075C22.0442 98.4475 21.3508 97.4341 20.5508 96.4741C19.8042 95.4608 19.0575 94.5008 18.2575 93.5408C16.7108 91.6208 15.2175 89.8074 13.7775 88.1541C13.0842 87.3007 12.3908 86.5541 11.6975 85.8075C11.0575 85.0608 10.4175 84.3674 9.83083 83.7808C8.6575 82.5541 7.6975 81.5408 7.00417 80.8474C6.31083 80.1541 5.9375 79.7808 5.9375 79.7808C5.9375 79.7808 6.36417 80.1541 7.0575 80.7408C7.75083 81.3808 8.8175 82.2874 10.0975 83.3541C12.6575 85.4874 16.2842 88.2608 20.2842 91.0341C24.2308 93.8075 28.5508 96.5274 32.3908 98.8207C36.1775 101.114 39.4308 102.981 41.1375 104.261C41.9908 104.901 42.7375 105.647 43.2708 106.447C43.8042 107.301 44.1775 108.154 44.3375 109.114C44.4442 109.594 44.4442 110.021 44.4442 110.501C44.4442 110.714 44.3908 110.981 44.3908 111.194C44.3375 111.407 44.2842 111.674 44.2308 111.887C44.1242 112.314 43.9108 112.794 43.6975 113.221C43.5908 113.434 43.4842 113.647 43.3242 113.807C43.1642 114.021 43.0042 114.181 42.8442 114.394C42.5242 114.767 42.1508 115.087 41.7242 115.354C41.6175 115.407 41.5108 115.461 41.4042 115.567C41.2975 115.621 41.1908 115.674 41.0842 115.727C40.8708 115.834 40.6575 115.941 40.4442 115.994C39.5375 116.314 38.6308 116.421 37.6708 116.314C35.8042 116.101 33.9908 115.087 32.6042 113.434C31.3775 111.941 29.3508 108.901 26.8442 105.274C25.6175 103.354 24.2308 101.381 22.7908 99.4075Z" fill="#46B8E1"/>
<path d="M54.6351 60.2078C53.5684 61.8078 51.8084 62.9277 49.7284 63.3544C47.8618 63.7811 44.1818 64.1545 39.8084 64.7411C37.6218 65.0078 35.2751 65.3277 32.8751 65.7544C30.4751 66.1277 27.9684 66.5545 25.5684 67.0345C23.1684 67.5145 20.8218 68.0477 18.7418 68.5277C16.6084 69.061 14.6351 69.5944 12.9818 70.0211C11.3284 70.5011 9.9951 70.8744 9.08844 71.1944C8.18177 71.5144 7.64844 71.6745 7.64844 71.6745C7.64844 71.6745 8.12844 71.4611 9.0351 71.1411C9.46177 70.9811 9.9951 70.7678 10.6351 70.5012C11.2751 70.2345 11.9684 69.9678 12.7151 69.6478C15.8084 68.3144 19.9151 66.3944 24.2351 64.1544C28.5018 61.9144 32.9284 59.3011 36.7151 57.0078C40.5018 54.6611 43.6484 52.6345 45.5684 51.6745C47.4884 50.7145 49.5684 50.4478 51.3818 51.0344C53.1951 51.5678 54.6884 52.9011 55.3818 54.8211C55.5418 55.3011 55.6484 55.7811 55.7018 56.2611C55.7018 56.4744 55.7551 56.7411 55.7551 56.9544C55.7551 57.1677 55.7018 57.4344 55.7018 57.6478C55.4884 58.5544 55.1684 59.4078 54.6351 60.2078Z" fill="#46B8E1"/>
<path d="M32.5007 84.1009C29.3541 82.7676 26.2074 81.5942 23.3274 80.5809C20.4474 79.5675 17.7807 78.7142 15.4874 78.0208C13.1941 77.3275 11.2741 76.8475 9.99406 76.5275C8.66073 76.2075 7.91406 75.9941 7.91406 75.9941C7.91406 75.9941 8.66073 76.1542 9.94073 76.3676C10.5807 76.4742 11.3807 76.5809 12.3407 76.7409C13.2474 76.9009 14.3141 77.0076 15.4874 77.1676C17.7807 77.4876 20.5541 77.7542 23.5941 77.9676C26.6341 78.1809 29.8874 78.3408 33.2474 78.3941C34.9541 78.3941 36.6607 78.3941 38.3674 78.3941C40.0741 78.3941 41.8341 78.3409 43.5407 78.2342C46.9541 78.0742 50.2607 77.8609 53.4074 77.6475C59.6474 77.1675 64.8207 76.5808 67.8074 76.6875C69.3007 76.7408 70.7407 77.1142 72.0207 77.8076C73.3007 78.5009 74.3674 79.4609 75.2741 80.7409C75.4874 81.0609 75.7007 81.3809 75.9141 81.7009C76.0741 82.0209 76.2874 82.3942 76.4474 82.7676C76.7674 83.5142 76.9807 84.3142 77.1941 85.1142C77.3541 85.9142 77.4074 86.8209 77.4074 87.6742C77.4074 88.1009 77.4074 88.5809 77.3541 89.0076C77.3007 89.4342 77.2474 89.9141 77.1407 90.3941C76.9274 91.3008 76.6607 92.2076 76.3407 93.0076C75.9674 93.8076 75.5407 94.6076 75.0607 95.3009C74.5807 95.9942 74.0474 96.6342 73.4607 97.1676C72.8741 97.7009 72.2341 98.1809 71.5941 98.6076C70.2607 99.4076 68.8741 99.8875 67.4341 99.9941C65.9941 100.101 64.5541 99.8875 63.1674 99.3542C60.6607 98.3942 56.1807 95.7809 50.7407 92.9009C49.4074 92.1542 47.9674 91.4075 46.4741 90.6608C45.0341 89.9141 43.4874 89.1675 41.9407 88.4208C38.8474 86.8742 35.6474 85.3809 32.5007 84.1009Z" fill="#46B8E1"/>
<path d="M50.7406 29.3809C48.714 31.1943 44.4473 34.021 39.434 37.541C36.9273 39.301 34.2073 41.2742 31.4873 43.3542C30.154 44.3676 28.7673 45.4876 27.434 46.5542C26.1006 47.6209 24.7673 48.741 23.434 49.861C20.8206 52.101 18.3673 54.2876 16.1806 56.4209C13.9406 58.5542 11.9673 60.5809 10.3673 62.2876C9.56729 63.1409 8.82063 63.9409 8.18062 64.6876C7.54063 65.3809 7.00729 66.0209 6.52729 66.5542C5.62063 67.5676 5.14062 68.1542 5.14062 68.1542C5.14062 68.1542 5.56729 67.5677 6.36729 66.501C7.16729 65.4343 8.28729 63.8876 9.56729 61.9143C9.88729 61.4343 10.2606 60.901 10.5806 60.3677C10.954 59.8343 11.274 59.3009 11.6473 58.7143C12.394 57.5943 13.1406 56.3676 13.9406 55.0343C14.7406 53.7543 15.4873 52.3676 16.2873 50.9809C17.0873 49.5409 17.8873 48.101 18.634 46.6076C20.1806 43.621 21.7273 40.4743 23.114 37.3809C24.554 34.2876 25.834 31.1943 27.0073 28.3143C29.354 22.5543 31.2206 17.5943 32.6606 15.0343C33.354 13.7009 34.3673 12.6343 35.5406 11.7809C36.1273 11.3543 36.7673 11.0343 37.4606 10.7676C37.7806 10.6076 38.154 10.501 38.5273 10.3943C38.6873 10.341 38.9006 10.2876 39.0606 10.2343C39.2206 10.1809 39.434 10.181 39.594 10.1276C40.3406 10.021 41.1406 9.96758 41.9406 10.0209C42.3673 10.0209 42.7406 10.0743 43.1673 10.1809C43.594 10.2343 43.9673 10.3409 44.394 10.4476C45.194 10.6609 45.994 10.981 46.794 11.4076C47.594 11.8343 48.3406 12.3143 49.0873 12.9009C49.4606 13.1676 49.7806 13.4876 50.1006 13.8076C50.4206 14.1276 50.7406 14.4476 51.0073 14.8209C51.594 15.5142 52.074 16.2076 52.5006 16.9542C52.874 17.7009 53.194 18.4476 53.4606 19.2476C53.674 19.9943 53.834 20.7943 53.8873 21.541C53.994 23.0876 53.7806 24.5276 53.2473 25.861C52.714 27.141 51.8606 28.3676 50.7406 29.3809Z" fill="#46B8E1"/>
<path d="M3.43333 17.2208C3.80667 16.9541 4.23333 16.7408 4.66 16.5808C5.08667 16.4208 5.56667 16.3141 6.04667 16.2075C6.52667 16.1541 7.00667 16.1541 7.48667 16.2075C7.96667 16.2608 8.44667 16.3675 8.92667 16.5275C9.35333 16.6875 9.72667 16.9008 10.1 17.1141C10.58 17.4341 11.0067 17.8074 11.38 18.2341C11.4867 18.3408 11.5933 18.5008 11.7 18.6075C11.86 18.8208 11.9667 18.9808 12.0733 19.1941C13.0333 20.8475 13.2467 22.9275 12.7133 25.0075C12.2333 26.8741 10.9533 30.3408 9.51333 34.5008C8.07333 38.6608 6.47333 43.5141 5.19333 48.2608C4.55333 50.6075 3.96667 52.9541 3.48667 55.0874C3.00667 57.2208 2.58 59.1942 2.26 60.9008C1.94 62.6075 1.72667 63.9941 1.56667 64.9541C1.40667 65.9141 1.35333 66.4474 1.35333 66.4474C1.35333 66.4474 1.40667 65.9141 1.51333 64.9541C1.62 63.9941 1.72667 62.6074 1.83333 60.9541C1.94 59.2474 2.04667 57.3275 2.04667 55.1408C2.1 52.9541 2.1 50.6075 2.04667 48.2075C2.04667 46.9808 1.99333 45.7541 1.94 44.5275C1.88667 43.3008 1.83333 42.0741 1.78 40.8475C1.62 38.3941 1.46 36.0475 1.24667 33.8075C0.873333 29.3808 0.5 25.6475 0.5 23.5141C0.5 21.3808 1.19333 19.4075 2.52667 18.0741C2.68667 17.8075 3.06 17.4874 3.43333 17.2208Z" fill="#46B8E1"/>
</g>
</g>
<defs>
<clipPath id="clip0_399_395">
<rect width="375" height="880" fill="white"/>
</clipPath>
<clipPath id="clip1_399_395">
<rect width="375" height="880" fill="white" transform="translate(0.5)"/>
</clipPath>
<clipPath id="clip2_399_395">
<rect width="76.9058" height="140.536" fill="white" transform="translate(0.5 10)"/>
</clipPath>
</defs>
</svg>
